<svg width="28" height="33" viewBox="0 0 28 33" fill="none" xmlns="http://www.w3.org/2000/svg">
<path d="M22.6414 30.96C20.8856 32.6621 18.9685 32.3933 17.1231 31.5871C15.1702 30.7629 13.3785 30.7271 11.3181 31.5871C8.7381 32.6979 7.37643 32.3754 5.8356 30.96C-2.90774 21.9479 -1.61773 8.22375 8.3081 7.72208C10.7268 7.8475 12.411 9.04792 13.8264 9.15542C15.9406 8.72542 17.9652 7.48917 20.2227 7.65042C22.9281 7.86542 24.9706 8.94042 26.3144 10.8754C20.7243 14.2258 22.0502 21.5896 27.1743 23.65C26.1531 26.3375 24.8273 29.0071 22.6235 30.9779L22.6414 30.96ZM13.6473 7.61458C13.3785 3.61917 16.6214 0.3225 20.3481 0C20.8677 4.6225 16.1556 8.0625 13.6473 7.61458Z" fill="#33373A"/>
</svg>
