<svg width="24" height="24" viewBox="0 0 24 24" fill="none" xmlns="http://www.w3.org/2000/svg">
<path d="M20.0355 17.7439C19.6716 17.7005 19.3656 17.5367 19.0379 17.2114C18.8547 17.0282 18.6957 16.8427 18.539 16.6643C18.1438 16.2065 17.7366 15.7317 16.9148 15.2546L16.8715 15.1341C17.7703 14.7124 18.5872 14.1413 19.2981 13.4304C21.3296 11.4086 22.214 8.51444 21.6067 5.87814C21.5754 5.74319 21.4693 5.63716 21.3344 5.60824C19.515 5.18894 17.5197 5.47089 15.7967 6.38178C15.0665 4.59372 13.811 3.08279 12.2326 2.09719C12.1145 2.0249 11.9676 2.0249 11.8495 2.09719C10.2638 3.0852 9.00593 4.59613 8.27576 6.38178C6.55277 5.47089 4.55747 5.18894 2.73808 5.60824C2.60313 5.63957 2.4971 5.7456 2.46577 5.87814C1.85851 8.51444 2.7429 11.4086 4.77435 13.4304C5.49005 14.1437 6.30456 14.7124 7.201 15.1293C7.19136 15.1558 7.18172 15.1823 7.17208 15.2112C7.16726 15.2257 7.16244 15.2377 7.15762 15.2522C6.33589 15.7293 5.93104 16.2017 5.53584 16.6595C5.38161 16.8402 5.22016 17.0258 5.03701 17.2089C4.70928 17.5343 4.40083 17.7005 4.03936 17.7415C3.84176 17.7656 3.69958 17.9439 3.72368 18.1439C3.74537 18.3271 3.90201 18.462 4.08274 18.462C4.01768 18.544 3.95984 18.6307 3.91165 18.7247C3.59837 19.3392 3.68272 20.1657 4.12371 20.7826C4.58156 21.4237 5.26835 21.7152 5.76477 21.8478C6.25155 21.9779 6.79616 22.043 7.39378 22.043C8.69025 22.043 10.2446 21.7369 12.0374 21.1297C13.8303 21.7369 15.3846 22.043 16.6811 22.043C17.2787 22.043 17.8209 21.9779 18.3101 21.8478C18.8065 21.7152 19.4933 21.4237 19.9512 20.7826C20.3922 20.1657 20.4765 19.3392 20.1632 18.7247C20.115 18.6307 20.0572 18.5464 19.9921 18.462C19.9921 18.462 19.9921 18.462 19.9945 18.462C20.1753 18.462 20.3319 18.3271 20.3536 18.1439C20.3753 17.9463 20.2331 17.768 20.0355 17.7439ZM12.0447 2.83217C13.5122 3.80814 14.6521 5.28533 15.2738 7.02038C15.4256 7.44209 15.5461 7.89272 15.6352 8.35781C15.7461 8.90483 15.8015 9.4904 15.8015 10.0977C15.8015 10.4158 15.775 10.7555 15.7268 11.117C15.681 11.0568 15.6328 10.9989 15.5798 10.9459C15.2738 10.6447 14.9605 10.4784 14.4304 10.3338C14.3075 10.3001 14.187 10.276 14.0689 10.2495C13.4688 10.1218 13.2399 10.0712 13.2327 9.38438C13.7002 8.85663 13.9942 8.0614 13.9942 7.31437C13.9942 6.15767 13.2279 5.41064 12.0423 5.41064C10.8566 5.41064 10.0903 6.15767 10.0903 7.31437C10.0903 8.05899 10.3819 8.85422 10.8518 9.38438C10.8446 10.0712 10.6157 10.1218 10.0156 10.2495C9.89755 10.2736 9.77465 10.3001 9.65175 10.3338C9.1216 10.4784 8.81074 10.6423 8.49746 10.9507C8.44204 11.0062 8.39143 11.0664 8.34324 11.1315C8.30468 10.7893 8.28299 10.4447 8.28299 10.0977C8.28299 9.52173 8.33842 8.93374 8.44445 8.35299C8.5312 7.89754 8.6541 7.44691 8.81074 7.02038C9.42523 5.29015 10.5723 3.81295 12.0447 2.83217ZM10.8109 7.31919C10.8109 6.29262 11.582 6.1384 12.0398 6.1384C12.4977 6.1384 13.2688 6.29262 13.2688 7.31919C13.2688 8.26864 12.6375 9.27111 12.0398 9.27111C11.4422 9.27111 10.8109 8.26864 10.8109 7.31919ZM19.3632 20.3633C19.1029 20.7272 18.6643 21.0068 18.1245 21.1489C16.7004 21.5273 14.8376 21.2116 13.1724 20.7272C13.8448 20.5007 14.7171 20.2959 15.5389 20.4742C15.734 20.5152 15.9268 20.3947 15.9702 20.1995C16.0136 20.0043 15.8907 19.8115 15.6955 19.7681C14.5436 19.5151 13.3676 19.8742 12.5845 20.1682C12.4085 20.2332 12.2254 20.2983 12.0398 20.3633C11.8543 20.2983 11.6711 20.2332 11.4952 20.1682C10.7121 19.8766 9.53608 19.5175 8.3842 19.7681C8.18901 19.8115 8.06611 20.0043 8.10949 20.1995C8.15286 20.3947 8.34565 20.5176 8.54084 20.4742C9.21076 20.3272 9.95056 20.4067 10.9072 20.7272C9.24209 21.2116 7.37932 21.5273 5.95755 21.1489C5.41776 21.0044 4.97918 20.7272 4.71892 20.3633C4.43698 19.9681 4.37191 19.4308 4.56229 19.0572C4.79604 18.6018 5.33342 18.4162 5.75754 18.3946C6.26841 18.3705 6.7817 18.515 7.3239 18.6717L7.40101 18.6934C8.0372 18.8765 8.66133 19.0331 9.31197 18.9488C9.41318 18.9368 9.50475 18.8813 9.56259 18.797C10.2566 17.7993 10.5361 16.7776 10.4157 15.6787C10.3675 15.245 10.2928 14.8715 10.2229 14.51C10.1217 14.0015 10.0277 13.5196 10.0204 12.9316C10.018 12.734 9.85658 12.5749 9.65898 12.5749C9.65898 12.5749 9.65657 12.5749 9.65416 12.5749C9.45415 12.5773 9.2951 12.7412 9.29751 12.9412C9.30474 13.5943 9.41077 14.1316 9.51439 14.6522C9.58187 14.9992 9.65416 15.3582 9.69754 15.7607C9.79393 16.6426 9.59392 17.4379 9.06376 18.25C8.59627 18.2717 8.10467 18.1463 7.60102 18.0018L7.52632 17.9801C6.95038 17.8138 6.35276 17.6427 5.7238 17.6764C5.67802 17.6788 5.63464 17.6861 5.59126 17.6909C5.77923 17.5005 5.94068 17.315 6.0925 17.1366C6.48047 16.686 6.84676 16.2595 7.63476 15.8233C7.70946 15.7824 7.7673 15.7149 7.79863 15.6329C7.82272 15.5703 7.84441 15.5076 7.86128 15.457C7.90948 15.3269 7.95526 15.1944 7.99864 15.0642C7.99864 15.0618 8.00105 15.0618 8.00105 15.0594C8.19624 14.4955 8.4083 13.8256 8.51192 13.1171C8.5312 12.9894 8.54566 12.8617 8.56253 12.734L8.58422 12.5581C8.60349 12.4159 8.62518 12.2882 8.65169 12.1749C8.72398 11.8689 8.84447 11.6327 9.01075 11.4664C9.22522 11.2544 9.42764 11.1507 9.83971 11.0399C9.95056 11.011 10.059 10.9869 10.165 10.9652C10.6952 10.8519 11.3314 10.7146 11.5193 9.89043C11.6856 9.96031 11.8591 10.0013 12.0423 10.0013C12.2254 10.0013 12.3989 9.96031 12.5652 9.89043C12.7507 10.7146 13.3893 10.8543 13.9195 10.9652C14.0255 10.9869 14.1364 11.011 14.2448 11.0399C14.6569 11.1507 14.8593 11.2568 15.081 11.4737C15.2424 11.6327 15.3581 11.864 15.4328 12.1749C15.4569 12.2761 15.4738 12.3749 15.4907 12.4785C15.4907 12.4809 15.4907 12.4834 15.4907 12.4834C15.5075 12.5942 15.522 12.7051 15.534 12.8183C15.5461 12.9195 15.5581 13.0183 15.5726 13.1171C15.6714 13.8039 15.8762 14.457 16.0811 15.0618V15.0642V15.0666L16.2835 15.6329C16.3148 15.7125 16.3726 15.7799 16.4473 15.8233C17.2378 16.2595 17.604 16.686 17.9944 17.1391C18.1486 17.3174 18.3077 17.5029 18.4957 17.6909C18.4499 17.6861 18.4065 17.6788 18.3631 17.6764C17.7293 17.6427 17.1365 17.8162 16.5606 17.9801L16.4859 18.0018C15.9823 18.1463 15.4907 18.2717 15.0256 18.25C14.5364 17.4644 14.2834 16.327 14.3918 15.363C14.4376 14.9389 14.5147 14.6425 14.587 14.3558C14.6882 13.9533 14.7846 13.575 14.7918 12.9412C14.7942 12.7412 14.6328 12.5773 14.4352 12.5749C14.4328 12.5749 14.4328 12.5749 14.4304 12.5749C14.2327 12.5749 14.0713 12.734 14.0689 12.9316C14.0617 13.4786 13.9797 13.8015 13.8857 14.1774C13.811 14.4738 13.7267 14.8088 13.6737 15.2811C13.5411 16.4836 13.8737 17.8644 14.5243 18.797C14.5822 18.8813 14.6737 18.9368 14.775 18.9488C15.4256 19.0331 16.0497 18.8741 16.6859 18.6934L16.7606 18.6717C17.3028 18.515 17.8185 18.368 18.327 18.3946C18.7511 18.4162 19.2909 18.6018 19.5222 19.0572C19.7102 19.4284 19.6451 19.9657 19.3632 20.3633Z" fill="#303030"/>
</svg>
