<svg width="15" height="20" viewBox="0 0 15 20" fill="none" xmlns="http://www.w3.org/2000/svg">
<path d="M7.21471 5.75847C8.80192 5.75847 10.0923 4.46805 10.0923 2.8808C10.0923 1.29042 8.80192 0 7.21471 0C5.62749 0 4.3371 1.29042 4.3371 2.87767C4.3371 4.46493 5.62749 5.75847 7.21471 5.75847ZM1.95316 12.923H4.76828C6.61169 12.8355 6.93663 11.6888 6.96788 11.5544C6.98975 11.4388 7.08973 11.3576 7.21158 11.3576C7.33031 11.3576 7.43029 11.4388 7.45529 11.5576C7.45841 11.5701 7.73649 12.8324 9.67051 12.923H12.47C12.8137 12.923 13.0824 12.6543 13.0824 12.3106V10.1172C13.1355 7.6863 9.28933 7.14576 7.63338 7.02702L7.54277 7.02078L8.48635 10.1922L11.114 10.967C11.2452 11.0077 11.3202 11.1451 11.2827 11.2764C11.2629 11.339 11.2197 11.3915 11.162 11.423C11.1043 11.4544 11.0368 11.4623 10.9734 11.4451L8.21452 10.6296C8.17528 10.618 8.13955 10.5968 8.11062 10.5679C8.08169 10.539 8.06048 10.5032 8.04893 10.464L7.19596 7.60506L5.92119 10.5265C5.89307 10.589 5.83996 10.639 5.77434 10.664L3.44664 11.4451C3.4279 11.4513 3.4029 11.4576 3.37166 11.4576C3.26542 11.4576 3.17169 11.3888 3.13732 11.2889C3.11545 11.2264 3.11858 11.1576 3.14982 11.0983C3.18106 11.0389 3.23106 10.9952 3.29354 10.9764L5.51189 10.2328L6.91164 7.0239L6.80853 7.03015C5.14633 7.14576 1.28141 7.68005 1.33453 10.1109V12.3168C1.3439 12.648 1.61885 12.923 1.95316 12.923ZM13.726 16.6005C13.3636 16.3037 12.9199 16.1412 12.42 16.1225L12.3825 16.1194C12.2263 16.1194 12.0669 16.135 11.9045 16.1693L9.16435 16.9255L9.35494 16.9911C10.2204 17.2879 10.7484 17.9441 10.7359 18.7033C10.7266 19.1595 10.5266 19.5688 10.1579 19.8875L10.0267 19.9969H12.3544C13.5011 19.9969 14.4321 19.1283 14.4321 18.0597C14.4353 17.5004 14.1759 16.9692 13.726 16.6005Z" fill="#303030"/>
<path d="M8.97649 17.4004C8.70154 17.3347 8.4016 17.2754 8.07666 17.2223L7.91106 17.1941H7.90794C7.89231 17.191 7.87982 17.1879 7.85795 17.1816L2.31833 16.1131C2.23397 16.0974 2.15273 16.0849 2.05588 16.0787C2.04025 16.0787 2.02151 16.0756 2.00276 16.0724L1.99651 16.0693H1.97152C1.91528 16.0662 1.85904 16.0631 1.80592 16.0631C1.33413 16.0631 0.915459 16.2005 0.603015 16.463C0.209337 16.7911 0 17.2816 0 17.8878C0 19.0532 0.946703 20 2.11212 20H8.45159C8.46096 20 8.66092 19.9843 8.92963 19.9312C9.71386 19.775 10.2263 19.2938 10.2419 18.697C10.2481 18.094 9.75448 17.5878 8.97649 17.4004ZM9.66387 13.4197C8.28599 13.3572 7.59862 12.7698 7.2643 12.2918L7.21431 12.2168L7.16432 12.2918C6.83313 12.7698 6.15201 13.3572 4.7835 13.4197H3.77431V14.5383C3.77431 14.607 3.74307 14.6758 3.68995 14.7258L2.6214 15.66L7.94543 16.9692L8.00167 16.9786L8.02042 16.9848L11.8228 15.6756L10.7387 14.7258C10.7124 14.702 10.6914 14.6731 10.6769 14.6409C10.6623 14.6086 10.6547 14.5737 10.6543 14.5383V13.4197H9.66387Z" fill="#303030"/>
</svg>
