<svg width="24" height="24" viewBox="0 0 24 24" fill="none" xmlns="http://www.w3.org/2000/svg">
<path d="M11.9989 7.75815C13.5861 7.75815 14.8765 6.4678 14.8765 4.88064C14.8765 3.29035 13.5861 2 11.9989 2C10.4117 2 9.1213 3.29035 9.1213 4.87751C9.1213 6.46468 10.4117 7.75815 11.9989 7.75815ZM6.73735 14.9223H9.55247C11.3959 14.8348 11.7208 13.6881 11.7521 13.5538C11.774 13.4382 11.8739 13.357 11.9958 13.357C12.1145 13.357 12.2145 13.4382 12.2395 13.5569C12.2426 13.5694 12.5207 14.8316 14.4547 14.9223H17.2542C17.5979 14.9223 17.8666 14.6536 17.8666 14.3099V12.1166C17.9197 9.68587 14.0735 9.14536 12.4176 9.02663L12.327 9.02038L13.2706 12.1916L15.8982 12.9664C16.0294 13.007 16.1044 13.1445 16.0669 13.2757C16.0471 13.3383 16.0039 13.3909 15.9462 13.4223C15.8886 13.4538 15.821 13.4617 15.7576 13.4444L12.9987 12.629C12.9595 12.6174 12.9238 12.5962 12.8948 12.5673C12.8659 12.5384 12.8447 12.5026 12.8331 12.4634L11.9802 9.60463L10.7054 12.5259C10.6773 12.5884 10.6242 12.6384 10.5585 12.6634L8.23083 13.4444C8.21208 13.4507 8.18709 13.4569 8.15584 13.4569C8.04961 13.4569 7.95588 13.3882 7.92151 13.2882C7.89964 13.2257 7.90276 13.157 7.93401 13.0976C7.96525 13.0383 8.01524 12.9945 8.07773 12.9758L10.2961 12.2322L11.6958 9.02351L11.5927 9.02976C9.93053 9.14536 6.06559 9.67962 6.11871 12.1104V14.3161C6.12808 14.6473 6.40303 14.9223 6.73735 14.9223ZM18.5103 18.5996C18.1478 18.3028 17.7041 18.1403 17.2042 18.1216L17.1667 18.1185C17.0105 18.1185 16.8512 18.1341 16.6887 18.1684L13.9486 18.9245L14.1392 18.9901C15.0046 19.287 15.5327 19.9431 15.5202 20.7023C15.5108 21.1584 15.3108 21.5677 14.9421 21.8864L14.8109 21.9958H17.1386C18.2853 21.9958 19.2164 21.1272 19.2164 20.0587C19.2195 19.4994 18.9602 18.9683 18.5103 18.5996Z" fill="#9C6B00"/>
<path d="M13.7607 19.402C13.4858 19.3364 13.1858 19.277 12.8609 19.2239L12.6953 19.1958H12.6922C12.6765 19.1927 12.664 19.1896 12.6422 19.1833L7.10252 18.1148C7.01816 18.0992 6.93692 18.0867 6.84006 18.0804C6.82444 18.0804 6.8057 18.0773 6.78695 18.0742L6.7807 18.0711H6.7557C6.69946 18.0679 6.64322 18.0648 6.59011 18.0648C6.11832 18.0648 5.69964 18.2023 5.3872 18.4647C4.99352 18.7928 4.78418 19.2833 4.78418 19.8894C4.78418 21.0548 5.73089 22.0015 6.8963 22.0015H13.2358C13.2452 22.0015 13.4451 21.9858 13.7138 21.9327C14.4981 21.7765 15.0105 21.2954 15.0261 20.6986C15.0324 20.0956 14.5387 19.5895 13.7607 19.402ZM14.4481 15.4216C13.0702 15.3591 12.3828 14.7718 12.0485 14.2937L11.9985 14.2188L11.9485 14.2937C11.6173 14.7718 10.9362 15.3591 9.56771 15.4216H8.55851V16.5401C8.55851 16.6089 8.52727 16.6776 8.47415 16.7276L7.40559 17.6618L12.7296 18.9709L12.7859 18.9802L12.8046 18.9865L16.6071 17.6774L15.5229 16.7276C15.4967 16.7039 15.4756 16.675 15.4611 16.6427C15.4466 16.6104 15.4389 16.5755 15.4385 16.5401V15.4216H14.4481Z" fill="#9C6B00"/>
</svg>
