<svg width="20" height="20" viewBox="0 0 20 20" fill="none" xmlns="http://www.w3.org/2000/svg">
<path d="M17.7582 15.7009C17.3943 15.6576 17.0882 15.4937 16.7605 15.1684C16.5774 14.9852 16.4183 14.7997 16.2617 14.6214C15.8665 14.1635 15.4592 13.6888 14.6375 13.2116L14.5941 13.0911C15.493 12.6694 16.3099 12.0983 17.0208 11.3874C19.0522 9.36562 19.9366 6.47147 19.3293 3.83517C19.298 3.70022 19.192 3.59419 19.057 3.56527C17.2377 3.14597 15.2423 3.42792 13.5194 4.33882C12.7892 2.55076 11.5337 1.03982 9.95529 0.0542201C9.8372 -0.0180734 9.69021 -0.0180734 9.57213 0.0542201C7.98649 1.04223 6.72858 2.55317 5.99842 4.33882C4.27542 3.42792 2.28012 3.14597 0.460736 3.56527C0.325789 3.5966 0.219758 3.70263 0.188431 3.83517C-0.418834 6.47147 0.465556 9.36562 2.497 11.3874C3.21271 12.1007 4.02722 12.6694 4.92366 13.0863C4.91402 13.1128 4.90438 13.1393 4.89474 13.1683C4.88992 13.1827 4.8851 13.1948 4.88028 13.2092C4.05854 13.6864 3.6537 14.1587 3.2585 14.6165C3.10427 14.7973 2.94281 14.9828 2.75967 15.166C2.43194 15.4913 2.12349 15.6576 1.76202 15.6985C1.56442 15.7226 1.42224 15.901 1.44634 16.101C1.46803 16.2841 1.62466 16.4191 1.8054 16.4191C1.74033 16.501 1.6825 16.5877 1.6343 16.6817C1.32103 17.2962 1.40537 18.1228 1.84636 18.7397C2.30422 19.3807 2.99101 19.6723 3.48743 19.8048C3.9742 19.9349 4.51881 20 5.11644 20C6.4129 20 7.96721 19.694 9.76009 19.0867C11.553 19.694 13.1073 20 14.4037 20C15.0014 20 15.5436 19.9349 16.0328 19.8048C16.5292 19.6723 17.216 19.3807 17.6738 18.7397C18.1148 18.1228 18.1992 17.2962 17.8859 16.6817C17.8377 16.5877 17.7799 16.5034 17.7148 16.4191C17.7148 16.4191 17.7148 16.4191 17.7172 16.4191C17.8979 16.4191 18.0546 16.2841 18.0763 16.101C18.0979 15.9034 17.9558 15.725 17.7582 15.7009ZM9.76732 0.789204C11.2349 1.76517 12.3747 3.24236 12.9964 4.97741C13.1482 5.39912 13.2687 5.84975 13.3579 6.31484C13.4687 6.86186 13.5242 7.44744 13.5242 8.0547C13.5242 8.37279 13.4977 8.71257 13.4495 9.07404C13.4037 9.01379 13.3555 8.95596 13.3025 8.90295C12.9964 8.60172 12.6832 8.43545 12.153 8.29086C12.0301 8.25712 11.9096 8.23303 11.7915 8.20652C11.1915 8.0788 10.9626 8.02819 10.9553 7.34141C11.4228 6.81366 11.7168 6.01843 11.7168 5.2714C11.7168 4.11471 10.9505 3.36767 9.76491 3.36767C8.5793 3.36767 7.81299 4.11471 7.81299 5.2714C7.81299 6.01602 8.10457 6.81125 8.57448 7.34141C8.56725 8.02819 8.33832 8.0788 7.73828 8.20652C7.6202 8.23062 7.49731 8.25712 7.37441 8.29086C6.84425 8.43545 6.53339 8.59931 6.22012 8.90777C6.16469 8.96319 6.11409 9.02343 6.06589 9.0885C6.02734 8.74631 6.00565 8.40171 6.00565 8.0547C6.00565 7.47876 6.06107 6.89078 6.16711 6.31002C6.25386 5.85457 6.37676 5.40394 6.53339 4.97741C7.14789 3.24718 8.29494 1.76999 9.76732 0.789204ZM8.53351 5.27622C8.53351 4.24965 9.30464 4.09543 9.7625 4.09543C10.2204 4.09543 10.9915 4.24965 10.9915 5.27622C10.9915 6.22568 10.3601 7.22815 9.7625 7.22815C9.16488 7.22815 8.53351 6.22568 8.53351 5.27622ZM17.0858 18.3204C16.8256 18.6843 16.387 18.9638 15.8472 19.106C14.423 19.4843 12.5603 19.1686 10.8951 18.6843C11.5674 18.4577 12.4398 18.2529 13.2615 18.4312C13.4567 18.4722 13.6495 18.3517 13.6929 18.1565C13.7362 17.9613 13.6133 17.7685 13.4181 17.7252C12.2663 17.4721 11.0903 17.8312 10.3071 18.1252C10.1312 18.1903 9.94806 18.2553 9.7625 18.3204C9.57695 18.2553 9.39381 18.1903 9.21789 18.1252C8.43471 17.8336 7.25874 17.4745 6.10686 17.7252C5.91167 17.7685 5.78877 17.9613 5.83214 18.1565C5.87552 18.3517 6.0683 18.4746 6.2635 18.4312C6.93342 18.2842 7.67322 18.3638 8.6299 18.6843C6.96474 19.1686 5.10198 19.4843 3.68021 19.106C3.14042 18.9614 2.70184 18.6843 2.44158 18.3204C2.15963 17.9252 2.09457 17.3878 2.28494 17.0143C2.51869 16.5588 3.05607 16.3733 3.4802 16.3516C3.99107 16.3275 4.50435 16.4721 5.04656 16.6287L5.12367 16.6504C5.75985 16.8335 6.38399 16.9902 7.03463 16.9058C7.13584 16.8938 7.22741 16.8384 7.28524 16.754C7.97926 15.7564 8.2588 14.7346 8.13831 13.6358C8.09011 13.202 8.01541 12.8285 7.94552 12.467C7.84431 11.9586 7.75033 11.4766 7.7431 10.8886C7.74069 10.691 7.57924 10.532 7.38164 10.532C7.38164 10.532 7.37923 10.532 7.37682 10.532C7.1768 10.5344 7.01776 10.6982 7.02017 10.8982C7.0274 11.5513 7.13343 12.0887 7.23705 12.6092C7.30452 12.9562 7.37682 13.3153 7.42019 13.7177C7.51658 14.5997 7.31657 15.3949 6.78642 16.207C6.31892 16.2287 5.82733 16.1034 5.32368 15.9588L5.24898 15.9371C4.67304 15.7708 4.07541 15.5997 3.44646 15.6335C3.40067 15.6359 3.3573 15.6431 3.31392 15.6479C3.50188 15.4576 3.66334 15.272 3.81516 15.0937C4.20313 14.643 4.56942 14.2165 5.35742 13.7803C5.43212 13.7394 5.48996 13.6719 5.52128 13.59C5.54538 13.5273 5.56707 13.4647 5.58394 13.4141C5.63213 13.2839 5.67792 13.1514 5.72129 13.0213C5.72129 13.0189 5.72371 13.0189 5.72371 13.0164C5.9189 12.4526 6.13096 11.7826 6.23458 11.0742C6.25386 10.9464 6.26832 10.8187 6.28518 10.691L6.30687 10.5151C6.32615 10.3729 6.34784 10.2452 6.37435 10.1319C6.44664 9.82589 6.56713 9.58973 6.7334 9.42346C6.94788 9.2114 7.1503 9.10778 7.56237 8.99693C7.67322 8.96801 7.78166 8.94391 7.88769 8.92222C8.41784 8.80896 9.05403 8.67161 9.24199 7.84746C9.40826 7.91734 9.58177 7.95831 9.76491 7.95831C9.94806 7.95831 10.1216 7.91734 10.2878 7.84746C10.4734 8.67161 11.112 8.81137 11.6421 8.92222C11.7482 8.94391 11.859 8.96801 11.9675 8.99693C12.3795 9.10778 12.5819 9.21381 12.8036 9.43069C12.9651 9.58973 13.0808 9.82107 13.1555 10.1319C13.1796 10.2331 13.1964 10.3319 13.2133 10.4356C13.2133 10.438 13.2133 10.4404 13.2133 10.4404C13.2302 10.5512 13.2446 10.6621 13.2567 10.7753C13.2687 10.8766 13.2808 10.9754 13.2952 11.0742C13.394 11.7609 13.5989 12.414 13.8037 13.0189V13.0213V13.0237L14.0061 13.59C14.0375 13.6695 14.0953 13.737 14.17 13.7803C14.9604 14.2165 15.3267 14.6431 15.7171 15.0961C15.8713 15.2744 16.0303 15.46 16.2183 15.6479C16.1725 15.6431 16.1292 15.6359 16.0858 15.6335C15.452 15.5997 14.8592 15.7732 14.2833 15.9371L14.2086 15.9588C13.7049 16.1034 13.2133 16.2287 12.7482 16.207C12.259 15.4214 12.006 14.284 12.1145 13.3201C12.1602 12.896 12.2374 12.5996 12.3096 12.3128C12.4109 11.9104 12.5072 11.532 12.5145 10.8982C12.5169 10.6982 12.3554 10.5344 12.1578 10.532C12.1554 10.532 12.1554 10.532 12.153 10.532C11.9554 10.532 11.7939 10.691 11.7915 10.8886C11.7843 11.4356 11.7024 11.7585 11.6084 12.1345C11.5337 12.4309 11.4494 12.7658 11.3963 13.2381C11.2638 14.4406 11.5963 15.8214 12.247 16.754C12.3048 16.8384 12.3964 16.8938 12.4976 16.9058C13.1482 16.9902 13.7724 16.8311 14.4086 16.6504L14.4833 16.6287C15.0255 16.4721 15.5412 16.3251 16.0496 16.3516C16.4737 16.3733 17.0135 16.5588 17.2449 17.0143C17.4328 17.3854 17.3678 17.9228 17.0858 18.3204Z" fill="#9C6B00"/>
</svg>
