<svg xmlns="http://www.w3.org/2000/svg" width="22" height="22" fill="none" viewBox="0 0 22 22"><path fill="#303030" d="m17.967 19.25-5.775-5.775a5.6 5.6 0 0 1-3.483 1.192q-2.499 0-4.228-1.731-1.73-1.73-1.731-4.228 0-2.497 1.73-4.227Q6.213 2.75 8.709 2.75t4.229 1.73q1.733 1.732 1.73 4.228a5.6 5.6 0 0 1-1.192 3.484l5.775 5.775zm-9.259-6.417q1.719 0 2.923-1.202 1.203-1.203 1.202-2.923 0-1.72-1.202-2.921-1.203-1.201-2.923-1.204-1.72-.001-2.921 1.204-1.2 1.206-1.204 2.921-.002 1.716 1.204 2.923 1.206 1.206 2.921 1.202"/></svg>