<svg xmlns="http://www.w3.org/2000/svg" width="69" height="66" fill="none" viewBox="0 0 69 66"><path fill="#96710F" d="M67.03 53.437h.285a.84.84 0 0 1 .842.775L69 65.002a.842.842 0 0 1-1.243.784.84.84 0 0 1-.306-.28c-.177-.277-4.469-6.674-13.896-5.05l-2.525.438c-10.588 1.877-26.587 4.722-32.824-6.261a29.5 29.5 0 0 1-2.963-9.015 29 29 0 0 0-1.069-4.132c-.143-.11-.294-.219-.446-.354a7.8 7.8 0 0 1-1.683-2.356c-.093-.05-.168-.11-.26-.152-1.482-.606-2.972-2.474-3.864-4.747C5.277 31.765.682 30.511.63 30.511a.84.84 0 0 1-.616-.975.84.84 0 0 1 .179-.38c2.28-2.727 6.034-3.316 7.962-3.426.967-1.616 2.82-3.198 6.362-3.77a28 28 0 0 1-.067-1.953c-2.685-3.165-2.13-7.786-1.843-9.376C7.558 6.524 9.83.598 9.856.53a.84.84 0 0 1 .847-.529.8.8 0 0 1 .34.1c.976.538 14.19 9.165 18.49 13.559 2.526 2.626 4.057 6.733 4.958 10.285a18.7 18.7 0 0 1 5.403-6.666C45.844 12.886 64.353 4.302 65.7 3.813a.84.84 0 0 1 1.035.37 7.36 7.36 0 0 1 .513 5.312 8.76 8.76 0 0 1-4.326 4.957c.42 1.734 1.077 6.32-2.525 9.384 0 1.406-.177 5.833-2.525 8.148a4.97 4.97 0 0 1-3.442 1.439c-.732 1.683-3.367 6.228-10.74 7.373 6.001 5.327 14.241 12.641 23.34 12.641M13.364 37.614c.314.86.828 1.633 1.499 2.256.53.48 1.06.724 1.363.614s.564-.63.673-1.338a5.8 5.8 0 0 0-.26-2.702c-.362-1.01-.91-1.523-1.684-1.523a2 2 0 0 0-.69.135 1.68 1.68 0 0 0-1.002.841 2.36 2.36 0 0 0 .101 1.717m-1.885-1.203c.018-.427.115-.846.286-1.238.161-.33.38-.63.648-.883a38 38 0 0 0-1.97-.842q-.302.303-.63.58a8.6 8.6 0 0 0 1.666 2.383M9.2 27.388a12.2 12.2 0 0 0-6.313 1.608c2.39.667 4.745 1.46 7.053 2.373a3.63 3.63 0 0 0 .555-2.525A1.75 1.75 0 0 0 9.2 27.388m19.122-12.557c-3.535-3.653-13.93-10.605-17.153-12.676a7.16 7.16 0 0 0 2.887 7.457.84.84 0 0 1 .32.884c0 .06-1.372 5.53 1.523 8.619a.84.84 0 0 1 .227.606c0 .48 0 1.22.05 2.07 7.576-.446 11.195 4.52 14.098 8.543.48.657.934 1.288 1.389 1.86a35.4 35.4 0 0 1 1.683-5.664c-.766-3.796-2.222-8.846-5.024-11.7m11.017 24.51c11.186.32 13.559-6.734 13.652-7.045a.84.84 0 0 1 .841-.59 3.37 3.37 0 0 0 2.77-.959c2.238-2.188 2.028-7.255 2.028-7.305a.84.84 0 0 1 .328-.707c3.998-3.039 2.222-8.232 2.146-8.417a.84.84 0 0 1 .396-1.027c2.205-1.153 3.577-2.583 4.082-4.208a5.56 5.56 0 0 0-.076-3.366c-3.779 1.683-19.476 9.14-24.66 12.961-6.818 5.05-8.021 16.564-8.03 16.682a.847.847 0 0 1-1.683-.169c0-.067 0-.353.1-.841a33 33 0 0 1-2.373-3.03c-2.87-3.973-6.127-8.476-13.138-7.828-2.617.244-4.536 1.078-5.698 2.424a3.47 3.47 0 0 1 2.079 2.584 5.1 5.1 0 0 1-.598 3.493 65 65 0 0 1 2.845 1.305 3.24 3.24 0 0 1 3.586 1.919 43 43 0 0 1 3.156 2.053c.182-.406.445-.77.774-1.069a3.96 3.96 0 0 1 2.879-.841 7.6 7.6 0 0 1 3.366 1.035 3.1 3.1 0 0 1 1.793 2.66 3.11 3.11 0 0 1-2.062 2.466 7.2 7.2 0 0 1-1.624.521 17.8 17.8 0 0 1 2.524 4.024c1.482-.615 3.056-.085 4.209 1.498.692.973 1.14 2.1 1.304 3.282.185 1.397-.151 2.525-.96 3.064a2.25 2.25 0 0 1-1.346.404c-1.624 0-3.552-1.364-4.553-2.753a3.86 3.86 0 0 1-.842-2.878 3.14 3.14 0 0 1 .791-1.624 16.6 16.6 0 0 0-3.232-4.89 3.77 3.77 0 0 1-2.525-1.111 3.17 3.17 0 0 1-.8-1.835 34 34 0 0 0-2.213-1.557 7.5 7.5 0 0 1 0 1.742 3.08 3.08 0 0 1-1.759 2.685 2.2 2.2 0 0 1-.606.11c.261.959.48 1.994.699 3.08a28.5 28.5 0 0 0 2.786 8.517c5.664 9.957 20.957 7.239 31.082 5.437l2.525-.437c7.07-1.195 11.581 1.683 13.845 3.82l-.58-7.481c-9.528-.244-17.869-7.651-24.004-13.088l-1.179-1.044c-.42 0-.842.042-1.288.042h-.749a.841.841 0 1 1 0-1.683zm-16.833-.674a1.68 1.68 0 0 0 .379 1.238c.443.403 1.025.62 1.624.606a5.8 5.8 0 0 0 2.66-.522c.648-.303 1.077-.707 1.094-1.027s-.37-.766-.985-1.136a5.8 5.8 0 0 0-2.618-.783h-.218a2.18 2.18 0 0 0-1.456.43 1.68 1.68 0 0 0-.505 1.194zm6.245 11.901c1.069 1.473 2.97 2.382 3.56 1.961a1.73 1.73 0 0 0 .27-1.472 5.9 5.9 0 0 0-1.002-2.525 2.11 2.11 0 0 0-1.616-1.07 1.74 1.74 0 0 0-1.018.38 1.68 1.68 0 0 0-.733 1.077c-.043.599.15 1.191.539 1.65"/></svg>