<svg xmlns="http://www.w3.org/2000/svg" width="67" height="65" fill="none" viewBox="0 0 67 65"><path fill="#96710F" fill-rule="evenodd" d="M10.065 38.16a.893.893 0 0 1-1.154-.505.893.893 0 0 1 .506-1.155c3.525-1.381 7.014-1.977 10.472-1.797q5.187.271 10.23 2.885a.89.89 0 0 1 .384 1.198.89.89 0 0 1-1.198.384q-4.708-2.438-9.507-2.69-4.801-.251-9.733 1.678zm-1.13 6.413a.891.891 0 1 1-.72-1.631q5.594-2.465 11.081-2.32c3.664.098 7.27 1.066 10.827 2.907a.89.89 0 0 1 .384 1.198.89.89 0 0 1-1.198.384q-4.979-2.578-10.054-2.713-5.082-.135-10.318 2.172zm-1.097 5.854a.893.893 0 0 1-1.155-.506.893.893 0 0 1 .506-1.154q5.855-2.292 11.592-2.062 5.737.227 11.321 2.975a.886.886 0 0 1 .407 1.187.886.886 0 0 1-1.186.407q-5.248-2.582-10.612-2.795-5.362-.214-10.873 1.946zM54.55 30.716a.89.89 0 0 1-.148-1.25.89.89 0 0 1 1.25-.15l1.795 1.411 3.012-3.48a.889.889 0 0 1 1.344 1.163l-3.533 4.083-.006.008a.89.89 0 0 1-1.25.149l-2.461-1.934zm8.588-5.849a7.08 7.08 0 0 0-5.023-2.079c-1.96 0-3.737.794-5.022 2.08a7.08 7.08 0 0 0-2.08 5.022c0 1.96.794 3.737 2.08 5.022a7.08 7.08 0 0 0 5.022 2.08c1.96 0 3.737-.794 5.023-2.08a7.08 7.08 0 0 0 2.079-5.022c0-1.96-.794-3.737-2.08-5.023m-28.83 33.779v3.589q6.637-3.434 13.465-3.8 7.211-.39 14.601 2.634l2.14-2.676q-7.674-3.822-15.098-3.824-7.67 0-15.108 4.077M32.524 34.09q-6.368-4.04-12.918-4.042-6.609 0-13.462 4.11L2.082 56.522q7.765-3.74 15.335-3.74 7.673 0 15.107 3.847V34.087zm16.71-3.949a21.4 21.4 0 0 0-7.32.579q-3.834.976-7.607 3.37v22.544q7.438-3.848 15.107-3.848 7.568.001 15.335 3.74l-3.338-18.382a8.9 8.9 0 0 1-3.295.631 8.85 8.85 0 0 1-6.282-2.602 8.87 8.87 0 0 1-2.6-6.032m-16.71 32.091c-4.341-2.245-8.744-3.51-13.208-3.786q-7.11-.445-14.404 2.44l-2.528-2.528q7.643-3.79 15.032-3.789 7.67 0 15.108 4.077v3.589zm33.86-3.333a.89.89 0 0 0 .436-.927l-3.76-20.698q.725-.486 1.337-1.102A8.86 8.86 0 0 0 67 29.89a8.85 8.85 0 0 0-2.603-6.282 8.86 8.86 0 0 0-6.281-2.603 8.85 8.85 0 0 0-6.282 2.603 8.85 8.85 0 0 0-2.472 4.76 23.1 23.1 0 0 0-7.884.626q-4.075 1.037-8.058 3.553-6.78-4.279-13.811-4.28-7.267 0-14.727 4.58v.003a.88.88 0 0 0-.41.602l-4.44 24.44a.89.89 0 0 0 .23.866l3.806 3.807c.28.28.698.335 1.035.166q7.164-2.94 14.113-2.504 6.975.434 13.761 4.272l.067.035h.003l.015.009h.003l.017.008q.154.062.311.067h.059a.9.9 0 0 0 .31-.067l.018-.008h.003l.015-.01h.003q.035-.016.066-.034 6.906-3.9 14.006-4.287 7.101-.383 14.439 2.757v-.003a.89.89 0 0 0 1.04-.261l3.043-3.801zM36.09 11.691a3.77 3.77 0 0 0-2.673-1.108 3.75 3.75 0 0 0-2.672 1.108 3.77 3.77 0 0 0-1.108 2.672c0 1.044.421 1.99 1.108 2.673a3.77 3.77 0 0 0 2.672 1.108c1.044 0 1.99-.422 2.673-1.108a3.77 3.77 0 0 0 1.108-2.673 3.76 3.76 0 0 0-1.108-2.672M33.417 8.8c1.536 0 2.926.622 3.935 1.629a5.54 5.54 0 0 1 1.629 3.934 5.56 5.56 0 0 1-1.63 3.935 5.54 5.54 0 0 1-3.934 1.629 5.56 5.56 0 0 1-3.934-1.629 5.54 5.54 0 0 1-1.63-3.935c0-1.535.623-2.925 1.63-3.934A5.54 5.54 0 0 1 33.417 8.8m.89-3.673a.893.893 0 0 1-1.785 0V.893a.893.893 0 0 1 1.785 0zm-6.79 2.076-1.713-1.712a.892.892 0 1 0-1.262 1.262l1.712 1.713a.892.892 0 1 0 1.263-1.263M24.18 13.47a.893.893 0 0 1 0 1.786h-4.234a.893.893 0 0 1 0-1.786zm2.076 6.791a.892.892 0 1 1 1.262 1.262l-1.712 1.713a.892.892 0 1 1-1.262-1.262zm6.267 3.336a.893.893 0 0 1 1.786 0v4.234a.893.893 0 0 1-1.786 0zm6.79-2.074a.892.892 0 1 1 1.263-1.262l1.713 1.713a.892.892 0 1 1-1.262 1.262zm3.337-6.27a.893.893 0 0 1 0-1.785h4.234a.893.893 0 0 1 0 1.785zm-2.074-6.79L42.29 6.75a.892.892 0 1 0-1.262-1.262L39.315 7.2a.892.892 0 1 0 1.262 1.262m7.241 26.217a.887.887 0 1 1 .026 1.776q-2.569.052-5.12.727a25 25 0 0 0-5.087 1.99.89.89 0 0 1-.814-1.582 26.8 26.8 0 0 1 5.447-2.13 23.4 23.4 0 0 1 5.545-.784zm10.911 8.265a.891.891 0 1 1-.718 1.631q-5.236-2.307-10.318-2.172-5.077.135-10.053 2.713a.89.89 0 0 1-1.198-.384.89.89 0 0 1 .384-1.198q5.33-2.76 10.827-2.908c3.658-.099 7.348.675 11.08 2.32zm1.027 5.825a.893.893 0 0 1 .506 1.154.893.893 0 0 1-1.154.506q-5.513-2.16-10.874-1.945-5.365.213-10.611 2.794a.887.887 0 0 1-.78-1.593q5.584-2.748 11.321-2.975 5.738-.228 11.592 2.062z" clip-rule="evenodd"/></svg>