<svg width="36" height="36" viewBox="0 0 36 36" fill="none" xmlns="http://www.w3.org/2000/svg">
<path d="M14.22 5.20338C11.6796 3.99049 8.12883 3.39635 3.375 3.37526C2.92667 3.36917 2.48713 3.4999 2.115 3.75002C1.80956 3.95648 1.55952 4.23483 1.3869 4.5606C1.21427 4.88636 1.12433 5.24955 1.125 5.61823V25.7346C1.125 27.0945 2.0925 28.1203 3.375 28.1203C8.37211 28.1203 13.3847 28.5872 16.387 31.425C16.4281 31.464 16.4797 31.4901 16.5355 31.5C16.5913 31.5099 16.6487 31.5032 16.7007 31.4807C16.7527 31.4583 16.7969 31.421 16.8279 31.3736C16.8589 31.3262 16.8753 31.2707 16.875 31.2141V7.51104C16.8751 7.35112 16.8408 7.19305 16.7746 7.0475C16.7084 6.90194 16.6117 6.77229 16.4911 6.66729C15.8034 6.07936 15.0395 5.58695 14.22 5.20338ZM33.885 3.74791C33.5127 3.49841 33.0731 3.36841 32.625 3.37526C27.8712 3.39635 24.3204 3.98768 21.78 5.20338C20.9606 5.58624 20.1965 6.07769 19.5082 6.66448C19.3878 6.76963 19.2914 6.89933 19.2253 7.04486C19.1592 7.19039 19.125 7.34839 19.125 7.50823V31.2127C19.125 31.2671 19.141 31.3203 19.1711 31.3657C19.2012 31.411 19.244 31.4465 19.2942 31.4676C19.3444 31.4887 19.3996 31.4945 19.4531 31.4843C19.5066 31.4741 19.5558 31.4483 19.5947 31.4103C21.3996 29.6173 24.5672 28.1182 32.6278 28.1189C33.2246 28.1189 33.7969 27.8819 34.2188 27.4599C34.6408 27.038 34.8778 26.4657 34.8778 25.8689V5.61893C34.8786 5.24953 34.7885 4.8856 34.6153 4.55929C34.4422 4.23298 34.1914 3.95432 33.885 3.74791Z" fill="#D4A017"/>
</svg>
