<svg width="29" height="33" viewBox="0 0 29 33" fill="none" xmlns="http://www.w3.org/2000/svg">
<path d="M23.6945 31.68C21.857 33.4217 19.8508 33.1467 17.9195 32.3217C15.8758 31.4783 14.0008 31.4417 11.8445 32.3217C9.14452 33.4583 7.71952 33.1283 6.10702 31.68C-3.04298 22.4583 -1.69298 8.415 8.69452 7.90167C11.2258 8.03 12.9883 9.25833 14.4695 9.36833C16.682 8.92833 18.8008 7.66333 21.1633 7.82833C23.9945 8.04833 26.132 9.14833 27.5383 11.1283C21.6883 14.5567 23.0758 22.0917 28.4383 24.2C27.3695 26.95 25.982 29.6817 23.6758 31.6983L23.6945 31.68ZM14.282 7.79167C14.0008 3.70333 17.3945 0.33 21.2945 0C21.8383 4.73 16.907 8.25 14.282 7.79167Z" fill="white"/>
</svg>
