<svg width="48" height="48" viewBox="0 0 48 48" fill="none" xmlns="http://www.w3.org/2000/svg">
<path d="M8 14V18H40V14C40 12.9391 39.5786 11.9217 38.8284 11.1716C38.0783 10.4214 37.0609 10 36 10H12C10.9391 10 9.92172 10.4214 9.17157 11.1716C8.42143 11.9217 8 12.9391 8 14Z" fill="#D4A017"/>
<mask id="path-2-outside-1_1457_440" maskUnits="userSpaceOnUse" x="5" y="3" width="38" height="42" fill="black">
<rect fill="white" x="5" y="3" width="38" height="42"/>
<path d="M32 10H36C37.0609 10 38.0783 10.4214 38.8284 11.1716C39.5786 11.9217 40 12.9391 40 14V18H8V14C8 12.9391 8.42143 11.9217 9.17157 11.1716C9.92172 10.4214 10.9391 10 12 10H16M32 10V6V10ZM32 10H16H32ZM16 6V10V6ZM8 19V38C8 39.0609 8.42143 40.0783 9.17157 40.8284C9.92172 41.5786 10.9391 42 12 42H36C37.0609 42 38.0783 41.5786 38.8284 40.8284C39.5786 40.0783 40 39.0609 40 38V19"/>
</mask>
<path d="M36 10V7V10ZM40 18V21C41.6569 21 43 19.6569 43 18H40ZM8 18H5C5 19.6569 6.34315 21 8 21V18ZM12 10V7V10ZM35 6C35 4.34315 33.6569 3 32 3C30.3431 3 29 4.34315 29 6H32H35ZM19 6C19 4.34315 17.6569 3 16 3C14.3431 3 13 4.34315 13 6H16H19ZM11 19C11 17.3431 9.65685 16 8 16C6.34315 16 5 17.3431 5 19H8H11ZM8 38H5H8ZM43 19C43 17.3431 41.6569 16 40 16C38.3431 16 37 17.3431 37 19H40H43ZM32 10V13H36V10V7H32V10ZM36 10V13C36.2652 13 36.5196 13.1054 36.7071 13.2929L38.8284 11.1716L40.9497 9.05025C39.637 7.7375 37.8565 7 36 7V10ZM38.8284 11.1716L36.7071 13.2929C36.8946 13.4804 37 13.7348 37 14H40H43C43 12.1435 42.2625 10.363 40.9497 9.05025L38.8284 11.1716ZM40 14H37V18H40H43V14H40ZM40 18V15H8V18V21H40V18ZM8 18H11V14H8H5V18H8ZM8 14H11C11 13.7348 11.1054 13.4804 11.2929 13.2929L9.17157 11.1716L7.05025 9.05025C5.7375 10.363 5 12.1435 5 14H8ZM9.17157 11.1716L11.2929 13.2929C11.4804 13.1054 11.7348 13 12 13V10V7C10.1435 7 8.36301 7.7375 7.05025 9.05025L9.17157 11.1716ZM12 10V13H16V10V7H12V10ZM32 10H35V6H32H29V10H32ZM32 10V7H16V10V13H32V10ZM16 6H13V10H16H19V6H16ZM8 19H5V38H8H11V19H8ZM8 38H5C5 39.8565 5.7375 41.637 7.05025 42.9497L9.17157 40.8284L11.2929 38.7071C11.1054 38.5196 11 38.2652 11 38H8ZM9.17157 40.8284L7.05025 42.9497C8.36301 44.2625 10.1435 45 12 45V42V39C11.7348 39 11.4804 38.8946 11.2929 38.7071L9.17157 40.8284ZM12 42V45H36V42V39H12V42ZM36 42V45C37.8565 45 39.637 44.2625 40.9497 42.9497L38.8284 40.8284L36.7071 38.7071C36.5196 38.8946 36.2652 39 36 39V42ZM38.8284 40.8284L40.9497 42.9497C42.2625 41.637 43 39.8565 43 38H40H37C37 38.2652 36.8946 38.5196 36.7071 38.7071L38.8284 40.8284ZM40 38H43V19H40H37V38H40Z" fill="#D4A017" mask="url(#path-2-outside-1_1457_440)"/>
</svg>
