<svg width="24" height="24" viewBox="0 0 24 24" fill="none" xmlns="http://www.w3.org/2000/svg">
<path d="M20.0001 9.99997L20.7071 10.707L21.4141 9.99997L20.7071 9.29297L20.0001 9.99997ZM3.00006 18C3.00006 18.2652 3.10542 18.5195 3.29296 18.7071C3.48049 18.8946 3.73485 19 4.00006 19C4.26528 19 4.51963 18.8946 4.70717 18.7071C4.89471 18.5195 5.00006 18.2652 5.00006 18H3.00006ZM15.7071 15.707L20.7071 10.707L19.2931 9.29297L14.2931 14.293L15.7071 15.707ZM20.7071 9.29297L15.7071 4.29297L14.2931 5.70697L19.2931 10.707L20.7071 9.29297ZM20.0001 8.99997H10.0001V11H20.0001V8.99997ZM3.00006 16V18H5.00006V16H3.00006ZM10.0001 8.99997C8.14355 8.99997 6.36307 9.73747 5.05032 11.0502C3.73756 12.363 3.00006 14.1435 3.00006 16H5.00006C5.00006 14.6739 5.52685 13.4021 6.46453 12.4644C7.40221 11.5268 8.67398 11 10.0001 11V8.99997Z" fill="#303030"/>
</svg>
