<svg xmlns="http://www.w3.org/2000/svg" width="22" height="22" fill="none" viewBox="0 0 22 22"><g fill="#303030" clip-path="url(#clip0_3873_8731)"><path d="M19.25 1.375a1.375 1.375 0 0 1 1.375 1.375v16.5a1.375 1.375 0 0 1-1.375 1.375H2.75a1.375 1.375 0 0 1-1.375-1.375V2.75A1.375 1.375 0 0 1 2.75 1.375zM2.75 0A2.75 2.75 0 0 0 0 2.75v16.5A2.75 2.75 0 0 0 2.75 22h16.5A2.75 2.75 0 0 0 22 19.25V2.75A2.75 2.75 0 0 0 19.25 0z"/><path d="M11 5.5a.687.687 0 0 1 .688.688v4.125h4.124a.687.687 0 1 1 0 1.374h-4.124v4.126a.687.687 0 1 1-1.376 0v-4.126H6.189a.687.687 0 1 1 0-1.374h4.125V6.187A.687.687 0 0 1 11 5.5"/></g><defs><clipPath id="clip0_3873_8731"><rect width="22" height="22" fill="#fff"/></clipPath></defs></svg>