<svg width="48" height="35" viewBox="0 0 48 35" fill="none" xmlns="http://www.w3.org/2000/svg">
<path d="M0 28.875C0 27.6354 0.318545 26.4965 0.955636 25.4581C1.59273 24.4198 2.43782 23.6265 3.49091 23.0781C5.74545 21.9479 8.03636 21.1006 10.3636 20.5363C12.6909 19.9719 15.0545 19.689 17.4545 19.6875C19.8545 19.6861 22.2182 19.969 24.5455 20.5363C26.8727 21.1036 29.1636 21.9509 31.4182 23.0781C32.4727 23.625 33.3185 24.4183 33.9556 25.4581C34.5927 26.4979 34.9105 27.6369 34.9091 28.875V30.625C34.9091 31.8281 34.4822 32.8584 33.6284 33.7159C32.7745 34.5734 31.7469 35.0015 30.5455 35H4.36364C3.16364 35 2.13673 34.572 1.28291 33.7159C0.429091 32.8599 0.00145455 31.8296 0 30.625V28.875ZM43.6364 35H38.0727C38.4727 34.3437 38.7731 33.6423 38.9738 32.8956C39.1745 32.149 39.2742 31.3921 39.2727 30.625V28.4375C39.2727 26.8333 38.8276 25.2926 37.9375 23.8153C37.0473 22.338 35.7833 21.0715 34.1455 20.0156C36 20.2344 37.7455 20.6085 39.3818 21.1378C41.0182 21.6672 42.5455 22.314 43.9636 23.0781C45.2727 23.8073 46.2727 24.6181 46.9636 25.5106C47.6545 26.4031 48 27.3788 48 28.4375V30.625C48 31.8281 47.5731 32.8584 46.7193 33.7159C45.8655 34.5734 44.8378 35.0015 43.6364 35ZM17.4545 17.5C15.0545 17.5 13 16.6433 11.2909 14.9297C9.58182 13.2162 8.72727 11.1563 8.72727 8.75004C8.72727 6.3438 9.58182 4.2839 11.2909 2.57036C13 0.856826 15.0545 5.60889e-05 17.4545 5.60889e-05C19.8545 5.60889e-05 21.9091 0.856826 23.6182 2.57036C25.3273 4.2839 26.1818 6.3438 26.1818 8.75004C26.1818 11.1563 25.3273 13.2162 23.6182 14.9297C21.9091 16.6433 19.8545 17.5 17.4545 17.5ZM39.2727 8.75004C39.2727 11.1563 38.4182 13.2162 36.7091 14.9297C35 16.6433 32.9455 17.5 30.5455 17.5C30.1455 17.5 29.6364 17.4548 29.0182 17.3644C28.4 17.274 27.8909 17.1734 27.4909 17.0625C28.4727 15.8959 29.2276 14.6016 29.7556 13.1797C30.2836 11.7578 30.5469 10.2813 30.5455 8.75004C30.544 7.21879 30.2807 5.74223 29.7556 4.32036C29.2305 2.89849 28.4756 1.60422 27.4909 0.437555C28 0.255264 28.5091 0.13641 29.0182 0.0809939C29.5273 0.0255773 30.0364 -0.00140224 30.5455 5.60889e-05C32.9455 5.60889e-05 35 0.856826 36.7091 2.57036C38.4182 4.2839 39.2727 6.3438 39.2727 8.75004ZM4.36364 30.625H30.5455V28.875C30.5455 28.474 30.4458 28.1094 30.2465 27.7813C30.0473 27.4531 29.7833 27.1979 29.4545 27.0156C27.4909 26.0313 25.5091 25.2933 23.5091 24.8019C21.5091 24.3104 19.4909 24.064 17.4545 24.0625C15.4182 24.0611 13.4 24.3075 11.4 24.8019C9.4 25.2963 7.41818 26.0342 5.45455 27.0156C5.12727 27.1979 4.86327 27.4531 4.66255 27.7813C4.46182 28.1094 4.36218 28.474 4.36364 28.875V30.625ZM17.4545 13.125C18.6545 13.125 19.6822 12.697 20.5375 11.841C21.3927 10.9849 21.8196 9.95462 21.8182 8.75004C21.8167 7.54546 21.3898 6.51588 20.5375 5.6613C19.6851 4.80671 18.6575 4.37797 17.4545 4.37505C16.2516 4.37213 15.2247 4.80088 14.3738 5.6613C13.5229 6.52171 13.0953 7.55129 13.0909 8.75004C13.0865 9.94879 13.5142 10.9791 14.3738 11.841C15.2335 12.7028 16.2604 13.1309 17.4545 13.125Z" fill="#D4A017"/>
</svg>
