<svg width="215" height="188" viewBox="0 0 215 188" fill="none" xmlns="http://www.w3.org/2000/svg">
<rect x="20" y="33" width="176" height="126" fill="white"/>
<path d="M44.7917 0C32.9122 0 21.5192 4.12648 13.1192 11.4717C4.71911 18.8168 0 28.779 0 39.1667V148.833C0 159.221 4.71911 169.183 13.1192 176.528C21.5192 183.874 32.9122 188 44.7917 188H170.208C182.088 188 193.481 183.874 201.881 176.528C210.281 169.183 215 159.221 215 148.833V39.1667C215 28.779 210.281 18.8168 201.881 11.4717C193.481 4.12648 182.088 0 170.208 0H44.7917ZM59.1429 71.5183C71.9892 65.9097 89.1175 62.6667 107.5 62.6667C125.882 62.6667 143.011 65.9097 155.839 71.5183C168.148 76.9233 179.167 85.775 179.167 97.9167V109.714C179.167 111.958 178.615 114.176 177.55 116.217C176.485 118.259 174.93 120.076 172.992 121.547C171.053 123.017 168.776 124.107 166.315 124.741C163.853 125.376 161.264 125.54 158.724 125.224L143.943 123.391C140.234 122.929 136.784 121.463 134.078 119.198C131.372 116.933 129.546 113.983 128.857 110.763L126.599 100.204C126.223 98.4807 125.506 97.9793 125.345 97.901C122.174 96.256 116.261 93.9843 107.5 93.9843C98.7387 93.9843 92.8262 96.256 89.655 97.901C89.4938 97.9793 88.7771 98.465 88.4008 100.204L86.1254 110.763C85.4382 113.978 83.6174 116.925 80.9184 119.189C78.2194 121.454 74.7775 122.923 71.0754 123.391L56.2762 125.224C53.7356 125.54 51.1468 125.376 48.6852 124.741C46.2236 124.107 43.9465 123.017 42.0082 121.547C40.0698 120.076 38.5153 118.259 37.45 116.217C36.3847 114.176 35.8334 111.958 35.8333 109.714V97.9167C35.8333 85.775 46.8521 76.9077 59.1429 71.5183Z" fill="#F22E2E"/>
</svg>
