<svg width="32" height="32" viewBox="0 0 32 32" fill="none" xmlns="http://www.w3.org/2000/svg">
<path d="M7.8592 21.1029L5.41513 5.23274H3.92305C3.57623 5.23274 3.24361 5.09496 2.99837 4.84972C2.75313 4.60448 2.61536 4.27187 2.61536 3.92504C2.61536 3.57822 2.75313 3.24561 2.99837 3.00037C3.24361 2.75513 3.57623 2.61735 3.92305 2.61735H6.51882C6.83415 2.61236 7.14067 2.7215 7.38189 2.92466C7.62876 3.13274 7.78993 3.42479 7.83436 3.74458L8.26328 6.54043H18.3077V9.15581H8.66605L10.2745 19.6174H22.5655L24.5271 13.0789H27.2575L24.7912 21.3004C24.7105 21.5698 24.545 21.8061 24.3193 21.9741C24.0936 22.142 23.8198 22.2328 23.5384 22.2327H9.17474C8.85048 22.2378 8.53589 22.1222 8.29205 21.9084C8.05504 21.701 7.90087 21.4149 7.85789 21.1029H7.8592ZM13.0769 26.1558C13.0769 26.8495 12.8013 27.5147 12.3109 28.0052C11.8204 28.4956 11.1552 28.7712 10.4615 28.7712C9.76787 28.7712 9.10263 28.4956 8.61215 28.0052C8.12167 27.5147 7.84613 26.8495 7.84613 26.1558C7.84613 25.4622 8.12167 24.7969 8.61215 24.3065C9.10263 23.816 9.76787 23.5404 10.4615 23.5404C11.1552 23.5404 11.8204 23.816 12.3109 24.3065C12.8013 24.7969 13.0769 25.4622 13.0769 26.1558ZM24.8461 26.1558C24.8461 26.8495 24.5706 27.5147 24.0801 28.0052C23.5896 28.4956 22.9244 28.7712 22.2307 28.7712C21.5371 28.7712 20.8719 28.4956 20.3814 28.0052C19.8909 27.5147 19.6154 26.8495 19.6154 26.1558C19.6154 25.4622 19.8909 24.7969 20.3814 24.3065C20.8719 23.816 21.5371 23.5404 22.2307 23.5404C22.9244 23.5404 23.5896 23.816 24.0801 24.3065C24.5706 24.7969 24.8461 25.4622 24.8461 26.1558ZM24.8461 2.61735C25.1929 2.61735 25.5256 2.75513 25.7708 3.00037C26.016 3.24561 26.1538 3.57822 26.1538 3.92504V5.23274H27.4615C27.8083 5.23274 28.1409 5.37051 28.3862 5.61575C28.6314 5.86099 28.7692 6.19361 28.7692 6.54043C28.7692 6.88725 28.6314 7.21987 28.3862 7.46511C28.1409 7.71035 27.8083 7.84812 27.4615 7.84812H26.1538V9.15581C26.1538 9.50263 26.016 9.83525 25.7708 10.0805C25.5256 10.3257 25.1929 10.4635 24.8461 10.4635C24.4993 10.4635 24.1667 10.3257 23.9214 10.0805C23.6762 9.83525 23.5384 9.50263 23.5384 9.15581V7.84812H22.2307C21.8839 7.84812 21.5513 7.71035 21.3061 7.46511C21.0608 7.21987 20.923 6.88725 20.923 6.54043C20.923 6.19361 21.0608 5.86099 21.3061 5.61575C21.5513 5.37051 21.8839 5.23274 22.2307 5.23274H23.5384V3.92504C23.5384 3.57822 23.6762 3.24561 23.9214 3.00037C24.1667 2.75513 24.4993 2.61735 24.8461 2.61735Z" fill="#CC9B2F"/>
</svg>
