<svg width="28" height="28" viewBox="0 0 28 28" fill="none" xmlns="http://www.w3.org/2000/svg">
<path d="M15.2145 3.57018C15.373 3.6369 15.5083 3.74883 15.6035 3.892C15.6988 4.03517 15.7497 4.20323 15.75 4.37518V23.6252C15.75 23.7975 15.6991 23.9659 15.6037 24.1094C15.5083 24.2529 15.3727 24.3651 15.2138 24.4318C15.055 24.4985 14.8799 24.5168 14.7107 24.4845C14.5415 24.4521 14.3855 24.3705 14.2625 24.2499L9.14025 19.2187H6.125C5.42881 19.2187 4.76113 18.9421 4.26884 18.4498C3.77656 17.9576 3.5 17.2899 3.5 16.5937V11.3612C3.5 10.665 3.77656 9.99731 4.26884 9.50503C4.76113 9.01274 5.42881 8.73618 6.125 8.73618H9.142L14.2642 3.74868C14.3874 3.62856 14.5432 3.54739 14.7122 3.51533C14.8812 3.48327 15.0559 3.50349 15.2145 3.57018ZM14 6.44718L10.108 10.2394C9.94461 10.3987 9.72545 10.4879 9.49725 10.4879H6.125C5.89294 10.4879 5.67038 10.5801 5.50628 10.7442C5.34219 10.9083 5.25 11.1309 5.25 11.3629V16.5937C5.25 16.8257 5.34219 17.0483 5.50628 17.2124C5.67038 17.3765 5.89294 17.4687 6.125 17.4687H9.49725C9.7263 17.4687 9.94621 17.5586 10.1097 17.7189L14 21.5392V6.44718ZM17.6925 9.07918C17.7641 8.9889 17.8527 8.91364 17.9535 8.85771C18.0542 8.80179 18.165 8.76631 18.2794 8.7533C18.3939 8.74029 18.5098 8.75002 18.6205 8.78191C18.7312 8.81381 18.8345 8.86726 18.9245 8.93918L18.9262 8.94093L18.9298 8.94443L18.9403 8.95143L18.9665 8.97418L19.0453 9.04418C19.1118 9.10252 19.1946 9.18535 19.2937 9.29268C19.4932 9.50793 19.7488 9.82118 20.0025 10.2377C20.5135 11.0777 21.007 12.3254 21.007 13.9967C21.007 15.6662 20.5135 16.9157 20.0042 17.7557C19.7381 18.1943 19.4164 18.5966 19.047 18.9527L18.942 19.0454L18.9262 19.0577C18.9262 19.0577 18.144 19.4829 17.696 18.9212C17.5519 18.7409 17.4849 18.5111 17.5095 18.2817C17.5341 18.0522 17.6483 17.8418 17.8273 17.6962L17.829 17.6927V17.6944L17.8308 17.6927L17.8622 17.6647C17.8949 17.6355 17.9439 17.5859 18.0093 17.5159C18.1405 17.3759 18.3225 17.1519 18.5062 16.8474C18.8737 16.2437 19.257 15.3039 19.257 13.9949C19.257 12.6859 18.8738 11.7497 18.508 11.1477C18.3273 10.8508 18.1103 10.5774 17.8622 10.3339L17.8308 10.3059C17.6499 10.1615 17.5355 9.95137 17.5092 9.72146C17.483 9.49156 17.5489 9.26062 17.6925 9.07918ZM20.6727 5.43918C20.5832 5.36505 20.4797 5.30951 20.3684 5.27582C20.2571 5.24212 20.1402 5.23095 20.0246 5.24295C19.9089 5.25495 19.7968 5.28988 19.6948 5.3457C19.5928 5.40152 19.503 5.47711 19.4305 5.56806C19.3581 5.659 19.3045 5.76348 19.2728 5.87538C19.2412 5.98727 19.2322 6.10435 19.2464 6.21976C19.2605 6.33518 19.2975 6.44661 19.3553 6.54756C19.413 6.64851 19.4902 6.73694 19.5825 6.80768L19.6017 6.82518L19.6928 6.90393C19.7733 6.97743 19.8958 7.09118 20.0427 7.24518C20.3403 7.55493 20.7428 8.02043 21.147 8.63468C21.952 9.86143 22.7553 11.6674 22.7553 14.0054C22.7631 15.913 22.204 17.78 21.1488 19.3692C20.7463 19.9817 20.3438 20.4437 20.0462 20.7517C19.9048 20.8981 19.7571 21.0382 19.6035 21.1717L19.5825 21.1892C19.4059 21.3353 19.2937 21.545 19.27 21.773C19.2464 22.001 19.3132 22.2292 19.456 22.4085C19.5988 22.5878 19.8063 22.7039 20.0339 22.7318C20.2614 22.7597 20.4908 22.6972 20.6727 22.5577L20.7288 22.5104L20.8617 22.3967C20.9749 22.2975 21.1225 22.1546 21.3045 21.9679C21.7899 21.4639 22.227 20.9155 22.61 20.3299C23.8531 18.4555 24.5127 16.2546 24.5053 14.0054C24.5099 11.7545 23.8506 9.55214 22.61 7.67393C22.2263 7.08773 21.7893 6.53823 21.3045 6.03243C21.1215 5.84246 20.9299 5.66085 20.7305 5.48818L20.692 5.45493L20.6798 5.44443L20.6745 5.44093L20.6727 5.43918Z" fill="url(#paint0_linear_5157_9988)"/>
<defs>
<linearGradient id="paint0_linear_5157_9988" x1="14.0027" y1="3.5" x2="14.0027" y2="24.5001" gradientUnits="userSpaceOnUse">
<stop stop-color="#C28333"/>
<stop offset="0.653846" stop-color="#F4B132"/>
</linearGradient>
</defs>
</svg>
