<svg width="20" height="20" viewBox="0 0 20 20" fill="none" xmlns="http://www.w3.org/2000/svg">
<path d="M5 2.5V16.15L8.82875 13.0863C9.1612 12.8203 9.57426 12.6754 10 12.6754C10.4257 12.6754 10.8388 12.8203 11.1713 13.0863L15 16.1487V2.5H5ZM4.375 1.25H15.625C15.7908 1.25 15.9497 1.31585 16.0669 1.43306C16.1842 1.55027 16.25 1.70924 16.25 1.875V17.45C16.2498 17.5676 16.2165 17.6828 16.1538 17.7823C16.0911 17.8818 16.0016 17.9616 15.8956 18.0125C15.7896 18.0634 15.6714 18.0834 15.5545 18.0701C15.4376 18.0569 15.3269 18.0109 15.235 17.9375L10.39 14.0625C10.2792 13.9741 10.1417 13.9259 10 13.9259C9.85827 13.9259 9.72075 13.9741 9.61 14.0625L4.765 17.9375C4.6731 18.0109 4.56236 18.0569 4.4455 18.0701C4.32865 18.0834 4.21042 18.0634 4.10441 18.0125C3.99839 17.9616 3.9089 17.8818 3.84621 17.7823C3.78351 17.6828 3.75017 17.5676 3.75 17.45V1.875C3.75 1.70924 3.81585 1.55027 3.93306 1.43306C4.05027 1.31585 4.20924 1.25 4.375 1.25Z" fill="black"/>
</svg>
