<svg width="23" height="23" viewBox="0 0 23 23" fill="none" xmlns="http://www.w3.org/2000/svg">
<path d="M7.63723 9.47149H15.3614M7.63723 13.5233H13.1457M11.4993 20.362C13.425 20.3616 15.2981 19.7341 16.8355 18.5745C18.3729 17.4149 19.4908 15.7862 20.0203 13.9348C20.5498 12.0834 20.462 10.1099 19.7702 8.31276C19.0784 6.51566 17.8202 4.9927 16.1859 3.97421C14.5517 2.95571 12.6302 2.49708 10.7121 2.66768C8.794 2.83827 6.98363 3.62881 5.55475 4.91974C4.12588 6.21066 3.15623 7.93177 2.79244 9.82275C2.42866 11.7137 2.69052 13.6718 3.53844 15.4007C3.64194 15.6115 3.67644 15.8492 3.62373 16.0773L2.84173 19.4659C2.81968 19.561 2.82221 19.6602 2.84908 19.754C2.87594 19.8479 2.92626 19.9334 2.99529 20.0024C3.06432 20.0714 3.14978 20.1217 3.24363 20.1486C3.33749 20.1755 3.43663 20.178 3.53173 20.1559L6.91944 19.373C7.14817 19.3229 7.38717 19.3534 7.59602 19.4592C8.81061 20.0557 10.1462 20.3646 11.4993 20.362Z" stroke="black" stroke-linecap="round" stroke-linejoin="round"/>
</svg>
