<svg width="18" height="18" viewBox="0 0 18 18" fill="none" xmlns="http://www.w3.org/2000/svg">
<g clip-path="url(#clip0_3344_5393)">
<path d="M9 0C4.10192 0 0 3.51692 0 7.96154C0 10.0592 0.940846 11.9409 2.42308 13.3484C2.24286 13.8194 1.98704 14.2578 1.66569 14.6465C1.23978 15.1631 0.769278 15.6412 0.259615 16.0754C0.147819 16.1651 0.0666163 16.2873 0.0272139 16.4251C-0.0121885 16.5629 -0.00784819 16.7095 0.0396359 16.8447C0.0871199 16.98 0.175407 17.0971 0.292312 17.1801C0.409218 17.263 0.548979 17.3076 0.692308 17.3077C2.22577 17.3077 3.32862 17.2904 4.32692 17.0266C5.22 16.7898 5.98777 16.2942 6.77146 15.5984C7.48454 15.7694 8.22046 15.9231 9 15.9231C13.8981 15.9231 18 12.4062 18 7.96154C18 3.51692 13.8981 0 9 0ZM9 1.38462C13.2404 1.38462 16.6154 4.37538 16.6154 7.96154C16.6154 11.5477 13.2404 14.5385 9 14.5385C8.24608 14.5385 7.46308 14.4083 6.75 14.2138C6.63597 14.1851 6.51651 14.1859 6.4029 14.2162C6.28928 14.2465 6.18525 14.3052 6.10062 14.3868C5.32177 15.1338 4.74785 15.4821 3.98077 15.6849C3.62769 15.7784 2.94646 15.7562 2.466 15.7936C2.56292 15.6842 2.65362 15.6261 2.74777 15.5118C3.29192 14.8472 3.78831 14.1445 3.93785 13.3484C3.95845 13.2289 3.94729 13.106 3.90549 12.9922C3.8637 12.8784 3.79273 12.7775 3.69969 12.6997C2.24931 11.502 1.38462 9.82315 1.38462 7.96154C1.38462 4.37538 4.75962 1.38462 9 1.38462ZM7.68046 4.08877C7.5586 4.11612 7.44641 4.17592 7.35577 4.26185L6.31731 5.23592L7.24777 6.25223L8.06954 5.47338H9.73523L10.3846 6.21V7.227L8.61023 8.41638C8.51539 8.48097 8.43808 8.56812 8.38527 8.66999C8.33246 8.77187 8.30581 8.88527 8.30769 9V10.3846H9.69231V9.38908L11.4667 8.19969C11.5616 8.13504 11.639 8.04778 11.6918 7.94578C11.7446 7.84377 11.7712 7.73023 11.7692 7.61539V5.94969C11.7683 5.78237 11.7068 5.62103 11.5962 5.49554L10.5577 4.32692C10.4931 4.25257 10.4133 4.19287 10.3238 4.1518C10.2342 4.11073 10.137 4.08924 10.0385 4.08877H7.83139C7.78123 4.08327 7.73062 4.08327 7.68046 4.08877ZM8.30769 11.0769V12.4615H9.69231V11.0769H8.30769Z" fill="black"/>
</g>
<defs>
<clipPath id="clip0_3344_5393">
<rect width="18" height="18" fill="white"/>
</clipPath>
</defs>
</svg>
