<svg width="20" height="20" viewBox="0 0 20 20" fill="none" xmlns="http://www.w3.org/2000/svg">
<path fill-rule="evenodd" clip-rule="evenodd" d="M13.7307 3.64344L16.374 6.2901C17.214 7.13011 17.894 7.81094 18.3323 8.40261C18.7832 9.01094 19.0748 9.65261 18.9165 10.3834C18.7582 11.1159 18.2282 11.5784 17.5665 11.9459C16.9223 12.3034 16.0215 12.6418 14.9107 13.0593L13.2632 13.6784C12.6007 13.9268 12.4207 14.0043 12.2865 14.1201C12.2198 14.179 12.1598 14.2448 12.1065 14.3176C12.0032 14.4618 11.9423 14.6484 11.7548 15.3309L11.744 15.3684C11.554 16.0609 11.3965 16.6326 11.224 17.0618C11.049 17.4976 10.8132 17.9101 10.389 18.1526C10.0945 18.3205 9.76132 18.4086 9.42234 18.4084C8.93317 18.4084 8.524 18.1651 8.1565 17.8734C7.79484 17.5851 7.3765 17.1651 6.869 16.6568L5.54567 15.3334L2.11067 18.7726C1.99353 18.89 1.83457 18.956 1.66876 18.9561C1.50295 18.9563 1.34386 18.8906 1.2265 18.7734C1.10914 18.6563 1.04313 18.4973 1.04297 18.3315C1.04281 18.1657 1.10853 18.0066 1.22567 17.8893L4.66234 14.4493L3.38317 13.1684C2.879 12.6643 2.46317 12.2476 2.1765 11.8876C1.88567 11.5226 1.64484 11.1159 1.6415 10.6309C1.63961 10.2853 1.72963 9.94535 1.90234 9.64594C2.144 9.22511 2.554 8.99094 2.98734 8.81677C3.414 8.64594 3.9815 8.48927 4.669 8.30011L4.7065 8.28927C5.38984 8.10094 5.57734 8.03927 5.72067 7.93594C5.79567 7.88205 5.86289 7.82038 5.92234 7.75094C6.03734 7.61511 6.114 7.43427 6.35817 6.7676L6.95484 5.1376C7.36734 4.01344 7.70067 3.1026 8.05484 2.4526C8.419 1.78344 8.87984 1.24594 9.61484 1.08427C10.3498 0.921771 10.994 1.21594 11.6057 1.66927C12.199 2.11094 12.8848 2.79677 13.7307 3.64344ZM10.8598 2.6726C10.3582 2.29927 10.0923 2.2576 9.884 2.30344C9.67567 2.34927 9.4515 2.49927 9.15234 3.04927C8.84817 3.6076 8.54484 4.43094 8.11067 5.61677L7.5315 7.19761L7.49817 7.2876C7.304 7.82094 7.15317 8.23427 6.87317 8.56177C6.74873 8.70844 6.60817 8.83816 6.4515 8.95094C6.1015 9.20261 5.679 9.31844 5.13067 9.46927L5.039 9.49427C4.304 9.69677 3.80567 9.83594 3.45317 9.9776C3.099 10.1193 3.014 10.2193 2.98484 10.2693C2.92299 10.3767 2.89078 10.4986 2.8915 10.6226C2.8915 10.6809 2.9165 10.8101 3.15484 11.1093C3.3915 11.4068 3.7565 11.7734 4.29484 12.3126L7.72567 15.7459C8.26734 16.2893 8.6365 16.6568 8.93567 16.8959C9.23567 17.1343 9.36567 17.1584 9.42317 17.1584C9.54477 17.1589 9.66435 17.1273 9.76984 17.0668C9.81984 17.0384 9.92067 16.9534 10.064 16.5968C10.2073 16.2401 10.3457 15.7384 10.549 14.9993L10.574 14.9076C10.724 14.3601 10.8407 13.9376 11.0907 13.5884C11.2001 13.4362 11.3259 13.2984 11.4682 13.1751C11.7932 12.8943 12.2032 12.7401 12.734 12.5418L12.8232 12.5084L14.4207 11.9084C15.594 11.4668 16.4065 11.1601 16.959 10.8534C17.5015 10.5526 17.6498 10.3284 17.6948 10.1201C17.7398 9.91094 17.6973 9.64511 17.3282 9.14677C16.9515 8.63844 16.339 8.0226 15.4523 7.13594L12.884 4.56427C11.9915 3.67094 11.3707 3.0526 10.8598 2.6726Z" fill="black"/>
</svg>
