<svg width="20" height="20" viewBox="0 0 20 20" fill="none" xmlns="http://www.w3.org/2000/svg">
<path d="M2.11589 3.9276L2.70755 3.33594L16.6659 17.2943L16.0742 17.8859L13.2909 15.0943C12.1492 15.5693 10.8992 15.8359 9.58255 15.8359C5.78255 15.8359 2.49922 13.6276 0.949219 10.4193C1.75755 8.7526 3.02422 7.36094 4.58255 6.4026L2.11589 3.9276ZM9.58255 15.0026C10.6576 15.0026 11.6909 14.8109 12.6409 14.4526L11.7076 13.5109C11.0992 13.9276 10.3742 14.1693 9.58255 14.1693C7.49922 14.1693 5.83255 12.5026 5.83255 10.4193C5.83255 9.6276 6.07422 8.9026 6.49089 8.29427L5.19922 7.01094C3.80392 7.82383 2.65711 9.00234 1.88255 10.4193C3.36589 13.1526 6.24922 15.0026 9.58255 15.0026ZM17.2826 10.4193C15.7992 7.68594 12.9159 5.83594 9.58255 5.83594C8.62422 5.83594 7.69089 5.99427 6.82422 6.2776L6.17422 5.6276C7.23255 5.21927 8.38255 5.0026 9.58255 5.0026C13.3826 5.0026 16.6659 7.21094 18.2159 10.4193C17.4586 11.9908 16.2857 13.3251 14.8242 14.2776L14.2242 13.6693C15.4992 12.8693 16.5576 11.7526 17.2826 10.4193ZM9.58255 6.66927C11.6659 6.66927 13.3326 8.33594 13.3326 10.4193C13.3326 11.1026 13.1492 11.7359 12.8326 12.2859L12.2159 11.6693C12.3992 11.2859 12.4992 10.8693 12.4992 10.4193C12.4992 9.64572 12.1919 8.90386 11.6449 8.35688C11.098 7.8099 10.3561 7.5026 9.58255 7.5026C9.13255 7.5026 8.71589 7.6026 8.33255 7.78594L7.71589 7.16927C8.26589 6.8526 8.89922 6.66927 9.58255 6.66927ZM6.66589 10.4193C6.66589 11.1928 6.97318 11.9347 7.52016 12.4817C8.06714 13.0286 8.809 13.3359 9.58255 13.3359C10.1409 13.3359 10.6576 13.1776 11.0992 12.9193L7.08255 8.9026C6.82422 9.34427 6.66589 9.86094 6.66589 10.4193Z" fill="black"/>
</svg>
