<svg width="17" height="18" viewBox="0 0 17 18" fill="none" xmlns="http://www.w3.org/2000/svg">
<path d="M13.8833 15.75L9.42083 11.025C9.06667 11.325 8.65938 11.5625 8.19896 11.7375C7.73854 11.9125 7.24861 12 6.72917 12C5.44236 12 4.35342 11.528 3.46233 10.584C2.57125 9.64 2.12547 8.487 2.125 7.125C2.12453 5.763 2.57031 4.61 3.46233 3.666C4.35436 2.722 5.44331 2.25 6.72917 2.25C8.01503 2.25 9.10421 2.722 9.99671 3.666C10.8892 4.61 11.3348 5.763 11.3333 7.125C11.3333 7.675 11.2507 8.19375 11.0854 8.68125C10.9201 9.16875 10.6958 9.6 10.4125 9.975L14.875 14.7L13.8833 15.75ZM6.72917 10.5C7.61458 10.5 8.36731 10.172 8.98733 9.516C9.60736 8.86 9.91714 8.063 9.91667 7.125C9.91619 6.187 9.60642 5.39025 8.98733 4.73475C8.36825 4.07925 7.61553 3.751 6.72917 3.75C5.84281 3.749 5.09032 4.07725 4.47171 4.73475C3.8531 5.39225 3.54308 6.189 3.54167 7.125C3.54025 8.061 3.85026 8.858 4.47171 9.516C5.09315 10.174 5.84564 10.502 6.72917 10.5Z" fill="#D4A017"/>
</svg>
