<svg width="16" height="16" viewBox="0 0 16 16" fill="none" xmlns="http://www.w3.org/2000/svg">
<path d="M14.2844 8.44024C14.1575 8.29577 14.0875 8.11005 14.0875 7.91774C14.0875 7.72544 14.1575 7.53971 14.2844 7.39524L15.2977 6.25524C15.4094 6.13069 15.4787 5.97397 15.4958 5.80756C15.5129 5.64116 15.4768 5.47362 15.3927 5.32899L13.8094 2.58983C13.7262 2.44536 13.5995 2.33085 13.4474 2.26262C13.2953 2.19439 13.1255 2.17591 12.9623 2.20983L11.474 2.51066C11.2846 2.54979 11.0874 2.51825 10.9197 2.42199C10.752 2.32574 10.6253 2.17142 10.5636 1.98816L10.0806 0.53941C10.0275 0.382168 9.92635 0.245595 9.7914 0.148993C9.65644 0.0523916 9.49453 0.000648214 9.32857 0.00107663H6.1619C5.98926 -0.00793415 5.81842 0.03981 5.67547 0.137017C5.53252 0.234224 5.42532 0.37555 5.37023 0.53941L4.9269 1.98816C4.86515 2.17142 4.73846 2.32574 4.57074 2.42199C4.40302 2.51825 4.20586 2.54979 4.01648 2.51066L2.48857 2.20983C2.33383 2.18796 2.17609 2.21238 2.03522 2.28C1.89434 2.34762 1.77662 2.45542 1.6969 2.58983L0.113565 5.32899C0.0274004 5.47201 -0.0113422 5.6386 0.00287656 5.80496C0.0170953 5.97132 0.0835472 6.12893 0.192732 6.25524L1.19815 7.39524C1.32507 7.53971 1.39506 7.72544 1.39506 7.91774C1.39506 8.11005 1.32507 8.29577 1.19815 8.44024L0.192732 9.58024C0.0835472 9.70656 0.0170953 9.86417 0.00287656 10.0305C-0.0113422 10.1969 0.0274004 10.3635 0.113565 10.5065L1.6969 13.2457C1.7801 13.3901 1.90678 13.5046 2.05889 13.5729C2.211 13.6411 2.38076 13.6596 2.54398 13.6257L4.03232 13.3248C4.2217 13.2857 4.41885 13.3172 4.58657 13.4135C4.75429 13.5098 4.88098 13.6641 4.94273 13.8473L5.42565 15.2961C5.48073 15.4599 5.58794 15.6013 5.73089 15.6985C5.87384 15.7957 6.04468 15.8434 6.21732 15.8344H9.38398C9.54995 15.8348 9.71185 15.7831 9.84681 15.6865C9.98177 15.5899 10.083 15.4533 10.1361 15.2961L10.619 13.8473C10.6807 13.6641 10.8074 13.5098 10.9751 13.4135C11.1429 13.3172 11.34 13.2857 11.5294 13.3248L13.0177 13.6257C13.181 13.6596 13.3507 13.6411 13.5028 13.5729C13.6549 13.5046 13.7816 13.3901 13.8648 13.2457L15.4482 10.5065C15.5322 10.3619 15.5683 10.1943 15.5512 10.0279C15.5342 9.86152 15.4648 9.7048 15.3531 9.58024L14.2844 8.44024ZM13.1048 9.50108L13.7381 10.2136L12.7248 11.9711L11.7906 11.7811C11.2205 11.6645 10.6274 11.7614 10.1239 12.0533C9.62039 12.3451 9.2416 12.8117 9.0594 13.3644L8.75857 14.2511H6.7319L6.4469 13.3486C6.2647 12.7959 5.88591 12.3293 5.38243 12.0374C4.87895 11.7455 4.28582 11.6487 3.71565 11.7652L2.78148 11.9552L1.75232 10.2057L2.38565 9.49316C2.77511 9.05773 2.99043 8.49402 2.99043 7.90983C2.99043 7.32563 2.77511 6.76193 2.38565 6.32649L1.75232 5.61399L2.76565 3.87233L3.69982 4.06233C4.26999 4.17888 4.86311 4.08202 5.36659 3.79015C5.87008 3.49828 6.24887 3.0317 6.43107 2.47899L6.7319 1.58441H8.75857L9.0594 2.48691C9.2416 3.03962 9.62039 3.50619 10.1239 3.79807C10.6274 4.08994 11.2205 4.18679 11.7906 4.07024L12.7248 3.88024L13.7381 5.63774L13.1048 6.35024C12.7197 6.78468 12.5071 7.34512 12.5071 7.92566C12.5071 8.5062 12.7197 9.06664 13.1048 9.50108ZM7.74523 4.75108C7.11892 4.75108 6.50668 4.9368 5.98593 5.28476C5.46517 5.63271 5.05929 6.12728 4.81961 6.70591C4.57994 7.28454 4.51723 7.92126 4.63941 8.53553C4.7616 9.1498 5.06319 9.71405 5.50606 10.1569C5.94893 10.5998 6.51317 10.9014 7.12745 11.0236C7.74172 11.1458 8.37843 11.083 8.95706 10.8434C9.5357 10.6037 10.0303 10.1978 10.3782 9.67705C10.7262 9.15629 10.9119 8.54405 10.9119 7.91774C10.9119 7.07789 10.5783 6.27244 9.9844 5.67857C9.39054 5.08471 8.58508 4.75108 7.74523 4.75108ZM7.74523 9.50108C7.43208 9.50108 7.12596 9.40822 6.86558 9.23424C6.6052 9.06026 6.40226 8.81297 6.28242 8.52366C6.16258 8.23434 6.13123 7.91599 6.19232 7.60885C6.25342 7.30171 6.40421 7.01959 6.62565 6.79816C6.84708 6.57673 7.1292 6.42593 7.43634 6.36483C7.74348 6.30374 8.06183 6.3351 8.35115 6.45493C8.64046 6.57477 8.88775 6.77771 9.06173 7.03809C9.2357 7.29847 9.32857 7.60459 9.32857 7.91774C9.32857 8.33767 9.16175 8.7404 8.86482 9.03733C8.56789 9.33426 8.16516 9.50108 7.74523 9.50108Z" fill="black"/>
</svg>
