<svg width="33" height="33" viewBox="0 0 33 33" fill="none" xmlns="http://www.w3.org/2000/svg">
<path d="M17.5312 27.8438V21.6562H21.6562L16.5 15.4688L11.3438 21.6562H15.4688V27.8438H10.3125V27.7922C10.1392 27.8025 9.97425 27.8438 9.79688 27.8438C7.74559 27.8438 5.77832 27.0289 4.32785 25.5784C2.87737 24.1279 2.0625 22.1607 2.0625 20.1094C2.0625 16.1411 5.06344 12.9071 8.91412 12.4637C9.25174 10.6988 10.1938 9.10671 11.5783 7.96126C12.9628 6.81581 14.7031 6.1886 16.5 6.1875C18.2971 6.18849 20.0378 6.81562 21.4226 7.96105C22.8074 9.10648 23.7499 10.6986 24.0879 12.4637C27.9386 12.9071 30.9354 16.1411 30.9354 20.1094C30.9354 22.1607 30.1206 24.1279 28.6701 25.5784C27.2196 27.0289 25.2523 27.8438 23.2011 27.8438C23.0278 27.8438 22.8607 27.8025 22.6854 27.7922V27.8438H17.5312Z" fill="#B7B1B1"/>
</svg>
