<svg width="23" height="23" viewBox="0 0 23 23" fill="none" xmlns="http://www.w3.org/2000/svg">
<path fill-rule="evenodd" clip-rule="evenodd" d="M11.4998 1.19531C9.53003 1.19531 7.64092 1.97781 6.24808 3.37065C4.85523 4.7635 4.07273 6.65261 4.07273 8.6224V9.29706C4.07268 9.96492 3.87494 10.6178 3.50444 11.1735L2.40523 12.8247C1.12682 14.7414 2.1024 17.3461 4.32478 17.9518C5.04864 18.1492 5.77825 18.3163 6.51361 18.453L6.51553 18.4578C7.25152 20.4243 9.2209 21.7995 11.4998 21.7995C13.7787 21.7995 15.7481 20.4243 16.4851 18.4578L16.487 18.453C17.223 18.3155 17.9533 18.1483 18.6758 17.9518C20.8982 17.3461 21.8738 14.7414 20.5954 12.8247L19.4952 11.1735C19.1247 10.6178 18.927 9.96492 18.9269 9.29706V8.6224C18.9269 6.65261 18.1444 4.7635 16.7516 3.37065C15.3587 1.97781 13.4696 1.19531 11.4998 1.19531ZM14.7352 18.7204C12.5856 18.9768 10.4131 18.9768 8.26353 18.7204C8.9449 19.6988 10.1304 20.362 11.4998 20.362C12.8693 20.362 14.0538 19.6988 14.7352 18.7204ZM5.51023 8.6224C5.51023 7.03386 6.14128 5.51039 7.26454 4.38712C8.38781 3.26386 9.91128 2.63281 11.4998 2.63281C13.0884 2.63281 14.6118 3.26386 15.7351 4.38712C16.8584 5.51039 17.4894 7.03386 17.4894 8.6224V9.29706C17.4894 10.2487 17.7712 11.1792 18.2992 11.9708L19.3994 13.622C19.5698 13.8773 19.6772 14.1695 19.7124 14.4745C19.7477 14.7794 19.71 15.0884 19.6023 15.3759C19.4947 15.6634 19.3202 15.9212 19.0933 16.1279C18.8664 16.3347 18.5935 16.4845 18.2973 16.5651C13.8466 17.7789 9.15209 17.7789 4.7014 16.5651C4.40531 16.4845 4.13262 16.3347 3.90581 16.128C3.67901 15.9213 3.50459 15.6636 3.39695 15.3762C3.28931 15.0889 3.25152 14.78 3.2867 14.4752C3.32189 14.1704 3.42904 13.8783 3.59932 13.623L4.7014 11.9708C5.229 11.1789 5.51043 10.2486 5.51023 9.29706V8.6224Z" fill="black"/>
</svg>
