<svg width="23" height="23" viewBox="0 0 23 23" fill="none" xmlns="http://www.w3.org/2000/svg">
<path d="M11.0946 19.4158C12.7404 19.4158 14.3492 18.9278 15.7176 18.0134C17.086 17.0991 18.1526 15.7995 18.7824 14.279C19.4122 12.7585 19.577 11.0854 19.2559 9.47123C18.9348 7.85709 18.1423 6.37439 16.9786 5.21066C15.8148 4.04692 14.3321 3.2544 12.718 2.93333C11.1038 2.61226 9.43073 2.77704 7.91024 3.40685C6.38974 4.03666 5.09015 5.10321 4.17581 6.47162C3.26147 7.84003 2.77344 9.44884 2.77344 11.0946C2.77344 12.4704 3.10628 13.7666 3.69801 14.9103L2.77344 19.4158L7.27889 18.4912C8.42167 19.082 9.71977 19.4158 11.0946 19.4158Z" stroke="black" stroke-width="1.5" stroke-linecap="round" stroke-linejoin="round"/>
</svg>
