<svg width="24" height="24" viewBox="0 0 24 24" fill="none" xmlns="http://www.w3.org/2000/svg">
<path d="M16.211 11.107L9.737 7.86905C9.55398 7.77746 9.35058 7.73421 9.14614 7.7434C8.94169 7.75258 8.74299 7.8139 8.56892 7.92153C8.39485 8.02916 8.2512 8.17952 8.15163 8.35831C8.05205 8.5371 7.99985 8.73839 8 8.94305V15.059C7.99985 15.2637 8.05205 15.465 8.15163 15.6438C8.2512 15.8226 8.39485 15.9729 8.56892 16.0806C8.74299 16.1882 8.94169 16.2495 9.14614 16.2587C9.35058 16.2679 9.55398 16.2246 9.737 16.133L16.211 12.895C16.3769 12.8119 16.5164 12.6843 16.6138 12.5264C16.7113 12.3685 16.7629 12.1866 16.7629 12.001C16.7629 11.8155 16.7113 11.6336 16.6138 11.4757C16.5164 11.3178 16.3769 11.1902 16.211 11.107Z" stroke="white" stroke-linecap="round" stroke-linejoin="round"/>
<path d="M12 21C16.9706 21 21 16.9706 21 12C21 7.02944 16.9706 3 12 3C7.02944 3 3 7.02944 3 12C3 16.9706 7.02944 21 12 21Z" stroke="white"/>
</svg>
