<svg width="20" height="20" viewBox="0 0 20 20" fill="none" xmlns="http://www.w3.org/2000/svg">
<path d="M10 15H8.75V13.75H10V15ZM10 3.75H8.75V12.5H10V3.75ZM9.375 19.9707C8.60026 19.515 7.83203 19.0299 7.07031 18.5156C6.30859 18.0013 5.57943 17.4447 4.88281 16.8457C4.1862 16.2467 3.54167 15.6087 2.94922 14.9316C2.35677 14.2546 1.83919 13.5286 1.39648 12.7539C0.953776 11.9792 0.611979 11.1556 0.371094 10.2832C0.130208 9.41081 0.00651042 8.48307 0 7.5V2.5C0.540365 2.5 1.06445 2.48047 1.57227 2.44141C2.08008 2.40234 2.57487 2.33073 3.05664 2.22656C3.53841 2.1224 4.01367 1.97591 4.48242 1.78711C4.95117 1.59831 5.41992 1.35417 5.88867 1.05469C6.44206 0.696615 6.99544 0.432943 7.54883 0.263672C8.10221 0.094401 8.71094 0.00651042 9.375 0C9.70703 0 10.0228 0.0195312 10.3223 0.0585938C10.6217 0.0976562 10.9115 0.16276 11.1914 0.253906C11.4714 0.345052 11.7513 0.455729 12.0312 0.585938C12.3112 0.716146 12.5879 0.872396 12.8613 1.05469C13.3301 1.35417 13.7988 1.59831 14.2676 1.78711C14.7363 1.97591 15.2116 2.1224 15.6934 2.22656C16.1751 2.33073 16.6699 2.40234 17.1777 2.44141C17.6855 2.48047 18.2096 2.5 18.75 2.5V7.5C18.75 8.48307 18.6263 9.41081 18.3789 10.2832C18.1315 11.1556 17.7897 11.9792 17.3535 12.7539C16.9173 13.5286 16.403 14.2546 15.8105 14.9316C15.2181 15.6087 14.5736 16.2435 13.877 16.8359C13.1803 17.4284 12.4512 17.985 11.6895 18.5059C10.9277 19.0267 10.1562 19.515 9.375 19.9707ZM1.25 3.73047V7.5C1.25 8.32682 1.35742 9.12109 1.57227 9.88281C1.78711 10.6445 2.08659 11.3672 2.4707 12.0508C2.85482 12.7344 3.30404 13.3854 3.81836 14.0039C4.33268 14.6224 4.89258 15.2018 5.49805 15.7422C6.10352 16.2826 6.73177 16.7871 7.38281 17.2559C8.03385 17.7246 8.69792 18.1478 9.375 18.5254C10.0391 18.1413 10.6999 17.7181 11.3574 17.2559C12.015 16.7936 12.6465 16.2923 13.252 15.752C13.8574 15.2116 14.4173 14.6322 14.9316 14.0137C15.446 13.3952 15.8952 12.7441 16.2793 12.0605C16.6634 11.377 16.9596 10.651 17.168 9.88281C17.3763 9.11458 17.487 8.32031 17.5 7.5V3.73047C16.5299 3.67839 15.6022 3.52214 14.7168 3.26172C13.8314 3.0013 12.9753 2.60742 12.1484 2.08008C11.7057 1.79362 11.2663 1.58529 10.8301 1.45508C10.3939 1.32487 9.90885 1.25651 9.375 1.25C8.84766 1.25 8.36589 1.3151 7.92969 1.44531C7.49349 1.57552 7.05078 1.78711 6.60156 2.08008C5.78125 2.60742 4.92839 3.0013 4.04297 3.26172C3.15755 3.52214 2.22656 3.67839 1.25 3.73047Z" fill="black"/>
</svg>
