<svg width="21" height="21" viewBox="0 0 21 21" fill="none" xmlns="http://www.w3.org/2000/svg">
<path opacity="0.8" d="M2.70679 11.7521C2.77829 11.9006 2.89024 12.0258 3.02975 12.1135C3.16926 12.2011 3.33068 12.2476 3.49544 12.2476H6.99666V18.3747C6.99666 18.6068 7.08887 18.8295 7.25303 18.9936C7.41718 19.1578 7.63982 19.25 7.87196 19.25H13.1238C13.3559 19.25 13.5786 19.1578 13.7427 18.9936C13.9069 18.8295 13.9991 18.6068 13.9991 18.3747V12.2476H17.5003C17.6651 12.2473 17.8265 12.2005 17.9659 12.1127C18.1053 12.0248 18.2171 11.8995 18.2885 11.7509C18.3599 11.6024 18.388 11.4368 18.3695 11.273C18.351 11.1093 18.2866 10.954 18.1839 10.8252L11.1815 2.07215C11.0995 1.9696 10.9955 1.88682 10.8771 1.82993C10.7588 1.77304 10.6292 1.7435 10.4979 1.7435C10.3666 1.7435 10.237 1.77304 10.1186 1.82993C10.0003 1.88682 9.89626 1.9696 9.81426 2.07215L2.81182 10.8252C2.60175 11.0887 2.56149 11.4484 2.70679 11.7521ZM10.4979 4.02058L15.6788 10.497H12.2485V17.4994H8.74726V10.497H5.31695L10.4979 4.02058Z" fill="#303030"/>
</svg>
