<svg width="18" height="18" viewBox="0 0 18 18" fill="none" xmlns="http://www.w3.org/2000/svg">
<path d="M9 15.75C7.66498 15.75 6.35993 15.3541 5.2499 14.6124C4.13987 13.8707 3.2747 12.8165 2.76381 11.5831C2.25292 10.3497 2.11925 8.99252 2.3797 7.68314C2.64015 6.37377 3.28303 5.17104 4.22703 4.22703C5.17103 3.28303 6.37377 2.64015 7.68314 2.3797C8.99251 2.11925 10.3497 2.25292 11.5831 2.76382C12.8165 3.27471 13.8707 4.13987 14.6124 5.2499C15.3541 6.35994 15.75 7.66498 15.75 9C15.75 10.116 15.48 11.1675 15 12.0953L15.75 15.75L12.0952 15C11.1682 15.4793 10.1152 15.75 9 15.75Z" stroke="#CC9B2F" stroke-linecap="round" stroke-linejoin="round"/>
</svg>
