<svg width="21" height="21" viewBox="0 0 21 21" fill="none" xmlns="http://www.w3.org/2000/svg">
<path opacity="0.8" d="M18.2932 9.24786C18.2217 9.09943 18.1098 8.97419 17.9702 8.88655C17.8307 8.79891 17.6693 8.75242 17.5046 8.75244H14.0033V2.6253C14.0033 2.39316 13.9111 2.17052 13.747 2.00637C13.5828 1.84222 13.3602 1.75 13.128 1.75H7.87621C7.64407 1.75 7.42143 1.84222 7.25728 2.00637C7.09313 2.17052 7.00091 2.39316 7.00091 2.6253V8.75244H3.49969C3.3349 8.75272 3.17353 8.79946 3.03411 8.88731C2.89468 8.97516 2.78286 9.10054 2.71147 9.24907C2.64009 9.3976 2.61204 9.56324 2.63054 9.72699C2.64904 9.89074 2.71335 10.046 2.81608 10.1748L9.81851 18.9279C9.90051 19.0304 10.0045 19.1132 10.1229 19.1701C10.2412 19.227 10.3708 19.2565 10.5021 19.2565C10.6334 19.2565 10.763 19.227 10.8814 19.1701C10.9997 19.1132 11.1037 19.0304 11.1857 18.9279L18.1882 10.1748C18.3982 9.91134 18.4385 9.55159 18.2932 9.24786ZM10.5021 16.9794L5.3212 10.503H8.75152V3.50061H12.2527V10.503H15.6831L10.5021 16.9794Z" fill="#303030"/>
</svg>
