<svg width="112" height="112" viewBox="0 0 112 112" fill="none" xmlns="http://www.w3.org/2000/svg">
<path d="M9.3335 75.3376V23.3229C9.3335 18.1989 13.4682 14.0362 18.5828 14.3489C23.1422 14.6289 28.5275 15.1842 32.6668 16.2716C37.5668 17.5642 43.3815 20.3176 47.9828 22.7489C49.4155 23.5096 50.9415 24.0322 52.5002 24.3309V95.1662C51.0712 94.8535 49.6924 94.3447 48.4028 93.6542C43.7362 91.1716 37.7162 88.2876 32.6668 86.9529C28.5742 85.8749 23.2588 85.3196 18.7368 85.0396C13.5615 84.7129 9.3335 80.5269 9.3335 75.3376ZM59.5002 95.1662C60.9291 94.8535 62.3079 94.3447 63.5975 93.6542C68.2642 91.1716 74.2842 88.2876 79.3335 86.9529C83.4262 85.8749 88.7415 85.3196 93.2635 85.0396C98.4388 84.7129 102.667 80.5222 102.667 75.3329V23.0242C102.667 18.0216 98.7188 13.9102 93.7162 14.0876C88.4475 14.2742 81.8862 14.8156 77.0002 16.2809C72.7628 17.5456 67.8302 20.0889 63.8122 22.4176C62.4644 23.1956 61.0124 23.777 59.5002 24.1442V95.1662Z" fill="#D4A017"/>
</svg>
