<svg width="9" height="8" viewBox="0 0 9 8" fill="none" xmlns="http://www.w3.org/2000/svg">
<circle cx="4.75571" cy="3.96078" r="3.85727" fill="white"/>
<path fill-rule="evenodd" clip-rule="evenodd" d="M3.49738 2.70173C3.5245 2.67464 3.56127 2.65942 3.5996 2.65942C3.63793 2.65942 3.67469 2.67464 3.70182 2.70173L6.01618 5.01609C6.03039 5.02933 6.04179 5.0453 6.04969 5.06304C6.0576 5.08079 6.06185 5.09994 6.06219 5.11936C6.06254 5.13878 6.05896 5.15808 6.05169 5.17609C6.04441 5.1941 6.03358 5.21046 6.01985 5.22419C6.00611 5.23793 5.98975 5.24876 5.97174 5.25603C5.95373 5.26331 5.93444 5.26688 5.91502 5.26654C5.89559 5.2662 5.87644 5.26194 5.8587 5.25404C5.84095 5.24613 5.82498 5.23473 5.81174 5.22052L3.49738 2.90616C3.47029 2.87904 3.45508 2.84228 3.45508 2.80394C3.45508 2.76561 3.47029 2.72885 3.49738 2.70173Z" fill="black"/>
<path fill-rule="evenodd" clip-rule="evenodd" d="M6.0166 2.70173C6.04369 2.72885 6.05891 2.76561 6.05891 2.80394C6.05891 2.84228 6.04369 2.87904 6.0166 2.90616L3.70224 5.22052C3.67482 5.24607 3.63855 5.25998 3.60108 5.25932C3.56361 5.25866 3.52785 5.24348 3.50135 5.21698C3.47485 5.19048 3.45967 5.15472 3.45901 5.11725C3.45835 5.07978 3.47226 5.04351 3.49781 5.01609L5.81217 2.70173C5.83929 2.67464 5.87605 2.65942 5.91438 2.65942C5.95272 2.65942 5.98948 2.67464 6.0166 2.70173Z" fill="black"/>
</svg>
