<svg width="28" height="34" viewBox="0 0 28 34" fill="none" xmlns="http://www.w3.org/2000/svg">
<path d="M17.8125 0.75H9.6875C9.04104 0.75 8.42105 1.00681 7.96393 1.46393C7.50681 1.92105 7.25 2.54103 7.25 3.1875C7.25 3.83397 7.50681 4.45395 7.96393 4.91107C8.42105 5.36819 9.04104 5.625 9.6875 5.625H17.8125C18.459 5.625 19.079 5.36819 19.5361 4.91107C19.9932 4.45395 20.25 3.83397 20.25 3.1875C20.25 2.54103 19.9932 1.92105 19.5361 1.46393C19.079 1.00681 18.459 0.75 17.8125 0.75Z" stroke="#D4A017" stroke-width="1.5" stroke-linecap="round" stroke-linejoin="round"/>
<path d="M20.25 3.1875C22.7753 3.26387 24.28 3.545 25.3216 4.58825C26.7516 6.015 26.7516 8.31275 26.7516 12.9083V23.5C26.7516 28.0955 26.7516 30.3933 25.3216 31.8216C23.8949 33.25 21.5955 33.25 17.0016 33.25H10.5016C5.90287 33.25 3.60512 33.25 2.17837 31.8216C0.751625 30.3933 0.75 28.0955 0.75 23.5V12.9099C0.75 8.31437 0.75 6.015 2.17837 4.58825C3.22 3.545 4.72637 3.26387 7.25 3.1875" stroke="#D4A017" stroke-width="1.5" stroke-linecap="round" stroke-linejoin="round"/>
<path d="M6.4375 15.375L8.0625 17L11.3125 12.9375M15.375 25.125H20.25M15.375 15.375H20.25" stroke="#D4A017" stroke-width="1.5" stroke-linecap="round" stroke-linejoin="round"/>
<path d="M8.04688 24.9062H8.06313" stroke="#D4A017" stroke-width="2" stroke-linecap="round" stroke-linejoin="round"/>
</svg>
