<svg width="39" height="39" viewBox="0 0 39 39" fill="none" xmlns="http://www.w3.org/2000/svg">
<path d="M26.3429 18.046L15.8226 12.7843C15.5252 12.6355 15.1947 12.5652 14.8625 12.5801C14.5302 12.595 14.2074 12.6947 13.9245 12.8696C13.6416 13.0445 13.4082 13.2888 13.2464 13.5793C13.0846 13.8699 12.9998 14.197 13 14.5295V24.468C12.9998 24.8006 13.0846 25.1277 13.2464 25.4182C13.4082 25.7088 13.6416 25.9531 13.9245 26.128C14.2074 26.3029 14.5302 26.4025 14.8625 26.4175C15.1947 26.4324 15.5252 26.3621 15.8226 26.2133L26.3429 20.9515C26.6124 20.8164 26.8391 20.609 26.9975 20.3524C27.1559 20.0959 27.2398 19.8003 27.2398 19.4988C27.2398 19.1973 27.1559 18.9017 26.9975 18.6451C26.8391 18.3886 26.6124 18.1811 26.3429 18.046Z" stroke="#D4A017" stroke-linecap="round" stroke-linejoin="round"/>
<path d="M19.5 34.125C27.5772 34.125 34.125 27.5772 34.125 19.5C34.125 11.4228 27.5772 4.875 19.5 4.875C11.4228 4.875 4.875 11.4228 4.875 19.5C4.875 27.5772 11.4228 34.125 19.5 34.125Z" stroke="#D4A017"/>
</svg>
