<svg width="41" height="41" viewBox="0 0 41 41" fill="none" xmlns="http://www.w3.org/2000/svg">
<g clip-path="url(#clip0_908_464)">
<path d="M41 20.5C41 9.17823 31.8218 0 20.5 0C9.17823 0 0 9.17823 0 20.5C0 30.7321 7.49659 39.2131 17.2969 40.751V26.4258H12.0918V20.5H17.2969V15.9836C17.2969 10.8458 20.3575 8.00781 25.0401 8.00781C27.2829 8.00781 29.6289 8.4082 29.6289 8.4082V13.4531H27.044C24.4973 13.4531 23.7031 15.0334 23.7031 16.6546V20.5H29.3887L28.4798 26.4258H23.7031V40.751C33.5034 39.2131 41 30.7322 41 20.5Z" fill="#1877F2"/>
<path d="M28.4798 26.4258L29.3887 20.5H23.7031V16.6546C23.7031 15.0332 24.4973 13.4531 27.044 13.4531H29.6289V8.4082C29.6289 8.4082 27.2829 8.00781 25.0399 8.00781C20.3575 8.00781 17.2969 10.8458 17.2969 15.9836V20.5H12.0918V26.4258H17.2969V40.751C18.3565 40.917 19.4274 41.0003 20.5 41C21.5726 41.0003 22.6435 40.917 23.7031 40.751V26.4258H28.4798Z" fill="white"/>
</g>
<defs>
<clipPath id="clip0_908_464">
<rect width="41" height="41" fill="white"/>
</clipPath>
</defs>
</svg>
