<svg width="22" height="21" viewBox="0 0 22 21" fill="none" xmlns="http://www.w3.org/2000/svg">
<g clip-path="url(#clip0_252_2402)">
<path d="M21.832 10.5C21.832 4.70101 17.131 0 11.332 0C5.53304 0 0.832031 4.70101 0.832031 10.5C0.832031 15.7409 4.67173 20.0847 9.69141 20.8724V13.5352H7.02539V10.5H9.69141V8.18672C9.69141 5.55515 11.259 4.10156 13.6574 4.10156C14.8062 4.10156 16.0078 4.30664 16.0078 4.30664V6.89062H14.6838C13.3794 6.89062 12.9727 7.7 12.9727 8.53037V10.5H15.8848L15.4192 13.5352H12.9727V20.8724C17.9923 20.0847 21.832 15.7409 21.832 10.5Z" fill="#1877F2"/>
<path d="M15.4192 13.5352L15.8848 10.5H12.9727V8.53037C12.9727 7.7 13.3794 6.89062 14.6838 6.89062H16.0078V4.30664C16.0078 4.30664 14.8062 4.10156 13.6574 4.10156C11.259 4.10156 9.69141 5.55515 9.69141 8.18672V10.5H7.02539V13.5352H9.69141V20.8724C10.7785 21.0425 11.8855 21.0425 12.9727 20.8724V13.5352H15.4192Z" fill="white"/>
</g>
<defs>
<clipPath id="clip0_252_2402">
<rect width="21" height="21" fill="white" transform="translate(0.832031)"/>
</clipPath>
</defs>
</svg>
