<svg width="63" height="65" viewBox="0 0 63 65" fill="none" xmlns="http://www.w3.org/2000/svg">
<mask id="path-1-inside-1_878_368" fill="white">
<path fill-rule="evenodd" clip-rule="evenodd" d="M46.1804 17.9373C46.7146 18.0454 47.0573 18.5672 46.9492 19.0983C46.8412 19.6324 46.3225 19.9751 45.7883 19.8671C44.8312 19.6725 43.7876 19.5954 42.9817 19.8053C42.676 19.8856 42.4105 20.006 42.219 20.182C42.0523 20.3333 41.9288 20.5401 41.8732 20.8149C41.8022 21.1669 41.8238 21.6269 41.969 22.2136C42.1851 22.7909 42.2468 23.4023 42.1604 23.992C42.0739 24.5972 41.8331 25.1838 41.4441 25.687C40.3233 27.1412 39.255 27.0888 38.1713 27.0394C37.6526 27.0147 37.1246 26.99 36.6831 27.4068C36.2076 27.8576 36.2354 28.367 36.2632 28.8796C36.3188 29.8522 36.3713 30.8247 35.2104 31.9115L35.022 32.0751C34.9603 32.1245 34.8923 32.177 34.8182 32.2264C34.3705 32.5352 33.7561 32.424 33.4473 31.9763C33.1386 31.5286 33.2497 30.9142 33.6974 30.6054L33.8395 30.4974L33.8673 30.4696C34.3551 30.0157 34.3242 29.5032 34.2964 28.9907C34.2439 28.0242 34.1884 27.0579 35.3338 25.9741C36.3805 24.9861 37.3253 25.0293 38.2577 25.0726C38.8289 25.1004 39.3909 25.1251 39.8849 24.4829C40.0609 24.2575 40.1689 23.9919 40.2091 23.714C40.2492 23.4393 40.2183 23.1521 40.1134 22.8835L40.0794 22.7723C39.8386 21.8491 39.8108 21.0742 39.9436 20.4227C40.0918 19.7064 40.4252 19.1475 40.8914 18.7245C41.3329 18.3232 41.8794 18.0607 42.4877 17.9001C43.6146 17.6037 44.9731 17.6903 46.1804 17.9373ZM27.9764 46.1053C29.514 47.155 31.0177 47.9825 32.4163 48.563C34.2781 49.3349 35.9084 49.659 37.1094 49.4584C37.1928 49.4306 37.2761 49.4151 37.3595 49.4059C37.835 49.2916 38.2364 49.0817 38.542 48.7729C39.6381 47.6769 39.4745 45.4168 38.3259 42.6441C37.0693 39.6122 34.6362 36.08 31.3295 32.7734C28.0227 29.4667 24.4937 27.0368 21.4588 25.777C18.6893 24.6285 16.4261 24.4679 15.3331 25.5609C15.0243 25.8696 14.8175 26.2679 14.7001 26.7434C14.694 26.8268 14.6785 26.9102 14.6507 26.9904C14.45 28.1915 14.7773 29.8248 15.5461 31.6866C16.1914 33.2458 17.1485 34.9378 18.3774 36.6607C18.4021 36.6915 18.4299 36.7255 18.4484 36.7626C19.5939 38.3588 20.9678 39.9829 22.5394 41.5575C22.7432 41.7613 22.947 41.9589 23.1507 42.1565L23.1847 42.1905C24.7316 43.6694 26.3155 44.96 27.8655 46.0252C27.9087 46.0561 27.9455 46.0806 27.9764 46.1053ZM28.3562 48.6926C29.4924 49.3781 30.604 49.9461 31.6599 50.3846C32.2156 50.6161 32.759 50.8106 33.287 50.9681L28.3562 52.9163V48.6926ZM23.4809 45.1296C24.4443 45.9601 25.4168 46.7197 26.3801 47.3989V53.6976L23.4809 54.8431V45.1296ZM18.6025 40.1833C19.3837 41.1189 20.2359 42.0513 21.1498 42.9652C21.2671 43.0825 21.3845 43.1998 21.5049 43.3141V55.6208L18.6056 56.7663V40.1834L18.6025 40.1833ZM13.7273 32.4459L13.7304 32.4552C14.4034 34.0792 15.3822 35.8298 16.6265 37.6083V57.548L13.7273 58.6935L13.7273 32.4459ZM8.84892 41.7088V60.6202L11.7482 59.4747V34.3633L8.84892 41.7088ZM3.97365 54.0558V62.5433L6.87289 61.3978V46.7103L3.97365 54.0558ZM0 64.1122L1.99453 63.3249V59.061L0 64.1122ZM33.8487 22.6313C33.3763 22.1589 32.6106 22.1589 32.1412 22.6313C31.6688 23.1037 31.6688 23.8694 32.1412 24.3388C32.6136 24.8112 33.3793 24.8112 33.8487 24.3388C34.3211 23.8664 34.3211 23.1038 33.8487 22.6313ZM46.4147 42.583C46.8871 43.0553 46.8871 43.818 46.4147 44.2904C45.9423 44.7628 45.1766 44.7628 44.7072 44.2904C44.2348 43.818 44.2348 43.0523 44.7072 42.583C45.1796 42.1105 45.9453 42.1105 46.4147 42.583ZM48.3938 28.8835C47.9214 28.4111 47.1557 28.4111 46.6863 28.8835C46.2139 29.3559 46.2139 30.1216 46.6863 30.591C47.1587 31.0633 47.9244 31.0633 48.3938 30.591C48.8631 30.1216 48.8631 29.3559 48.3938 28.8835ZM16.1939 18.8334C16.6663 19.3058 16.6663 20.0715 16.1939 20.5408C15.7215 21.0132 14.9558 21.0132 14.4865 20.5408C14.0141 20.0684 14.0141 19.3027 14.4865 18.8334C14.9558 18.361 15.7215 18.361 16.1939 18.8334ZM37.4331 0.354299C37.9055 0.826698 37.9055 1.5924 37.4331 2.06175C36.9607 2.53415 36.195 2.53415 35.7257 2.06175C35.2533 1.58935 35.2533 0.823647 35.7257 0.354299C36.1981 -0.1181 36.9607 -0.1181 37.4331 0.354299ZM50.8022 10.7838H54.3775V7.20845H50.8022V10.7838ZM43.179 11.5773L41.0394 13.3434L41.4469 16.0883L39.1066 14.6001L36.6212 15.8351L37.3128 13.149L35.3707 11.1698L38.1402 10.9969L39.4247 8.53615L40.4436 11.1142L43.179 11.5773ZM57.2492 46.1453L55.1096 47.9114L55.5171 50.6562L53.1768 49.168L50.6913 50.4031L51.3829 47.7169L49.4409 45.7378L52.2104 45.5649L53.4948 43.1072L54.5138 45.6853L57.2492 46.1453ZM57.4499 31.6309C57.1411 32.5541 56.6842 33.4958 56.0976 34.0917C55.8722 34.3202 55.6344 34.4869 55.3905 34.5672C55.1775 34.6351 54.9367 34.6382 54.668 34.5486C54.3253 34.4344 53.9301 34.1781 53.4855 33.7428C53.0965 33.2797 52.6055 32.9277 52.0621 32.7116C51.494 32.4831 50.8642 32.3997 50.2374 32.4831C48.4188 32.727 47.9248 33.681 47.4277 34.6444C47.1899 35.1044 46.9491 35.5707 46.3718 35.7435C45.7419 35.9319 45.3128 35.6509 44.8867 35.373C44.0747 34.8389 43.2595 34.3078 41.7373 34.771C41.1692 34.9439 40.6659 35.2588 40.2677 35.6663C39.8663 36.0832 39.5668 36.5957 39.4124 37.1638L39.4001 37.2194C39.3229 37.4695 39.2395 37.7072 39.1469 37.9326C39.0512 38.1642 38.9524 38.3618 38.8567 38.5223C38.5757 38.9854 38.7239 39.5906 39.187 39.8746C39.6502 40.1556 40.2554 40.0074 40.5393 39.5443C40.6999 39.2787 40.845 38.9947 40.9685 38.6921C41.0797 38.4235 41.1877 38.1178 41.2896 37.7813L41.3205 37.6825C41.3884 37.4355 41.5119 37.2163 41.6817 37.0434C41.8546 36.8643 42.0708 36.7285 42.3116 36.6575C42.9476 36.4629 43.3799 36.7439 43.809 37.028C44.618 37.559 45.43 38.0901 46.9367 37.6393C48.3169 37.2256 48.7522 36.3858 49.1845 35.5521C49.4469 35.0489 49.7032 34.5487 50.506 34.4406C50.7931 34.4005 51.0772 34.4407 51.3366 34.5456C51.5805 34.6444 51.8028 34.7988 51.9757 35.0026C52.0065 35.0489 52.0467 35.0921 52.0868 35.1323C52.763 35.7992 53.4237 36.2129 54.0567 36.4228C54.7483 36.6544 55.3967 36.6421 55.9987 36.4506C56.5668 36.2685 57.0701 35.9257 57.5086 35.4811C58.3268 34.6536 58.932 33.4341 59.321 32.2577C59.4908 31.7421 59.2129 31.1863 58.6973 31.0165C58.1755 30.8344 57.6197 31.1153 57.4499 31.6309ZM58.0983 18.944C58.4842 19.3299 58.4842 19.9566 58.0983 20.3426C57.7123 20.7285 57.0856 20.7285 56.7027 20.3426L55.1466 18.7896C54.7606 18.4037 54.7606 17.7769 55.1466 17.391C55.5325 17.005 56.1592 17.005 56.5452 17.391L58.0983 18.944ZM62.2325 23.0751C62.6185 23.4611 62.6185 24.0878 62.2325 24.4738C61.8466 24.8597 61.2199 24.8597 60.837 24.4738L59.2808 22.9208C58.8949 22.5348 58.8949 21.9081 59.2808 21.5221C59.6668 21.1362 60.2935 21.1362 60.6764 21.5221L62.2325 23.0751ZM56.7027 21.5221C57.0887 21.1362 57.7154 21.1362 58.0983 21.5221C58.4842 21.9081 58.4842 22.5348 58.0983 22.9208L56.5453 24.4738C56.1593 24.8597 55.5326 24.8597 55.1466 24.4738C54.7607 24.0878 54.7607 23.4611 55.1466 23.0751L56.7027 21.5221ZM60.837 17.3879C61.2229 17.0019 61.8497 17.0019 62.2325 17.3879C62.6185 17.7738 62.6185 18.4006 62.2325 18.7865L60.6764 20.3395C60.2904 20.7255 59.6668 20.7255 59.2808 20.3395C58.8949 19.9536 58.8949 19.3268 59.2808 18.9409L60.837 17.3879ZM17.9199 6.90225C18.3058 7.28819 18.3058 7.91492 17.9199 8.30088C17.5339 8.68683 16.9072 8.68683 16.5243 8.30088L14.9682 6.74788C14.5822 6.36194 14.5822 5.7352 14.9682 5.34924C15.3541 4.9633 15.9808 4.9633 16.3637 5.34924L17.9199 6.90225ZM22.0541 11.0365C22.4401 11.4224 22.4401 12.0492 22.0541 12.4351C21.6682 12.8211 21.0415 12.8211 20.6586 12.4351L19.1024 10.8821C18.7165 10.4962 18.7165 9.86946 19.1024 9.4835C19.4884 9.09756 20.1151 9.09756 20.498 9.4835L22.0541 11.0365ZM16.5243 9.4835C16.9103 9.09756 17.537 9.09756 17.9199 9.4835C18.3058 9.86944 18.3058 10.4962 17.9199 10.8821L16.3637 12.4351C15.9778 12.8211 15.351 12.8211 14.9682 12.4351C14.5822 12.0492 14.5822 11.4225 14.9682 11.0365L16.5243 9.4835ZM20.6586 5.34924C21.0445 4.9633 21.6713 4.9633 22.0541 5.34924C22.4401 5.73518 22.4401 6.36192 22.0541 6.74788L20.498 8.30088C20.112 8.68683 19.4853 8.68683 19.1024 8.30088C18.7165 7.91494 18.7165 7.2882 19.1024 6.90225L20.6586 5.34924ZM31.1252 4.05557C31.6409 3.88576 32.1967 4.16364 32.3695 4.67925C32.5393 5.19487 32.2584 5.75066 31.7427 5.92352C30.8195 6.23228 29.8778 6.68615 29.285 7.27584C29.0566 7.50124 28.8898 7.73898 28.8095 7.98289C28.7416 8.19593 28.7385 8.43676 28.8281 8.70538C28.9423 9.04809 29.1986 9.4433 29.6339 9.88792C30.097 10.2769 30.449 10.7679 30.6652 11.3082C30.8936 11.8763 30.977 12.5062 30.8936 13.133C30.6497 14.9515 29.6957 15.4456 28.7323 15.9457C28.2723 16.1835 27.806 16.4243 27.6332 17.0016C27.4448 17.6315 27.7258 18.0606 28.0068 18.4867C28.5409 19.2987 29.072 20.1139 28.6088 21.6361C28.4329 22.2073 28.121 22.7075 27.7135 23.1058C27.2966 23.5071 26.7841 23.8066 26.216 23.961L26.1604 23.9733C25.9104 24.0505 25.6695 24.1339 25.4472 24.2265C25.2157 24.3222 25.0181 24.421 24.8575 24.5198C24.3944 24.8008 23.7892 24.6526 23.5052 24.1895C23.2242 23.7263 23.3724 23.1211 23.8356 22.8372C24.1011 22.6766 24.3851 22.5315 24.6877 22.408C24.9563 22.2937 25.262 22.1888 25.5954 22.0869L25.6942 22.0529C25.9412 21.985 26.1604 21.8584 26.3333 21.6917C26.5124 21.5188 26.6483 21.3026 26.7193 21.0618C26.9138 20.4258 26.6328 19.9966 26.3488 19.5644C25.8177 18.7555 25.2866 17.9434 25.7374 16.4367C26.1512 15.0566 26.991 14.6212 27.8246 14.1889C28.3279 13.9265 28.828 13.6702 28.9361 12.8674C28.9731 12.5834 28.9361 12.2962 28.8311 12.0369C28.7323 11.7929 28.5779 11.5706 28.3742 11.3977C28.3278 11.3638 28.2846 11.3267 28.2445 11.2866C27.5776 10.6104 27.1638 9.94968 26.9539 9.31672C26.7254 8.62511 26.7347 7.97673 26.9261 7.37467C27.1083 6.80656 27.451 6.30327 27.8956 5.86483C28.7324 5.05283 29.952 4.44461 31.1252 4.05557Z"/>
</mask>
<path fill-rule="evenodd" clip-rule="evenodd" d="M46.1804 17.9373C46.7146 18.0454 47.0573 18.5672 46.9492 19.0983C46.8412 19.6324 46.3225 19.9751 45.7883 19.8671C44.8312 19.6725 43.7876 19.5954 42.9817 19.8053C42.676 19.8856 42.4105 20.006 42.219 20.182C42.0523 20.3333 41.9288 20.5401 41.8732 20.8149C41.8022 21.1669 41.8238 21.6269 41.969 22.2136C42.1851 22.7909 42.2468 23.4023 42.1604 23.992C42.0739 24.5972 41.8331 25.1838 41.4441 25.687C40.3233 27.1412 39.255 27.0888 38.1713 27.0394C37.6526 27.0147 37.1246 26.99 36.6831 27.4068C36.2076 27.8576 36.2354 28.367 36.2632 28.8796C36.3188 29.8522 36.3713 30.8247 35.2104 31.9115L35.022 32.0751C34.9603 32.1245 34.8923 32.177 34.8182 32.2264C34.3705 32.5352 33.7561 32.424 33.4473 31.9763C33.1386 31.5286 33.2497 30.9142 33.6974 30.6054L33.8395 30.4974L33.8673 30.4696C34.3551 30.0157 34.3242 29.5032 34.2964 28.9907C34.2439 28.0242 34.1884 27.0579 35.3338 25.9741C36.3805 24.9861 37.3253 25.0293 38.2577 25.0726C38.8289 25.1004 39.3909 25.1251 39.8849 24.4829C40.0609 24.2575 40.1689 23.9919 40.2091 23.714C40.2492 23.4393 40.2183 23.1521 40.1134 22.8835L40.0794 22.7723C39.8386 21.8491 39.8108 21.0742 39.9436 20.4227C40.0918 19.7064 40.4252 19.1475 40.8914 18.7245C41.3329 18.3232 41.8794 18.0607 42.4877 17.9001C43.6146 17.6037 44.9731 17.6903 46.1804 17.9373ZM27.9764 46.1053C29.514 47.155 31.0177 47.9825 32.4163 48.563C34.2781 49.3349 35.9084 49.659 37.1094 49.4584C37.1928 49.4306 37.2761 49.4151 37.3595 49.4059C37.835 49.2916 38.2364 49.0817 38.542 48.7729C39.6381 47.6769 39.4745 45.4168 38.3259 42.6441C37.0693 39.6122 34.6362 36.08 31.3295 32.7734C28.0227 29.4667 24.4937 27.0368 21.4588 25.777C18.6893 24.6285 16.4261 24.4679 15.3331 25.5609C15.0243 25.8696 14.8175 26.2679 14.7001 26.7434C14.694 26.8268 14.6785 26.9102 14.6507 26.9904C14.45 28.1915 14.7773 29.8248 15.5461 31.6866C16.1914 33.2458 17.1485 34.9378 18.3774 36.6607C18.4021 36.6915 18.4299 36.7255 18.4484 36.7626C19.5939 38.3588 20.9678 39.9829 22.5394 41.5575C22.7432 41.7613 22.947 41.9589 23.1507 42.1565L23.1847 42.1905C24.7316 43.6694 26.3155 44.96 27.8655 46.0252C27.9087 46.0561 27.9455 46.0806 27.9764 46.1053ZM28.3562 48.6926C29.4924 49.3781 30.604 49.9461 31.6599 50.3846C32.2156 50.6161 32.759 50.8106 33.287 50.9681L28.3562 52.9163V48.6926ZM23.4809 45.1296C24.4443 45.9601 25.4168 46.7197 26.3801 47.3989V53.6976L23.4809 54.8431V45.1296ZM18.6025 40.1833C19.3837 41.1189 20.2359 42.0513 21.1498 42.9652C21.2671 43.0825 21.3845 43.1998 21.5049 43.3141V55.6208L18.6056 56.7663V40.1834L18.6025 40.1833ZM13.7273 32.4459L13.7304 32.4552C14.4034 34.0792 15.3822 35.8298 16.6265 37.6083V57.548L13.7273 58.6935L13.7273 32.4459ZM8.84892 41.7088V60.6202L11.7482 59.4747V34.3633L8.84892 41.7088ZM3.97365 54.0558V62.5433L6.87289 61.3978V46.7103L3.97365 54.0558ZM0 64.1122L1.99453 63.3249V59.061L0 64.1122ZM33.8487 22.6313C33.3763 22.1589 32.6106 22.1589 32.1412 22.6313C31.6688 23.1037 31.6688 23.8694 32.1412 24.3388C32.6136 24.8112 33.3793 24.8112 33.8487 24.3388C34.3211 23.8664 34.3211 23.1038 33.8487 22.6313ZM46.4147 42.583C46.8871 43.0553 46.8871 43.818 46.4147 44.2904C45.9423 44.7628 45.1766 44.7628 44.7072 44.2904C44.2348 43.818 44.2348 43.0523 44.7072 42.583C45.1796 42.1105 45.9453 42.1105 46.4147 42.583ZM48.3938 28.8835C47.9214 28.4111 47.1557 28.4111 46.6863 28.8835C46.2139 29.3559 46.2139 30.1216 46.6863 30.591C47.1587 31.0633 47.9244 31.0633 48.3938 30.591C48.8631 30.1216 48.8631 29.3559 48.3938 28.8835ZM16.1939 18.8334C16.6663 19.3058 16.6663 20.0715 16.1939 20.5408C15.7215 21.0132 14.9558 21.0132 14.4865 20.5408C14.0141 20.0684 14.0141 19.3027 14.4865 18.8334C14.9558 18.361 15.7215 18.361 16.1939 18.8334ZM37.4331 0.354299C37.9055 0.826698 37.9055 1.5924 37.4331 2.06175C36.9607 2.53415 36.195 2.53415 35.7257 2.06175C35.2533 1.58935 35.2533 0.823647 35.7257 0.354299C36.1981 -0.1181 36.9607 -0.1181 37.4331 0.354299ZM50.8022 10.7838H54.3775V7.20845H50.8022V10.7838ZM43.179 11.5773L41.0394 13.3434L41.4469 16.0883L39.1066 14.6001L36.6212 15.8351L37.3128 13.149L35.3707 11.1698L38.1402 10.9969L39.4247 8.53615L40.4436 11.1142L43.179 11.5773ZM57.2492 46.1453L55.1096 47.9114L55.5171 50.6562L53.1768 49.168L50.6913 50.4031L51.3829 47.7169L49.4409 45.7378L52.2104 45.5649L53.4948 43.1072L54.5138 45.6853L57.2492 46.1453ZM57.4499 31.6309C57.1411 32.5541 56.6842 33.4958 56.0976 34.0917C55.8722 34.3202 55.6344 34.4869 55.3905 34.5672C55.1775 34.6351 54.9367 34.6382 54.668 34.5486C54.3253 34.4344 53.9301 34.1781 53.4855 33.7428C53.0965 33.2797 52.6055 32.9277 52.0621 32.7116C51.494 32.4831 50.8642 32.3997 50.2374 32.4831C48.4188 32.727 47.9248 33.681 47.4277 34.6444C47.1899 35.1044 46.9491 35.5707 46.3718 35.7435C45.7419 35.9319 45.3128 35.6509 44.8867 35.373C44.0747 34.8389 43.2595 34.3078 41.7373 34.771C41.1692 34.9439 40.6659 35.2588 40.2677 35.6663C39.8663 36.0832 39.5668 36.5957 39.4124 37.1638L39.4001 37.2194C39.3229 37.4695 39.2395 37.7072 39.1469 37.9326C39.0512 38.1642 38.9524 38.3618 38.8567 38.5223C38.5757 38.9854 38.7239 39.5906 39.187 39.8746C39.6502 40.1556 40.2554 40.0074 40.5393 39.5443C40.6999 39.2787 40.845 38.9947 40.9685 38.6921C41.0797 38.4235 41.1877 38.1178 41.2896 37.7813L41.3205 37.6825C41.3884 37.4355 41.5119 37.2163 41.6817 37.0434C41.8546 36.8643 42.0708 36.7285 42.3116 36.6575C42.9476 36.4629 43.3799 36.7439 43.809 37.028C44.618 37.559 45.43 38.0901 46.9367 37.6393C48.3169 37.2256 48.7522 36.3858 49.1845 35.5521C49.4469 35.0489 49.7032 34.5487 50.506 34.4406C50.7931 34.4005 51.0772 34.4407 51.3366 34.5456C51.5805 34.6444 51.8028 34.7988 51.9757 35.0026C52.0065 35.0489 52.0467 35.0921 52.0868 35.1323C52.763 35.7992 53.4237 36.2129 54.0567 36.4228C54.7483 36.6544 55.3967 36.6421 55.9987 36.4506C56.5668 36.2685 57.0701 35.9257 57.5086 35.4811C58.3268 34.6536 58.932 33.4341 59.321 32.2577C59.4908 31.7421 59.2129 31.1863 58.6973 31.0165C58.1755 30.8344 57.6197 31.1153 57.4499 31.6309ZM58.0983 18.944C58.4842 19.3299 58.4842 19.9566 58.0983 20.3426C57.7123 20.7285 57.0856 20.7285 56.7027 20.3426L55.1466 18.7896C54.7606 18.4037 54.7606 17.7769 55.1466 17.391C55.5325 17.005 56.1592 17.005 56.5452 17.391L58.0983 18.944ZM62.2325 23.0751C62.6185 23.4611 62.6185 24.0878 62.2325 24.4738C61.8466 24.8597 61.2199 24.8597 60.837 24.4738L59.2808 22.9208C58.8949 22.5348 58.8949 21.9081 59.2808 21.5221C59.6668 21.1362 60.2935 21.1362 60.6764 21.5221L62.2325 23.0751ZM56.7027 21.5221C57.0887 21.1362 57.7154 21.1362 58.0983 21.5221C58.4842 21.9081 58.4842 22.5348 58.0983 22.9208L56.5453 24.4738C56.1593 24.8597 55.5326 24.8597 55.1466 24.4738C54.7607 24.0878 54.7607 23.4611 55.1466 23.0751L56.7027 21.5221ZM60.837 17.3879C61.2229 17.0019 61.8497 17.0019 62.2325 17.3879C62.6185 17.7738 62.6185 18.4006 62.2325 18.7865L60.6764 20.3395C60.2904 20.7255 59.6668 20.7255 59.2808 20.3395C58.8949 19.9536 58.8949 19.3268 59.2808 18.9409L60.837 17.3879ZM17.9199 6.90225C18.3058 7.28819 18.3058 7.91492 17.9199 8.30088C17.5339 8.68683 16.9072 8.68683 16.5243 8.30088L14.9682 6.74788C14.5822 6.36194 14.5822 5.7352 14.9682 5.34924C15.3541 4.9633 15.9808 4.9633 16.3637 5.34924L17.9199 6.90225ZM22.0541 11.0365C22.4401 11.4224 22.4401 12.0492 22.0541 12.4351C21.6682 12.8211 21.0415 12.8211 20.6586 12.4351L19.1024 10.8821C18.7165 10.4962 18.7165 9.86946 19.1024 9.4835C19.4884 9.09756 20.1151 9.09756 20.498 9.4835L22.0541 11.0365ZM16.5243 9.4835C16.9103 9.09756 17.537 9.09756 17.9199 9.4835C18.3058 9.86944 18.3058 10.4962 17.9199 10.8821L16.3637 12.4351C15.9778 12.8211 15.351 12.8211 14.9682 12.4351C14.5822 12.0492 14.5822 11.4225 14.9682 11.0365L16.5243 9.4835ZM20.6586 5.34924C21.0445 4.9633 21.6713 4.9633 22.0541 5.34924C22.4401 5.73518 22.4401 6.36192 22.0541 6.74788L20.498 8.30088C20.112 8.68683 19.4853 8.68683 19.1024 8.30088C18.7165 7.91494 18.7165 7.2882 19.1024 6.90225L20.6586 5.34924ZM31.1252 4.05557C31.6409 3.88576 32.1967 4.16364 32.3695 4.67925C32.5393 5.19487 32.2584 5.75066 31.7427 5.92352C30.8195 6.23228 29.8778 6.68615 29.285 7.27584C29.0566 7.50124 28.8898 7.73898 28.8095 7.98289C28.7416 8.19593 28.7385 8.43676 28.8281 8.70538C28.9423 9.04809 29.1986 9.4433 29.6339 9.88792C30.097 10.2769 30.449 10.7679 30.6652 11.3082C30.8936 11.8763 30.977 12.5062 30.8936 13.133C30.6497 14.9515 29.6957 15.4456 28.7323 15.9457C28.2723 16.1835 27.806 16.4243 27.6332 17.0016C27.4448 17.6315 27.7258 18.0606 28.0068 18.4867C28.5409 19.2987 29.072 20.1139 28.6088 21.6361C28.4329 22.2073 28.121 22.7075 27.7135 23.1058C27.2966 23.5071 26.7841 23.8066 26.216 23.961L26.1604 23.9733C25.9104 24.0505 25.6695 24.1339 25.4472 24.2265C25.2157 24.3222 25.0181 24.421 24.8575 24.5198C24.3944 24.8008 23.7892 24.6526 23.5052 24.1895C23.2242 23.7263 23.3724 23.1211 23.8356 22.8372C24.1011 22.6766 24.3851 22.5315 24.6877 22.408C24.9563 22.2937 25.262 22.1888 25.5954 22.0869L25.6942 22.0529C25.9412 21.985 26.1604 21.8584 26.3333 21.6917C26.5124 21.5188 26.6483 21.3026 26.7193 21.0618C26.9138 20.4258 26.6328 19.9966 26.3488 19.5644C25.8177 18.7555 25.2866 17.9434 25.7374 16.4367C26.1512 15.0566 26.991 14.6212 27.8246 14.1889C28.3279 13.9265 28.828 13.6702 28.9361 12.8674C28.9731 12.5834 28.9361 12.2962 28.8311 12.0369C28.7323 11.7929 28.5779 11.5706 28.3742 11.3977C28.3278 11.3638 28.2846 11.3267 28.2445 11.2866C27.5776 10.6104 27.1638 9.94968 26.9539 9.31672C26.7254 8.62511 26.7347 7.97673 26.9261 7.37467C27.1083 6.80656 27.451 6.30327 27.8956 5.86483C28.7324 5.05283 29.952 4.44461 31.1252 4.05557Z" fill="#96710F" stroke="#707070" stroke-opacity="0.7" stroke-width="1.58083" mask="url(#path-1-inside-1_878_368)"/>
</svg>
