<svg width="64" height="64" viewBox="0 0 64 64" fill="none" xmlns="http://www.w3.org/2000/svg">
<path d="M53.7602 24.3207V55.0407C53.7602 55.3802 53.6254 55.7058 53.3853 55.9458C53.1453 56.1859 52.8197 56.3207 52.4802 56.3207H44.8002C44.4608 56.3207 44.1352 56.1859 43.8951 55.9458C43.6551 55.7058 43.5202 55.3802 43.5202 55.0407V24.3207C43.5202 23.9813 43.6551 23.6557 43.8951 23.4156C44.1352 23.1756 44.4608 23.0407 44.8002 23.0407H52.4802C52.8197 23.0407 53.1453 23.1756 53.3853 23.4156C53.6254 23.6557 53.7602 23.9813 53.7602 24.3207ZM35.8402 33.2807H28.1602C27.8208 33.2807 27.4952 33.4156 27.2551 33.6556C27.0151 33.8957 26.8802 34.2213 26.8802 34.5607V55.0407C26.8802 55.3802 27.0151 55.7058 27.2551 55.9458C27.4952 56.1859 27.8208 56.3207 28.1602 56.3207H35.8402C36.1797 56.3207 36.5053 56.1859 36.7453 55.9458C36.9854 55.7058 37.1202 55.3802 37.1202 55.0407V34.5607C37.1202 34.2213 36.9854 33.8957 36.7453 33.6556C36.5053 33.4156 36.1797 33.2807 35.8402 33.2807ZM19.2002 43.5207H11.5202C11.1808 43.5207 10.8552 43.6556 10.6151 43.8956C10.3751 44.1357 10.2402 44.4613 10.2402 44.8007V55.0407C10.2402 55.3802 10.3751 55.7058 10.6151 55.9458C10.8552 56.1859 11.1808 56.3207 11.5202 56.3207H19.2002C19.5397 56.3207 19.8653 56.1859 20.1053 55.9458C20.3454 55.7058 20.4802 55.3802 20.4802 55.0407V44.8007C20.4802 44.4613 20.3454 44.1357 20.1053 43.8956C19.8653 43.6556 19.5397 43.5207 19.2002 43.5207ZM44.1602 16.5383L43.5202 8.85833C43.5346 8.7736 43.5346 8.68706 43.5202 8.60233C43.5202 8.60233 43.5202 8.60233 43.5202 8.47433L43.341 8.26953H43.1618H42.5986L35.0466 9.62633C34.8799 9.65419 34.7203 9.71481 34.5771 9.80469C34.4339 9.89456 34.31 10.0119 34.2124 10.15C34.1148 10.288 34.0455 10.444 34.0085 10.609C33.9716 10.774 33.9677 10.9446 33.997 11.1111C34.0562 11.4071 34.2161 11.6734 34.4494 11.8647C34.6828 12.0561 34.9752 12.1607 35.277 12.1607H35.4818L39.9106 11.3671C37.0719 14.8411 33.5317 17.6766 29.5217 19.6883C25.5117 21.6999 21.1221 22.8423 16.6402 23.0407C16.3008 23.0407 15.9752 23.1756 15.7351 23.4156C15.4951 23.6557 15.3602 23.9813 15.3602 24.3207C15.3602 24.6602 15.4951 24.9858 15.7351 25.2258C15.9752 25.4659 16.3008 25.6007 16.6402 25.6007C21.4456 25.3002 26.1305 23.9723 30.379 21.7068C34.6274 19.4412 38.3404 16.2908 41.2674 12.4679L41.6258 16.7431C41.6512 17.0602 41.7938 17.3564 42.0257 17.5741C42.2576 17.7918 42.5622 17.9154 42.8802 17.9207H43.0082C43.3435 17.8883 43.6525 17.7249 43.8682 17.4661C44.0838 17.2073 44.1888 16.874 44.1602 16.5383Z" fill="#D4A017"/>
</svg>
