<svg width="35" height="35" viewBox="0 0 35 35" fill="none" xmlns="http://www.w3.org/2000/svg">
<path d="M9.11393 5.83203C8.24369 5.83203 7.40909 6.17773 6.79374 6.79309C6.17838 7.40844 5.83268 8.24304 5.83268 9.11328V20.0508C5.83268 20.921 6.17838 21.7556 6.79374 22.371C7.40909 22.9863 8.24369 23.332 9.11393 23.332H23.4056C22.7873 22.7265 22.3332 21.9738 22.0858 21.1445H9.11393C8.82385 21.1445 8.54565 21.0293 8.34053 20.8242C8.13542 20.6191 8.02018 20.3409 8.02018 20.0508V9.11328C8.02018 8.8232 8.13542 8.545 8.34053 8.33988C8.54565 8.13477 8.82385 8.01953 9.11393 8.01953H25.8848C26.1748 8.01953 26.453 8.13477 26.6582 8.33988C26.8633 8.545 26.9785 8.8232 26.9785 9.11328V14.582C27.7616 14.582 28.5025 14.757 29.166 15.0735V9.11328C29.166 8.68238 29.0811 8.2557 28.9162 7.8576C28.7513 7.4595 28.5097 7.09778 28.205 6.79309C27.9003 6.4884 27.5385 6.2467 27.1404 6.0818C26.7423 5.9169 26.3157 5.83203 25.8848 5.83203H9.11393ZM4.00977 25.5195H19.4068C19.1106 26.0929 18.9565 26.7291 18.9577 27.3745V27.5247C18.9577 27.586 18.9587 27.6468 18.9606 27.707H4.00977C3.71969 27.707 3.44149 27.5918 3.23637 27.3867C3.03125 27.1816 2.91602 26.9034 2.91602 26.6133C2.91602 26.3232 3.03125 26.045 3.23637 25.8399C3.44149 25.6348 3.71969 25.5195 4.00977 25.5195ZM30.6243 19.6862C30.6243 20.6531 30.2402 21.5805 29.5565 22.2642C28.8728 22.9479 27.9455 23.332 26.9785 23.332C26.0116 23.332 25.0842 22.9479 24.4005 22.2642C23.7168 21.5805 23.3327 20.6531 23.3327 19.6862C23.3327 18.7193 23.7168 17.7919 24.4005 17.1082C25.0842 16.4245 26.0116 16.0404 26.9785 16.0404C27.9455 16.0404 28.8728 16.4245 29.5565 17.1082C30.2402 17.7919 30.6243 18.7193 30.6243 19.6862ZM33.541 27.5247C33.541 29.7939 31.6656 32.082 26.9785 32.082C22.2914 32.082 20.416 29.8027 20.416 27.5247V27.3745C20.416 25.9454 21.5739 24.7904 23.0016 24.7904H30.9554C32.3846 24.7904 33.541 25.9468 33.541 27.3745V27.5247Z" fill="#9A7548"/>
</svg>
