<svg width="35" height="35" viewBox="0 0 35 35" fill="none" xmlns="http://www.w3.org/2000/svg">
<g clip-path="url(#clip0_1574_746)">
<path d="M34.3164 28.437H30.1919C30.2712 28.3557 30.3486 28.2723 30.4222 28.1845L32.4941 25.7133C32.6648 25.5098 32.7021 25.2259 32.5898 24.9851C32.4775 24.7444 32.2359 24.5905 31.9703 24.5905H27.6813C27.682 24.5566 27.6835 24.5225 27.6835 24.4885V19.4334C27.6835 19.1976 27.562 18.9785 27.3621 18.8536C27.1621 18.7287 26.9121 18.7156 26.7 18.8191L25.1169 19.5918C24.547 18.5289 23.4309 17.8369 22.1785 17.8369C21.756 17.8369 21.3493 17.916 20.9736 18.0611L22.9729 10.587C23.0706 10.2223 22.854 9.84759 22.4892 9.75004C22.1247 9.65222 21.7498 9.86905 21.6522 10.2337L19.1579 19.558L17.6282 18.8179C17.4432 18.7283 17.2178 18.7283 17.0328 18.8179L15.4744 19.5719L13.4975 13.1869C13.3858 12.8263 13.0028 12.6246 12.6423 12.7361C12.2816 12.8478 12.0798 13.2307 12.1915 13.5913L13.5612 18.0151C13.2212 17.8993 12.858 17.8367 12.4824 17.8367C11.23 17.8367 10.1139 18.5286 9.54406 19.5916L7.961 18.819C7.74916 18.7156 7.49897 18.7287 7.29902 18.8535C7.09906 18.9784 6.97759 19.1975 6.97759 19.4332V24.4884C6.97759 24.5224 6.97909 24.5564 6.97978 24.5904H2.85745C2.59181 24.5904 2.35029 24.7443 2.23798 24.985C2.12567 25.2257 2.16299 25.5096 2.33361 25.7132L4.40544 28.1842C4.47906 28.272 4.55658 28.3554 4.63581 28.4368H0.683699C0.352158 28.4368 0.0684672 28.6746 0.010567 29.0011C-0.0473332 29.3275 0.137442 29.6483 0.448749 29.7623C1.44296 30.1261 2.04521 30.8276 2.37538 31.3521C2.37894 31.3577 2.38249 31.3633 2.38625 31.3688C2.39158 31.3768 2.39705 31.3847 2.40273 31.3925C3.31997 32.6519 4.79789 33.4038 6.35614 33.4038H14.2541C14.6317 33.4038 14.9377 33.0978 14.9377 32.7202C14.9377 32.3427 14.6317 32.0366 14.2541 32.0366H6.35614C5.24024 32.0366 4.18157 31.5015 3.51992 30.604C3.33603 30.3144 3.12993 30.0471 2.90421 29.8039H32.0002C31.9319 29.8789 31.8661 29.9562 31.803 30.0361C31.6617 30.2131 31.5297 30.4083 31.4102 30.6167C30.7649 31.4836 29.7396 32.0133 28.6586 32.0366H20.2693C19.8918 32.0366 19.5857 32.3427 19.5857 32.7202C19.5857 33.0978 19.8918 33.4038 20.2693 33.4038H28.6658C28.6703 33.4038 28.6748 33.4038 28.6793 33.4037C30.1997 33.3736 31.642 32.6215 32.5373 31.3917C32.553 31.3702 32.5674 31.3476 32.5805 31.3244C32.6698 31.1656 32.7678 31.019 32.8733 30.8866C33.2645 30.3926 33.8114 30.0256 34.5455 29.7644C34.8589 29.6529 35.0466 29.332 34.9901 29.0041C34.9334 28.6764 34.6491 28.437 34.3164 28.437ZM29.3744 27.3062C28.7735 28.0233 27.8927 28.4351 26.9568 28.4369H22.7297C23.65 26.9237 25.3915 25.9576 27.1667 25.9576H30.505L29.3744 27.3062ZM18.4256 28.437H16.2381C16.6736 28.0476 17.0449 27.589 17.3323 27.08C17.6208 27.5891 17.9907 28.0479 18.4256 28.437ZM23.8864 20.192C23.2004 20.5212 22.6085 20.9779 22.1785 21.6133C21.7978 21.0508 21.2735 20.5841 20.6458 20.2775L20.4706 20.192C20.814 19.5917 21.458 19.204 22.1785 19.204C22.899 19.204 23.543 19.5917 23.8864 20.192ZM18.0142 20.5234L20.0459 21.5063C20.5316 21.7435 20.9352 22.1376 21.1895 22.6141C21.3857 22.9815 21.4947 23.3965 21.4949 23.8247C21.4951 24.1956 21.8073 24.5097 22.1786 24.5097C22.5561 24.5097 22.8622 24.2036 22.8622 23.8261C22.8622 23.5271 22.9158 23.2348 23.0144 22.9603C23.2413 22.3316 23.7093 21.8002 24.3111 21.5064L26.3163 20.5276V24.4884C26.3163 24.5447 26.3151 24.6011 26.3127 24.6575C24.0988 24.9826 22.1781 26.3204 21.2212 28.3572C19.3887 28.0005 18.0142 26.3845 18.0142 24.4884V20.5234ZM12.4824 19.204C13.2029 19.204 13.8469 19.5917 14.1904 20.192L14.015 20.2776C13.3994 20.5784 12.8662 21.0462 12.4824 21.6133C12.1017 21.0508 11.5774 20.5841 10.9497 20.2776L10.7745 20.192C11.1178 19.5917 11.7619 19.204 12.4824 19.204ZM8.3447 20.5277L10.3498 21.5063C11.3191 21.9798 11.7102 22.8694 11.802 23.8865C11.8326 24.2357 12.1254 24.5097 12.4825 24.5097C12.86 24.5097 13.1661 24.2036 13.1661 23.8261C13.1661 22.855 13.7415 21.9332 14.6143 21.5068L16.6469 20.5234V24.4885C16.6469 26.3409 15.3642 27.9122 13.5919 28.3253C12.6042 26.2494 10.6133 24.917 8.34744 24.6366C8.34559 24.5873 8.3447 24.538 8.3447 24.4885V20.5277ZM5.45325 27.3061L4.32266 25.9577H7.66104C9.43257 25.9577 11.1831 26.9238 12.0997 28.437H7.87091C6.93507 28.4351 6.05413 28.0234 5.45325 27.3061Z" fill="#9A7548"/>
<path d="M15.5362 11.9828C15.8412 12.1972 16.2743 12.1216 16.4887 11.8169C17.379 10.5511 17.3902 9.08659 16.5201 7.69309C15.8991 6.69853 15.9326 5.79482 16.6224 4.93034C16.8579 4.63524 16.8095 4.20512 16.5144 3.96962C16.2193 3.73412 15.7892 3.78245 15.5537 4.07756C14.5035 5.39368 14.4349 6.93491 15.3604 8.41715C15.9452 9.35374 15.9485 10.2085 15.3704 11.0303C15.1532 11.3391 15.2274 11.7655 15.5362 11.9828Z" fill="#9A7548"/>
<path d="M18.929 6.20505C19.234 6.41949 19.6671 6.34395 19.8815 6.03921C20.7719 4.77339 20.783 3.30886 19.913 1.91536C19.7129 1.59509 19.2912 1.49768 18.971 1.69757C18.6508 1.89752 18.5534 2.31923 18.7532 2.63949C19.3381 3.57608 19.3413 4.43085 18.7632 5.25266C18.546 5.56144 18.6202 5.9878 18.929 6.20505Z" fill="#9A7548"/>
<path d="M16.7455 33.098C17.0802 33.5996 17.8826 33.4303 17.9864 32.8352C18.0956 32.209 17.3255 31.785 16.8544 32.2116C16.6049 32.4377 16.5625 32.8186 16.7455 33.098Z" fill="#9A7548"/>
</g>
<defs>
<clipPath id="clip0_1574_746">
<rect width="35" height="35" fill="white"/>
</clipPath>
</defs>
</svg>
