<svg width="35" height="33" viewBox="0 0 35 33" fill="none" xmlns="http://www.w3.org/2000/svg">
<g clip-path="url(#clip0_1574_779)">
<path d="M17.4992 24.0125C21.896 24.0125 25.4732 20.6398 25.4732 16.4942C25.4732 13.5246 23.6125 10.8266 20.7331 9.62058C20.388 9.47614 19.9841 9.62264 19.8308 9.948C19.6776 10.2733 19.833 10.6542 20.1781 10.7987C22.5642 11.798 24.106 14.0337 24.106 16.4943C24.106 19.9291 21.1422 22.7235 17.4992 22.7235C13.8562 22.7235 10.8925 19.9291 10.8925 16.4943C10.8925 14.0122 12.4532 11.7687 14.8686 10.7789C15.2148 10.6369 15.3735 10.2573 15.223 9.93079C15.0725 9.60427 14.6698 9.45461 14.3236 9.5966C11.4088 10.7911 9.52539 13.4986 9.52539 16.4942C9.52532 20.6398 13.1024 24.0125 17.4992 24.0125Z" fill="#9A7548"/>
<path d="M0.491104 17.118C0.884239 17.2268 1.23622 17.4574 1.48184 17.7668L3.30314 20.0652C3.30806 20.0715 3.31373 20.0775 3.31879 20.0837C3.3177 20.0918 3.31599 20.0998 3.31496 20.1079L2.95922 22.9486C2.91219 23.3245 2.74409 23.6708 2.47325 23.9503L2.43217 23.9927C2.22928 24.2019 2.19537 24.5117 2.3485 24.7556C2.50169 24.9997 2.80596 25.1207 3.09819 25.0537C3.49646 24.9625 3.92315 24.9962 4.29975 25.1486L7.09441 26.2796C7.10262 26.2829 7.11103 26.2856 7.11923 26.2888C7.12265 26.2964 7.12545 26.3043 7.12894 26.3119L8.32693 28.9391C8.48566 29.2876 8.52381 29.6669 8.43699 30.0375C8.36405 30.3323 8.46605 30.6388 8.75712 30.793C9.01634 30.9303 9.34877 30.8908 9.56383 30.6973C9.86017 30.4306 10.2478 30.2585 10.655 30.2127L13.6765 29.8746C13.6849 29.8737 13.6928 29.8721 13.7012 29.8711C13.7082 29.8761 13.7147 29.8815 13.7217 29.8864L16.1531 31.5973C16.4748 31.8236 16.7088 32.134 16.83 32.4947L16.8483 32.5494C16.9384 32.8176 17.2022 32.9995 17.5 32.9995H17.5073C17.808 32.9964 18.0714 32.8085 18.1561 32.5364C18.2714 32.1656 18.5157 31.834 18.844 31.6027L21.2801 29.8863C21.2873 29.8813 21.294 29.8757 21.3011 29.8707C21.3098 29.8717 21.3182 29.8733 21.327 29.8743L24.34 30.2096C24.7383 30.254 25.1055 30.4124 25.4032 30.6691C25.6366 30.8764 25.9716 30.9452 26.2573 30.7853C26.5157 30.6407 26.6436 30.3539 26.5725 30.0786C26.4742 29.6977 26.509 29.306 26.6733 28.9455L27.8731 26.3101C27.8766 26.3026 27.8793 26.2949 27.8826 26.2874C27.8906 26.2842 27.8988 26.2816 27.9068 26.2784L30.6941 25.1484C31.0629 24.9989 31.4648 24.963 31.8566 25.0443L31.916 25.0567C32.2096 25.1179 32.5112 24.9908 32.6589 24.7437C32.8066 24.4967 32.7655 24.1876 32.5579 23.9824C32.275 23.7029 32.0925 23.3376 32.0443 22.9539C32.0443 22.9539 31.683 20.09 31.6819 20.0816C31.6871 20.0752 33.5131 17.7696 33.5131 17.7696C33.7529 17.4666 34.0822 17.2459 34.4653 17.1312C34.7729 17.0434 35.004 16.8074 35.0001 16.492C34.9967 16.2085 34.7971 15.9603 34.5084 15.8808C34.1157 15.7726 33.764 15.5424 33.5184 15.2329L31.6971 12.9345C31.6921 12.9282 31.6865 12.9222 31.6814 12.916C31.6825 12.9079 31.6842 12.8998 31.6853 12.8916L32.041 10.0509C32.088 9.67503 32.2561 9.32873 32.5269 9.04926L32.568 9.00691C32.7709 8.79764 32.8048 8.48787 32.6517 8.24385C32.4985 7.99983 32.1942 7.87898 31.902 7.94582C31.5038 8.03702 31.0771 8.00338 30.7005 7.85095L27.9058 6.71999C27.8976 6.71664 27.8892 6.71399 27.8809 6.71071C27.8776 6.70317 27.8748 6.6953 27.8713 6.68783L26.6732 4.05956C26.5145 3.7117 26.4764 3.33278 26.5632 2.96205C26.6362 2.6673 26.5342 2.36076 26.2431 2.20659C25.9812 2.06783 25.6537 2.10676 25.4364 2.30231C25.1401 2.56901 24.7524 2.7411 24.3452 2.78686C24.3452 2.78686 21.3076 3.12737 21.2992 3.1284C21.2922 3.12337 18.8473 1.40222 18.8473 1.40222C18.5256 1.17586 18.2915 0.865453 18.1703 0.504644L18.1519 0.449988C18.0611 0.179671 17.7958 -0.00311791 17.4928 4.02906e-05C17.1921 0.00306959 16.9288 0.191079 16.8442 0.463201C16.7288 0.833935 16.4845 1.16555 16.1563 1.3968L13.7201 3.11319C13.7129 3.11822 13.7062 3.12383 13.6991 3.12892C13.6911 3.12795 13.6832 3.12647 13.6752 3.12557C13.6746 3.1255 13.6739 3.12544 13.6733 3.12537L10.6602 2.79009C10.2619 2.74574 9.89469 2.58725 9.59705 2.3306C9.36258 2.12358 9.03028 2.05371 8.74297 2.21439C8.48457 2.35903 8.35667 2.64578 8.4277 2.92106C8.52463 3.29656 8.48895 3.69855 8.32693 4.05356L7.12709 6.68957C7.12367 6.69704 7.12101 6.70465 7.11766 6.71213C7.10966 6.71528 7.10146 6.71786 7.09346 6.72115L4.30645 7.85095C3.93765 8.00048 3.53549 8.03657 3.14324 7.95504L3.08384 7.94273C2.79003 7.88169 2.48863 8.00886 2.34111 8.25597C2.19359 8.50308 2.23461 8.81201 2.44222 9.01716C2.72509 9.29669 2.90754 9.66195 2.95587 10.0457L3.31435 12.8932C3.31537 12.9015 3.31715 12.9097 3.31824 12.918C3.31305 12.9244 3.3071 12.9308 3.30204 12.9373L1.48819 15.2295C1.24818 15.5321 0.919786 15.7526 0.538135 15.8676C0.229971 15.9523 -0.00176719 16.1889 1.01545e-05 16.5031C0.00171914 16.7878 0.20126 17.0378 0.491104 17.118ZM10.4936 28.9328C10.2552 28.9596 10.0207 29.0116 9.79509 29.0866C9.75093 28.8633 9.68011 28.6435 9.58311 28.4304L8.70906 26.5135C9.16857 26.4706 9.62193 26.3342 10.0218 26.1165L11.5319 25.2944C11.9168 25.0849 12.4062 25.3544 12.4062 25.7704V27.4134C12.4062 27.8496 12.5081 28.2887 12.6988 28.6861L10.4936 28.9328ZM25.417 28.4368C25.3222 28.6449 25.2525 28.8624 25.2086 29.0843C24.9813 29.0087 24.7443 28.9566 24.5003 28.9294L22.3025 28.6849C22.4926 28.2882 22.594 27.8499 22.594 27.4147V25.7702C22.594 25.3533 23.0844 25.0855 23.4683 25.2944L24.9776 26.116C25.3783 26.3341 25.8325 26.4706 26.2927 26.5136L25.417 28.4368ZM31.0937 14.3271L32.4233 16.005C32.5671 16.1862 32.732 16.3514 32.9135 16.498C32.7305 16.6457 32.5642 16.8133 32.4173 16.9988L31.0935 18.6712C30.8242 18.3176 30.4721 18.0155 30.0723 17.7978L28.5622 16.9756C28.1805 16.7679 28.1773 16.2334 28.5621 16.0239L30.0714 15.2023C30.4719 14.9841 30.8241 14.6814 31.0937 14.3271ZM24.5064 4.06703C24.7448 4.04022 24.9793 3.98827 25.2049 3.91325C25.2491 4.13645 25.3199 4.35604 25.417 4.5688L26.2911 6.48628C25.8317 6.52927 25.3782 6.66553 24.9783 6.88325L23.4682 7.70528C23.085 7.91379 22.5939 7.64702 22.5939 7.22943V5.58645C22.5939 5.15036 22.4921 4.71098 22.3013 4.31376L24.5064 4.06703ZM9.58297 4.56261C9.67785 4.35475 9.74751 4.13729 9.79153 3.9155C10.0188 3.99111 10.2558 4.04319 10.4998 4.07038L12.6977 4.31492C12.5077 4.71156 12.4061 5.14997 12.4061 5.58516V7.22962C12.4061 7.64566 11.9152 7.91398 11.5318 7.70535L10.0225 6.88376C9.62221 6.66572 9.16748 6.52901 8.70735 6.48615L9.58297 4.56261ZM4.84648 9.03534L7.6335 7.90547C8.179 7.6844 8.82493 7.72004 9.33886 8.00035L10.8482 8.82193C12.13 9.51977 13.7735 8.61717 13.7735 7.22936V5.58523C13.7735 5.02539 14.0628 4.48102 14.5383 4.14592L16.9745 2.42954C17.1668 2.29406 17.3422 2.1386 17.4979 1.96728C17.6546 2.13995 17.8325 2.29683 18.0294 2.4354L20.4607 4.14618C20.9366 4.48114 21.2266 5.02597 21.2266 5.58613V7.2293C21.2266 8.61633 22.8746 9.51706 24.1519 8.82168L25.6619 7.99958C26.1752 7.71921 26.8216 7.68395 27.3664 7.90451L30.1611 9.03553C30.3817 9.1248 30.6121 9.19028 30.8473 9.23173C30.7671 9.44603 30.712 9.66962 30.6831 9.89972L30.3274 12.7405C30.2577 13.2969 29.9027 13.8053 29.388 14.0856L27.8785 14.9073C26.5996 15.6034 26.6019 17.3973 27.8785 18.0922L29.3886 18.9142C29.9006 19.193 30.2618 19.7032 30.3281 20.2584L30.6866 23.1059C30.7149 23.3306 30.7699 23.5516 30.8495 23.7644C30.6126 23.806 30.3797 23.8728 30.154 23.9642L27.3667 25.0942C26.8207 25.3156 26.1758 25.2799 25.6613 24.9994L24.1519 24.1778C22.8723 23.4812 21.2267 24.3796 21.2267 25.7703V27.4145C21.2267 27.9742 20.9375 28.5186 20.4617 28.8538L18.0256 30.5702C17.8333 30.7056 17.6579 30.861 17.5022 31.0324C17.3455 30.8598 17.1676 30.7029 16.9708 30.5644L14.5394 28.8535C14.063 28.5183 13.7735 27.9741 13.7735 27.4136V25.7704C13.7735 24.3816 12.1277 23.4815 10.8482 24.1781L9.33824 25.0001C8.82411 25.2799 8.17928 25.3159 7.63377 25.0951L4.8391 23.9641C4.61857 23.8748 4.38807 23.8094 4.15284 23.7679C4.23303 23.5536 4.28826 23.3299 4.31711 23.0998L4.67285 20.2591C4.74251 19.7026 5.09791 19.194 5.61252 18.9137L7.12183 18.0922C8.39987 17.3965 8.39994 15.6032 7.12183 14.9075L5.6117 14.0855C5.0975 13.8056 4.74217 13.2971 4.67217 12.7413L4.31369 9.89379C4.28539 9.66911 4.23029 9.44803 4.15079 9.23534C4.38752 9.19363 4.62069 9.12686 4.84648 9.03534ZM2.58352 16.001L3.90675 14.3287C4.03861 14.5019 4.19133 14.6622 4.35772 14.8063C4.46996 14.9035 4.77266 15.2021 4.92797 15.2021L6.43762 16.0237C6.82104 16.2324 6.82132 16.7668 6.43762 16.9757L4.92804 17.7975C4.52779 18.0158 4.17574 18.3187 3.90648 18.6729L2.57682 16.9948C2.43306 16.8138 2.26824 16.6485 2.08668 16.502C2.26975 16.3542 2.43627 16.1866 2.58352 16.001Z" fill="#9A7548"/>
<path d="M20.6281 14.0703C21.0057 14.0703 21.3117 13.7818 21.3117 13.4258C21.3117 13.0698 21.0057 12.7812 20.6281 12.7812H17.5398C17.1622 12.7812 16.8562 13.0698 16.8562 13.4258V15.8124H14.9297V13.5451C14.9297 13.1891 14.6236 12.9006 14.2461 12.9006C13.8685 12.9006 13.5625 13.1891 13.5625 13.5451V16.4569C13.5625 16.8129 13.8685 17.1015 14.2461 17.1015H16.8562V18.918H14.3725C13.9949 18.918 13.6889 19.2065 13.6889 19.5625C13.6889 19.9185 13.9949 20.207 14.3725 20.207H17.5398C17.9173 20.207 18.2234 19.9185 18.2234 19.5625V17.1015H20.0711V19.4433C20.0711 19.7992 20.3772 20.0878 20.7547 20.0878C21.1323 20.0878 21.4383 19.7992 21.4383 19.4433V16.4569C21.4383 16.101 21.1323 15.8124 20.7547 15.8124H18.2234V14.0703H20.6281Z" fill="#9A7548"/>
<path d="M16.8694 9.86385C17.1077 10.4122 17.9711 10.3696 18.1541 9.80455C18.3347 9.2471 17.6652 8.76918 17.1429 9.06908C16.8601 9.23144 16.7422 9.57588 16.8694 9.86385Z" fill="#9A7548"/>
</g>
<defs>
<clipPath id="clip0_1574_779">
<rect width="35" height="33" fill="white"/>
</clipPath>
</defs>
</svg>
