<svg width="35" height="33" viewBox="0 0 35 33" fill="none" xmlns="http://www.w3.org/2000/svg">
<path d="M29.1673 6.1875H22.9548C21.7736 4.5306 19.7683 3.4375 17.5007 3.4375C15.233 3.4375 13.2277 4.5306 12.0465 6.1875H5.83398C4.63084 6.1875 3.64648 7.11561 3.64648 8.25V23.375C3.64648 24.5093 4.63084 25.4375 5.83398 25.4375H14.5475C14.4673 26.2281 14.1173 26.9637 13.5194 27.5344L12.8267 28.1875H11.6673C11.2663 28.1875 10.9382 28.4969 10.9382 28.875C10.9382 29.2531 11.2663 29.5625 11.6673 29.5625H23.334C23.735 29.5625 24.0632 29.2531 24.0632 28.875C24.0632 28.4969 23.735 28.1875 23.334 28.1875H22.1746L21.4819 27.5344C20.884 26.9637 20.534 26.2281 20.4538 25.4375H21.8757C22.2767 25.4375 22.6048 25.1281 22.6048 24.75C22.6048 24.3719 22.2767 24.0625 21.8757 24.0625H12.3965V22.6875H29.8965V23.375C29.8965 23.7531 29.5684 24.0625 29.1673 24.0625H27.709C27.308 24.0625 26.9798 24.3719 26.9798 24.75C26.9798 25.1281 27.308 25.4375 27.709 25.4375H29.1673C30.3705 25.4375 31.3548 24.5093 31.3548 23.375V8.25C31.3548 7.11561 30.3705 6.1875 29.1673 6.1875ZM16.0277 25.4375H18.9736C19.0465 26.455 19.4548 27.4106 20.1475 28.1875H14.8538C15.5465 27.4106 15.9548 26.455 16.0277 25.4375ZM26.7684 17.3937C27.0423 17.6516 27.0416 18.105 26.7611 18.3563C26.484 18.6243 26.0173 18.6243 25.7402 18.3563L21.5986 14.4512C21.9705 14.1694 22.3204 13.8394 22.6194 13.4888C22.6194 13.4888 26.7549 17.3811 26.7684 17.3937ZM17.5007 4.8125C20.3152 4.8125 22.6048 6.97126 22.6048 9.625C22.6048 12.2787 20.3152 14.4375 17.5007 14.4375C14.6861 14.4375 12.3965 12.2787 12.3965 9.625C12.3965 6.97126 14.6861 4.8125 17.5007 4.8125ZM7.29232 24.0625H5.83398C5.43295 24.0625 5.10482 23.7531 5.10482 23.375V22.6875H7.29232V24.0625ZM10.9382 24.0625H8.75065V22.6875H10.9382V24.0625ZM29.8965 21.3125H5.10482V8.25C5.10482 7.87188 5.43295 7.5625 5.83398 7.5625H11.3246C11.0767 8.20875 10.9382 8.90313 10.9382 9.625C10.9382 13.035 13.884 15.8125 17.5007 15.8125C18.5142 15.8125 19.4694 15.5856 20.3298 15.2006L24.7048 19.3325C25.1205 19.7244 25.6673 19.9375 26.2507 19.9375C26.834 19.9375 27.3808 19.7244 27.7891 19.3325C28.6202 18.535 28.6388 17.2117 27.7965 16.4175L23.4142 12.2925C23.8225 11.4813 24.0631 10.5806 24.0631 9.62501C24.0631 8.90314 23.9246 8.20876 23.6767 7.56251H29.1673C29.5683 7.56251 29.8965 7.87189 29.8965 8.25001L29.8965 21.3125Z" fill="#9A7548"/>
<path d="M15.6977 12.9818C15.9203 13.0943 16.2267 13.0851 16.4461 12.9475L20.8211 10.1975C21.0241 10.07 21.1458 9.85546 21.1458 9.62551C21.1458 9.39556 21.0241 9.18105 20.8211 9.05349L16.4461 6.30349C16.2218 6.16216 15.9338 6.14907 15.6977 6.26925C15.4606 6.3891 15.3125 6.62206 15.3125 6.87552V12.3755C15.3125 12.6289 15.4606 12.8619 15.6977 12.9818ZM16.7708 8.1602L19.1022 9.6255L16.7708 11.0908V8.1602Z" fill="#9A7548"/>
<path d="M24.7917 25.4375C25.1944 25.4375 25.5208 25.1297 25.5208 24.75C25.5208 24.3703 25.1944 24.0625 24.7917 24.0625C24.389 24.0625 24.0625 24.3703 24.0625 24.75C24.0625 25.1297 24.389 25.4375 24.7917 25.4375Z" fill="#9A7548"/>
</svg>
