<svg width="35" height="35" viewBox="0 0 35 35" fill="none" xmlns="http://www.w3.org/2000/svg">
<path d="M2.0957 19.1006H4.61256V30.3819H3.46289C3.08534 30.3819 2.7793 30.688 2.7793 31.0655V34.3164C2.7793 34.694 3.08534 35 3.46289 35H14.6846C15.0622 35 15.3682 34.694 15.3682 34.3164C15.3682 33.9389 15.0622 33.6328 14.6846 33.6328H4.14648V31.7491H30.8522V33.6328H20.6996C20.3221 33.6328 20.016 33.9389 20.016 34.3164C20.016 34.694 20.3221 35 20.6996 35H31.5358C31.9133 35 32.2194 34.694 32.2194 34.3164V31.0655C32.2194 30.688 31.9133 30.3819 31.5358 30.3819H30.3861V19.1006H32.903C33.2805 19.1006 33.5865 18.7945 33.5865 18.417C33.5865 18.0394 33.2805 17.7334 32.903 17.7334H31.8136L30.8637 14.6206H31.2618C33.0034 14.6206 33.9841 12.5195 32.8677 11.1843C32.6255 10.8948 32.1944 10.8563 31.9048 11.0985C31.6151 11.3407 31.5767 11.7718 31.8189 12.0614C32.2056 12.5238 31.8658 13.2534 31.2619 13.2534H28.3992L27.4493 10.1407H27.8474C29.5891 10.1407 30.5698 8.0394 29.4533 6.70435C29.2111 6.41478 28.7799 6.37629 28.4904 6.61855C28.2008 6.86075 28.1624 7.29189 28.4046 7.58146C28.7913 8.04385 28.4514 8.77352 27.8475 8.77352H25.3603L24.4103 5.66084H24.8053C25.427 5.66084 26.0123 5.38733 26.4111 4.91039C27.062 4.13226 27.062 3.00262 26.4111 2.22441C26.1689 1.93484 25.7378 1.89636 25.4482 2.13862C25.1587 2.38082 25.1202 2.81196 25.3624 3.10153C25.5882 3.37148 25.5882 3.76332 25.3624 4.03327C25.2241 4.1987 25.021 4.29358 24.8054 4.29358H20.716C20.7076 3.13687 20.158 2.03834 19.1649 1.19772L17.9409 0.161807C17.686 -0.0539356 17.3126 -0.0539356 17.0577 0.161807L15.8337 1.19772C14.8406 2.03834 14.291 3.13687 14.2827 4.29358H10.1933C9.59028 4.29358 9.24896 3.5646 9.63622 3.10153C9.87842 2.81189 9.84 2.38082 9.55043 2.13862C9.26086 1.89649 8.82972 1.93484 8.58752 2.22441C7.47101 3.55947 8.45155 5.66084 10.1933 5.66084H10.5884L9.63848 8.77358H7.08607C6.48308 8.77358 6.14176 8.0446 6.52901 7.58153C6.77121 7.29189 6.73279 6.86082 6.44322 6.61862C6.15358 6.37643 5.72251 6.41484 5.48031 6.70441C4.3638 8.03947 5.34435 10.1408 7.08614 10.1408H7.48119L6.53127 13.2535H3.73988C3.13688 13.2535 2.79557 12.5245 3.18282 12.0615C3.42502 11.7718 3.3866 11.3408 3.09703 11.0986C2.80739 10.8564 2.37625 10.8948 2.13412 11.1843C1.01768 12.5194 1.99822 14.6207 3.73995 14.6207H4.13507L3.18515 17.7334H2.0957C1.71815 17.7334 1.41211 18.0395 1.41211 18.417C1.41211 18.7946 1.71815 19.1006 2.0957 19.1006ZM5.56439 14.6206H14.2819V17.7334H4.61447L5.56439 14.6206ZM29.4343 14.6206L30.3842 17.7334H20.7168V14.6206H29.4343ZM19.3495 17.7334H15.649V5.66084H19.3495V17.7334ZM12.6256 30.3819V24.2958C12.6256 23.6026 13.1896 23.0386 13.8828 23.0386H16.8157V30.3819H12.6256ZM18.1829 30.3819V23.0385H21.1158C21.809 23.0385 22.373 23.6025 22.373 24.2957V30.3818H18.1829V30.3819ZM29.0189 30.3819H23.7402V24.2958C23.7402 22.8487 22.5629 21.6714 21.1158 21.6714H13.8828C12.4357 21.6714 11.2585 22.8487 11.2585 24.2958V30.3819H5.97975V19.1006H29.0189V30.3819ZM20.7167 13.2534V10.1407H26.0198L26.9697 13.2534H20.7167ZM20.7167 8.77352V5.66084H22.9809L23.9308 8.77358H20.7167V8.77352ZM16.717 2.2413L17.4993 1.57917L18.2816 2.2413C18.9622 2.81736 19.3407 3.54525 19.3494 4.29358H15.6492C15.658 3.54525 16.0364 2.81736 16.717 2.2413ZM12.0178 5.66084H14.2819V8.77358H11.0679L12.0178 5.66084ZM8.91045 10.1407H14.2819V13.2534H7.96053L8.91045 10.1407Z" fill="#9A7548"/>
<path d="M18.2037 33.9377C17.9992 33.6258 17.5644 33.5447 17.2562 33.7491C16.9453 33.9552 16.8623 34.387 17.0676 34.6965C17.2737 35.0074 17.7055 35.0906 18.015 34.8852C18.3254 34.6793 18.4097 34.2469 18.2037 33.9377Z" fill="#9A7548"/>
<path d="M15.2207 25.5625C14.8432 25.5625 14.5371 25.8685 14.5371 26.2461V27.2844C14.5371 27.662 14.8432 27.968 15.2207 27.968C15.5983 27.968 15.9043 27.662 15.9043 27.2844V26.2461C15.9043 25.8685 15.5982 25.5625 15.2207 25.5625Z" fill="#9A7548"/>
<path d="M19.7051 25.5625C19.3275 25.5625 19.0215 25.8685 19.0215 26.2461V27.2844C19.0215 27.662 19.3275 27.968 19.7051 27.968C20.0826 27.968 20.3887 27.662 20.3887 27.2844V26.2461C20.3887 25.8685 20.0826 25.5625 19.7051 25.5625Z" fill="#9A7548"/>
</svg>
