<svg width="35" height="35" viewBox="0 0 35 35" fill="none" xmlns="http://www.w3.org/2000/svg">
<path d="M21.5741 23.3398L23.0995 26.6199C23.0995 26.6199 29.9564 28.0759 29.9564 31.539C29.9564 33.9995 26.9057 33.9995 26.9057 33.9995H18.7813L14.7812 31.7773" stroke="#9A7548" stroke-width="1.5" stroke-linecap="round" stroke-linejoin="round"/>
<path d="M12.435 23.3398L10.9114 26.6199C10.9114 26.6199 4.05273 28.0759 4.05273 31.539C4.05273 33.9995 7.1034 33.9995 7.1034 33.9995H10.7834L14.7834 31.7773L19.6723 28.6661" stroke="#9A7548" stroke-width="1.5" stroke-linecap="round" stroke-linejoin="round"/>
<path d="M1 24.9798C1 24.9798 4.80978 24.1602 7.096 23.3406C9.38044 11.8596 16.2356 12.6792 17 12.6792C17.7644 12.6792 24.6196 11.8596 26.904 23.3406C29.1902 24.1584 33 24.9798 33 24.9798M17 9.11117C17.943 9.11117 18.8474 8.73657 19.5142 8.06977C20.181 7.40297 20.5556 6.49859 20.5556 5.55559C20.5556 4.61259 20.181 3.70821 19.5142 3.04141C18.8474 2.37461 17.943 2 17 2C16.057 2 15.1526 2.37461 14.4858 3.04141C13.819 3.70821 13.4444 4.61259 13.4444 5.55559C13.4444 6.49859 13.819 7.40297 14.4858 8.06977C15.1526 8.73657 16.057 9.11117 17 9.11117Z" stroke="#9A7548" stroke-width="1.5" stroke-linecap="round" stroke-linejoin="round"/>
</svg>
