<svg width="20" height="20" viewBox="0 0 20 20" fill="none" xmlns="http://www.w3.org/2000/svg">
<path d="M3.53268 10.211C3.20319 9.88364 2.94213 9.49403 2.76472 9.06482C2.58732 8.63561 2.49711 8.17538 2.49935 7.71095C2.49935 6.77164 2.87249 5.87081 3.53668 5.20662C4.20087 4.54242 5.10171 4.16929 6.04102 4.16929C7.35768 4.16929 8.50768 4.88595 9.11602 5.95262H10.0493C10.3586 5.41017 10.8061 4.95936 11.3463 4.6461C11.8864 4.33284 12.4999 4.16832 13.1243 4.16929C14.0637 4.16929 14.9645 4.54242 15.6287 5.20662C16.2929 5.87081 16.666 6.77164 16.666 7.71095C16.666 8.68595 16.2493 9.58595 15.6327 10.211L9.58268 16.2526L3.53268 10.211ZM16.216 10.8026C17.0077 10.0026 17.4993 8.91929 17.4993 7.71095C17.4993 6.55063 17.0384 5.43783 16.2179 4.61736C15.3975 3.79689 14.2847 3.33595 13.1243 3.33595C11.666 3.33595 10.3743 4.04429 9.58268 5.14429C9.1786 4.58303 8.64652 4.12622 8.03058 3.81173C7.41464 3.49723 6.7326 3.33413 6.04102 3.33595C4.88069 3.33595 3.7679 3.79689 2.94742 4.61736C2.12695 5.43783 1.66602 6.55063 1.66602 7.71095C1.66602 8.91929 2.15768 10.0026 2.94935 10.8026L9.58268 17.436L16.216 10.8026Z" fill="#CC9B2F"/>
</svg>
