<svg width="36" height="36" viewBox="0 0 36 36" fill="none" xmlns="http://www.w3.org/2000/svg">
<path d="M32.5825 16.8752H24.6557C24.4196 15.4944 23.7608 14.2208 22.7702 13.2302C21.7797 12.2396 20.5061 11.5808 19.1252 11.3447V3.41797C22.6049 3.68676 25.8738 5.19089 28.3417 7.65874C30.8095 10.1266 32.3137 13.3955 32.5825 16.8752ZM32.5825 19.1252C32.3137 22.6049 30.8095 25.8738 28.3417 28.3417C25.8738 30.8095 22.6049 32.3137 19.1252 32.5825V24.6557C20.5061 24.4196 21.7797 23.7608 22.7702 22.7702C23.7608 21.7797 24.4196 20.5061 24.6557 19.1252H32.5825ZM3.42022 19.1252H11.347C11.5829 20.5058 12.2414 21.7791 13.2315 22.7697C14.2217 23.7602 15.4948 24.4192 16.8752 24.6557V32.5825C13.3955 32.3137 10.1266 30.8095 7.65874 28.3417C5.19089 25.8738 3.68676 22.6049 3.41797 19.1252H3.42022ZM3.42022 16.8752C3.68895 13.3959 5.19275 10.1272 7.66014 7.65943C10.1275 5.19163 13.3959 3.68728 16.8752 3.41797V11.3447C15.4944 11.5808 14.2208 12.2396 13.2302 13.2302C12.2396 14.2208 11.5808 15.4944 11.3447 16.8752H3.41797H3.42022Z" fill="#D4A017"/>
</svg>
