<svg width="10" height="10" viewBox="0 0 10 10" fill="none" xmlns="http://www.w3.org/2000/svg">
<g clip-path="url(#clip0_2781_3896)">
<path d="M8.74935 7.08073H2.91602V1.2474H8.74935M8.74935 0.414062H2.91602C2.695 0.414063 2.48304 0.50186 2.32676 0.65814C2.17048 0.81442 2.08268 1.02638 2.08268 1.2474V7.08073C2.08268 7.30174 2.17048 7.5137 2.32676 7.66998C2.48304 7.82626 2.695 7.91406 2.91602 7.91406H8.74935C8.97036 7.91406 9.18232 7.82626 9.3386 7.66998C9.49488 7.5137 9.58268 7.30174 9.58268 7.08073V1.2474C9.58268 1.02638 9.49488 0.81442 9.3386 0.65814C9.18232 0.50186 8.97036 0.414063 8.74935 0.414062ZM1.24935 2.08073H0.416016V8.74739C0.416016 8.96841 0.503813 9.18037 0.660093 9.33665C0.816374 9.49293 1.02834 9.58073 1.24935 9.58073H7.91601V8.74739H1.24935M6.64935 4.2849L5.50352 5.7599L4.68685 4.77656L3.54102 6.2474H8.12435L6.64935 4.2849Z" fill="white"/>
</g>
<defs>
<clipPath id="clip0_2781_3896">
<rect width="10" height="10" fill="white"/>
</clipPath>
</defs>
</svg>
