<svg width="18" height="18" viewBox="0 0 18 18" fill="none" xmlns="http://www.w3.org/2000/svg">
<path d="M9.64124 4.39297C9.55124 4.32406 9.44718 4.27344 9.32624 4.24531C9.20671 4.21859 9.08015 4.20312 8.94374 4.20312C8.80733 4.20312 8.67937 4.21719 8.55843 4.24531C8.43608 4.27203 8.33202 4.32266 8.24061 4.39297C8.15061 4.46188 8.0803 4.55328 8.02827 4.66719C7.97765 4.78109 7.95093 4.92453 7.95093 5.09469C7.95093 5.26203 7.97765 5.40266 8.02827 5.51937C8.0803 5.63328 8.15061 5.7275 8.24061 5.79641C8.33061 5.86531 8.43608 5.91594 8.55843 5.94547C8.67937 5.975 8.80733 5.99047 8.94374 5.99047C9.07874 5.99047 9.20671 5.975 9.32624 5.94547C9.44718 5.91594 9.55124 5.86531 9.64124 5.79641C9.73124 5.7275 9.80296 5.63328 9.8564 5.51937C9.90983 5.40266 9.93655 5.26203 9.93655 5.09469C9.93655 4.92313 9.90983 4.77969 9.8564 4.66719C9.80296 4.55328 9.73124 4.46188 9.64124 4.39297ZM8.03108 6.82297H9.85499V13.5041H8.03108V6.82297Z" fill="#D4A017" fill-opacity="0.86"/>
<path d="M8.94234 0C4.01062 0 0 4.01062 0 8.94234C0 13.8727 4.01062 17.8847 8.94094 17.8847C13.8713 17.8847 17.8833 13.8741 17.8833 8.94234C17.8847 4.01062 13.8727 0 8.94234 0ZM8.94234 16.5937C4.72359 16.5937 1.29234 13.1611 1.29234 8.94234C1.29234 4.72359 4.72359 1.29094 8.94234 1.29094C13.1611 1.29094 16.5938 4.72359 16.5938 8.94375C16.5923 13.1611 13.1597 16.5937 8.94234 16.5937Z" fill="#D4A017" fill-opacity="0.86"/>
</svg>
