<svg width="22" height="21" viewBox="0 0 22 21" fill="none" xmlns="http://www.w3.org/2000/svg">
<g clip-path="url(#clip0_252_2406)">
<path d="M5.49116 20.9257C4.6789 20.9166 3.87427 20.7676 3.1126 20.4853C2.5564 20.2797 2.05318 19.9524 1.63972 19.5273C1.2135 19.1147 0.885715 18.6113 0.680722 18.0546C0.398612 17.293 0.249847 16.4885 0.240957 15.6763C0.178574 14.3261 0.166016 13.9211 0.166016 10.5C0.166016 7.07885 0.17981 6.67532 0.240339 5.32412C0.250308 4.51228 0.399256 3.70814 0.680722 2.94659C0.886713 2.39029 1.21403 1.88687 1.6389 1.47288C2.05184 1.04704 2.5553 0.719563 3.11199 0.514706C3.87365 0.232362 4.67828 0.0833882 5.49054 0.0743235C6.84113 0.0125588 7.24672 0 10.666 0C14.0853 0 14.4907 0.0137941 15.8419 0.0743235C16.6539 0.0842224 17.4583 0.233171 18.22 0.514706C18.7765 0.719834 19.2798 1.0472 19.6929 1.47268C20.1185 1.88593 20.446 2.38939 20.6513 2.94597C20.9337 3.70763 21.0828 4.51225 21.0919 5.32453C21.1537 6.67574 21.1662 7.08029 21.1662 10.5004C21.1662 13.9205 21.1537 14.3251 21.0919 15.6763C21.0821 16.4884 20.9331 17.2929 20.6513 18.0546C20.4382 18.6071 20.1117 19.1087 19.693 19.5274C19.2743 19.946 18.7725 20.2723 18.22 20.4853C17.4584 20.7677 16.6538 20.9167 15.8415 20.9259C14.4915 20.9876 14.0857 21.0002 10.6656 21.0002C7.24549 21.0002 6.84093 20.9883 5.49096 20.9259" fill="url(#paint0_radial_252_2406)"/>
<path d="M5.49116 20.9257C4.6789 20.9166 3.87427 20.7676 3.1126 20.4853C2.5564 20.2797 2.05318 19.9524 1.63972 19.5273C1.2135 19.1147 0.885715 18.6113 0.680722 18.0546C0.398612 17.293 0.249847 16.4885 0.240957 15.6763C0.178574 14.3261 0.166016 13.9211 0.166016 10.5C0.166016 7.07885 0.17981 6.67532 0.240339 5.32412C0.250308 4.51228 0.399256 3.70814 0.680722 2.94659C0.886713 2.39029 1.21403 1.88687 1.6389 1.47288C2.05184 1.04704 2.5553 0.719563 3.11199 0.514706C3.87365 0.232362 4.67828 0.0833882 5.49054 0.0743235C6.84113 0.0125588 7.24672 0 10.666 0C14.0853 0 14.4907 0.0137941 15.8419 0.0743235C16.6539 0.0842224 17.4583 0.233171 18.22 0.514706C18.7765 0.719834 19.2798 1.0472 19.6929 1.47268C20.1185 1.88593 20.446 2.38939 20.6513 2.94597C20.9337 3.70763 21.0828 4.51225 21.0919 5.32453C21.1537 6.67574 21.1662 7.08029 21.1662 10.5004C21.1662 13.9205 21.1537 14.3251 21.0919 15.6763C21.0821 16.4884 20.9331 17.2929 20.6513 18.0546C20.4382 18.6071 20.1117 19.1087 19.693 19.5274C19.2743 19.946 18.7725 20.2723 18.22 20.4853C17.4584 20.7677 16.6538 20.9167 15.8415 20.9259C14.4915 20.9876 14.0857 21.0002 10.6656 21.0002C7.24549 21.0002 6.84093 20.9883 5.49096 20.9259" fill="url(#paint1_radial_252_2406)"/>
<path d="M8.08813 10.5447C8.08817 10.0304 8.24074 9.52762 8.52652 9.09999C8.81231 8.67236 9.21849 8.33908 9.6937 8.1423C10.1689 7.94551 10.6918 7.89407 11.1962 7.99447C11.7007 8.09487 12.164 8.34259 12.5277 8.70633C12.8913 9.07007 13.1389 9.53347 13.2392 10.0379C13.3395 10.5424 13.2879 11.0653 13.091 11.5404C12.8941 12.0156 12.5608 12.4217 12.1331 12.7074C11.7054 12.9931 11.2026 13.1455 10.6882 13.1454C9.99856 13.1453 9.33718 12.8713 8.84958 12.3836C8.36197 11.8958 8.08808 11.2344 8.08813 10.5447ZM6.68216 10.5447C6.68216 11.3371 6.91711 12.1116 7.3573 12.7704C7.79749 13.4292 8.42316 13.9426 9.15517 14.2459C9.88718 14.5491 10.6927 14.6284 11.4698 14.4738C12.2469 14.3192 12.9607 13.9377 13.5209 13.3774C14.0812 12.8172 14.4627 12.1034 14.6173 11.3263C14.7719 10.5492 14.6925 9.7437 14.3893 9.01168C14.0861 8.27967 13.5727 7.65401 12.9139 7.21382C12.2551 6.77363 11.4805 6.53868 10.6882 6.53868C10.1621 6.53865 9.64119 6.64225 9.15514 6.84357C8.66909 7.04488 8.22745 7.33996 7.85545 7.71196C7.48344 8.08397 7.18836 8.5256 6.98705 9.01165C6.78574 9.4977 6.68213 10.0186 6.68216 10.5447ZM13.9167 6.37994C13.9166 6.5651 13.9714 6.74612 14.0742 6.90011C14.177 7.0541 14.3232 7.17416 14.4942 7.24509C14.6652 7.31602 14.8534 7.33464 15.035 7.2986C15.2166 7.26256 15.3835 7.17347 15.5145 7.0426C15.6455 6.91174 15.7347 6.74497 15.7709 6.5634C15.8071 6.38182 15.7886 6.19358 15.7178 6.02249C15.6471 5.8514 15.5271 5.70514 15.3732 5.60221C15.2193 5.49928 15.0384 5.44429 14.8532 5.44421C14.605 5.44432 14.3671 5.54293 14.1915 5.71838C14.016 5.89383 13.9173 6.13177 13.9171 6.37994M7.53678 16.8952C7.04207 16.8897 6.55198 16.7992 6.08798 16.6275C5.75148 16.4978 5.44587 16.2991 5.19081 16.0442C4.93576 15.7892 4.73691 15.4837 4.60707 15.1472C4.43532 14.6833 4.34478 14.1932 4.33942 13.6984C4.30154 12.8761 4.29413 12.6291 4.29413 10.5458C4.29413 8.46244 4.30237 8.216 4.33942 7.39289C4.34543 6.89823 4.43594 6.40824 4.60707 5.94409C4.73676 5.60749 4.93555 5.3018 5.19062 5.04673C5.44569 4.79166 5.75138 4.59287 6.08798 4.46318C6.55196 4.29143 7.04206 4.20089 7.53678 4.19553C8.35907 4.15765 8.60613 4.15024 10.6886 4.15024C12.7711 4.15024 13.0184 4.15827 13.8415 4.19574C14.3362 4.20174 14.8262 4.29226 15.2903 4.46339C15.6269 4.59309 15.9326 4.79188 16.1877 5.04695C16.4427 5.30202 16.6415 5.6077 16.7712 5.9443C16.943 6.40828 17.0335 6.89838 17.0389 7.39309C17.0767 8.21662 17.0842 8.46245 17.0842 10.546C17.0842 12.6295 17.0765 12.8757 17.0389 13.6989C17.0331 14.1935 16.9426 14.6836 16.7712 15.1476C16.6414 15.4841 16.4425 15.7896 16.1875 16.0446C15.9324 16.2995 15.6268 16.4982 15.2903 16.6279C14.8263 16.7997 14.3362 16.8902 13.8415 16.8956C13.0192 16.9335 12.7722 16.9409 10.6886 16.9409C8.6051 16.9409 8.35887 16.9333 7.53678 16.8956M7.47213 2.7908C6.8248 2.80353 6.18433 2.92605 5.57801 3.15315C5.0597 3.35355 4.58899 3.66005 4.19605 4.05299C3.80311 4.44592 3.49662 4.91664 3.29622 5.43494C3.06915 6.04127 2.94663 6.68174 2.93387 7.32906C2.89537 8.16083 2.88672 8.42683 2.88672 10.5456C2.88672 12.6643 2.89557 12.9301 2.93387 13.7621C2.94662 14.4094 3.06914 15.0499 3.29622 15.6562C3.49663 16.1745 3.80313 16.6452 4.19606 17.0381C4.589 17.4311 5.05971 17.7376 5.57801 17.938C6.18436 18.165 6.82481 18.2875 7.47213 18.3003C8.30431 18.3382 8.56989 18.3475 10.6886 18.3475C12.8074 18.3475 13.0732 18.3386 13.9051 18.3003C14.5525 18.2875 15.1929 18.165 15.7992 17.938C16.3175 17.7376 16.7883 17.4311 17.1812 17.0381C17.5741 16.6452 17.8806 16.1745 18.081 15.6562C18.3084 15.0499 18.4309 14.4094 18.4434 13.7621C18.4813 12.9297 18.4899 12.6643 18.4899 10.5456C18.4899 8.42683 18.4811 8.16103 18.4434 7.32906C18.4307 6.68174 18.3081 6.04126 18.081 5.43494C17.8806 4.91674 17.5742 4.44609 17.1814 4.05317C16.7886 3.66024 16.318 3.35369 15.7999 3.15315C15.1936 2.9259 14.5531 2.80338 13.9057 2.7908C13.0738 2.75271 12.808 2.74365 10.6897 2.74365C8.57134 2.74365 8.30492 2.75251 7.47254 2.7908" fill="white"/>
</g>
<defs>
<radialGradient id="paint0_radial_252_2406" cx="0" cy="0" r="1" gradientUnits="userSpaceOnUse" gradientTransform="translate(1.52504 20.5401) scale(26.6622)">
<stop offset="0.09" stop-color="#FA8F21"/>
<stop offset="0.78" stop-color="#D82D7E"/>
</radialGradient>
<radialGradient id="paint1_radial_252_2406" cx="0" cy="0" r="1" gradientUnits="userSpaceOnUse" gradientTransform="translate(14.712 19.8656) scale(23.463)">
<stop offset="0.64" stop-color="#8C3AAA" stop-opacity="0"/>
<stop offset="1" stop-color="#8C3AAA"/>
</radialGradient>
<clipPath id="clip0_252_2406">
<rect width="21" height="21" fill="white" transform="translate(0.166016)"/>
</clipPath>
</defs>
</svg>
