<svg width="39" height="39" viewBox="0 0 39 39" fill="none" xmlns="http://www.w3.org/2000/svg">
<path d="M19.5 11.9161C19.5 8.9375 17.0625 6.5 14.0839 6.5H3.25V26H14.1505C19.5 26 19.5 31.4177 19.5 31.4177M19.5 11.9161C19.5 8.93588 21.9375 6.5 24.9161 6.5H35.75V26H24.9161C19.5 26 19.5 31.4177 19.5 31.4177M19.5 11.9161V31.4177M22.5469 33.2443C22.8859 32.542 23.4141 31.9483 24.0721 31.5298C24.73 31.1112 25.4916 30.8845 26.2714 30.875H34.125M16.4531 33.2443C16.1203 32.5373 15.5935 31.9393 14.9342 31.5199C14.2749 31.1005 13.51 30.8769 12.7286 30.875H4.875" stroke="#D4A017" stroke-width="1.5" stroke-miterlimit="10" stroke-linecap="round" stroke-linejoin="round"/>
</svg>
