<svg width="14" height="14" viewBox="0 0 14 14" fill="none" xmlns="http://www.w3.org/2000/svg">
<path d="M2.33333 4.66667C2.6555 4.66667 2.91667 4.4055 2.91667 4.08333C2.91667 3.76117 2.6555 3.5 2.33333 3.5C2.01117 3.5 1.75 3.76117 1.75 4.08333C1.75 4.4055 2.01117 4.66667 2.33333 4.66667Z" fill="#303030"/>
<path d="M2.33333 7.58268C2.6555 7.58268 2.91667 7.32152 2.91667 6.99935C2.91667 6.67718 2.6555 6.41602 2.33333 6.41602C2.01117 6.41602 1.75 6.67718 1.75 6.99935C1.75 7.32152 2.01117 7.58268 2.33333 7.58268Z" fill="#303030"/>
<path d="M2.33333 10.5007C2.6555 10.5007 2.91667 10.2395 2.91667 9.91732C2.91667 9.59515 2.6555 9.33398 2.33333 9.33398C2.01117 9.33398 1.75 9.59515 1.75 9.91732C1.75 10.2395 2.01117 10.5007 2.33333 10.5007Z" fill="#303030"/>
<path d="M11.7023 6.41602H4.63232C4.32948 6.41602 4.08398 6.66151 4.08398 6.96435V7.03435C4.08398 7.33719 4.32948 7.58268 4.63232 7.58268H11.7023C12.0052 7.58268 12.2507 7.33719 12.2507 7.03435V6.96435C12.2507 6.66151 12.0052 6.41602 11.7023 6.41602Z" fill="#303030"/>
<path d="M11.7023 9.33398H4.63232C4.32948 9.33398 4.08398 9.57948 4.08398 9.88232V9.95232C4.08398 10.2552 4.32948 10.5007 4.63232 10.5007H11.7023C12.0052 10.5007 12.2507 10.2552 12.2507 9.95232V9.88232C12.2507 9.57948 12.0052 9.33398 11.7023 9.33398Z" fill="#303030"/>
<path d="M11.7023 3.5H4.63232C4.32948 3.5 4.08398 3.7455 4.08398 4.04833V4.11833C4.08398 4.42117 4.32948 4.66667 4.63232 4.66667H11.7023C12.0052 4.66667 12.2507 4.42117 12.2507 4.11833V4.04833C12.2507 3.7455 12.0052 3.5 11.7023 3.5Z" fill="#303030"/>
</svg>
