<svg width="38" height="38" viewBox="0 0 38 38" fill="none" xmlns="http://www.w3.org/2000/svg">
<path d="M10.1356 33.93C6.60491 32.6616 4.04216 29.5055 3.02967 25.1773C2.56982 23.2116 2.44004 19.9666 2.82202 19.9666C2.94806 19.9666 3.28935 20.8567 3.57486 21.947C4.20167 24.328 5.27712 26.5681 6.31189 27.6659C8.03275 29.4832 12.2904 30.1952 14.7456 29.0752C16.6594 28.2037 17.4344 26.1269 16.6 24.1092C15.9583 22.5478 14.5008 22.0286 11.786 22.3846C11.786 22.3846 10.1208 20.5822 9.59046 17.3852L11.2965 17.541C13.3511 17.7302 14.9014 17.2702 15.7062 16.2429C16.4627 15.2749 16.4479 14.9003 15.6061 13.9176C14.3896 12.4971 12.2089 12.8569 7.79544 15.2046L5.56645 11.4476L6.501 10.7318C8.84119 8.93683 12.906 8.03922 15.2203 8.80693C17.3268 9.50788 18.8734 12.282 18.4617 14.6223C18.1836 16.2058 16.9226 18.42 15.9472 19.0394L15.1054 19.5735L16.2662 20.1001C18.2393 20.9939 19.4446 20.3115 20.8836 17.478C22.8752 13.5578 24.1658 12.5454 27.1699 12.5416C28.5681 12.5416 29.0651 12.6863 30.085 13.4058C32.6292 15.2008 34.0163 18.9133 33.7122 23.1264C33.3265 28.4596 30.8157 31.6974 27.055 31.6974C24.9929 31.6974 23.6652 30.9705 22.6045 29.2645C21.6735 27.7661 21.4659 25.1107 22 23.8052C22.2559 23.1784 22.3041 23.1561 22.3189 23.6568C22.3486 24.5802 23.1831 25.7634 24.14 26.2603C26.4876 27.4805 29.8626 25.9488 31.194 23.0485C32.2066 20.8492 31.665 16.6027 30.2742 15.8572C29.9849 15.7015 29.2654 15.5717 28.6757 15.5717C27.4259 15.5717 26.4468 16.4767 25.0708 18.891C24.5961 19.7255 23.795 20.8048 23.2906 21.2906C22.4747 22.0769 22.1817 22.1696 20.5498 22.1696H18.7214L19.311 23.4899C20.1566 25.3776 20.1158 28.4485 19.222 30.3177C18.4321 31.9681 16.6037 33.6408 15.1424 34.0487C13.7183 34.4456 11.404 34.3937 10.1319 33.9374L10.1356 33.93Z" fill="#6B4D00"/>
<path d="M17.2291 7.66328C16.4206 6.27624 15.9236 3.6875 16.4651 3.6875C17.103 5.07454 18.4084 6.31694 19.803 7.18114C22.3137 8.40132 24.858 7.90806 27.6358 5.66433C28.2478 5.17103 28.7893 4.81876 28.8412 4.88552C29.5199 5.94622 30.6956 6.81039 31.0813 8.04167C31.0813 8.56092 28.856 10.0555 27.1018 10.7157C22.7514 11.9767 19.7918 11.476 17.2254 7.66331L17.2291 7.66328Z" fill="#6B4D00"/>
<path d="M19.4216 4.45302L22.2514 1.29688L25.3964 4.22682C24.3208 5.11695 23.542 6.50025 22.3145 7.20491C21.3427 6.48539 19.8927 5.63605 19.418 4.45667L19.4216 4.45302Z" fill="#6B4D00"/>
</svg>
