<svg xmlns="http://www.w3.org/2000/svg" width="63" height="63" fill="none" viewBox="0 0 63 63"><rect width="62.961" height="62.961" x=".02" y=".02" stroke="#707070" stroke-opacity=".7" stroke-width=".039"/><path fill="#96710F" d="M17.218 57.635C11.22 55.48 6.867 50.119 5.147 42.767c-.781-3.34-1.002-8.852-.353-8.852.214 0 .794 1.512 1.28 3.364 1.064 4.045 2.89 7.85 4.648 9.715 2.924 3.087 10.156 4.297 14.327 2.394 3.25-1.48 4.567-5.008 3.15-8.436-1.09-2.652-3.566-3.534-8.178-2.93 0 0-2.828-3.061-3.73-8.492l2.899.265c3.49.321 6.123-.46 7.49-2.205 1.285-1.644 1.26-2.28-.17-3.95-2.066-2.413-5.77-1.802-13.268 2.186l-3.786-6.382 1.588-1.216c3.975-3.049 10.88-4.574 14.81-3.27 3.58 1.191 6.206 5.904 5.507 9.879-.472 2.69-2.614 6.451-4.271 7.503l-1.43.907 1.972.895c3.351 1.518 5.399.36 7.843-4.454 3.383-6.66 5.576-8.38 10.679-8.385 2.375 0 3.219.245 4.951 1.468 4.322 3.049 6.678 9.355 6.162 16.512-.655 9.06-4.92 14.56-11.309 14.56-3.502 0-5.758-1.236-7.56-4.134-1.581-2.545-1.934-7.056-1.027-9.273.435-1.065.517-1.103.542-.252.05 1.568 1.468 3.578 3.094 4.422 3.988 2.073 9.72-.529 11.982-5.456 1.72-3.735.8-10.949-1.562-12.215-.492-.265-1.714-.485-2.715-.485-2.124 0-3.787 1.537-6.124 5.638-.806 1.418-2.167 3.251-3.024 4.076-1.386 1.336-1.884 1.494-4.656 1.494h-3.106l1.002 2.242c1.436 3.207 1.367 8.423-.151 11.599-1.342 2.803-4.448 5.644-6.93 6.337-2.42.675-6.35.586-8.512-.189z"/><path fill="#96710F" d="M29.264 13.015c-1.373-2.356-2.217-6.753-1.298-6.753 1.084 2.356 3.301 4.466 5.67 5.934 4.265 2.073 8.587 1.235 13.306-2.576 1.04-.838 1.96-1.437 2.047-1.323 1.153 1.802 3.15 3.27 3.806 5.361 0 .882-3.78 3.421-6.76 4.542-7.39 2.142-12.418 1.292-16.777-5.185z"/><path fill="#96710F" d="m32.987 7.566 4.807-5.36 5.342 4.976c-1.827 1.512-3.15 3.862-5.235 5.059-1.65-1.222-4.114-2.665-4.92-4.668z"/></svg>