<svg width="107" height="145" viewBox="0 0 107 145" fill="none" xmlns="http://www.w3.org/2000/svg">
<path d="M53.375 91.5C47.0208 91.5 41.6198 89.276 37.1719 84.8281C32.724 80.3802 30.5 74.9792 30.5 68.625V22.875C30.5 16.5208 32.724 11.1198 37.1719 6.67188C41.6198 2.22396 47.0208 0 53.375 0C59.7292 0 65.1302 2.22396 69.5781 6.67188C74.026 11.1198 76.25 16.5208 76.25 22.875V68.625C76.25 74.9792 74.026 80.3802 69.5781 84.8281C65.1302 89.276 59.7292 91.5 53.375 91.5ZM45.75 144.875V121.428C32.5333 119.649 21.6042 113.74 12.9625 103.7C4.32083 93.6604 0 81.9688 0 68.625H15.25C15.25 79.1729 18.9685 88.1653 26.4054 95.6022C33.8423 103.039 42.8322 106.755 53.375 106.75C63.9178 106.745 72.9102 103.026 80.3522 95.5946C87.7943 88.1628 91.5102 79.1729 91.5 68.625H106.75C106.75 81.9688 102.429 93.6604 93.7875 103.7C85.1458 113.74 74.2167 119.649 61 121.428V144.875H45.75ZM53.375 76.25C55.5354 76.25 57.3476 75.518 58.8116 74.054C60.2756 72.59 61.0051 70.7803 61 68.625V22.875C61 20.7146 60.268 18.9049 58.804 17.446C57.34 15.9871 55.5303 15.2551 53.375 15.25C51.2197 15.2449 49.41 15.9769 47.946 17.446C46.482 18.9151 45.75 20.7248 45.75 22.875V68.625C45.75 70.7854 46.482 72.5976 47.946 74.0616C49.41 75.5256 51.2197 76.2551 53.375 76.25Z" fill="white"/>
</svg>
