<svg width="24" height="24" viewBox="0 0 24 24" fill="none" xmlns="http://www.w3.org/2000/svg">
<circle cx="12" cy="12" r="12" fill="white"/>
<path fill-rule="evenodd" clip-rule="evenodd" d="M8.08668 8.08326C8.17106 7.99899 8.28543 7.95166 8.40468 7.95166C8.52393 7.95166 8.63831 7.99899 8.72268 8.08326L15.9227 15.2833C15.9669 15.3245 16.0024 15.3741 16.027 15.4293C16.0515 15.4845 16.0648 15.5441 16.0658 15.6046C16.0669 15.665 16.0558 15.725 16.0332 15.781C16.0105 15.8371 15.9768 15.888 15.9341 15.9307C15.8914 15.9734 15.8405 16.0071 15.7844 16.0297C15.7284 16.0524 15.6684 16.0635 15.608 16.0624C15.5475 16.0614 15.488 16.0481 15.4328 16.0235C15.3776 15.9989 15.3279 15.9635 15.2867 15.9193L8.08668 8.71926C8.00241 8.63489 7.95508 8.52051 7.95508 8.40126C7.95508 8.28201 8.00241 8.16764 8.08668 8.08326Z" fill="black"/>
<path fill-rule="evenodd" clip-rule="evenodd" d="M15.9236 8.08326C16.0078 8.16764 16.0552 8.28201 16.0552 8.40126C16.0552 8.52051 16.0078 8.63489 15.9236 8.71926L8.72357 15.9193C8.63827 15.9988 8.52544 16.042 8.40886 16.04C8.29228 16.0379 8.18105 15.9907 8.0986 15.9082C8.01615 15.8258 7.96892 15.7146 7.96687 15.598C7.96481 15.4814 8.00808 15.3686 8.08757 15.2833L15.2876 8.08326C15.3719 7.99899 15.4863 7.95166 15.6056 7.95166C15.7248 7.95166 15.8392 7.99899 15.9236 8.08326Z" fill="black"/>
</svg>
