<svg width="15" height="15" viewBox="0 0 15 15" fill="none" xmlns="http://www.w3.org/2000/svg">
<path d="M7.50112 10.1604C7.26802 10.1604 7.04015 10.2296 6.84634 10.3591C6.65252 10.4886 6.50146 10.6726 6.41226 10.888C6.32305 11.1033 6.29971 11.3403 6.34519 11.5689C6.39067 11.7976 6.50291 12.0076 6.66774 12.1724C6.83257 12.3372 7.04257 12.4495 7.27119 12.4949C7.49981 12.5404 7.73678 12.5171 7.95213 12.4279C8.16749 12.3387 8.35156 12.1876 8.48106 11.9938C8.61056 11.8 8.67969 11.5721 8.67969 11.339C8.67969 11.0264 8.55552 10.7267 8.33449 10.5056C8.11347 10.2846 7.81369 10.1604 7.50112 10.1604ZM7.50111 4.26758C7.73421 4.26758 7.96208 4.19845 8.15589 4.06895C8.34971 3.93945 8.50077 3.75538 8.58997 3.54003C8.67918 3.32467 8.70252 3.0877 8.65704 2.85908C8.61157 2.63046 8.49932 2.42046 8.33449 2.25563C8.16966 2.09081 7.95966 1.97856 7.73104 1.93308C7.50242 1.88761 7.26545 1.91095 7.0501 2.00015C6.83474 2.08935 6.65067 2.24041 6.52117 2.43423C6.39167 2.62804 6.32254 2.85591 6.32254 3.08901C6.32254 3.40158 6.44671 3.70136 6.66774 3.92238C6.88876 4.14341 7.18854 4.26758 7.50111 4.26758ZM7.50112 8.39258C7.73421 8.39258 7.96208 8.32346 8.15589 8.19395C8.34971 8.06445 8.50077 7.88038 8.58997 7.66503C8.67918 7.44967 8.70252 7.2127 8.65704 6.98408C8.61157 6.75546 8.49932 6.54546 8.33449 6.38063C8.16966 6.2158 7.95966 6.10356 7.73104 6.05808C7.50242 6.0126 7.26545 6.03594 7.0501 6.12515C6.83474 6.21435 6.65067 6.36541 6.52117 6.55923C6.39167 6.75304 6.32254 6.98091 6.32254 7.21401C6.32254 7.52658 6.44671 7.82636 6.66774 8.04738C6.88876 8.26841 7.18854 8.39258 7.50112 8.39258Z" fill="#4B5A5A"/>
</svg>
