<svg width="62" height="46" viewBox="0 0 62 46" fill="none" xmlns="http://www.w3.org/2000/svg">
<g filter="url(#filter0_i_2043_2202)">
<path d="M61.3152 23.1077C61.0521 22.6455 60.6995 22.2403 60.2781 21.9159C59.8567 21.5914 59.3749 21.3542 58.8608 21.218C56.9957 20.7378 55.0683 20.5448 53.1451 20.6456C54.1763 15.528 53.4029 11.4804 52.614 9.08016C52.2995 8.09419 51.6292 7.26067 50.7336 6.74209C49.838 6.22352 48.7813 6.05705 47.7697 6.27516C45.1462 6.85927 42.6516 7.91825 40.4091 9.39984C38.7666 6.04488 36.3753 3.11205 33.4198 0.827578C32.7036 0.290388 31.8324 0 30.9371 0C30.0418 0 29.1706 0.290388 28.4544 0.827578C25.4982 3.11138 23.1068 6.04438 21.4651 9.39984C19.2226 7.91825 16.728 6.85927 14.1045 6.27516C13.0929 6.05705 12.0363 6.22352 11.1407 6.74209C10.2451 7.26067 9.57469 8.09419 9.26023 9.08016C8.48679 11.4804 7.71336 15.5255 8.72914 20.6456C6.80589 20.5448 4.87851 20.7378 3.01344 21.218C2.49932 21.3542 2.0175 21.5914 1.59609 21.9159C1.17469 22.2403 0.822147 22.6455 0.55906 23.1077C0.28373 23.5812 0.105453 24.1048 0.0346299 24.6479C-0.0361928 25.191 0.0018571 25.7428 0.14656 26.2711C1.02054 29.5118 3.70437 35.6761 11.8332 40.5333C19.962 45.3905 27.1034 45.375 30.95 45.375C34.7966 45.375 41.9509 45.375 50.0281 40.5333C58.157 35.6761 60.8408 29.5118 61.7148 26.2711C61.8614 25.7437 61.9016 25.1923 61.833 24.6492C61.7644 24.1061 61.5883 23.5821 61.3152 23.1077ZM13.1841 10.3486C13.1872 10.3358 13.1951 10.3247 13.2061 10.3175C13.2171 10.3103 13.2305 10.3076 13.2434 10.3099C15.6424 10.8516 17.9063 11.8752 19.8976 13.3186C18.991 16.2849 18.5407 19.3718 18.5621 22.4735C18.5621 27.3049 19.5341 31.2391 20.9108 34.4051C18.9536 32.4461 17.2601 30.2405 15.8731 27.8438C11.2273 19.7536 12.1941 13.4062 13.1841 10.3486ZM13.9576 36.9935C7.08172 32.8891 4.85164 27.8566 4.12461 25.1883C6.02162 24.7211 7.99015 24.6187 9.92539 24.8866C10.5714 26.6173 11.3604 28.2911 12.2844 29.8908C14.5528 33.8015 17.5246 37.2593 21.05 40.0898C18.5572 39.3729 16.1692 38.3319 13.9473 36.9935H13.9576ZM30.9371 40.8375C28.5317 39.0483 22.6871 33.5595 22.6871 22.4735C22.6871 11.5242 28.457 5.99156 30.9371 4.125C33.4173 5.99672 39.1871 11.5294 39.1871 22.4787C39.1871 33.5595 33.3425 39.0483 30.9371 40.8375ZM41.9766 13.3186C43.9681 11.8761 46.232 10.8534 48.6308 10.3125C48.6437 10.3102 48.6571 10.3129 48.6681 10.3201C48.6791 10.3272 48.687 10.3384 48.6901 10.3512C49.6801 13.4063 50.6469 19.7536 46.0011 27.8438C44.6154 30.2437 42.9218 32.4521 40.9634 34.4128C42.3402 31.252 43.3121 27.3127 43.3121 22.4812C43.3343 19.377 42.884 16.2874 41.9766 13.3186ZM57.7496 25.1934C57.0355 27.836 54.8105 32.8788 47.9295 36.9935C45.7075 38.331 43.3195 39.3711 40.8268 40.0873C44.3521 37.2567 47.3239 33.799 49.5924 29.8882C50.5164 28.2886 51.3054 26.6147 51.9514 24.8841C53.8861 24.6175 55.8538 24.7217 57.7496 25.1909V25.1934Z" fill="#D4A017"/>
</g>
<defs>
<filter id="filter0_i_2043_2202" x="0" y="0" width="62.8655" height="47.375" filterUnits="userSpaceOnUse" color-interpolation-filters="sRGB">
<feFlood flood-opacity="0" result="BackgroundImageFix"/>
<feBlend mode="normal" in="SourceGraphic" in2="BackgroundImageFix" result="shape"/>
<feColorMatrix in="SourceAlpha" type="matrix" values="0 0 0 0 0 0 0 0 0 0 0 0 0 0 0 0 0 0 127 0" result="hardAlpha"/>
<feOffset dx="1" dy="2"/>
<feGaussianBlur stdDeviation="2.1"/>
<feComposite in2="hardAlpha" operator="arithmetic" k2="-1" k3="1"/>
<feColorMatrix type="matrix" values="0 0 0 0 1 0 0 0 0 0.814815 0 0 0 0 0.326923 0 0 0 1 0"/>
<feBlend mode="normal" in2="shape" result="effect1_innerShadow_2043_2202"/>
</filter>
</defs>
</svg>
