<svg width="33" height="33" viewBox="0 0 33 33" fill="none" xmlns="http://www.w3.org/2000/svg">
<path d="M8.25 6.1875V25.575C7.425 25.1625 6.39375 24.75 5.15625 24.75C2.26875 24.75 0 26.6063 0 28.875C0 31.1437 2.26875 33 5.15625 33C8.04375 33 10.3125 31.1437 10.3125 28.875V13.8187L24.75 9.075V19.5938C23.925 18.975 22.8937 18.5625 21.6562 18.5625C18.7687 18.5625 16.5 20.4188 16.5 22.6875C16.5 24.9562 18.7687 26.8125 21.6562 26.8125C24.5438 26.8125 26.8125 24.9562 26.8125 22.6875V0L8.25 6.1875Z" fill="#173DD4"/>
</svg>
