<svg width="22" height="26" viewBox="0 0 22 26" fill="none" xmlns="http://www.w3.org/2000/svg">
<path d="M19.0342 16.6904C19.1594 16.7128 19.2628 16.7853 19.3096 16.8281C19.507 17.0088 19.5215 17.3173 19.3418 17.5156L14.875 22.4346C14.6666 22.6754 14.2774 22.6268 14.0947 22.374V22.373L14.0918 22.3711L14.0332 22.2959C13.9156 22.1117 13.9342 21.8654 14.0889 21.7002L18.624 16.8545L18.6045 16.8359L18.625 16.8545C18.7641 16.6951 18.9111 16.6686 19.0342 16.6904Z" fill="#925910" stroke="white" stroke-width="0.0544399"/>
<path d="M19.9258 20.2178C20.5719 20.8342 21.255 21.4157 21.9629 21.9521L19.3613 25.4375L17.252 23.2725L19.9258 20.2178Z" fill="#925910" stroke="white" stroke-width="0.0544399"/>
<path d="M20.1621 17.833C20.2874 17.8526 20.3911 17.9221 20.4375 17.9629C20.6382 18.1401 20.6579 18.449 20.4814 18.6504L16.1045 23.6484C15.9002 23.8932 15.5102 23.8518 15.3232 23.6016L15.3213 23.5986L15.2607 23.5254C15.1397 23.3433 15.1539 23.0967 15.3057 22.9287L19.7529 18.002H19.7539C19.8923 17.843 20.0388 17.8138 20.1621 17.833Z" fill="#925910" stroke="white" stroke-width="0.0544399"/>
<path d="M11.4736 8.77637C11.4676 8.64408 11.5519 8.53627 11.666 8.48242C11.7782 8.42963 11.9136 8.43226 12.0137 8.51074C12.4171 9.63025 12.5243 10.8416 12.3232 12.0146C12.2946 12.1818 12.4071 12.3405 12.5742 12.3691C12.7374 12.3982 12.9005 12.287 12.9287 12.1191C13.1287 10.9996 13.0425 9.85742 12.7441 8.76953L12.6035 8.30664C12.4824 7.42418 12.2094 5.85551 11.9707 4.29492C11.7613 2.92544 11.5788 1.56242 11.5479 0.668945L11.5439 0.316406C11.5565 0.261663 11.5742 0.205286 11.5986 0.157227C11.6239 0.107482 11.6554 0.0688568 11.6934 0.0488281C11.7273 0.0310485 11.7747 0.0240737 11.834 0.0292969C11.8908 0.034344 11.9576 0.0505072 12.0322 0.0791016C14.9503 4.20565 15.7464 9.93466 16.4492 15.001V15.002C16.4729 15.1469 16.4904 15.2948 16.5088 15.4434C16.5271 15.5915 16.5463 15.7405 16.5742 15.8867C16.6301 16.1788 16.721 16.4617 16.9062 16.7119V16.7129C17.0466 16.9125 17.195 17.1155 17.3477 17.3184L14.459 20.4043L13.4521 19.3721C13.4437 19.3634 13.4345 19.3544 13.4248 19.3467C12.4171 18.5339 11.7814 17.378 11.6348 16.0918L11.4727 14.6699C11.4734 14.6614 11.4736 14.6529 11.4736 14.6445V8.77637Z" fill="#925910" stroke="white" stroke-width="0.0544399"/>
<path d="M10.416 0.0683594C10.5191 0.0334166 10.6555 0.0157718 10.7656 0.0957031C10.8367 0.147381 10.8909 0.233665 10.9229 0.348633C10.9546 0.4631 10.9639 0.604297 10.9473 0.761719C10.6664 2.16149 9.98226 6.63795 9.75098 8.12891C9.23586 9.37713 9.12401 10.7762 9.34375 12.1035C9.37169 12.2718 9.53569 12.3838 9.69922 12.3545L9.69824 12.3535C9.86532 12.3248 9.97783 12.1671 9.94922 12C9.75243 10.852 9.8508 9.66683 10.2334 8.56738C10.329 8.44058 10.4869 8.41026 10.6211 8.45312C10.756 8.49634 10.8629 8.61261 10.8594 8.77539V14.627H10.8604L10.6943 16.0771C10.5569 17.2829 9.98945 18.3744 9.08887 19.1758L8.9043 19.332C8.90061 19.3349 8.89332 19.3422 8.88477 19.3506C8.87555 19.3596 8.86272 19.3716 8.84766 19.3867C8.81732 19.4173 8.77632 19.4599 8.72754 19.5098C8.62989 19.6095 8.5022 19.7402 8.375 19.8711C8.15463 20.0978 7.93497 20.3237 7.86914 20.3906L4.97949 17.3037C5.13226 17.1007 5.28039 16.898 5.4209 16.6982L5.42188 16.6992C5.57066 16.5073 5.66001 16.2729 5.71875 16.0303C5.74811 15.909 5.7702 15.7852 5.78809 15.6631L5.83301 15.3057C6.533 10.1225 7.32456 4.2604 10.416 0.0683594Z" fill="#925910" stroke="white" stroke-width="0.0544399"/>
<path d="M3.39062 16.7451C3.46154 16.7504 3.5299 16.7625 3.58594 16.7803C3.64296 16.7984 3.68377 16.8211 3.7041 16.8428L8.24023 21.6885C8.41694 21.8773 8.41502 22.1715 8.23633 22.3584L8.23438 22.3613C8.05145 22.6147 7.66285 22.6637 7.4541 22.4229L7.45312 22.4219L2.9873 17.5039C2.80572 17.304 2.80821 16.9778 3.01758 16.8174C3.05817 16.7864 3.11496 16.7657 3.18066 16.7539C3.24641 16.7421 3.31965 16.7398 3.39062 16.7451Z" fill="#925910" stroke="white" stroke-width="0.0544399"/>
<path d="M5.1084 23.2246L2.9668 25.4229L0.365234 21.9385C1.08132 21.3959 1.77226 20.8076 2.4248 20.1836L5.1084 23.2246Z" fill="#925910" stroke="white" stroke-width="0.0544399"/>
<path d="M1.87793 17.9033C2.07652 17.727 2.38371 17.7432 2.5625 17.9395L7.0293 22.8496C7.18143 23.0169 7.19609 23.2629 7.07617 23.4453L7.01562 23.5195L7.01367 23.5225C6.82777 23.7737 6.43797 23.8163 6.23242 23.5723L1.83594 18.5908C1.65884 18.39 1.67787 18.0812 1.87793 17.9033Z" fill="#925910" stroke="white" stroke-width="0.0544399"/>
</svg>
