<svg width="24" height="24" viewBox="0 0 24 24" fill="none" xmlns="http://www.w3.org/2000/svg">
<path d="M3.74674 6.30278C3.74674 4.61696 5.11288 3.25 6.79907 3.25H17.1941C18.8801 3.25 20.2468 4.61681 20.2468 6.30278C20.2468 6.60933 20.3375 6.90903 20.5076 7.1641L21.5297 8.69737C22.0657 9.50129 22.0015 10.5635 21.3728 11.2971C20.0669 12.8206 17.8891 13.1189 16.2468 12.1379V10.5C16.2468 10.0858 15.911 9.75 15.4968 9.75C15.0826 9.75 14.7468 10.0858 14.7468 10.5V11.894C13.02 12.7617 10.9735 12.7617 9.24674 11.894V10.5C9.24674 10.0858 8.91095 9.75 8.49674 9.75C8.08252 9.75 7.74674 10.0858 7.74674 10.5V12.1379C6.10438 13.1189 3.92661 12.8206 2.62075 11.2971C1.99197 10.5635 1.92783 9.50129 2.46377 8.69737L3.48595 7.1641C3.656 6.90903 3.74674 6.60933 3.74674 6.30278Z" fill="#9C6B00"/>
<path fill-rule="evenodd" clip-rule="evenodd" d="M8.69585 13.0137C7.22508 14.0369 5.35909 14.2202 3.75 13.5886V14.054C3.74998 15.4216 3.74996 16.5239 3.86652 17.3908C3.98754 18.291 4.24643 19.0488 4.84835 19.6507C5.45027 20.2527 6.20814 20.5116 7.10825 20.6326C7.9752 20.7491 9.07752 20.7491 10.445 20.7491H13.5549C14.9224 20.7491 16.0248 20.7491 16.8917 20.6326C17.7918 20.5116 18.5497 20.2527 19.1516 19.6507C19.7535 19.0488 20.0124 18.291 20.1335 17.3908C20.25 16.5239 20.25 15.4216 20.25 14.054V13.5886C18.6409 14.2202 16.7749 14.0369 15.3041 13.0137C13.2289 14.0539 10.7711 14.0539 8.69585 13.0137ZM8 16.2491C7.58578 16.2491 7.25 16.5849 7.25 16.9991C7.25 17.4133 7.58578 17.7491 8 17.7491H11C11.4142 17.7491 11.75 17.4133 11.75 16.9991C11.75 16.5849 11.4142 16.2491 11 16.2491H8Z" fill="#9C6B00"/>
</svg>
