<svg width="24" height="24" viewBox="0 0 24 24" fill="none" xmlns="http://www.w3.org/2000/svg">
<path d="M3.50999 21.2392H17.3475C18.33 21.2392 19.155 20.5342 19.3275 19.5967H6.6525C4.71748 19.5967 3.1425 18.0216 3.1425 16.0867V5.93164C2.205 6.11163 1.5 6.92915 1.5 7.91165V19.2366C1.5 20.3392 2.40001 21.2392 3.50999 21.2392Z" fill="#303030"/>
<path d="M11.46 13.0416L15.99 10.4241L11.46 7.80664V13.0416Z" fill="#303030"/>
<path d="M20.4901 2.75977H6.65257C5.54259 2.75977 4.64258 3.65977 4.64258 4.76225V16.0873C4.64258 17.1973 5.54259 18.0973 6.65257 18.0973H20.4901C21.6001 18.0973 22.5001 17.1973 22.5001 16.0873V4.76225C22.5001 3.65977 21.6001 2.75977 20.4901 2.75977ZM16.9201 11.6248L12.0301 14.4448C11.8126 14.5723 11.5726 14.6323 11.3401 14.6323C11.1001 14.6323 10.8676 14.5723 10.6501 14.4448C10.2151 14.1973 9.9601 13.7547 9.9601 13.2523V7.59727C9.9601 7.10225 10.2151 6.65227 10.6501 6.40475C11.0776 6.15724 11.5951 6.15724 12.0301 6.40475L16.9201 9.23227C17.3551 9.47978 17.6101 9.92976 17.6101 10.4247C17.6101 10.9273 17.3551 11.3698 16.9201 11.6248Z" fill="#303030"/>
</svg>
