<svg width="24" height="24" viewBox="0 0 24 24" fill="none" xmlns="http://www.w3.org/2000/svg">
<path d="M6.25 4C5.65326 4 5.08097 4.23705 4.65901 4.65901C4.23705 5.08097 4 5.65326 4 6.25V13.75C4 14.3467 4.23705 14.919 4.65901 15.341C5.08097 15.7629 5.65326 16 6.25 16H16.05C15.6261 15.5848 15.3146 15.0686 15.145 14.5H6.25C6.05109 14.5 5.86032 14.421 5.71967 14.2803C5.57902 14.1397 5.5 13.9489 5.5 13.75V6.25C5.5 6.05109 5.57902 5.86032 5.71967 5.71967C5.86032 5.57902 6.05109 5.5 6.25 5.5H17.75C17.9489 5.5 18.1397 5.57902 18.2803 5.71967C18.421 5.86032 18.5 6.05109 18.5 6.25V10C19.037 10 19.545 10.12 20 10.337V6.25C20 5.95453 19.9418 5.66194 19.8287 5.38896C19.7157 5.11598 19.5499 4.86794 19.341 4.65901C19.1321 4.45008 18.884 4.28434 18.611 4.17127C18.3381 4.0582 18.0455 4 17.75 4H6.25ZM2.75 17.5H13.308C13.1048 17.8932 12.9992 18.3294 13 18.772V18.875C13 18.917 13.0007 18.9587 13.002 19H2.75C2.55109 19 2.36032 18.921 2.21967 18.7803C2.07902 18.6397 2 18.4489 2 18.25C2 18.0511 2.07902 17.8603 2.21967 17.7197C2.36032 17.579 2.55109 17.5 2.75 17.5ZM21 13.5C21 14.163 20.7366 14.7989 20.2678 15.2678C19.7989 15.7366 19.163 16 18.5 16C17.837 16 17.2011 15.7366 16.7322 15.2678C16.2634 14.7989 16 14.163 16 13.5C16 12.837 16.2634 12.2011 16.7322 11.7322C17.2011 11.2634 17.837 11 18.5 11C19.163 11 19.7989 11.2634 20.2678 11.7322C20.7366 12.2011 21 12.837 21 13.5ZM23 18.875C23 20.431 21.714 22 18.5 22C15.286 22 14 20.437 14 18.875V18.772C14 17.792 14.794 17 15.773 17H21.227C22.207 17 23 17.793 23 18.772V18.875Z" fill="#303030"/>
</svg>
