<svg width="24" height="20" viewBox="0 0 24 20" fill="none" xmlns="http://www.w3.org/2000/svg">
<circle cx="11.8352" cy="5.33328" r="5.33328" fill="#303030"/>
<circle cx="18.5009" cy="5.33395" r="3.99996" fill="#303030"/>
<circle cx="5.16793" cy="5.33395" r="3.99996" fill="#303030"/>
<path d="M18.501 10.666C21.973 10.666 23.231 14.3567 23.6475 16.2461C23.7745 16.8236 23.3209 17.333 22.7295 17.333H19.2598C18.7223 15.3198 17.6824 13.0358 15.6719 11.7314C16.3946 11.0933 17.3197 10.6661 18.501 10.666Z" fill="#303030"/>
<path d="M5.16797 10.666C6.34921 10.6661 7.2734 11.0943 7.99609 11.7324C5.98614 13.0368 4.94653 15.3201 4.40918 17.333H0.939453C0.347947 17.333 -0.105617 16.8237 0.0214844 16.2461C0.43796 14.3567 1.69598 10.666 5.16797 10.666Z" fill="#303030"/>
<path d="M11.8346 12C17.0304 12 18.1767 16.8595 18.4296 19.0036C18.4943 19.5521 18.0535 19.9999 17.5012 19.9999H6.16797C5.61568 19.9999 5.17486 19.5521 5.23955 19.0036C5.49243 16.8595 6.63871 12 11.8346 12Z" fill="#303030"/>
</svg>
