<svg width="134" height="134" viewBox="0 0 134 134" fill="none" xmlns="http://www.w3.org/2000/svg">
<path fill-rule="evenodd" clip-rule="evenodd" d="M37.2222 29.7778C37.2222 21.8802 40.3595 14.3061 45.9439 8.72171C51.5283 3.13729 59.1024 0 67 0C74.8976 0 82.4717 3.13729 88.0561 8.72171C93.6405 14.3061 96.7778 21.8802 96.7778 29.7778C96.7778 37.6753 93.6405 45.2494 88.0561 50.8339C82.4717 56.4183 74.8976 59.5556 67 59.5556C59.1024 59.5556 51.5283 56.4183 45.9439 50.8339C40.3595 45.2494 37.2222 37.6753 37.2222 29.7778ZM37.2222 74.4445C27.3503 74.4445 17.8827 78.3661 10.9021 85.3466C3.92162 92.3271 0 101.795 0 111.667C0 117.59 2.35297 123.27 6.54128 127.459C10.7296 131.647 16.4102 134 22.3333 134H111.667C117.59 134 123.27 131.647 127.459 127.459C131.647 123.27 134 117.59 134 111.667C134 101.795 130.078 92.3271 123.098 85.3466C116.117 78.3661 106.65 74.4445 96.7778 74.4445H37.2222Z" fill="#C4C4C4"/>
</svg>
