<svg width="108" height="107" viewBox="0 0 108 107" fill="none" xmlns="http://www.w3.org/2000/svg">
<path d="M99.0448 106.719C97.9452 106.716 96.8572 106.495 95.8434 106.069C94.8296 105.643 93.91 105.021 93.1378 104.239L77.9687 89.0696C77.0396 88.1266 76.3479 86.9762 75.9507 85.7134C75.5536 84.4505 75.4623 83.1113 75.6844 81.8063L66.8864 73.026C66.0073 72.1 65.5102 70.8763 65.4944 69.5996C65.488 68.9659 65.6096 68.3373 65.8518 67.7516C66.0941 67.1659 66.452 66.6352 66.9042 66.191C67.3517 65.7432 67.8831 65.3879 68.4679 65.1455C69.0528 64.9031 69.6797 64.7783 70.3128 64.7783C70.9459 64.7783 71.5728 64.9031 72.1577 65.1455C72.7425 65.3879 73.2739 65.7432 73.7214 66.191L82.5016 74.9534C83.809 74.7551 85.1445 74.8578 86.4063 75.2537C87.668 75.6495 88.8228 76.3281 89.7827 77.2377L104.952 92.4068C106.489 93.9889 107.349 96.1079 107.349 98.3138C107.349 100.52 106.489 102.639 104.952 104.221C104.182 105.008 103.264 105.635 102.249 106.064C101.235 106.493 100.146 106.716 99.0448 106.719Z" fill="#D4A018"/>
<path d="M38.0119 76.0238C30.4939 76.0238 23.1447 73.7944 16.8936 69.6177C10.6426 65.4408 5.77053 59.5042 2.8935 52.5584C0.0164697 45.6127 -0.736292 37.9697 0.730405 30.5962C2.1971 23.2226 5.81738 16.4495 11.1334 11.1334C16.4495 5.81738 23.2226 2.1971 30.5962 0.730405C37.9697 -0.736292 45.6127 0.0164697 52.5584 2.8935C59.5042 5.77053 65.4408 10.6426 69.6177 16.8936C73.7944 23.1447 76.0238 30.4939 76.0238 38.0119C76.0096 48.0889 72.0003 57.7492 64.8747 64.8747C57.7492 72.0003 48.0889 76.0096 38.0119 76.0238ZM38.0119 3.56921C31.1998 3.56921 24.5406 5.58924 18.8766 9.37385C13.2125 13.1585 8.79789 18.5377 6.191 24.8313C3.58412 31.1248 2.90204 38.0501 4.23102 44.7313C5.56 51.4126 8.84034 57.5497 13.6572 62.3666C18.4741 67.1835 24.6112 70.4638 31.2925 71.7928C37.9737 73.1218 44.899 72.4397 51.1926 69.8328C57.4861 67.2259 62.8654 62.8113 66.65 57.1473C70.4346 51.4832 72.4546 44.824 72.4546 38.0119C72.4452 28.88 68.8134 20.1249 62.3562 13.6677C55.8989 7.21047 47.1438 3.57866 38.0119 3.56921Z" fill="#D4A018"/>
<path d="M38.012 68.3501C32.0117 68.3501 26.1461 66.5708 21.157 63.2372C16.1679 59.9036 12.2794 55.1654 9.98319 49.6219C7.68697 44.0783 7.08618 37.9783 8.25678 32.0933C9.42738 26.2083 12.3168 20.8025 16.5597 16.5597C20.8025 12.3168 26.2083 9.42738 32.0933 8.25678C37.9783 7.08618 44.0783 7.68697 49.6219 9.98319C55.1654 12.2794 59.9036 16.1679 63.2372 21.157C66.5708 26.1461 68.3501 32.0117 68.3501 38.012C68.3501 41.996 67.5654 45.9411 66.0408 49.6219C64.5161 53.3027 62.2814 56.6471 59.4643 59.4643C56.6471 62.2814 53.3027 64.5161 49.6219 66.0408C45.9411 67.5654 41.996 68.3501 38.012 68.3501ZM38.012 11.243C32.7176 11.243 27.5421 12.813 23.1399 15.7544C18.7378 18.6958 15.3068 22.8766 13.2807 27.7679C11.2546 32.6593 10.7245 38.0417 11.7574 43.2343C12.7903 48.427 15.3398 53.1968 19.0835 56.9405C22.8272 60.6842 27.5969 63.2337 32.7896 64.2666C37.9823 65.2994 43.3646 64.7693 48.256 62.7433C53.1474 60.7172 57.3281 57.2861 60.2695 52.884C63.2109 48.4819 64.7809 43.3064 64.7809 38.012C64.7809 30.9124 61.9606 24.1036 56.9405 19.0835C51.9203 14.0633 45.1115 11.243 38.012 11.243Z" fill="#D4A018"/>
<path d="M37.4777 59.2486C31.798 59.2486 26.351 56.9923 22.3349 52.9762C18.3187 48.9601 16.0625 43.5131 16.0625 37.8334C16.0625 37.3601 16.2505 36.9062 16.5852 36.5715C16.9199 36.2368 17.3738 36.0488 17.8471 36.0488C18.3204 36.0488 18.7743 36.2368 19.109 36.5715C19.4437 36.9062 19.6317 37.3601 19.6317 37.8334C19.6317 42.5665 21.5119 47.1057 24.8587 50.4524C28.2054 53.7992 32.7446 55.6794 37.4777 55.6794C37.951 55.6794 38.4049 55.8674 38.7396 56.2021C39.0742 56.5368 39.2622 56.9907 39.2622 57.464C39.2622 57.9373 39.0742 58.3912 38.7396 58.7259C38.4049 59.0606 37.951 59.2486 37.4777 59.2486Z" fill="#D4A018"/>
</svg>
