<svg width="127" height="135" viewBox="0 0 127 135" fill="none" xmlns="http://www.w3.org/2000/svg">
<path d="M30.7269 133.017C16.3346 127.846 5.88819 114.981 1.76101 97.3384C-0.113477 89.3257 -0.642477 76.0978 0.914563 76.0978C1.42833 76.0978 2.81954 79.7262 3.98337 84.1705C6.53841 93.876 10.9222 103.007 15.1402 107.482C22.1549 114.89 39.5103 117.793 49.5183 113.227C57.3194 109.675 60.4787 101.209 57.0772 92.9845C54.4616 86.6198 48.5202 84.5033 37.4542 85.9545C37.4542 85.9545 30.6664 78.6072 28.5046 65.5756L35.4587 66.2105C43.834 66.9816 50.1532 65.1067 53.4338 60.9192C56.5179 56.9734 56.4574 55.4464 53.0258 51.4406C48.0673 45.6503 39.1779 47.1168 21.1876 56.6866L12.1016 41.3722L15.9111 38.4544C25.4503 31.1376 42.0197 27.4787 51.4532 30.6081C60.0402 33.4654 66.3443 44.7736 64.6662 54.313C63.5324 60.768 58.3922 69.7937 54.4164 72.3183L50.9849 74.4954L55.7167 76.6421C63.7594 80.2857 68.6727 77.5037 74.5385 65.9537C82.6569 49.9741 87.9178 45.8469 100.163 45.8318C105.862 45.8318 107.888 46.4214 112.046 49.3544C122.417 56.6712 128.071 71.8045 126.831 88.9784C125.259 110.718 115.024 123.916 99.6946 123.916C91.2892 123.916 85.8769 120.953 81.5531 113.999C77.7584 107.891 76.912 97.0666 79.0891 91.7451C80.1323 89.19 80.3287 89.0994 80.3892 91.1402C80.5103 94.9045 83.9118 99.7272 87.8123 101.753C97.3821 106.727 111.139 100.483 116.567 88.6607C120.694 79.6958 118.486 62.3858 112.817 59.3471C111.638 58.7123 108.705 58.1832 106.301 58.1832C101.207 58.1832 97.2154 61.8721 91.6068 71.7137C89.6718 75.1153 86.4061 79.5148 84.35 81.4951C81.0243 84.7002 79.8298 85.0782 73.1778 85.0782H65.7247L68.1282 90.46C71.575 98.1548 71.4087 110.673 67.7655 118.292C64.5455 125.019 57.0924 131.838 51.1359 133.501C45.3309 135.118 35.897 134.907 30.7116 133.047L30.7269 133.017Z" fill="#D4A017"/>
<path d="M59.6402 25.9485C56.3445 20.2946 54.319 9.74219 56.5261 9.74219C59.1265 15.3961 64.4477 20.4605 70.1322 23.9832C80.3667 28.957 90.7378 26.9463 102.061 17.8003C104.556 15.7895 106.763 14.3535 106.974 14.6256C109.741 18.9494 114.533 22.4719 116.106 27.4909C116.106 29.6076 107.035 35.7 99.8842 38.3909C82.1509 43.5311 70.0868 41.4904 59.6252 25.9487L59.6402 25.9485Z" fill="#D4A017"/>
<path d="M68.5697 12.8653L80.1045 0L92.9244 11.9432C88.5401 15.5717 85.3655 21.2104 80.3616 24.0828C76.4006 21.1498 70.4898 17.6877 68.5547 12.8802L68.5697 12.8653Z" fill="#D4A017"/>
</svg>
