<svg width="23" height="26" viewBox="0 0 23 26" fill="none" xmlns="http://www.w3.org/2000/svg">
<g clip-path="url(#clip0_2703_18608)">
<path d="M10.5822 11.9453L0.09375 22.9341C0.211534 23.3515 0.423197 23.7364 0.712557 24.0595C1.00192 24.3826 1.36131 24.6352 1.76327 24.7981C2.16524 24.961 2.59912 25.0298 3.03175 24.9993C3.46439 24.9688 3.88433 24.8398 4.25946 24.6221L16.061 17.9008L10.5822 11.9453Z" fill="#EA4335"/>
<path d="M21.1877 10.0716L16.0843 7.14844L10.3398 12.1894L16.1077 17.8792L21.1722 14.9874C21.6208 14.7524 21.9966 14.3992 22.2588 13.9659C22.5211 13.5326 22.6597 13.0359 22.6597 12.5294C22.6597 12.023 22.5211 11.5262 22.2588 11.0929C21.9966 10.6597 21.6208 10.3064 21.1722 10.0715L21.1877 10.0716Z" fill="#FBBC04"/>
<path d="M0.0938537 2.07812C0.0304938 2.31251 -0.00106437 2.55434 2.73835e-05 2.79714V22.211C0.000653018 22.4537 0.032182 22.6953 0.0938537 22.9301L10.9419 12.2227L0.0938537 2.07812Z" fill="#4285F4"/>
<path d="M10.6604 12.5049L16.0844 7.15126L4.29859 0.39859C3.85515 0.138904 3.35081 0.00137426 2.83693 5.42868e-06C1.56169 -0.002473 0.440553 0.843912 0.09375 2.07118L10.6604 12.5049Z" fill="#34A853"/>
</g>
<defs>
<clipPath id="clip0_2703_18608">
<rect width="22.66" height="25.0499" fill="white"/>
</clipPath>
</defs>
</svg>
