<svg width="17" height="17" viewBox="0 0 17 17" fill="none" xmlns="http://www.w3.org/2000/svg">
<path d="M12.041 15.5807C11.4507 15.5807 10.949 15.3741 10.5358 14.9609C10.1226 14.5477 9.91602 14.046 9.91602 13.4557C9.91602 13.3849 9.93372 13.2196 9.96914 12.9599L4.9931 10.0557C4.80421 10.2328 4.58581 10.3716 4.33789 10.4722C4.08997 10.5728 3.82435 10.6229 3.54102 10.6224C2.95074 10.6224 2.449 10.4158 2.03581 10.0026C1.62261 9.58941 1.41602 9.08767 1.41602 8.4974C1.41602 7.90712 1.62261 7.40538 2.03581 6.99219C2.449 6.57899 2.95074 6.3724 3.54102 6.3724C3.82435 6.3724 4.08997 6.42269 4.33789 6.52327C4.58581 6.62385 4.80421 6.76245 4.9931 6.93906L9.96914 4.0349C9.94553 3.95226 9.93089 3.87269 9.92522 3.79619C9.91956 3.71969 9.91649 3.63398 9.91602 3.53906C9.91602 2.94878 10.1226 2.44705 10.5358 2.03385C10.949 1.62066 11.4507 1.41406 12.041 1.41406C12.6313 1.41406 13.133 1.62066 13.5462 2.03385C13.9594 2.44705 14.166 2.94878 14.166 3.53906C14.166 4.12934 13.9594 4.63108 13.5462 5.04427C13.133 5.45747 12.6313 5.66406 12.041 5.66406C11.7577 5.66406 11.4921 5.61377 11.2441 5.51319C10.9962 5.4126 10.7778 5.27401 10.5889 5.0974L5.61289 8.00156C5.6365 8.0842 5.65138 8.16401 5.65752 8.24098C5.66365 8.31795 5.66649 8.40342 5.66602 8.4974C5.66554 8.59137 5.66271 8.67708 5.65752 8.75452C5.65232 8.83196 5.63745 8.91153 5.61289 8.99323L10.5889 11.8974C10.7778 11.7203 10.9962 11.5817 11.2441 11.4816C11.4921 11.3815 11.7577 11.3312 12.041 11.3307C12.6313 11.3307 13.133 11.5373 13.5462 11.9505C13.9594 12.3637 14.166 12.8655 14.166 13.4557C14.166 14.046 13.9594 14.5477 13.5462 14.9609C13.133 15.3741 12.6313 15.5807 12.041 15.5807Z" fill="#CC9B2F"/>
</svg>
