<svg width="25" height="25" viewBox="0 0 25 25" fill="none" xmlns="http://www.w3.org/2000/svg">
<path d="M19.5303 2.84375L19.79 2.85645C20.3909 2.91666 20.956 3.18256 21.3867 3.61328C21.8174 4.044 22.0833 4.60911 22.1436 5.20996L22.1562 5.46973V19.5312C22.1553 20.2272 21.8788 20.8946 21.3867 21.3867C20.8945 21.8789 20.2264 22.1555 19.5303 22.1562H5.46973C4.77362 22.1555 4.1055 21.8789 3.61328 21.3867C3.18256 20.956 2.91666 20.3909 2.85645 19.79L2.84375 19.5303V5.46973C2.84451 4.77362 3.12106 4.1055 3.61328 3.61328C4.044 3.18256 4.60911 2.91666 5.20996 2.85645L5.46973 2.84375H19.5303ZM17.0781 7.3252C16.7427 7.35201 16.4311 7.51015 16.2109 7.76465L16.2061 7.76953L10.5908 14.4531L8.76367 12.4238H8.7627C8.65301 12.2986 8.52012 12.1954 8.37109 12.1211C8.21842 12.045 8.05207 12.0002 7.88184 11.9893C7.71143 11.9783 7.54021 12.0016 7.37891 12.0576C7.21767 12.1136 7.06926 12.2012 6.94238 12.3154C6.81546 12.4297 6.71231 12.5681 6.63965 12.7227C6.56709 12.877 6.52658 13.0444 6.51953 13.2148C6.51253 13.3854 6.53988 13.5559 6.59961 13.7158C6.65797 13.8721 6.74614 14.0153 6.85938 14.1377V14.1387L9.67188 17.2637V17.2627C9.79192 17.3962 9.9386 17.5031 10.1025 17.5762C10.2254 17.631 10.356 17.6665 10.4893 17.6807L10.624 17.6875H10.6455C10.829 17.6845 11.0101 17.6423 11.1758 17.5635C11.3415 17.4846 11.4885 17.371 11.6064 17.2305L18.1689 9.41797L18.1729 9.41211C18.3856 9.15134 18.4876 8.81745 18.4561 8.48242C18.4245 8.1473 18.2616 7.8376 18.0039 7.62109C17.7462 7.4048 17.4135 7.29847 17.0781 7.3252Z" fill="white" stroke="#D4A017"/>
</svg>
