<svg width="22" height="24" viewBox="0 0 22 24" fill="none" xmlns="http://www.w3.org/2000/svg">
<path d="M0.00117146 17.9686C0.016469 18.2396 0.217525 18.4232 0.48306 18.4909C0.545345 18.6952 0.717988 18.8373 0.987887 18.8307C1.08951 19.1028 1.34958 19.2613 1.62491 19.2613H1.63256C1.63256 19.3563 1.64349 19.4558 1.66534 19.5585C1.61836 19.6765 1.65114 19.7726 1.71233 19.9191C2.02593 20.7014 2.68811 21.297 3.53166 21.5537C4.88331 21.9624 6.16066 22.1296 7.56591 22.2105C7.36595 22.3449 6.97039 22.6115 6.91249 22.8453C6.80322 23.2922 7.02722 23.6452 7.5976 23.6452C8.48705 23.6452 10.4561 22.806 11.5432 23.0365C11.6 23.0485 11.6568 23.0398 11.7082 23.0201C11.7759 23.0934 11.8775 23.1327 11.9792 23.1163C13.2117 22.9185 15.3141 23.9631 16.2635 23.9631C16.7869 23.9631 17.036 23.6364 16.9421 23.1676C16.8721 22.8092 15.9488 22.2345 15.468 21.9045C17.7495 21.4663 19.7624 21.1494 20.4257 20.0677C20.4715 19.9934 20.4661 19.9344 20.4705 19.906C20.4705 19.8918 20.465 19.8786 20.4628 19.8644C20.6234 19.5126 20.6562 19.1159 20.5885 18.739C20.7939 18.6745 20.9447 18.5281 21.0124 18.3423C21.2703 18.3511 21.4539 18.2145 21.5173 18.0025C22.0811 17.8594 22.1466 17.2322 21.7369 16.9907C21.5686 16.8912 21.3665 16.8202 21.1162 16.7743C21.4025 16.3525 21.1621 15.8324 20.6496 15.7537C20.2202 15.6937 19.7547 15.7647 19.2313 15.9679C18.7287 15.5647 18.1026 15.0981 17.8217 14.8381C17.5387 14.5736 17.1956 14.4086 17.0099 14.1639C16.6056 13.6153 16.5968 11.5807 16.1248 10.1394C15.903 9.46632 15.4506 8.90465 14.8496 8.56047C13.9798 8.05783 12.9636 7.7344 12.3397 7.56612C12.2435 7.18149 12.1944 6.93782 12.1944 6.4789C12.4293 6.15108 12.5703 5.7304 12.6457 5.44194C13.1417 5.05404 13.3526 4.40826 13.0237 3.86738C13.05 2.57472 12.779 1.53338 11.542 1.13348C11.4317 0.452728 10.8384 -0.0477349 10.1696 0.0036233C9.36651 0.0582571 8.79175 0.87123 9.0223 1.71369C8.40712 2.30593 8.23338 3.12545 8.4989 4.15259C8.18203 4.56015 8.32517 5.25511 8.92177 5.43322C9.05399 5.85608 9.28128 6.35764 9.65933 6.71384C9.67244 7.0176 9.65824 7.29842 9.61562 7.55521C8.76441 7.78358 7.89792 8.13761 7.25214 8.51023C6.65117 8.85553 6.1977 9.41608 5.97587 10.0903C4.9105 13.3334 5.25252 13.8076 4.8635 14.2238L2.7426 16.4463C2.23014 16.2507 1.7734 16.1841 1.34723 16.2431C0.840221 16.3207 0.59764 16.8408 0.883942 17.2626C0.439229 17.3445 -0.0250671 17.5173 0.00117146 17.9686ZM9.70524 8.63712C9.82107 8.63712 9.93252 8.57047 9.98279 8.45683C10.0757 8.25031 10.139 8.02085 10.1882 7.77936L10.4188 7.95419C10.5521 8.05581 10.7433 8.02958 10.8449 7.89518C10.9465 7.76078 10.9192 7.57064 10.7859 7.46904L10.2953 7.09862C10.7499 7.24723 11.2131 7.19369 11.6076 6.98608C11.6448 7.34886 11.7212 7.59253 11.7901 7.88317C11.8163 7.99571 11.9103 8.08313 12.0108 8.10826C12.2173 8.16071 12.4217 8.21972 12.6227 8.282C12.5637 9.08404 12.331 9.66425 11.9256 10.0019C11.0449 10.7351 9.20149 10.2609 9.03654 8.37051C9.1622 8.3268 9.28895 8.28419 9.41898 8.24485C9.35889 8.44481 9.5042 8.63712 9.70524 8.63712ZM12.3048 10.4783C12.8183 10.0565 13.1232 9.3845 13.2161 8.48305C13.2565 8.49835 13.2969 8.51255 13.3363 8.52785C13.0817 9.8948 13.2554 10.9919 13.852 11.7951L13.4849 13.2243C13.1658 14.3826 13.2084 15.3693 13.3647 16.1299C12.5124 16.5276 11.7322 16.7134 10.9706 16.6926C10.1456 16.6653 9.62877 16.6085 8.69235 16.1954C8.83986 14.0986 8.26291 12.7895 8.0575 11.7973C8.51642 11.1799 8.72949 10.3921 8.6858 9.43924C9.372 10.9843 11.2491 11.3459 12.3048 10.4783ZM13.5199 16.7263C13.616 17.0214 13.7209 17.2661 13.8116 17.4453C11.1258 17.9174 10.1751 17.8748 8.52417 17.4278C8.55477 17.2497 8.57116 17.2038 8.62361 16.829C10.3085 17.5251 11.9246 17.4453 13.5199 16.7263ZM14.418 17.2891C13.3078 15.308 14.1744 13.1127 14.1755 12.9818C14.3306 13.7674 14.5328 14.3072 14.8431 15.0317C15.0321 15.4698 15.3512 15.79 15.6397 16.0479C15.9598 16.3309 16.2691 16.5702 16.5761 16.7789C15.9172 16.8597 15.1971 17.029 14.418 17.2891ZM7.73391 12.9826L7.83663 13.3815C8.37096 15.4609 7.93497 17.2202 7.92732 17.3108C6.86522 17.1895 5.59114 17.2037 4.44721 17.2518C5.21319 16.7929 5.90924 16.3034 6.55612 15.7701C6.72002 15.6346 6.85551 15.4641 6.94729 15.2773C7.31771 14.5245 7.58093 13.7573 7.73391 12.9826ZM2.52956 20.1473C2.92182 20.1386 3.28351 19.9441 3.52064 19.5584C3.54358 19.6337 3.58729 19.7146 3.66378 19.7987C4.10304 20.2555 4.53575 19.7179 5.75629 19.6785C7.01289 19.6873 8.26291 20.2642 9.58522 20.8761C9.2465 21.1471 8.82799 21.4105 8.45646 21.6432C6.73984 21.5853 5.26895 21.4454 3.70554 20.9723C3.22804 20.8259 2.81256 20.5309 2.52956 20.1473ZM7.49474 23.0299C7.74169 22.7338 9.23868 21.9438 9.997 21.3253C10.4264 21.604 10.5379 21.8356 10.9575 21.6837C11.0241 21.6597 11.1061 21.6149 11.1432 21.5908C11.3563 21.935 11.3508 22.124 11.3683 22.3972C10.0779 22.2923 7.98986 23.1414 7.49474 23.0299ZM16.3532 23.3239C16.3543 23.3337 16.3554 23.3414 16.3554 23.3479C15.9248 23.4594 13.8641 22.5765 12.5486 22.4923C13.3495 22.3164 14.0597 22.1755 14.6367 22.064C15.312 22.5437 16.2079 23.1206 16.3532 23.3239ZM11.9531 22.0017C11.9039 21.7449 11.7935 21.5176 11.7848 21.4925C14.7633 19.7846 17.9704 18.3478 19.7627 19.9354C18.8885 20.862 16.1118 21.0576 11.9531 22.0017ZM20.5612 16.3557C20.6027 16.3622 20.6267 16.3819 20.6289 16.3852C20.6311 16.3983 20.6322 16.5152 20.1612 16.7403C19.8706 16.879 19.9689 17.3172 20.2902 17.3183C20.5437 17.3194 20.8747 17.3314 21.149 17.4035C21.0113 17.4429 20.9217 17.574 20.9305 17.716C20.8846 17.704 20.8234 17.6833 20.7393 17.6505C20.4322 17.5292 20.1776 17.9193 20.4147 18.1509C20.4158 18.152 20.418 18.1542 20.4191 18.1553C20.3994 18.1652 20.3699 18.1684 20.3448 18.1608C20.3426 18.1608 20.3415 18.1597 20.3404 18.1597C19.9361 17.7237 19.5908 17.4462 19.2477 17.2855C19.2313 17.0014 19.2772 16.7621 19.3887 16.56C19.8389 16.3742 20.2246 16.3076 20.5612 16.3557ZM15.5456 10.3295C15.9434 11.5423 16.0002 13.2621 16.2886 14.0753C16.0909 14.1824 15.9302 14.3354 15.8177 14.543C15.7292 14.7058 15.8483 14.9025 16.0308 14.9025C16.1171 14.9025 16.2001 14.8566 16.2449 14.7757C16.3094 14.6577 16.399 14.5703 16.5094 14.508C16.7618 14.8631 17.1442 15.0391 17.4075 15.2838C17.7452 15.5974 17.9528 15.7253 18.7942 16.3962C18.6947 16.6213 18.6412 16.8715 18.6379 17.1458C17.6567 16.8431 17.8446 16.8191 17.4272 16.5929C16.9759 16.3459 16.5235 16.0181 16.0428 15.5931C15.7925 15.3702 15.5423 15.1188 15.4014 14.7921C14.796 13.3815 14.737 12.8504 14.6212 11.6069C14.6102 11.491 14.5971 11.3457 14.6157 11.2703C14.6922 10.9589 14.2945 10.7535 14.0868 11.0059C13.8191 10.4147 13.7612 9.66514 13.9109 8.76587C14.1415 8.86967 14.3556 8.97785 14.5458 9.08711C15.0156 9.3581 15.3719 9.79951 15.5456 10.3295ZM12.2303 2.49062C12.0871 2.37807 11.9276 2.28738 11.7418 2.22291C11.579 2.16609 11.3922 2.20214 11.2545 2.31688C10.8655 2.64251 10.4022 2.73102 9.93781 2.50701C9.70288 2.39337 9.41768 2.48297 9.28767 2.71025C9.16856 2.92004 9.06913 3.15717 8.985 3.4183C8.86043 1.45801 11.6215 1.02749 12.2303 2.49062ZM9.45374 5.09232C9.41987 4.96666 9.30951 4.87596 9.18057 4.86722C8.87899 4.84755 8.91177 4.53504 9.01666 4.49899C9.12047 4.44326 9.37178 4.42796 9.4155 4.19193C9.49745 3.75485 9.61328 3.39534 9.76844 3.09813C10.3978 3.36366 11.0578 3.2522 11.6009 2.8195C11.9342 2.95281 12.1899 3.20958 12.3516 3.94059C12.3636 3.99632 12.392 4.04768 12.4313 4.08811C12.71 4.3722 12.5472 4.78307 12.2073 5.00925C12.1429 5.05187 12.0981 5.11743 12.0795 5.19283C11.9779 5.62663 11.8118 6.00577 11.6348 6.20684C11.2556 6.63846 10.6065 6.69964 10.1586 6.3478C9.77284 6.04513 9.563 5.4977 9.45374 5.09232ZM1.70861 17.8068C2.03094 17.8057 2.1282 17.3665 1.83755 17.2288C1.3666 17.0048 1.36769 16.8857 1.36769 16.878C1.37096 16.8715 1.395 16.8518 1.43325 16.8453C2.03861 16.7589 2.7259 17.0966 2.70187 17.0857C2.82207 17.1348 2.96412 17.0911 3.03842 17.0157L5.27079 14.6785C5.54724 14.6031 5.65433 14.6446 5.69366 14.6806C5.792 14.7724 5.94607 14.767 6.03787 14.6686C6.22472 14.4687 6.00946 14.178 5.59752 14.1518C5.7352 13.7562 5.75596 12.7061 6.55145 10.2826C6.72628 9.75152 7.08139 9.31114 7.55344 9.04017C7.69986 8.95603 7.85174 8.87736 8.00581 8.80087C8.14896 9.68487 8.08777 10.4246 7.82333 11.007C7.63867 10.7786 7.28027 10.9185 7.28463 11.2026C7.30976 12.4887 7.01255 13.7682 6.40175 15.0063C6.34712 15.1178 6.26626 15.2194 6.16901 15.2992C5.32546 15.9963 4.39338 16.6159 3.31913 17.1917C3.20659 17.2442 3.03395 17.3786 2.93996 17.4594C2.43622 17.6725 2.02975 18.0615 1.80793 18.5423C1.72051 18.609 1.65386 18.68 1.58065 18.6417L1.58502 18.6374C1.82104 18.4057 1.56644 18.0156 1.25938 18.138C1.17634 18.1708 1.11406 18.1915 1.06816 18.2036C1.078 18.0648 0.990585 17.9326 0.85072 17.891C1.12389 17.82 1.45621 17.8079 1.70861 17.8068Z" fill="url(#paint0_linear_960_1371)"/>
<path d="M11.3468 15.8316C11.8691 15.9649 12.3914 15.9408 12.776 15.5617C12.8722 15.4677 12.8733 15.3136 12.7793 15.2175C12.6853 15.1213 12.5312 15.1202 12.4351 15.2142C12.222 15.424 11.9062 15.471 11.4681 15.3595C11.338 15.3257 11.2058 15.4043 11.1719 15.5344C11.1381 15.6655 11.2167 15.7977 11.3468 15.8316Z" fill="url(#paint1_linear_960_1371)"/>
<path d="M12.0088 14.9513C12.1596 14.9513 12.2087 14.8354 12.4382 14.6508C12.5388 14.5612 12.5475 14.4071 12.4579 14.3077C12.3683 14.2071 12.2142 14.1995 12.1148 14.288L11.8471 14.5273C11.681 14.6748 11.7859 14.9513 12.0088 14.9513Z" fill="url(#paint2_linear_960_1371)"/>
<path d="M12.9776 13.7089C12.9776 13.4827 12.7033 13.3953 12.5645 13.5384C12.4793 13.616 12.4575 13.7734 12.5645 13.8816C12.7131 14.0313 12.9776 13.9296 12.9776 13.7089Z" fill="url(#paint3_linear_960_1371)"/>
<path d="M14.5677 20.7774C14.2541 20.7774 14.2322 21.2745 14.5677 21.2745C14.7021 21.2745 14.8114 21.1543 14.8114 21.0199C14.8114 20.8855 14.7032 20.7774 14.5677 20.7774Z" fill="url(#paint4_linear_960_1371)"/>
<path d="M15.4114 20.5195C15.0978 20.5195 15.076 21.0167 15.4114 21.0167C15.5458 21.0167 15.6551 20.8965 15.6551 20.7621C15.6551 20.6277 15.5458 20.5195 15.4114 20.5195Z" fill="url(#paint5_linear_960_1371)"/>
<path d="M16.1924 20.2039C16.0875 20.2881 16.0712 20.441 16.1553 20.5459C16.2394 20.6508 16.3924 20.6672 16.4973 20.5831L16.5115 20.5722C16.6164 20.488 16.6263 20.3405 16.5421 20.2356C16.458 20.1307 16.2973 20.1209 16.1924 20.2039Z" fill="url(#paint6_linear_960_1371)"/>
<defs>
<linearGradient id="paint0_linear_960_1371" x1="11" y1="0" x2="11" y2="23.9631" gradientUnits="userSpaceOnUse">
<stop offset="0.519231" stop-color="#D4A017"/>
<stop offset="1" stop-color="#E56C63"/>
</linearGradient>
<linearGradient id="paint1_linear_960_1371" x1="12.0065" y1="15.1445" x2="12.0065" y2="15.9053" gradientUnits="userSpaceOnUse">
<stop offset="0.519231" stop-color="#D4A017"/>
<stop offset="1" stop-color="#E56C63"/>
</linearGradient>
<linearGradient id="paint2_linear_960_1371" x1="12.1427" y1="14.2266" x2="12.1427" y2="14.9513" gradientUnits="userSpaceOnUse">
<stop offset="0.519231" stop-color="#D4A017"/>
<stop offset="1" stop-color="#E56C63"/>
</linearGradient>
<linearGradient id="paint3_linear_960_1371" x1="12.7349" y1="13.4688" x2="12.7349" y2="13.9524" gradientUnits="userSpaceOnUse">
<stop offset="0.519231" stop-color="#D4A017"/>
<stop offset="1" stop-color="#E56C63"/>
</linearGradient>
<linearGradient id="paint4_linear_960_1371" x1="14.5678" y1="20.7773" x2="14.5678" y2="21.2745" gradientUnits="userSpaceOnUse">
<stop offset="0.519231" stop-color="#D4A017"/>
<stop offset="1" stop-color="#E56C63"/>
</linearGradient>
<linearGradient id="paint5_linear_960_1371" x1="15.4115" y1="20.5195" x2="15.4115" y2="21.0167" gradientUnits="userSpaceOnUse">
<stop offset="0.519231" stop-color="#D4A017"/>
<stop offset="1" stop-color="#E56C63"/>
</linearGradient>
<linearGradient id="paint6_linear_960_1371" x1="16.35" y1="20.1484" x2="16.35" y2="20.6368" gradientUnits="userSpaceOnUse">
<stop offset="0.519231" stop-color="#D4A017"/>
<stop offset="1" stop-color="#E56C63"/>
</linearGradient>
</defs>
</svg>
