<svg width="16" height="16" viewBox="0 0 16 16" fill="none" xmlns="http://www.w3.org/2000/svg">
<path d="M1 3C1 2.46957 1.21071 1.96086 1.58579 1.58579C1.96086 1.21071 2.46957 1 3 1H13C13.5304 1 14.0391 1.21071 14.4142 1.58579C14.7893 1.96086 15 2.46957 15 3V13C15 13.5304 14.7893 14.0391 14.4142 14.4142C14.0391 14.7893 13.5304 15 13 15H3C2.46957 15 1.96086 14.7893 1.58579 14.4142C1.21071 14.0391 1 13.5304 1 13V3Z" fill="#CC9B2F"/>
<path d="M10.782 4.15724C10.9227 4.01654 11.1135 3.9375 11.3125 3.9375C11.5115 3.9375 11.7023 4.01654 11.843 4.15724C11.9837 4.29794 12.0627 4.48876 12.0627 4.68774C12.0627 4.88672 11.9837 5.07754 11.843 5.21824L9.06 8.00024L11.8425 10.7822C11.9832 10.9229 12.0622 11.1138 12.0622 11.3127C12.0622 11.5117 11.9832 11.7025 11.8425 11.8432C11.7018 11.9839 11.511 12.063 11.312 12.063C11.113 12.063 10.9222 11.9839 10.7815 11.8432L8 9.06024L5.218 11.8427C5.0773 11.9834 4.88647 12.0625 4.6875 12.0625C4.48852 12.0625 4.29769 11.9834 4.157 11.8427C4.0163 11.702 3.93726 11.5112 3.93726 11.3122C3.93726 11.1133 4.0163 10.9224 4.157 10.7817L6.94 8.00024L4.1575 5.21824C4.0168 5.07754 3.93776 4.88672 3.93776 4.68774C3.93776 4.48876 4.0168 4.29794 4.1575 4.15724C4.29819 4.01654 4.48902 3.9375 4.688 3.9375C4.88697 3.9375 5.0778 4.01654 5.2185 4.15724L8 6.94024L10.782 4.15724Z" fill="white"/>
</svg>
