<svg width="21" height="21" viewBox="0 0 21 21" fill="none" xmlns="http://www.w3.org/2000/svg">
<g opacity="0.8">
<path d="M10.5 18.375C12.0575 18.375 13.5801 17.9131 14.8751 17.0478C16.1702 16.1825 17.1795 14.9526 17.7756 13.5136C18.3716 12.0747 18.5275 10.4913 18.2237 8.96367C17.9198 7.43607 17.1698 6.03288 16.0685 4.93154C14.9671 3.8302 13.5639 3.08018 12.0363 2.77632C10.5087 2.47246 8.92534 2.62841 7.48637 3.22445C6.0474 3.82049 4.81749 4.82985 3.95218 6.12489C3.08686 7.41993 2.625 8.94248 2.625 10.5C2.625 11.802 2.94 13.0296 3.5 14.1111L2.625 18.375L6.88888 17.5C7.97038 18.06 9.19888 18.375 10.5 18.375Z" stroke="#303030" stroke-width="1.75" stroke-linecap="round" stroke-linejoin="round"/>
</g>
</svg>
