<svg width="30" height="30" viewBox="0 0 30 30" fill="none" xmlns="http://www.w3.org/2000/svg">
<path d="M18.1026 27.5C18.7151 25.5029 19.6391 24.014 20.8745 23.0331C22.7276 21.5625 25.672 22.4769 26.7595 20.9594C27.847 19.4419 25.9976 16.6519 25.3489 15.0056C24.7001 13.3594 27.8364 12.7775 27.4701 12.31C27.2264 11.9983 25.6412 11.0992 22.7145 9.6125C21.8833 4.87083 18.8122 2.5 13.5014 2.5C5.53514 2.5 2.50014 9.25375 2.50014 13.55C2.50014 17.845 6.17514 22.4725 11.4101 23.4706C11.8781 24.1523 11.2031 25.4954 9.38514 27.5" stroke="#C8AC10" stroke-width="2.3335" stroke-linecap="round" stroke-linejoin="round"/>
<path fill-rule="evenodd" clip-rule="evenodd" d="M17.8125 9.06157C18.2212 10.6453 18.0998 11.7576 17.4481 12.3984C16.7969 13.0389 15.6869 13.4576 14.1181 13.6547C14.4744 15.6976 14.0404 16.6559 12.8162 16.5297C11.5925 16.4039 10.8571 15.8955 10.61 15.0047C8.69749 15.5422 7.66083 15.0922 7.49999 13.6547C7.25937 11.4984 8.42187 9.77907 8.89874 9.77907C9.37562 9.77907 10.61 9.72094 10.61 9.06157C10.61 8.40219 12.0525 8.03032 13.3544 8.03032C14.6562 8.03032 13.8731 7.15219 15.6606 7.49907C16.8523 7.73032 17.5696 8.25115 17.8125 9.06157Z" fill="#C8AC10" stroke="#C8AC10" stroke-width="2" stroke-linejoin="round"/>
<path d="M10.9377 15.9375C11.5733 16.3319 12.4452 16.9875 12.8127 17.5C13.7308 18.7812 14.4752 19.5613 14.6377 20.38" stroke="#C8AC10" stroke-width="2" stroke-linecap="round"/>
</svg>
