<svg width="40" height="34" viewBox="0 0 40 34" fill="none" xmlns="http://www.w3.org/2000/svg">
<path d="M37.5143 26.9108H37.6719C37.7887 26.9105 37.9013 26.9496 37.9873 27.0203C38.0732 27.0909 38.1261 27.188 38.1355 27.2921L38.599 32.6044C38.6043 32.6948 38.5763 32.7842 38.5194 32.859C38.4625 32.9338 38.3797 32.9899 38.2838 33.0188C38.2357 33.032 38.1858 33.039 38.1355 33.0395C38.0583 33.0398 37.9823 33.0229 37.9143 32.9904C37.8463 32.9578 37.7885 32.9106 37.7461 32.853C37.6488 32.7163 35.2848 29.567 30.0934 30.3668L28.7028 30.5822C22.8717 31.5063 14.0602 32.9069 10.6255 27.4993C9.81698 26.1085 9.26596 24.6097 8.99393 23.0612C8.8534 22.3711 8.65666 21.6911 8.40526 21.0266C8.32646 20.9728 8.24303 20.9189 8.1596 20.8526C7.7718 20.5214 7.45729 20.1277 7.23256 19.6923C7.18157 19.6675 7.13985 19.6385 7.08886 19.6178C6.27307 19.3194 5.45264 18.3995 4.9613 17.2807C3.50585 16.2406 0.975025 15.6231 0.947212 15.6231C0.871769 15.6056 0.80249 15.5714 0.745773 15.5236C0.68906 15.4758 0.646751 15.416 0.622753 15.3497C0.598293 15.2831 0.593121 15.2121 0.607712 15.1432C0.622303 15.0744 0.656185 15.01 0.706188 14.956C1.96233 13.6134 4.02963 13.3233 5.09109 13.2695C5.62414 12.4739 6.64388 11.6948 8.5953 11.4131C8.56285 10.9987 8.55822 10.6547 8.55822 10.4517C7.07959 8.89363 7.38552 6.61869 7.54311 5.83552C4.76199 3.81335 6.0135 0.896119 6.0274 0.862969C6.05172 0.80855 6.08866 0.759361 6.1358 0.718646C6.18294 0.677931 6.2392 0.646618 6.30088 0.626773C6.36258 0.606598 6.42838 0.598381 6.49391 0.602667C6.55944 0.606954 6.6232 0.623645 6.68096 0.651635C7.21865 0.916838 14.4959 5.16422 16.8645 7.32728C18.2551 8.62014 19.0987 10.6423 19.5946 12.391C20.2885 11.1055 21.3073 9.98199 22.5704 9.10911C25.8475 6.94605 36.0403 2.71939 36.782 2.47905C36.8857 2.44328 37.0003 2.44202 37.1049 2.47548C37.2096 2.50895 37.2973 2.57492 37.3521 2.66137C37.8091 3.4706 37.91 4.40361 37.6349 5.2761C37.2255 6.33547 36.371 7.21082 35.2524 7.7168C35.4841 8.57042 35.8457 10.8288 33.8618 12.3371C33.8618 13.0291 33.7645 15.2088 32.4712 16.3483C31.9664 16.7958 31.2864 17.05 30.5754 17.0569C30.1722 17.8857 28.7214 20.1233 24.6609 20.6869C27.9658 23.3099 32.5037 26.9108 37.5143 26.9108ZM7.96028 19.1205C8.13294 19.5439 8.41574 19.9246 8.78535 20.231C9.07737 20.4672 9.36938 20.5874 9.53625 20.5335C9.70312 20.4797 9.84681 20.2228 9.90706 19.8747C9.97755 19.4274 9.9283 18.9715 9.76337 18.5445C9.56406 18.0473 9.26278 17.7945 8.83634 17.7945C8.70621 17.7959 8.57744 17.8184 8.45625 17.8608C8.33803 17.8935 8.22832 17.947 8.13358 18.0181C8.03885 18.0893 7.96101 18.1767 7.90466 18.2752C7.80341 18.5532 7.82328 18.8551 7.96028 19.1205ZM6.922 18.5279C6.93171 18.3179 6.98516 18.1113 7.07959 17.9188C7.16808 17.7556 7.28902 17.6082 7.4365 17.4837C7.06569 17.3345 6.70414 17.1895 6.35186 17.0693C6.24062 17.1688 6.12474 17.2641 6.00422 17.3553C6.23312 17.7901 6.54352 18.1867 6.922 18.5279ZM5.66586 14.0858C4.4483 14.0636 3.24681 14.3371 2.18945 14.8773C3.50619 15.2058 4.80274 15.5958 6.07375 16.0458C6.34305 15.6791 6.45194 15.2366 6.37968 14.8027C6.35359 14.6334 6.2718 14.4748 6.1447 14.3472C6.0176 14.2196 5.85093 14.1286 5.66586 14.0858ZM16.197 7.90327C14.2503 6.10486 8.52578 2.68209 6.75049 1.66272C6.57711 2.34665 6.63577 3.06126 6.91897 3.71523C7.20217 4.3692 7.69705 4.93284 8.34037 5.33412C8.4148 5.38276 8.47132 5.45014 8.5027 5.52764C8.53407 5.60515 8.53888 5.68925 8.5165 5.76922C8.5165 5.79822 7.76097 8.49169 9.35548 10.0125C9.39733 10.0523 9.42993 10.0992 9.45141 10.1504C9.47289 10.2017 9.48282 10.2562 9.48063 10.3108C9.48063 10.547 9.48063 10.9117 9.50844 11.3302C13.6801 11.1106 15.6733 13.5554 17.2724 15.5361C17.5366 15.8593 17.7869 16.1701 18.0372 16.4519C18.2587 15.5008 18.5688 14.568 18.9643 13.6631C18.5424 11.7943 17.7406 9.30801 16.197 7.90327ZM22.2645 19.97C28.4247 20.1274 29.7318 16.655 29.7828 16.5016C29.8134 16.4143 29.8755 16.3385 29.9593 16.286C30.0432 16.2336 30.1441 16.2074 30.2463 16.2116C30.5239 16.2407 30.8053 16.2133 31.0693 16.1315C31.3334 16.0497 31.5734 15.9156 31.7713 15.7392C33.0043 14.6618 32.8884 12.1672 32.8884 12.1424C32.8849 12.0756 32.8995 12.0091 32.931 11.9485C32.9625 11.8879 33.0099 11.835 33.0692 11.7943C35.2709 10.2984 34.2929 7.74166 34.2512 7.6505C34.2136 7.55688 34.2149 7.4543 34.2549 7.36149C34.2949 7.26867 34.3709 7.19182 34.469 7.14495C35.6834 6.57725 36.439 5.87281 36.7171 5.07306C36.8951 4.52997 36.8805 3.95093 36.6754 3.41554C34.5942 4.2443 25.9495 7.9157 23.0942 9.79698C19.3397 12.2833 18.6769 17.952 18.6722 18.01C18.6661 18.0644 18.6481 18.1172 18.6192 18.1654C18.5903 18.2136 18.551 18.2562 18.5037 18.2908C18.4564 18.3255 18.4018 18.3514 18.3433 18.3672C18.2847 18.383 18.2232 18.3884 18.1624 18.3829C18.1015 18.3775 18.0424 18.3614 17.9885 18.3355C17.9346 18.3097 17.8869 18.2746 17.8482 18.2322C17.8094 18.1899 17.7804 18.1412 17.7627 18.0888C17.7451 18.0365 17.7391 17.9815 17.7452 17.9271C17.7452 17.8939 17.7452 17.7531 17.8008 17.5127C17.3331 17.0385 16.8967 16.5404 16.4937 16.021C14.9131 14.0651 13.1193 11.8482 9.25813 12.1672C7.81659 12.2874 6.75976 12.6976 6.12011 13.3606C6.41462 13.4703 6.6737 13.6442 6.8737 13.8664C7.07369 14.0886 7.20822 14.3521 7.265 14.6328C7.38915 15.2227 7.27237 15.8329 6.9359 16.3525C7.45041 16.5472 7.97419 16.7668 8.5026 16.9947C8.90293 16.9271 9.31711 16.9839 9.67632 17.1557C10.0355 17.3276 10.3181 17.6042 10.4772 17.9395C11.0705 18.2545 11.6545 18.5901 12.2154 18.9506C12.3155 18.7508 12.4607 18.5717 12.6418 18.4243C13.0892 18.106 13.6583 17.9572 14.2271 18.01C14.8813 18.0473 15.5165 18.2219 16.0812 18.5197C16.3637 18.6366 16.6051 18.8204 16.7792 19.0512C16.9532 19.2821 17.0533 19.5511 17.0685 19.8291C17.0211 20.1048 16.8902 20.3637 16.69 20.5777C16.4899 20.7917 16.228 20.9527 15.9328 21.0432C15.6471 21.1603 15.3468 21.2465 15.0382 21.3001C15.5987 21.9019 16.0664 22.568 16.4288 23.2809C17.2446 22.9784 18.1114 23.2394 18.7464 24.0185C19.1275 24.4978 19.374 25.0521 19.4649 25.6345C19.5668 26.3224 19.3814 26.8777 18.9364 27.1429C18.7194 27.2784 18.4595 27.3481 18.1948 27.3418C17.3002 27.3418 16.2388 26.6705 15.6872 25.9868C15.5081 25.7901 15.3749 25.5634 15.2953 25.32C15.2157 25.0767 15.1913 24.8215 15.2236 24.5696C15.2781 24.2706 15.4296 23.9925 15.6594 23.7698C15.2301 22.8795 14.6274 22.0643 13.8794 21.3623C13.3553 21.3435 12.8585 21.1481 12.4889 20.8153C12.2369 20.5646 12.0825 20.2477 12.0485 19.912C11.6545 19.6426 11.2466 19.3857 10.8295 19.1454C10.8667 19.4303 10.8667 19.7182 10.8295 20.0031C10.8195 20.2818 10.7238 20.5526 10.5529 20.7858C10.382 21.019 10.1425 21.2056 9.86071 21.325C9.75296 21.3573 9.64055 21.3754 9.52698 21.3789C9.67067 21.8513 9.79119 22.361 9.9117 22.8955C10.1722 24.357 10.6901 25.7724 11.446 27.089C14.5654 31.9911 22.9876 30.6527 28.5638 29.7659L29.9543 29.5504C33.8479 28.962 36.3324 30.3792 37.5792 31.4317L37.2594 27.7479C32.0124 27.6277 27.4189 23.9812 24.0398 21.3043L23.3909 20.7905C23.1591 20.7905 22.9274 20.8112 22.6817 20.8112H22.2692C22.1462 20.8112 22.0283 20.7675 21.9414 20.6898C21.8545 20.6121 21.8056 20.5067 21.8056 20.3968C21.8056 20.2869 21.8545 20.1815 21.9414 20.1038C22.0283 20.0261 22.1462 19.9824 22.2692 19.9824L22.2645 19.97ZM12.9941 19.6385C12.9822 19.7473 12.9945 19.8571 13.0303 19.9617C13.0661 20.0662 13.1247 20.1634 13.2027 20.2476C13.4469 20.4462 13.7673 20.553 14.0973 20.546C14.6014 20.5656 15.1035 20.4775 15.562 20.2891C15.9189 20.1399 16.1553 19.941 16.1646 19.7835C16.1739 19.626 15.9606 19.4064 15.6223 19.2241C15.1829 18.9948 14.6887 18.8627 14.1807 18.8387H14.0602C13.7732 18.821 13.4887 18.896 13.2583 19.0501C13.1707 19.1268 13.101 19.2183 13.0533 19.3194C13.0056 19.4204 12.9807 19.5288 12.9802 19.6385H12.9941ZM16.4334 25.4978C17.0221 26.223 18.0697 26.6705 18.3941 26.4633C18.4782 26.3602 18.5352 26.2414 18.5609 26.1159C18.5865 25.9903 18.5802 25.8612 18.5425 25.7381C18.4694 25.291 18.2805 24.8653 17.9909 24.495C17.9002 24.3502 17.7722 24.2268 17.6173 24.1353C17.4625 24.0437 17.2854 23.9866 17.1009 23.9687C16.8965 23.9759 16.7 24.0412 16.54 24.1552C16.4368 24.2152 16.3479 24.2931 16.2787 24.3841C16.2095 24.4752 16.1612 24.5777 16.1368 24.6856C16.1131 24.9806 16.2196 25.2721 16.4334 25.4978Z" fill="#6B4D00" stroke="#6B4D00" stroke-width="1.2"/>
</svg>
