<svg width="64" height="64" viewBox="0 0 64 64" fill="none" xmlns="http://www.w3.org/2000/svg">
<path d="M32.0014 53.7596C31.855 53.7596 31.7098 53.7336 31.5726 53.6828C31.131 53.5292 20.795 49.7532 18.4014 39.8844C16.3918 31.5644 20.6542 21.7532 31.067 10.6428C31.3161 10.3974 31.6517 10.2598 32.0014 10.2598C32.3511 10.2598 32.6867 10.3974 32.9358 10.6428C43.3486 21.7596 47.611 31.59 45.6014 39.8844C43.2078 49.7532 32.8718 53.5292 32.4302 53.6828C32.2929 53.7336 32.1477 53.7596 32.0014 53.7596ZM32.0014 13.4396C22.9006 23.4108 19.1566 32.1084 20.8846 39.2636C22.683 46.7196 30.1262 50.3036 32.0014 51.1036C33.8766 50.3036 41.3198 46.7196 43.1182 39.2636C44.8462 32.1084 41.1022 23.4108 32.0014 13.4396Z" fill="#D4A017"/>
<path d="M31.9987 53.7596C31.6593 53.7596 31.3337 53.6248 31.0937 53.3847C30.8536 53.1447 30.7188 52.8191 30.7188 52.4796C30.7188 52.1401 30.8536 51.8146 31.0937 51.5745C31.3337 51.3345 31.6593 51.1996 31.9987 51.1996C57.7459 51.1996 60.978 32.8508 61.3812 28.006C58.6612 27.7692 51.3907 27.6604 44.8819 32.1532C44.7485 32.28 44.5892 32.3764 44.415 32.436C44.2409 32.4956 44.0559 32.517 43.8727 32.4986C43.6896 32.4802 43.5125 32.4225 43.3537 32.3294C43.1948 32.2364 43.0579 32.1102 42.9523 31.9594C42.8467 31.8087 42.7748 31.6369 42.7416 31.4558C42.7084 31.2748 42.7146 31.0887 42.7599 30.9102C42.8052 30.7318 42.8884 30.5652 43.0039 30.4219C43.1194 30.2786 43.2644 30.1618 43.4292 30.0796C52.4788 23.7948 62.5268 25.542 62.9492 25.5996C63.2473 25.6541 63.5165 25.8127 63.7087 26.0471C63.9009 26.2815 64.0037 26.5765 63.9987 26.8796C63.9987 27.1484 63.6339 53.7596 31.9987 53.7596Z" fill="#D4A017"/>
<path d="M32.0002 53.759C0.364971 53.759 0.000170381 27.1478 0.000170381 26.879C-0.00477338 26.576 0.098009 26.2809 0.290217 26.0465C0.482426 25.8121 0.751585 25.6536 1.04977 25.599C1.47217 25.5222 11.4754 23.7814 20.525 29.9958C20.8005 30.1895 20.9885 30.484 21.0484 30.8154C21.1083 31.1467 21.0352 31.4884 20.8449 31.7662C20.6546 32.0441 20.3625 32.2358 20.0319 32.2997C19.7012 32.3636 19.3587 32.2947 19.0786 32.1078C12.5506 27.6278 5.32497 27.743 2.61777 27.9862C3.02097 32.8438 6.24657 51.199 32.0002 51.199C32.3396 51.199 32.6652 51.3339 32.9053 51.5739C33.1453 51.814 33.2802 52.1396 33.2802 52.479C33.2802 52.8185 33.1453 53.1441 32.9053 53.3841C32.6652 53.6242 32.3396 53.759 32.0002 53.759ZM47.3602 23.039C47.0222 23.0393 46.6978 22.9059 46.4578 22.6678C46.3388 22.549 46.2444 22.4078 46.1799 22.2524C46.1155 22.097 46.0824 21.9305 46.0824 21.7622C46.0824 21.594 46.1155 21.4275 46.1799 21.2721C46.2444 21.1167 46.3388 20.9755 46.4578 20.8566L51.5778 15.7366C51.818 15.4965 52.1437 15.3615 52.4834 15.3615C52.823 15.3615 53.1488 15.4965 53.389 15.7366C53.6292 15.9768 53.7641 16.3026 53.7641 16.6422C53.7641 16.9819 53.6292 17.3077 53.389 17.5478L48.269 22.6678C48.1494 22.7865 48.0075 22.8803 47.8516 22.944C47.6956 23.0077 47.5286 23.04 47.3602 23.039ZM16.6402 23.039C16.3012 23.0376 15.9767 22.9018 15.7378 22.6614L10.6178 17.5414C10.4895 17.4248 10.3862 17.2833 10.3143 17.1255C10.2424 16.9678 10.2032 16.797 10.1993 16.6237C10.1953 16.4503 10.2266 16.278 10.2913 16.1171C10.3559 15.9562 10.4526 15.8101 10.5754 15.6878C10.6983 15.5654 10.8447 15.4692 11.0058 15.4051C11.1669 15.341 11.3394 15.3103 11.5127 15.3149C11.686 15.3195 11.8566 15.3592 12.0141 15.4317C12.1716 15.5042 12.3128 15.608 12.429 15.7366L17.549 20.8566C17.7273 21.036 17.8485 21.2642 17.8972 21.5124C17.9459 21.7606 17.9201 22.0176 17.8228 22.2511C17.7256 22.4846 17.5614 22.684 17.3509 22.8243C17.1404 22.9645 16.8931 23.0392 16.6402 23.039Z" fill="#D4A017"/>
</svg>
