<svg width="19" height="19" viewBox="0 0 19 19" fill="none" xmlns="http://www.w3.org/2000/svg">
<path opacity="0.8" fill-rule="evenodd" clip-rule="evenodd" d="M8.45124 1.90604e-08C7.1035 0.000114839 5.77532 0.322531 4.57752 0.940349C3.37972 1.55817 2.34703 2.45347 1.56561 3.55157C0.784199 4.64966 0.276714 5.91871 0.0854993 7.25282C-0.105715 8.58694 0.0248849 9.94743 0.466404 11.2208C0.907924 12.4942 1.64756 13.6435 2.6236 14.5729C3.59965 15.5023 4.78379 16.1848 6.07725 16.5635C7.37071 16.9421 8.73597 17.006 10.0591 16.7497C11.3823 16.4934 12.625 15.9245 13.6835 15.0902L17.3149 18.7216C17.5024 18.9027 17.7536 19.0029 18.0143 19.0007C18.275 18.9984 18.5244 18.8938 18.7088 18.7095C18.8931 18.5251 18.9977 18.2757 19 18.015C19.0022 17.7543 18.902 17.5031 18.7209 17.3156L15.0895 13.6842C16.0719 12.4379 16.6836 10.9402 16.8546 9.36251C17.0255 7.7848 16.7489 6.19083 16.0562 4.76302C15.3636 3.33521 14.283 2.13124 12.938 1.28891C11.5931 0.446568 10.0382 -0.000106538 8.45124 1.90604e-08ZM1.98798 8.45196C1.98798 6.7378 2.66893 5.09384 3.88102 3.88174C5.09312 2.66965 6.73708 1.9887 8.45124 1.9887C10.1654 1.9887 11.8094 2.66965 13.0215 3.88174C14.2336 5.09384 14.9145 6.7378 14.9145 8.45196C14.9145 10.1661 14.2336 11.8101 13.0215 13.0222C11.8094 14.2343 10.1654 14.9152 8.45124 14.9152C6.73708 14.9152 5.09312 14.2343 3.88102 13.0222C2.66893 11.8101 1.98798 10.1661 1.98798 8.45196Z" fill="#303030"/>
</svg>
