<svg width="24" height="24" viewBox="0 0 24 24" fill="none" xmlns="http://www.w3.org/2000/svg">
<path d="M5.05523 2C4.39219 2 3.7563 2.26339 3.28746 2.73223C2.81862 3.20107 2.55523 3.83696 2.55523 4.5V12.8333C2.55523 13.4964 2.81862 14.1323 3.28746 14.6011C3.7563 15.0699 4.39219 15.3333 5.05523 15.3333H15.9441C15.4731 14.872 15.127 14.2985 14.9386 13.6667H5.05523C4.83422 13.6667 4.62225 13.5789 4.46597 13.4226C4.30969 13.2663 4.2219 13.0543 4.2219 12.8333V4.5C4.2219 4.27899 4.30969 4.06702 4.46597 3.91074C4.62225 3.75446 4.83422 3.66667 5.05523 3.66667H17.833C18.054 3.66667 18.266 3.75446 18.4223 3.91074C18.5785 4.06702 18.6663 4.27899 18.6663 4.5V8.66667C19.263 8.66667 19.8275 8.8 20.333 9.04111V4.5C20.333 4.1717 20.2683 3.84661 20.1427 3.54329C20.0171 3.23998 19.8329 2.96438 19.6008 2.73223C19.3686 2.50009 19.093 2.31594 18.7897 2.1903C18.4864 2.06466 18.1613 2 17.833 2H5.05523ZM1.16634 17H12.8975C12.6717 17.4369 12.5543 17.9216 12.5552 18.4133V18.5278C12.5552 18.5744 12.556 18.6207 12.5575 18.6667H1.16634C0.945327 18.6667 0.733366 18.5789 0.577085 18.4226C0.420805 18.2663 0.333008 18.0543 0.333008 17.8333C0.333008 17.6123 0.420805 17.4004 0.577085 17.2441C0.733366 17.0878 0.945327 17 1.16634 17ZM21.4441 12.5556C21.4441 13.2923 21.1515 13.9988 20.6305 14.5197C20.1096 15.0407 19.4031 15.3333 18.6663 15.3333C17.9296 15.3333 17.2231 15.0407 16.7022 14.5197C16.1812 13.9988 15.8886 13.2923 15.8886 12.5556C15.8886 11.8188 16.1812 11.1123 16.7022 10.5914C17.2231 10.0704 17.9296 9.77778 18.6663 9.77778C19.4031 9.77778 20.1096 10.0704 20.6305 10.5914C21.1515 11.1123 21.4441 11.8188 21.4441 12.5556ZM23.6663 18.5278C23.6663 20.2567 22.2375 22 18.6663 22C15.0952 22 13.6663 20.2633 13.6663 18.5278V18.4133C13.6663 17.3244 14.5486 16.4444 15.6363 16.4444H21.6963C22.7852 16.4444 23.6663 17.3256 23.6663 18.4133V18.5278Z" fill="#9C6B00"/>
</svg>
