<svg width="23" height="20" viewBox="0 0 23 20" fill="none" xmlns="http://www.w3.org/2000/svg">
<path d="M2.17539 20.0007H17.1515C18.2149 20.0007 19.1077 19.2377 19.2945 18.2231H5.57648C3.48224 18.2231 1.77766 16.5184 1.77766 14.4242V3.43359C0.763014 3.6284 0 4.51319 0 5.57653V17.8334C0 19.0267 0.974068 20.0007 2.17539 20.0007Z" fill="#9C6B00"/>
<path d="M10.7793 11.1267L15.6821 8.29382L10.7793 5.46094V11.1267Z" fill="#9C6B00"/>
<path d="M20.5529 0H5.57676C4.37543 0 3.40137 0.974068 3.40137 2.16726V14.4242C3.40137 15.6255 4.37543 16.5996 5.57676 16.5996H20.5529C21.7542 16.5996 22.7283 15.6255 22.7283 14.4242V2.16726C22.7283 0.974068 21.7542 0 20.5529 0ZM16.6891 9.59447L11.3967 12.6465C11.1614 12.7845 10.9016 12.8495 10.65 12.8495C10.3902 12.8495 10.1386 12.7845 9.90321 12.6465C9.4324 12.3786 9.15645 11.8997 9.15645 11.3559V5.23557C9.15645 4.69981 9.4324 4.2128 9.90321 3.94492C10.3659 3.67704 10.926 3.67704 11.3967 3.94492L16.6891 7.0051C17.1599 7.27298 17.4359 7.75999 17.4359 8.2957C17.4359 8.83958 17.1599 9.31847 16.6891 9.59447Z" fill="#9C6B00"/>
</svg>
