<svg width="20" height="20" viewBox="0 0 20 20" fill="none" xmlns="http://www.w3.org/2000/svg">
<path opacity="0.1" d="M10 0C4.47715 0 0 4.47715 0 10C0 15.5228 4.47715 20 10 20C15.5228 20 20 15.5228 20 10C19.9936 4.47982 15.5202 0.00642897 10 0Z" fill="white"/>
<path d="M13.7453 7.0033C13.454 6.97805 13.1617 7.09849 12.987 7.33322L9.51981 11.6233L7.34234 10.035C6.99046 9.7783 6.47846 9.82581 6.18971 10.1548C5.88851 10.4979 5.95599 11.0006 6.32104 11.2669L9.16279 13.3383L9.16496 13.3399C9.34165 13.4658 9.56246 13.5195 9.77841 13.4936C9.99444 13.4677 10.1958 13.3632 10.3341 13.196L14.3121 8.27428C14.507 8.05083 14.5566 7.74063 14.4316 7.46975C14.3075 7.20073 14.0391 7.02878 13.7453 7.0033Z" fill="white"/>
</svg>
