<svg width="28" height="22" viewBox="0 0 28 22" fill="none" xmlns="http://www.w3.org/2000/svg">
<path d="M23.5938 0.952342C24.0101 0.425456 24.6066 0.089284 25.2563 0.015386C25.9059 -0.0585119 26.5576 0.135701 27.0724 0.556682C27.3252 0.761452 27.5362 1.01715 27.693 1.30866C27.8497 1.60017 27.9489 1.92157 27.9849 2.25388C28.0208 2.58619 27.9926 2.92266 27.9021 3.2434C27.8116 3.56415 27.6605 3.86265 27.4577 4.12128L14.2862 21.0467C14.0658 21.3264 13.7922 21.5552 13.4829 21.7186C13.1736 21.882 12.8352 21.9765 12.4891 21.9962C12.1431 22.0158 11.7969 21.9601 11.4725 21.8326C11.1481 21.7051 10.8525 21.5086 10.6045 21.2556L0.725807 11.1076L0.554157 10.9171C-0.237537 9.92063 -0.181488 8.45156 0.725807 7.52103C1.6331 6.5905 3.06586 6.53188 4.03621 7.34518L4.22187 7.52103L12.1738 15.654L23.6289 0.963333L23.5938 0.952342Z" fill="#2A7900"/>
</svg>
