<svg width="64" height="64" viewBox="0 0 64 64" fill="none" xmlns="http://www.w3.org/2000/svg">
<path d="M32.0015 30.4765C28.632 30.4765 25.8906 27.7354 25.8906 24.3662C25.8906 20.997 28.632 18.2559 32.0015 18.2559C35.3706 18.2559 38.1118 20.997 38.1118 24.3662C38.1118 27.7355 35.3706 30.4765 32.0015 30.4765ZM32.0015 20.0502C29.6214 20.0502 27.6851 21.9864 27.6851 24.3662C27.6851 26.746 29.6215 28.6821 32.0015 28.6821C34.3812 28.6821 36.3172 26.746 36.3172 24.3662C36.3172 21.9864 34.3812 20.0502 32.0015 20.0502Z" fill="#D4A017"/>
<path d="M51.2381 48.1778C48.5362 47.6375 46.4697 44.8233 44.6839 41.6855C44.9347 41.7268 45.1872 41.7481 45.4394 41.7481C46.5232 41.7481 47.5163 41.3561 48.2389 40.6438C48.2454 40.6376 48.2518 40.6314 48.2579 40.6253C49.9149 38.9676 49.7126 36.069 47.8073 34.164L47.0762 33.436C47.9618 31.9278 48.6141 30.375 49.0216 28.625H50.1048C52.7996 28.625 54.9918 26.7189 54.9918 24.3749C54.9918 22.031 52.7996 20.125 50.1048 20.125H48.9939C48.5776 18.5 47.9206 16.8415 47.0344 15.3478L47.8073 14.5725C48.7069 13.673 49.2597 12.5191 49.3632 11.3256C49.4718 10.0738 49.0792 8.93138 48.2576 8.10988C47.5334 7.38575 46.5327 6.98675 45.4397 6.98675C44.1241 6.98675 42.7962 7.55975 41.7967 8.55925L41.0857 9.26938C39.5822 8.3335 37.9997 7.63388 36.2497 7.18263V6.26225C36.2497 3.56738 34.2812 1.375 31.9376 1.375C29.5934 1.375 27.6247 3.56738 27.6247 6.26225V7.02838C25.9997 7.43075 24.1996 8.103 22.6151 9.03363L22.1719 8.55938C21.1726 7.55975 19.8601 6.98663 18.5441 6.98663C17.4511 6.98663 16.4582 7.38525 15.7342 8.109C15.7284 8.11475 15.7266 8.12063 15.7211 8.12663C14.0822 9.78688 14.2911 12.672 16.1899 14.5706L16.5751 14.9588C15.5682 16.5603 14.8327 18.25 14.3797 20.125H13.8948C11.2002 20.125 9.00781 22.031 9.00781 24.3749C9.00781 26.7189 11.2002 28.625 13.8948 28.625H14.3526C14.7966 30.5 15.5274 32.2111 16.5328 33.8261L16.1918 34.1654C14.2866 36.0704 14.0847 38.9681 15.7419 40.6264C16.4662 41.3505 17.4669 41.7488 18.5601 41.7486C18.9062 41.7486 19.2527 41.7071 19.5941 41.63C17.7848 44.8011 15.6997 47.6393 13.0086 48.1774C11.3237 48.5126 10.2253 50.1568 10.5603 51.8429C10.8498 53.2959 12.1347 54.3506 13.6152 54.3506C13.6489 54.3506 13.6826 54.3503 13.7163 54.3491C12.3227 55.2204 11.5488 56.4421 11.5488 57.8824C11.5488 60.4975 14.0877 62.6251 17.2083 62.6251H47.0377C50.1581 62.6251 52.6968 60.4975 52.6968 57.8824C52.6968 56.4409 51.9261 55.2191 50.5381 54.3494C52.0521 54.3956 53.3897 53.3264 53.6852 51.8428C54.0206 50.157 52.9224 48.513 51.2381 48.1778ZM20.9341 38.9066C20.2688 39.572 19.4034 39.9538 18.5599 39.9538C18.1257 39.9539 17.5046 39.8503 17.0108 39.3568C16.0693 38.4148 16.2752 36.6179 17.4606 35.4326L18.3159 34.5773C18.6207 34.2725 18.6657 33.7939 18.4231 33.4376C17.2033 31.647 16.3727 29.6906 15.9544 27.5728C15.8714 27.1524 15.5027 26.875 15.0742 26.875H13.8947C12.2184 26.875 10.8022 25.769 10.8022 24.4374C10.8022 23.106 12.2184 22 13.8947 22H15.0966C15.5227 22 15.8902 21.6555 15.9756 21.238C16.4054 19.1348 17.2437 17.1449 18.4667 15.3676C18.7119 15.011 18.6678 14.5191 18.3617 14.2133L17.4604 13.3071C16.2753 12.1221 16.0694 10.3228 17.0108 9.38113C17.0148 9.37688 17.0188 9.37138 17.0229 9.36725C17.5146 8.88438 18.1291 8.78163 18.5596 8.78163C19.4032 8.78163 20.2687 9.163 20.9341 9.8285L21.9091 10.8031C22.2076 11.1015 22.6734 11.1516 23.0284 10.9235C24.7997 9.78538 26.7221 9.01838 28.7847 8.64413C29.2114 8.56663 29.4998 8.19488 29.4998 7.76125V6.26225C29.4998 4.58575 30.6686 3.16938 32.0002 3.16938C33.3314 3.16938 34.4998 4.58575 34.4998 6.26225V7.88825C34.4998 8.30913 34.7707 8.6735 35.1817 8.76425C37.1718 9.20413 39.0252 10.01 40.7119 11.1595C41.0682 11.4023 41.5412 11.3574 41.8461 11.0528L43.0684 9.82825C43.7339 9.16275 44.5981 8.781 45.4412 8.781C45.8754 8.781 46.4959 8.88463 46.9897 9.37838C47.4299 9.81863 47.6381 10.4548 47.5758 11.1696C47.5088 11.9428 47.1404 12.7 46.5387 13.3018L45.2626 14.5781C44.9631 14.8776 44.9139 15.3456 45.1447 15.701C46.2393 17.3868 46.9974 19.2793 47.3983 21.238C47.4838 21.6555 47.8511 22 48.2772 22H50.1048C51.7812 22 53.1973 23.106 53.1973 24.4374C53.1973 25.769 51.7811 26.875 50.1048 26.875H48.2997C47.8711 26.875 47.5023 27.1524 47.4194 27.5729C47.0308 29.5438 46.2793 31.3928 45.1864 33.0939C44.9584 33.4489 45.0084 33.9085 45.3067 34.2068L46.5384 35.4359C47.7184 36.6156 47.9284 38.3999 47.0021 39.345C46.9976 39.3493 46.9932 39.3528 46.9888 39.3571C46.4951 39.8508 45.8737 39.9539 45.4394 39.9539C44.6899 39.9541 43.9233 39.6519 43.2951 39.1176C43.1983 38.9328 43.1019 38.7483 43.0063 38.5651C42.3949 37.3941 41.8174 36.288 41.2251 35.281L41.0818 35.0369C40.9137 34.7503 40.7484 34.4691 40.5829 34.1963C43.3224 31.8011 45.0568 28.2836 45.0568 24.3674C45.0568 17.1678 39.1996 11.3104 32.0001 11.3104C24.8001 11.3104 18.9427 17.1678 18.9427 24.3674C18.9427 28.3599 20.7453 31.9381 23.5781 34.335C23.5399 34.4004 23.5018 34.4661 23.4634 34.5321C23.3542 34.7201 23.2414 34.9143 23.1234 35.1139C22.5248 36.1269 21.9366 37.2506 21.3138 38.44C21.2823 38.5004 21.2504 38.5613 21.2186 38.6218L20.9341 38.9066ZM24.5489 32.8116C22.2129 30.7465 20.7372 27.7263 20.7372 24.3709C20.7372 18.1605 25.7897 13.1065 32.0002 13.1065C38.2102 13.1065 43.2626 18.158 43.2626 24.3684C43.2626 27.6703 41.8336 30.6501 39.5623 32.7119C38.7271 31.6844 37.7321 31.0001 36.2323 31.0001H27.8883C26.2929 31 25.3397 31.7413 24.5489 32.8116ZM51.9256 51.4924C51.8028 52.1088 51.2584 52.5561 50.6311 52.5561C50.5446 52.5561 50.4568 52.5476 50.3717 52.5306C49.6907 52.3944 48.3006 52.0258 46.6413 51.0883C44.3736 49.8065 42.4609 47.9503 40.9566 45.5714C40.4942 44.8396 40.0456 44.1053 39.6233 43.389C39.4177 43.0401 39.0038 42.8729 38.6136 42.9794C38.2231 43.0861 37.9526 43.4414 37.9532 43.8463L37.9673 52.6018C37.9679 53.0368 38.2807 53.4088 38.7093 53.484L46.8824 54.9203C48.8259 55.2619 50.9026 56.2416 50.9026 57.9045C50.9026 59.5028 49.1328 60.8751 47.0378 60.8751H17.2083C15.1133 60.8751 13.3433 59.5028 13.3433 57.9045C13.3433 55.8201 16.4221 55.099 17.3657 54.931L25.4351 53.4891C25.8634 53.413 26.1753 53.0375 26.1751 52.6024L26.1678 44.0569C26.1674 43.653 25.8973 43.2985 25.5078 43.1916C25.4289 43.17 25.3492 43.1593 25.2706 43.1593C24.9598 43.1593 24.6638 43.3211 24.4992 43.5983C24.1011 44.2686 23.6942 44.9324 23.2894 45.5713C21.7847 47.9509 19.8721 49.807 17.6046 51.0883C15.9452 52.0259 14.5553 52.3945 13.8758 52.5305C13.7897 52.5478 13.7019 52.5563 13.6153 52.5563C12.9877 52.5563 12.4431 52.1089 12.3203 51.4928C12.1782 50.7775 12.6441 50.0798 13.3596 49.9375C17.7837 49.0529 20.5037 43.8569 22.9037 39.2726C23.5154 38.1041 24.0932 37.0004 24.6683 36.027C24.7887 35.8235 24.9038 35.6724 25.0151 35.4806C26.1111 33.5938 26.6068 32.875 27.8882 32.875H36.2322C37.6168 32.875 38.2807 33.8551 39.5341 35.9918L39.6783 36.214C40.2477 37.1821 40.8151 38.2571 41.4157 39.4075C43.7787 43.9336 46.4572 49.0576 50.8871 49.9433C51.6018 50.0856 52.0677 50.7774 51.9256 51.4924ZM46.4582 53.0236L39.7606 51.8466L39.7527 47.0103C41.3677 49.4136 43.3858 51.3095 45.7584 52.6505C45.9888 52.7806 46.2223 52.9051 46.4582 53.0236ZM17.7926 53.0211C18.0266 52.9036 18.2587 52.7796 18.4874 52.6505C20.8028 51.342 22.7811 49.5048 24.3759 47.1826L24.3798 51.8488L17.7926 53.0211Z" fill="#D4A017"/>
</svg>
