<svg width="41" height="41" viewBox="0 0 41 41" fill="none" xmlns="http://www.w3.org/2000/svg">
<circle cx="20.5" cy="20.5" r="20.5" fill="#DDB345"/>
<path d="M21.7077 25.7115L16.1718 22.6923C15.6405 23.2198 14.9648 23.5781 14.2301 23.7221C13.4953 23.8662 12.7344 23.7895 12.0432 23.5017C11.352 23.2139 10.7614 22.7279 10.3461 22.1049C9.93066 21.482 9.70898 20.75 9.70898 20.0013C9.70898 19.2526 9.93066 18.5206 10.3461 17.8977C10.7614 17.2747 11.352 16.7887 12.0432 16.5009C12.7344 16.2131 13.4953 16.1364 14.2301 16.2805C14.9648 16.4245 15.6405 16.7828 16.1718 17.3103L21.7077 14.291C21.5178 13.4003 21.6549 12.4709 22.094 11.6729C22.533 10.8749 23.2446 10.2616 24.0987 9.94519C24.9528 9.62875 25.8922 9.6303 26.7452 9.94958C27.5982 10.2688 28.3078 10.8845 28.7442 11.6839C29.1805 12.4834 29.3146 13.4132 29.1218 14.3033C28.929 15.1935 28.4222 15.9845 27.6941 16.5317C26.966 17.0789 26.0653 17.3458 25.1566 17.2834C24.2479 17.2211 23.3921 16.8338 22.7455 16.1923L17.2097 19.2115C17.3204 19.7319 17.3204 20.2697 17.2097 20.79L22.7455 23.8103C23.3921 23.1688 24.2479 22.7815 25.1566 22.7192C26.0653 22.6568 26.966 22.9237 27.6941 23.4709C28.4222 24.0181 28.929 24.8091 29.1218 25.6992C29.3146 26.5894 29.1805 27.5192 28.7442 28.3187C28.3078 29.1181 27.5982 29.7338 26.7452 30.053C25.8922 30.3723 24.9528 30.3739 24.0987 30.0574C23.2446 29.741 22.533 29.1277 22.094 28.3297C21.6549 27.5317 21.5178 26.6023 21.7077 25.7115Z" fill="white"/>
</svg>
