<svg width="143" height="159" viewBox="0 0 143 159" fill="none" xmlns="http://www.w3.org/2000/svg">
<path d="M101.047 53.5019C102.007 53.149 104.092 51.7378 107.988 52.3058C119.126 53.9293 120.1 65.5718 114.345 71.1376C110.327 75.0226 102.971 71.6579 101.227 66.3439C99.4515 60.9307 104.64 56.6609 109.99 57.6196C115.174 58.5488 116.21 64.4582 112.815 67.6786C108.933 71.3613 102.459 67.358 104.684 63.4025C106.204 60.7008 110.479 60.5856 111.266 63.6499C111.643 65.1155 110.79 66.5778 109.042 66.7652C108.684 66.8035 108.025 66.5057 109.049 66.3141C112.288 65.7081 110.865 61.3717 107.79 61.843C103.199 62.5467 103.859 68.4674 109.083 68.6691C115.317 68.91 116.813 58.2165 108.808 57.9556C103.439 57.7807 99.4268 62.5214 102.283 67.5841C104.612 71.7133 110.514 74.0518 113.917 70.8981C117.554 67.5269 119.493 58.7492 113.174 54.7363C107.141 50.9052 100.185 52.4575 97.3372 58.1319C96.5857 59.6294 95.7736 65.2543 90.835 73.8027C90.8001 73.8631 90.7764 73.9298 90.7367 74.0171C90.8673 74.0056 94.1922 71.4013 94.4012 72.1257C94.5531 72.6519 91.483 72.8654 89.1348 76.5875C89.1196 76.6117 89.1301 76.6522 89.1274 76.7118C91.4841 75.796 93.0484 75.2855 97.2546 77.1962C99.5635 76.1697 104.159 78.5904 106.234 80.3819C106.788 80.8596 107.197 81.2268 106.469 81.6608C103.488 83.4364 100.305 82.0546 98.0662 79.6559C96.9757 78.4875 97.4609 77.8397 96.886 77.5415C92.3062 75.1659 88.4241 76.9692 87.9574 78.4005C88.3523 78.4342 89.8225 78.0981 91.4438 79.9867C91.7977 80.3991 93.2377 80.3087 94.1827 83.0511C94.7965 84.8322 95.0053 89.0888 94.0144 88.9463C91.5569 88.5929 89.1814 82.7986 91.3123 80.5505C91.0169 80.0457 90.2723 79.3657 89.4289 78.9945C86.9244 77.8924 88.3012 79.524 78.199 89.5673C80.356 90.4519 81.5664 91.8643 81.0593 94.6409C83.971 96.9144 82.8713 99.7083 81.499 100.488C81.4605 100.51 81.4319 100.549 81.3788 100.599C84.5447 102.282 83.9179 106.322 80.6548 106.994C80.6114 107.085 80.6748 107.119 80.7129 107.158C83.6702 110.174 80.4311 114.522 77.071 113.481C76.9713 113.45 76.8765 113.38 76.7361 113.425C77.4689 117.649 74.4926 119.345 71.7667 118.145C70.9308 117.777 70.7235 117.414 70.546 117.401C69.7592 119.814 68.8772 121.532 66.2102 121.873C64.3957 122.105 62.7193 120.924 62.6203 118.203C62.3251 118.069 61.3109 120.212 58.4596 120.253C54.1718 120.313 55.4934 116.024 55.4772 115.956C55.4041 115.884 55.3418 115.95 55.2844 115.98C52.0506 117.643 49.6933 115.896 50.4952 113.436C50.4045 113.351 50.3365 113.402 50.2723 113.424C45.9955 114.913 44.9467 109.844 47.6785 106.108C47.567 105.767 45.2431 106.881 38.9144 107.304C38.55 107.328 38.5819 107.335 38.4942 107.37C38.4864 107.634 39.8485 114.168 34.1288 119.662C31.207 122.468 30.0747 129.501 34.8916 133.06C39.3226 136.334 44.7342 132.314 44.9849 126.946C45.2725 120.789 37.0525 119.806 34.9801 124.583C33.965 126.924 34.9045 129.28 36.4187 130.145C38.3011 131.221 40.7011 129.918 41.14 127.903C41.5082 126.213 40.1696 124.931 38.3948 125.745C35.276 127.174 39.3414 123.582 41.1338 125.782C43.2989 128.438 38.7433 133.124 35.4413 129.998C31.7537 126.506 35.9249 119.107 42.106 121.532C47.4474 123.628 45.8345 131.752 40.9662 134.088C35.1802 136.864 28.6955 129.609 32.0528 122.123C32.3285 121.508 32.276 121.687 32.2958 121.495C31.8859 121.738 29.5129 124.124 28.1833 126.294C25.7064 130.336 26.3117 132.834 26.3259 134.133C26.3364 135.106 25.2344 133.753 24.6757 132.85C20.4559 126.028 24.0163 120.237 24.0229 119.915C23.8172 119.831 23.3188 120.721 20.1715 122.426C18.677 123.236 17.7112 123.721 16.2785 124.681C13.4784 126.555 13.6795 128.433 13.5057 128.783C12.9688 129.865 11.5526 125.693 11.8509 122.243C12.5463 114.198 19.1785 111.279 19.4449 110.942L19.466 110.933L19.4487 110.951C19.2176 110.859 15.5827 111.595 12.5235 114.207C7.53789 118.465 7.47888 121.905 7.44623 121.995C6.77513 123.859 3.67514 112.629 9.78092 106.123C15.862 99.6441 23.7681 106.048 25.8777 106.465C25.7944 104.944 26.6989 104.499 28.0783 103.854C28.1233 103.663 25.7771 102.551 27.2052 100.408C28.1266 99.0253 30.0292 98.7748 30.1969 98.6078C28.1643 97.2873 27.9107 95.7136 28.7732 94.3093C30.4551 91.5708 33.9062 92.3175 34.0244 92.2474C34.0521 92.1452 33.9598 92.1002 33.9074 92.0407C30.937 88.6624 35.2807 83.9955 40.4894 87.5817C40.7732 87.482 40.4164 86.803 41.4062 85.4591C42.8917 83.4421 45.8429 83.1444 47.7867 86.4791C47.7912 86.4869 47.8068 86.4883 47.8402 86.5025C50.6047 82.7689 55.2047 84.9017 54.9308 88.6956C55.0387 88.771 55.0743 88.6908 55.3992 88.5175C56.9554 87.6876 58.7477 88.515 59.6774 89.9229C60.505 91.1763 60.1185 92.1106 59.7708 93.0629C60.013 93.1179 60.6238 92.8231 61.6947 93.3652C63.254 94.1545 64.1537 95.8783 63.338 97.9155C64.1619 98.4497 63.8777 98.1803 64.422 98.9509C64.5427 98.9389 65.7045 98.2825 65.8599 98.1158C63.8524 96.8822 64.9048 95.5839 65.5384 94.2384C65.4135 94.1625 65.3048 94.2102 65.1997 94.2112C63.0833 94.2313 61.9608 91.8802 63.8054 89.4238C64.0984 89.0334 64.1225 89.0811 64.3294 88.7274C61.0427 88.8177 60.0975 86.4881 61.0277 84.2299C61.917 82.0707 63.7226 81.5243 63.882 81.2929C58.9775 79.6903 60.4544 73.8984 66.5587 73.8031C66.637 73.5938 65.9446 72.8197 66.114 71.2314C66.3703 68.8292 68.6684 67.1815 71.9235 68.7685C72.095 68.6844 71.8797 68.5482 72.0051 67.6535C72.3293 65.3398 75.0949 64.0616 77.2276 64.8032C78.3829 65.205 78.6648 65.9904 79.1038 66.58C79.5524 65.9142 79.7382 65.075 81.1392 64.7026C82.7448 64.2758 84.7187 64.8629 85.2978 66.5688C85.3704 66.7827 85.3843 66.9167 85.5232 67.4093C85.7536 67.3138 86.3304 66.4542 87.943 66.5308C90.795 66.6664 91.1443 69.2947 91.2396 69.3937C92.0584 69.3332 91.7276 69.3103 92.499 69.4899C92.8283 68.4796 92.4249 66.495 91.9345 65.5328C90.2509 65.7039 88.913 65.0338 88.3269 62.4669C88.0475 61.2435 87.726 56.3047 88.8927 56.7685C90.0366 57.2232 94.2434 60.5531 92.9491 64.6509C92.8455 64.9791 92.7288 65.3023 92.3838 65.4683C92.8235 66.8415 92.8465 66.8317 93.0194 68.3654C93.2957 68.4124 94.0684 66.0058 94.0176 63.8422C93.9161 59.5283 92.0244 52.2939 90.8122 50.1217C79.015 28.9831 58.9658 42.2745 68.041 54.0932C72.2101 59.5227 80.6034 57.0338 81.65 51.2779C82.2007 48.2491 80.5773 45.3468 78.0126 43.9324C72.4529 40.8663 66.1854 47.3495 71.631 52.252C73.4524 53.8918 76.0206 53.27 76.9983 51.4469C78.9306 47.8436 73.5559 45.8504 73.5329 48.5372C73.5282 49.0896 73.6538 49.348 73.9259 50.3547C73.9921 50.5994 73.8254 50.6538 73.7019 50.4616C72.2342 48.1779 73.4921 46.5447 75.3235 46.8779C77.6121 47.2943 78.65 50.1258 77.1521 52.0799C72.5753 58.0503 64.7354 46.7403 72.209 43.3485C79.0763 40.2317 85.7163 49.1855 80.1591 55.0574C74.6066 60.9246 64.7301 56.1603 65.3547 46.905C65.84 39.7166 78.9719 31.7607 90.0211 48.0457C90.1936 47.9462 88.5808 44.5494 85.6972 40.8576C79.2259 32.572 75.0155 29.9936 75.1027 23.3641C75.1691 18.3212 78.7729 16.1221 82.4944 16.3994C85.0921 16.5929 86.0245 18.4138 88.312 20.2969C88.5242 20.1397 87.4898 17.5218 89.1489 15.8354C91.1694 13.7818 94.4549 16.8567 95.9749 19.4605C96.5842 20.5043 96.987 21.4488 97.3253 22.1325C97.4968 22.0947 97.339 22.0523 97.4349 20.3049C97.8892 12.026 105.127 11.2956 104.647 19.72C104.608 20.3969 104.55 20.7371 104.543 21.2862C104.655 21.2693 104.656 21.1846 104.683 21.1273C108.494 13.1247 113.585 17.1508 112.544 21.5484C112.089 23.4727 111.464 24.2939 111.522 24.5151C111.731 24.5333 112.368 24.0012 114.088 23.4698C120.708 21.425 124.414 26.9572 123.447 31.6145C121.486 41.0627 101.351 51.8148 101.05 53.5098L101.023 53.525L101.047 53.5019ZM70.0527 96.15C70.2905 96.1038 70.9638 95.8512 71.0056 95.4912C70.8368 95.4969 70.9678 95.4324 70.0335 96.1126L70 96.1726L70.0527 96.15ZM52.7127 97.784C52.7114 97.7484 52.7153 97.7588 52.6911 97.7493L52.7067 97.7871C52.792 98.6973 52.6573 98.5282 52.7324 98.7284L53.4732 98.7128C53.4199 98.5241 52.8659 97.8517 52.7127 97.784ZM12.4038 125.213L12.4083 125.197L12.4137 125.209C12.3533 125.723 12.931 127.763 13.1875 128.024C13.5558 126.895 13.5986 127.28 13.0436 126.25C12.4938 125.229 12.5087 125.226 12.4038 125.213ZM101.495 52.0936C101.636 52.1191 103.46 50.0591 103.84 48.7257C104.356 46.9198 102.83 46.06 101.248 47.1403C99.3736 48.4197 98.1325 51.1806 98.1857 52.9421C98.8874 51.7552 100.21 49.1607 101.696 48.9905C103.103 48.8291 101.931 51.1407 101.5 52.1035L101.47 52.1442L101.495 52.0936ZM92.0745 80.7737L92.0793 80.7591L92.0847 80.7696C92.2247 81.2026 92.6167 81.7137 92.3415 81.8617C92.0531 82.0169 91.9666 81.3931 91.5814 80.934C89.8959 82.4381 91.7611 88.1879 94.0528 88.4694C95.0578 84.4304 92.9181 80.7042 92.0745 80.7737ZM22.8815 118.616L22.8827 118.64L22.8987 118.632C22.8987 118.632 22.8815 118.616 22.8965 118.652C22.9777 115.297 21.3823 110.713 21.3711 110.649C20.7288 110.514 16.7406 113.026 16.5111 113.641C17.583 114.899 16.3845 113.817 20.6306 116.66C22.2852 117.768 22.6515 118.517 22.8815 118.616ZM6.79686 119.515L6.8176 119.572L6.78748 119.519C6.93629 119.297 6.83769 111.387 11.8091 107.579C16.7912 103.763 22.0394 105.505 22.618 105.463C13.3121 100.677 7.2391 106.629 6.54787 115.273C6.44589 116.55 6.54779 119.275 6.79686 119.515ZM88.5738 44.0342L88.5777 44.0559L88.5657 44.0381C88.5946 43.9288 88.6292 42.1207 89.7532 42.564C90.6645 42.9234 91.0784 44.1851 91.3059 44.1629C91.36 43.5186 91.2332 42.0186 91.9391 41.3543C93.2947 40.0785 94.1257 44.1488 94.2041 44.1596C94.2716 43.7551 94.4135 42.9475 94.4971 42.5459C94.9206 40.5122 95.9378 40.3456 96.348 41.3139C96.6504 42.0279 96.6752 42.3064 96.8934 43.247C96.9034 43.2905 96.906 43.3459 96.98 43.3303C97.2422 42.5258 97.3613 41.9642 97.7651 41.611C97.6589 39.4374 96.2199 33.674 95.4419 32.3075C86.5679 32.2176 83.9388 37.943 84.6942 38.8639C88.0276 42.9269 88.1121 43.6176 88.5738 44.0342ZM82.7174 33.9363C82.2693 33.8384 76.1552 26.9239 76.3637 19.8825C75.2739 21.709 75.1074 25.671 76.921 29.0892C78.1394 31.3856 82.3664 36.1661 82.7019 36.412C82.8357 36.2744 84.8626 29.3166 94.2527 29.6221C94.3272 28.3425 85.4167 14.7645 80.7582 16.9927C81.7677 17.1443 82.6553 17.3337 83.7593 18.0381C87.6042 20.4917 91.878 28.0575 91.4762 28.1927C91.0213 28.0634 87.8028 21.3057 83.8067 18.553C81.6108 17.0404 79.35 17.3316 79.1363 17.6094C79.695 17.7919 80.7315 17.7244 82.7649 19.6171C86.5461 23.1365 89.715 30.1177 88.5437 28.2757C86.7735 25.492 82.0136 17.1145 78.3054 18.0784C79.0408 19.1879 85.281 27.1501 83.9951 25.9206C82.5013 24.4924 78.3412 18.7435 78.0623 18.4544C77.6742 18.9974 78.6059 21.9951 78.854 22.6652C80.4193 26.8941 84.0931 30.7074 84.08 31.2329C83.7342 31.2278 80.2308 26.8652 78.854 23.6863C77.5774 20.7389 77.7234 19.2918 77.6424 18.3224C76.9921 18.7149 76.9112 19.0646 76.7957 19.7538C75.8038 25.6716 82.7596 33.3422 82.7174 33.9363ZM117.568 39.5417C117.721 39.5636 122.29 35.1896 123.024 31.3379C123.333 29.718 119.694 23.6912 114.822 23.8469C110.399 23.9882 103.639 32.3764 103.981 32.6855C111.299 28.4036 117.792 32.9847 117.568 39.5417ZM107.131 48.0963C107.382 48.1447 112.59 44.1497 112.645 44.1074C113.143 43.726 113.629 42.0569 113.763 41.4443C115.291 34.4497 103.45 30.7655 100.252 39.6518C99.7898 40.9372 98.5956 45.1552 98.8861 45.4097C99.311 44.8875 99.709 44.232 100.782 43.5982C101.149 43.3819 102.751 36.4655 103.105 36.7092C102.997 37.5853 101.438 42.5098 101.334 43.2407C101.399 43.2354 101.449 43.2428 101.49 43.2262C103.01 42.6047 103.43 43.0836 103.635 42.6851C103.77 42.4219 106.865 36.5605 107.153 36.4914C107.253 36.8764 103.87 42.7126 103.984 42.8976C105.029 43.1719 105.168 43.2276 106.063 43.8931C106.611 43.53 111.009 39.5816 111.536 39.3117C111.568 39.7425 106.4 44.1022 106.35 44.1461C107.121 45.4753 106.861 44.899 107.346 46.3568C107.621 46.1885 111.445 43.5521 111.87 43.3967C113.182 42.9169 107.381 46.7131 107.345 46.7618C107.298 47.5033 107.291 47.4748 107.131 48.0963ZM37.9859 107.443C37.7784 107.229 35.9751 107.458 35.6268 107.534C35.5227 107.771 35.3809 108.409 35.142 109.171C33.4092 114.697 28.297 117.555 26.102 124.128C24.7419 128.2 25.3963 132.292 25.7169 132.381C26.9088 120.254 39.8511 119.891 37.9859 107.443ZM7.7742 115.38C8.06072 115.052 9.94371 109.107 16.837 107.596C19.1936 107.079 20.0268 107.494 20.2911 107.071C20.3441 106.986 20.7718 106.782 21.0853 107.104C21.543 107.574 20.9346 108.615 20.0609 107.712C10.027 107.533 6.8251 117.798 7.45404 118.845C8.54921 115.485 10.517 112.779 14.0037 110.6C18.4034 107.85 22.3094 109.15 25.624 108.64C26.1864 108.554 25.8493 108.369 26.3324 108.241C26.872 108.098 27.1303 108.928 26.555 109.058C23.1791 109.821 18.4603 107.872 13.4045 111.49C10.3554 113.672 8.38733 116.443 7.54532 119.632C7.75735 119.391 7.99141 118.866 8.29672 118.385C15.2184 107.461 24.4022 111.347 31.0184 108.468C30.6104 108.3 29.4047 108.552 26.0406 107.047C16.7538 102.892 9.47541 107.289 7.7742 115.38ZM98.0386 24.2C99.1941 24.5863 99.3273 25.9855 99.6185 26.4494C99.8098 26.2209 99.8757 25.6647 100.385 25.0598C101.231 24.0552 102.742 24.053 102.916 26.2112C102.919 26.2551 102.898 26.3096 102.973 26.342C103.112 26.2257 105.436 18.4456 103.277 15.2117C101.459 12.4884 96.8946 15.2406 98.0386 24.2ZM107.662 27.4015C108.132 27.0383 108.934 26.1947 110.471 25.1963C110.774 24.9997 111.311 23.7682 111.408 23.5224C114.084 16.7246 108.036 13.5247 104.639 22.4181C103.934 24.2633 104.073 24.6467 103.696 25.7959C103.682 25.84 103.671 25.8919 103.752 25.9268C104.914 25.2296 105.633 25.5096 105.935 26.2286C106.208 26.8801 105.86 27.4414 105.953 27.6825C106.591 27.3507 107.096 26.9866 107.662 27.4015ZM96.2959 26.736C96.5207 24.4442 96.9899 24.6359 97.5427 24.1763C97.4795 23.3278 95.4748 18.149 92.4121 16.2165C90.305 14.887 88.9902 15.9403 88.6527 17.8618C88.094 21.0423 89.6273 21.229 92.8032 26.0072C92.8409 26.0639 92.8619 26.1466 92.9612 26.1423C93.6508 24.5846 94.7752 24.7146 95.5933 25.7506C95.8988 26.1375 95.9348 26.2849 96.2959 26.736ZM113.773 43.1623C114.385 42.8128 116.288 40.9559 116.786 40.4575C116.928 40.3158 116.969 40.1904 117.037 39.824C117.976 34.8146 112.299 29.3826 105.83 32.157C103.11 33.3233 103.086 33.8666 102.731 34.4894C101.626 36.4294 101.713 36.2501 101.725 36.4833C107.662 30.6416 115.393 35.902 114.228 41.4534C114.012 42.4824 113.719 42.9637 113.773 43.1623ZM54.8855 103.887C57.2758 114.527 72.8066 114.276 74.8186 103.425C75.5245 99.6181 73.9207 95.9351 72.0774 94.6275C71.869 94.7915 71.641 94.9042 71.4714 95.1054C78.4874 105.79 66.2339 115.871 57.9697 107.52C55.9411 105.47 55.7747 104.002 55.5357 103.644L54.8855 103.887ZM75.4886 91.2763C75.395 91.0381 71.5575 88.2971 71.5676 83.1093C71.5837 74.9335 81.2638 71.6679 87.5518 77.4568C87.6296 77.5284 87.6916 77.6295 87.8386 77.6328C88.0584 77.3486 88.488 76.855 88.3144 76.6559C86.7951 74.9138 84.9662 73.8027 82.7709 73.3081C72.6211 71.0208 65.9137 83.5431 73.6795 90.94C73.9621 91.2092 74.4699 91.5599 74.8922 91.7723C75.1185 91.644 75.3169 91.4722 75.4886 91.2763ZM56.8521 102.587C55.9091 90.991 39.5626 89.5771 36.7074 100.939C36.2538 102.744 36.2809 105.302 37.1066 106.916C37.4034 106.915 37.6806 106.942 37.9709 106.879C35.2542 94.5152 49.4084 89.7178 54.7314 99.7541C55.7644 101.702 55.7028 102.832 55.9165 102.968C56.2243 102.868 56.5317 102.758 56.8521 102.587ZM57.0366 103.062C57.0067 104.737 61.8604 109.856 66.9161 107.784C72.3839 105.543 71.5829 98.5489 69.4382 96.5389C69.1804 96.6347 68.8365 96.8545 68.5676 97.0952C70.329 100.956 68.0559 102.985 67.8656 103.386C68.2617 103.655 68.767 103.695 68.1971 104.267C65.1991 107.274 62.4397 105.681 62.1943 105.704C62.1902 106.059 62.5355 106.704 61.6369 106.489C59.4004 105.953 58.604 104.251 57.8005 102.75L57.0366 103.062ZM41.9734 101.927C42.5253 100.988 42.9489 100.148 44.3985 99.5241C45.6431 98.9882 47.0881 98.9019 47.6892 99.0284C48.1845 99.1326 47.8131 99.5445 47.7813 99.9206C51.6578 100.269 52.438 104.138 52.4912 104.16C52.9208 104.078 53.3699 103.917 53.5678 103.775C51.1527 92.6713 37.9465 95.9136 39.4198 106.278C39.444 106.448 39.482 106.612 39.5758 106.776C39.8865 106.779 40.1956 106.764 40.5241 106.675C40.0701 104.978 39.9411 102.621 41.2252 101.424C41.5568 101.115 41.7336 101.531 41.9734 101.927ZM76.7411 90.1858C76.9879 90.0266 77.1881 89.84 77.3765 89.6204C76.7807 88.8512 75.7896 88.3014 75.217 86.6581C74.9263 85.8239 74.9285 85.0165 75.0068 84.7528C75.1214 84.3666 75.4718 84.6326 75.8551 84.7578C75.9728 84.4838 75.0858 81.4711 78.7837 79.2554C79.4293 78.8685 79.3483 79.4945 79.5457 79.8669C81.2171 78.7402 84.1009 79.1055 85.5619 80.4972C85.595 80.5287 85.6404 80.5475 85.6763 80.5697C85.9441 80.3384 86.2321 79.9333 86.332 79.6522C85.7284 78.5574 82.0498 76.2059 78.4908 77.2302C72.2046 79.0391 72.7531 87.6736 76.7411 90.1858ZM54.4973 104.038C51.3889 104.951 46.9491 108.42 48.3053 111.364C49.0484 112.976 54.4294 109.108 56.1936 107.865C55.3832 106.788 54.713 105.393 54.4973 104.038ZM43.0623 106.361C43.1419 102.708 46.1916 101.729 48.4656 102.72C49.9961 103.387 50.2436 104.3 50.5482 104.754C51.0584 104.656 51.7228 104.445 51.9614 104.304C51.8911 102.882 50.6399 101.572 49.3643 100.847C47.565 99.8239 47.246 101.132 47.3271 99.4805C47.2474 99.4678 47.1888 99.4506 47.1302 99.45C43.2931 99.4128 42.4966 102.072 42.2524 102.389C41.8575 102.902 41.5652 101.968 41.3721 101.966C40.8007 102.399 40.1884 104.79 40.9093 106.632C41.263 106.65 42.6491 106.477 43.0623 106.361ZM75.4435 85.1318C75.1274 85.6919 76.0149 88.2148 77.7399 89.2787C77.9591 89.1527 79.142 88.0175 79.2732 87.8014C76.5521 83.4674 81.4254 80.5089 84.2988 82.1441C84.3378 82.1662 84.3899 82.1654 84.4268 82.1734C84.7454 81.8709 85.24 81.2312 85.3455 80.9881C85.2332 80.7057 84.4671 80.2261 83.9133 80.0231C80.4562 78.7558 79.6448 81.0093 79.1464 80.2212C79.076 80.1098 79.1256 80.1333 78.9007 79.7047C78.1632 80.2342 77.5367 80.6857 76.9092 81.6955C75.4034 84.1177 77.4023 85.7335 75.4435 85.1318ZM58.2233 102.608C58.673 104.656 61.4043 106.346 61.7356 105.973C61.5552 104.783 61.9332 105.109 62.9357 105.448C65.2789 106.241 67.8415 104.256 67.7734 103.93C66.7167 103.108 67.611 103.289 68.2179 102.11C68.9444 100.698 69.018 98.4238 68.1314 97.3749C67.7824 97.5299 66.9983 98.0288 66.8194 98.2081C67.4163 101.6 63.6864 105.18 60.1526 101.751C59.9415 101.783 58.3735 102.488 58.2233 102.608ZM64.9038 112.266C64.1945 116.175 63.5965 116.192 63.684 116.601C64.5578 120.688 67.7304 120.46 68.6186 117.999C69.3653 115.931 67.9399 111.983 67.8448 111.805C65.4348 112.36 65.5517 112.139 64.9038 112.266ZM71.3272 77.7631C64.5389 72.1867 60.1855 78.2052 65.6549 80.6247C66.1348 80.8369 66.1592 80.1991 70.1722 80.5198C70.7965 78.7798 70.4951 79.4987 71.3272 77.7631ZM42.1987 93.566C42.1553 93.3321 40.7376 89.7101 38.863 88.5157C36.8485 87.2321 33.8324 88.4542 35.8287 92.5903C36.1095 93.172 36.1925 92.4496 39.6878 95.17C40.7689 94.3606 40.7533 94.3425 42.1987 93.566ZM78.7264 72.7081C78.4699 70.6085 78.5531 69.5691 77.9938 67.8276C77.3454 65.8092 74.8364 65.6689 73.794 67.5715C73.5295 68.0544 72.943 69.6064 73.3041 70.0227C74.4072 71.2947 74.9382 72.7027 75.5644 73.7736C76.8931 73.1948 76.9125 73.1494 78.7264 72.7081ZM72.7785 108.702C73.4525 109.322 74.8116 110.35 75.8774 111.831C76.178 112.248 77.8708 112.053 78.3894 111.913C80.3831 111.374 81.6246 108.611 77.6034 107C76.4395 106.534 75.348 106.17 74.5851 105.906C73.5656 107.701 74.0365 106.972 72.7785 108.702ZM51.159 93.5845C52.0731 91.7964 53.3611 89.9833 53.424 88.4876C53.4938 86.8246 51.7618 85.6792 49.9939 86.5681C49.5235 86.8046 48.1682 87.7771 48.2069 88.2062C48.3567 89.8702 48.1703 91.0463 47.9421 92.664C49.8161 93.0379 49.7924 93.0581 51.159 93.5845ZM69.1522 111.325C69.1605 111.352 70.651 115.604 70.6887 115.64C74.534 119.343 77.9101 114.026 71.8554 109.593C70.7033 110.472 70.7307 110.486 69.1522 111.325ZM46.6713 92.5748C48.1036 84.8384 42.2566 83.7719 41.7954 88.8576C41.7901 88.9169 43.4705 92.9994 43.5087 93.0702C45.765 92.5121 46.2596 92.6728 46.6713 92.5748ZM74.4625 74.4365C71.7978 67.654 65.7292 69.2756 68.2859 74.0399C68.352 74.1632 72.0302 76.5712 72.1273 76.6226C73.3172 75.3119 73.3222 75.3436 74.4625 74.4365ZM60.4176 111.327C60.3548 111.367 60.3386 111.364 60.2694 111.459C58.7094 113.603 57.1443 114.637 56.9924 114.834C56.5852 115.363 56.5748 118.107 58.1667 118.421C60.7895 118.937 61.8554 115.905 62.9099 113.299C63.0356 112.989 63.2432 112.481 63.2937 112.15C60.5184 111.554 61.0765 111.463 60.4176 111.327ZM38.5506 96.3255C38.4438 96.1905 34.5929 93.9471 32.6757 93.9212C30.9542 93.8979 28.7225 95.734 31.7872 98.3614C31.9152 98.4711 31.9876 98.4483 32.3485 98.4406C35.217 98.3806 36.4076 98.804 36.9416 98.8352C37.371 97.9325 37.8977 97.1022 38.5506 96.3255ZM69.8868 82.1009C69.2492 82.072 65.1314 82.4356 63.5916 83.5382C62.2349 84.5097 61.5917 87.1668 65.3514 87.6132C65.6669 87.6506 65.723 87.5658 65.9434 87.407C68.2613 85.7367 69.4323 85.4094 69.985 85.1065C69.8028 83.4129 69.8315 83.3886 69.8868 82.1009ZM83.3646 72.9187C85.8699 67.0375 82.7602 64.67 80.2881 67.2323C79.2504 68.3079 79.5873 67.6197 80.0171 72.3309C80.0244 72.4104 80.0526 72.4882 80.0706 72.5643C80.1436 72.5709 80.1921 72.5802 80.2403 72.579C81.9452 72.537 82.8206 72.866 83.3646 72.9187ZM54.8535 96.3983C59.5301 93.5121 59.1357 90.4318 57.0659 89.9292C56.0899 89.6922 55.3455 90.0439 54.6979 90.194C54.4744 90.2458 52.4178 94.0494 52.3433 94.2206C53.8689 95.3349 53.852 95.3683 54.8535 96.3983ZM75.0609 104.637C75.1143 104.659 79.0634 106.137 79.1182 106.155C79.5358 106.292 82.7835 104.791 81.5149 102.658C80.5058 100.962 77.0866 101.031 75.5126 101.34C75.3396 103.434 75.4556 102.574 75.0609 104.637ZM95.8166 31.9072C98.9242 30.1444 101.355 30.5437 103.629 32.1861C103.84 31.9624 105.26 30.104 105.404 29.8147C103.148 27.1331 96.1515 27.7407 94.8185 29.6231L95.8166 31.9072ZM36.0051 104.218C35.9327 104.221 31.6225 104.788 29.7636 105.229C27.0518 105.873 27.6712 107.26 28.144 107.425C29.6493 107.951 31.4251 108.328 32.8968 107.773C35.0501 106.96 36.1252 107.055 36.6422 106.909C36.1728 105.251 36.3381 105.952 36.0051 104.218ZM92.2415 65.0912C92.8869 64.3915 93.1884 62.1891 91.8896 60.1798C91.1207 58.9906 89.0358 56.9935 88.6924 57.2462C88.0037 60.7993 88.853 66.1132 91.7895 65.1522C91.3804 64.2141 91.0885 63.8725 91.2469 63.7054C91.4826 63.4563 91.9246 64.5447 92.2415 65.0912ZM75.3977 100.246C76.4771 100.249 77.4465 99.9259 79.8132 100.234C80.2298 100.289 82.2809 97.8381 80.875 96.4226C79.3442 94.8814 74.7624 97.376 74.6631 97.4495C75.0269 98.3475 75.2722 99.2635 75.3977 100.246ZM86.9475 74.7065C87.3806 74.2561 89.7872 71.2027 89.7144 69.7954C89.57 67.0051 85.5534 68.3546 85.4804 69.087C85.3202 70.695 84.4257 73.2812 84.424 73.3021C85.3165 73.6661 86.1468 74.123 86.9475 74.7065ZM56.8358 99.8929C66.9925 97.128 59.7308 93.3338 58.7512 94.4745C57.5031 95.9276 56.1895 96.6783 55.5156 97.2709C56.6974 99.2672 56.6563 99.5696 56.8358 99.8929ZM106.405 81.1687C105.892 79.8805 99.9502 76.7286 97.6728 77.4149C98.2478 77.8352 98.7537 78.035 98.9592 78.2444C99.1235 78.412 98.8562 78.6409 98.4528 78.4312C98.0243 78.2085 98.1693 78.222 97.7185 78.0747C98.1663 80.5872 103.441 83.5125 106.405 81.1687ZM74.533 92.085C74.1599 91.6907 73.5468 91.4472 72.4328 90.2017C72.3856 90.1489 72.3452 90.0819 72.2382 90.0901C72.0218 90.2607 69.1355 92.9603 68.8524 93.2354C67.8721 94.188 65.994 96.0104 66.9882 96.9301C67.3001 97.2185 67.3922 97.2295 67.7496 97.0027C70.6498 95.1631 73.5461 92.9651 74.533 92.085ZM17.248 115.082C18.6382 121.014 18.631 122.449 18.8418 122.574C19.8009 122.22 22.5391 120.529 23.0627 119.964C23.0193 118.45 17.7214 115.211 17.248 115.082ZM58.9679 110.55C58.6801 110.263 58.4555 110.262 56.9896 108.864C52.1607 112.722 57.085 108.99 52.0632 112.594C52.0892 112.837 52.105 113.068 52.1412 113.295C52.4022 114.933 54.0708 115.151 55.3945 114.142C56.8537 113.031 57.4126 112.333 58.9679 110.55ZM70.4051 86.7131C70.2423 86.7372 66.5095 88.4514 65.4193 89.8924C64.6254 90.9419 64.7089 92.3353 66.7171 92.8745C68.1959 91.4507 69.7749 90.1545 71.5116 89.0387C71.3914 88.7082 71.1661 88.5745 70.4051 86.7131ZM29.8133 103.388C31.8532 103.04 33.8994 102.884 35.9641 102.934C36.1492 101.317 36.0483 101.981 36.3491 100.382C35.1246 100.092 31.2968 99.5821 29.9271 100.437C29.1436 100.925 28.836 101.83 29.3379 102.685C29.4792 102.926 29.6506 103.149 29.8133 103.388ZM96.8279 34.7333C99.4033 33.9998 100.25 34.3636 101.824 35.1059C101.966 34.929 103.195 32.9384 103.352 32.5943C101.269 30.435 96.6465 31.2375 95.994 32.2858C95.9896 32.4523 96.7415 34.5909 96.8279 34.7333ZM72.5729 94.28C73.9389 95.7606 73.3974 95.2996 73.9133 95.9174C77.8436 94.5393 74.233 95.4172 79.3687 94.3306C79.8814 92.4758 77.3784 90.1827 76.7202 90.8822C76.228 91.4054 72.7401 94.1344 72.5729 94.28ZM92.7691 53.988C93.6941 52.5927 95.7781 52.5112 97.2829 54.9874C97.4501 54.8814 97.8919 51.8301 97.7455 51.5061C96.743 49.2865 93.1365 48.5655 92.1533 51.7012C92.0454 52.0454 92.6397 53.6857 92.7691 53.988ZM16.1865 113.974C15.0525 114.937 13.4912 117.443 13.1964 118.621C13.3913 118.822 13.6438 118.944 13.8901 119.076C18.3115 121.445 17.8959 121.862 18.1524 121.705C18.0278 120.762 17.1243 115.347 16.1865 113.974ZM23.5084 119.551C24.0031 119.621 26.7722 116.242 27.0737 115.645C25.3476 113.567 22.3634 111.93 22.3063 111.915C22.4073 112.57 22.6706 113.152 23.087 116.335C23.2879 117.87 23.3999 118.884 23.5084 119.551ZM51.2734 105.153L51.2363 105.09C48.7105 105.721 48.611 105.753 48.2835 106.125C45.5202 109.26 45.9132 115.686 51.8263 112.181C53.5271 111.172 55.5489 109.625 56.6588 108.55C56.6269 108.396 56.5443 108.312 56.4253 108.235C53.403 110.08 48.9553 113.887 47.8521 111.423C46.6691 108.782 49.0592 107.017 51.2734 105.153ZM71.7973 77.0285C71.726 76.8871 68.7736 74.764 67.413 74.4326C62.6933 73.2829 59.7631 77.9318 62.4016 80.1433C63.0995 80.7282 64.6781 81.2339 65.0721 80.835C64.9614 80.7256 62.6799 79.6669 62.7541 77.6558C62.8367 75.4206 65.5615 73.9456 69.3526 76.0848C70.5241 76.7459 71.4263 77.3225 71.5885 77.3476C71.6898 77.2601 71.7755 77.1654 71.7973 77.0285ZM63.3338 117.09C62.4138 118.126 63.3264 121.903 66.2483 121.425C69.3724 120.915 71.5025 117.714 68.7067 111.524C68.5545 111.544 68.4295 111.577 68.3122 111.679C68.4066 112.093 68.8585 113.527 69.12 114.64C69.9874 118.333 68.0586 120.545 65.9672 120.176C63.956 119.822 63.4357 117.314 63.3338 117.09ZM35.2925 92.5344C35.2736 92.3136 34.4853 91.3027 34.7264 89.7452C34.9932 88.022 36.6937 87.1268 38.4506 87.7952C40.8097 88.6925 41.7319 91.713 42.6398 93.3747C42.7804 93.328 42.9262 93.3195 43.0241 93.1838C41.9669 90.0392 41.2219 88.6356 39.82 87.6852C36.4598 85.4068 32.9555 87.4739 33.4238 90.1604C33.6223 91.2988 34.7301 92.6189 35.2925 92.5344ZM28.079 119.115C27.2471 118.088 25.4148 118.507 25.124 118.823C24.4464 119.559 23.0143 123.432 23.3192 123.668C24.6753 123 24.8341 123.193 25.7976 123.577C26.5378 122.009 25.6145 123.476 28.079 119.115ZM31.7156 114.321C32.191 113.833 34.565 110.586 34.0676 110.119C32.9914 109.111 30.9595 109.616 30.7296 110.087C29.2424 113.135 29.2875 112.859 29.2637 113.148C30.7723 113.039 31.47 114.051 31.7156 114.321ZM28.3546 118.663C28.3695 118.656 31.3421 114.826 31.3868 114.725C31.0216 113.678 29.1506 113.241 28.9221 113.633C26.7359 117.38 25.8273 117.824 25.8729 118.074C27.259 117.97 27.4939 118.081 28.3546 118.663ZM56.4136 115.342C55.8212 115.511 54.9432 118.33 56.8042 119.413C60.6443 121.648 64.6187 115.464 64.378 112.249C64.18 112.212 64.0024 112.186 63.8081 112.225C63.2633 113.39 62.7365 115.502 61.5468 117.244C59.7705 119.845 56.0975 119.761 56.4136 115.342ZM65.0701 87.9943C64.7584 87.8859 63.9062 87.9091 62.9465 87.2027C61.4922 86.1323 62.0189 83.9227 63.5889 82.9774C65.3643 81.9085 68.5509 81.8304 69.9392 81.5897C70.0081 81.394 70.0818 81.217 70.0172 81.0076C66.6256 79.8582 60.6272 82.3424 61.1652 86.2332C61.53 88.8706 65.0377 88.4127 65.0701 87.9943ZM39.31 95.5234C38.3586 94.3663 35.5571 92.7754 33.2054 92.6529C30.1238 92.4924 27.4605 95.2364 29.4289 97.4747C29.7946 97.8905 30.7563 98.5915 31.2494 98.4422C27.8495 94.9619 31.1166 91.9661 36.1167 94.4903C37.38 95.128 38.2778 95.6365 38.8802 95.9204C39.0283 95.8197 38.9103 95.9332 39.31 95.5234ZM96.4591 59.0188C96.5558 58.7626 97.2374 56.1392 97.1063 55.7541C96.3585 53.5581 94.1712 53.0858 93.5106 53.7241C92.7432 54.4656 92.9683 54.7859 93.6481 57.6378C93.6643 57.7056 93.6909 57.7711 93.7389 57.9178C94.2692 55.6483 95.7609 56.4912 96.1395 57.9017C96.4025 58.8817 96.3184 58.9633 96.4591 59.0188ZM18.3909 122.827C17.9982 121.85 14.0291 119.457 13.6978 119.545C13.7618 119.865 15.0185 124.646 15.1614 124.94C17.8109 122.99 17.12 123.668 18.3909 122.827ZM26.0534 110.173C25.9435 110.181 22.0217 110.55 21.8098 110.598C22.0675 111.16 21.899 111.073 23.8147 112.312C26.8571 114.279 26.6858 114.662 26.8661 114.534C26.9278 114.252 26.6076 111.821 26.0534 110.173ZM66.4502 93.1221C64.169 92.6635 63.3869 90.2605 66.8749 88.0609C68.459 87.0619 69.7829 86.5296 70.2635 86.2707C70.2093 86.0382 70.1825 85.8223 70.0742 85.6251C69.7198 85.6092 66.5224 87.1976 64.6426 89.1349C61.2266 92.6558 65.2838 95.1342 66.4502 93.1221ZM59.3482 110.765C59.0024 111.092 56.7777 114.172 54.8386 114.986C53.3991 115.589 52.0939 114.916 51.8054 113.661C51.6445 112.961 51.8682 112.907 51.6986 112.787C50.0589 113.49 50.4683 116.453 53.2313 116.166C55.8713 115.891 59.4296 112.084 59.9319 111.099C59.7462 110.95 59.5526 110.857 59.3482 110.765ZM25.6359 124.091C25.0463 123.432 24.086 123.61 23.3662 124.123C22.6566 124.628 23.257 128.363 23.567 129.186C24.3227 128.8 23.9942 128.915 24.8271 128.75C24.9634 127.916 24.7224 127.639 25.6359 124.091ZM36.7128 99.3105C35.7206 98.89 31.1369 98.5673 29.0428 99.5187C25.7545 101.013 27.6277 104.056 29.3075 103.507C29.3642 103.489 29.4285 103.479 29.4274 103.397C27.8443 101.852 28.5605 99.4218 32.4809 99.5019C33.8443 99.5298 35.2014 99.7507 36.4749 99.9555C36.6023 99.7591 36.6581 99.5518 36.7128 99.3105ZM70.6479 116.157C70.6056 116.318 70.5242 116.744 70.6824 116.926C71.046 117.343 71.791 117.823 72.6777 118.007C75.7626 118.649 77.3671 115.442 75.9368 112.801C75.0973 111.251 72.6148 109.084 72.4646 109.035C72.3594 109.081 72.2783 109.145 72.248 109.289C73.8027 110.812 75.7439 112.463 75.6771 114.626C75.6104 116.785 73.4395 118.501 70.9102 116.334C70.8306 116.266 70.7662 116.171 70.6479 116.157ZM96.2924 47.732C96.7327 45.4253 96.6951 44.0826 96.2027 42.2462C95.1356 38.2664 94.0781 46.995 94.6544 47.2973C95.5353 46.3787 95.851 46.7537 96.2924 47.732ZM75.1761 73.9606C74.3337 72.4002 73.285 70.2102 71.7825 69.247C69.902 68.0416 67.3614 68.3642 66.6511 70.7051C66.3011 71.8588 66.589 74.2382 67.8363 73.9935C65.7106 69.539 70.0234 68.0641 72.6925 70.8505C73.5255 71.7202 73.8967 72.4648 74.8504 74.1292C74.9956 74.1405 75.0791 74.0761 75.1761 73.9606ZM47.5123 92.6216C47.8554 89.7693 48.3285 86.5996 45.9442 84.9806C42.8959 82.9106 39.8327 87.1747 41.3897 88.4677C41.5197 88.3787 41.5129 87.9727 41.6562 87.4408C42.3969 84.6931 45.3526 84.7664 46.5832 86.7856C47.9567 89.0394 46.9963 92.0865 47.2159 92.6179L47.5123 92.6216ZM94.099 47.3864C94.1429 43.9131 92.275 39.295 91.7964 42.7351C91.4903 44.9348 92.4734 47.7791 92.5708 47.7722C92.947 46.6184 93.3939 46.6685 94.099 47.3864ZM72.8202 69.4271C73.7564 64.6933 77.1638 65.2225 78.2009 67.1604C79.0994 68.8393 79.0214 72.1059 79.1216 72.6344C79.2865 72.6589 79.4271 72.6497 79.5731 72.571C79.5624 72.2445 79.3135 68.5298 78.7714 67.0832C77.4585 63.5796 72.6758 64.9546 72.3518 67.9232C72.2909 68.4815 72.3042 69.2042 72.8202 69.4271ZM74.7709 105.531C75.4681 105.814 79.1045 106.627 80.2324 108.204C81.461 109.921 80.3045 112.866 76.5146 112.42C76.4498 112.412 76.3816 112.434 76.3116 112.443C76.3664 112.756 76.5746 112.897 76.8198 112.997C80.3243 114.432 83.3641 109.414 79.8887 107.12C78.678 106.321 75.3323 105.212 74.9315 105.114C74.7797 105.305 74.7814 105.306 74.7709 105.531ZM48.1509 87.5406C51.4896 84.1552 54.1681 86.4943 53.8676 88.791C53.6097 90.7617 51.619 93.3872 51.5347 93.7808C51.6665 93.8286 51.7633 93.9466 51.9373 93.9485C53.5416 91.3369 55.6702 87.9883 53.7129 86.1C50.8692 83.3566 47.4218 86.2785 48.1509 87.5406ZM92.0317 48.1418C92.0989 48.0119 91.4913 44.7537 90.032 43.2281C88.935 42.0814 88.6056 44.1903 89.3088 45.4148C90.368 47.2593 90.7165 48.5081 91.0001 48.8117C91.2533 48.2245 91.3215 48.0171 92.0317 48.1418ZM71.7601 89.428C71.0841 89.74 68.0401 92.0395 66.5223 93.7661C64.07 96.5559 65.3772 98.1129 66.7761 97.3417C66.7668 97.2781 66.7946 97.3005 66.6463 97.1525C64.9226 95.4335 69.547 91.9955 72.0036 89.7207C71.9422 89.6035 71.9008 89.4901 71.7601 89.428ZM35.9677 103.394C34.5939 103.261 29.9683 103.525 27.8495 104.439C25.7222 105.357 25.886 106.796 27.3439 107.105C27.359 107.076 27.3703 107.065 27.3693 107.055C27.0967 104.07 32.5524 104.602 35.9966 103.759L35.9677 103.394ZM87.8539 75.4647C88.1014 75.2376 90.8311 71.8234 90.739 69.6103C90.5769 65.7112 84.7273 66.9385 85.6256 68.3316C88.805 66.7267 90.5558 68.4548 90.1269 70.4482C89.7162 72.3573 87.3313 74.5833 87.3835 75.0497L87.8539 75.4647ZM74.4635 96.9808C76.6428 96.1403 77.9773 95.4829 79.1746 95.3917C81.4777 95.2162 82.9738 97.6249 80.6722 100.09C80.6097 100.157 80.5204 100.212 80.5285 100.346C82.3175 100.93 83.7449 96.1236 80.6525 95.043C78.7069 94.363 74.8975 95.9075 74.1432 96.36L74.4635 96.9808ZM59.2713 93.8796C61.006 94.1238 62.6385 94.7124 62.6088 96.4631C62.5654 99.0179 58.9265 99.5144 56.9684 100.362C57.0197 100.603 57.0371 100.832 57.1701 101.034C68.6675 97.7918 60.5139 91.4431 59.2713 93.8796ZM12.2868 124.062C14.634 124.575 14.095 124.694 14.6188 124.756C14.6047 124.69 13.351 119.556 13.0221 119.134C12.5138 120.101 12.1248 122.664 12.2868 124.062ZM96.4273 28.2177C96.2373 27.5379 95.458 26.0108 94.7605 25.545C94.0925 25.0991 93.3206 25.7232 93.3831 26.5233C93.4292 27.1125 94.4639 28.9897 94.6748 29.2566C95.2076 28.8093 95.7944 28.4906 96.4273 28.2177ZM29.3588 109.474C29.3111 114.331 28.7143 111.222 26.7645 110.72C26.5976 110.934 27.0605 111.372 27.3451 114.688C27.3779 115.07 27.3665 114.968 27.4539 115.11C28.6627 113.454 30.6948 109.256 30.7186 109.107C30.4402 109.134 29.6281 109.354 29.3588 109.474ZM79.4491 67.5991C79.5751 67.5781 79.6061 67.4764 79.6593 67.3994C81.6731 64.4907 84.7559 65.752 84.7809 68.858C84.7977 70.9336 83.6032 73.0318 83.862 73.077C84.1127 73.1208 85.6589 68.709 84.8118 66.5741C84.2845 65.2452 82.608 64.7379 81.203 65.1207C79.7351 65.5204 79.1394 67.0927 79.4491 67.5991ZM54.6471 89.8029C54.7538 89.8288 58.0831 88.3874 58.9026 91.1209C59.5691 93.3441 57.2394 95.2169 55.3667 96.5518C53.3496 97.9897 61.5186 93.5635 59.3076 90.1731C57.6005 87.5554 54.6812 88.837 54.6471 89.8029ZM79.6748 106.398C80.1796 106.936 81.8294 106.59 82.5473 105.338C83.2629 104.089 83.2209 102.194 81.7938 101.344C79.2552 99.8315 71.7701 101.093 77.6784 100.757C82.2141 100.499 84.291 104.523 79.6748 106.398ZM96.9401 28.0195C98.5998 27.5794 99.2032 27.5836 99.328 27.5344C99.3401 27.182 98.8795 25.3099 98.256 24.812C96.8117 23.6585 96.5233 27.4257 96.9401 28.0195ZM102.375 27.7143C102.413 27.2154 102.512 26.1129 102.379 25.5906C102.155 24.709 101.291 24.6609 100.744 25.3398C100.152 26.0745 99.8818 27.2328 99.9346 27.4732C99.9806 27.5091 102.333 27.7177 102.375 27.7143ZM102.904 27.8569C102.931 27.8737 104.8 28.6834 104.866 28.6958C106.992 25.21 103.768 25.2042 102.904 27.8569ZM77.3204 90.4031C79.3403 91.1749 79.7899 92.398 79.9162 94.3588C80.1852 94.4296 79.9775 94.398 80.6571 94.483C81.3764 92.5807 79.5148 89.9489 77.6892 90.032C77.5615 90.1332 77.4336 90.224 77.3204 90.4031ZM57.3499 102.356C57.9785 102.247 62.4916 100.128 62.9776 99.7155C62.9063 99.3871 62.6662 99.2242 62.3707 99.0984C59.8849 100.81 58.3883 101.006 57.241 101.528C57.2496 101.817 57.2798 102.089 57.3499 102.356ZM104.254 47.1518C106.339 44.4239 105.31 43.1497 103.983 44.5074C103.593 44.906 103.095 45.654 103.001 46.2037C103.698 46.5511 103.611 46.4015 104.254 47.1518ZM98.039 47.7793C98.1965 47.5704 97.99 42.3683 97.7684 42.2818C97.2778 43.6183 97.1589 43.964 96.9344 47.4806C97.5442 47.3828 97.5442 47.3828 98.039 47.7793ZM102.497 46.1693C102.718 44.9071 102.526 43.2032 101.678 43.8396C100.891 44.4299 100.582 46.8306 100.799 46.8882C101.822 46.2954 101.522 46.4356 102.497 46.1693ZM31.1919 109.324C33.3694 108.869 33.3951 109.206 34.4342 109.784C34.6686 109.356 35.0969 107.989 35.1037 107.643C34.561 107.676 31.184 108.581 31.1919 109.324ZM98.5439 49.6284L98.6064 49.6373C100.192 47.0091 100.658 47.6771 100.058 45.9637C99.5042 44.3849 98.3322 47.3481 98.5439 49.6284ZM88.7043 76.3302C89.0601 75.8252 91.9128 71.2619 91.7543 70.9591C91.544 70.8374 91.3215 70.8388 91.0663 70.9171C90.1701 73.5056 89.5859 73.7063 88.2309 75.7995C88.3551 76.0007 88.5045 76.1534 88.7043 76.3302ZM87.1275 32.0186C86.8475 32.3152 86.6148 34.2357 86.7319 34.3676C86.9887 34.2709 87.2057 33.9598 88.9799 32.9632C87.5661 32.136 87.5006 32.0645 87.1275 32.0186ZM25.5355 133.249C25.0331 131.658 24.9781 131.768 24.841 129.422C24.8143 128.966 24.0046 129.293 23.7042 129.637C23.8915 130.584 24.9413 132.67 25.5355 133.249ZM89.9976 30.5236C89.4865 30.5663 87.89 31.2242 87.4796 31.5667C87.5299 31.6154 88.9798 32.4649 89.1643 32.4936C89.3416 32.2748 90.0172 30.6142 89.9976 30.5236ZM92.1806 31.9864C92.0149 31.8337 90.8358 30.8103 90.5645 30.6695C90.3058 30.8139 89.7333 32.3006 89.6896 32.6622C89.6968 32.6653 92.1401 32.0146 92.1806 31.9864ZM97.7089 50.5458C97.8979 50.1206 97.9387 47.4404 97.1413 47.9515C96.755 48.1992 96.5352 48.823 96.4183 49.2667C96.3274 49.6116 96.4004 49.3088 97.7089 50.5458ZM86.222 34.4686C86.474 32.1548 86.5863 32.2901 86.5026 32.1578C86.2713 32.1759 84.8403 33.3833 84.6621 33.7916C86.2028 34.5086 85.9323 34.396 86.222 34.4686ZM92.7142 49.8073C91.9496 47.2647 90.5257 48.8187 91.8518 51.1195C92.285 50.2722 92.0514 50.6108 92.7142 49.8073ZM95.2412 31.8714C95.3085 31.1893 94.1768 30.4024 93.7114 30.2502C93.5603 30.4098 93.1661 31.6949 93.1812 31.8758C93.7015 31.9424 93.3021 31.7826 95.2412 31.8714ZM13.6651 126.719C14.5805 125.384 14.4896 125.691 14.6447 125.421C14.5223 125.055 13.0705 124.592 12.571 124.552C12.5271 124.661 13.54 126.537 13.6651 126.719ZM26.7134 110.107C26.7134 110.107 27.8012 110.686 28.7993 111.476C28.9525 111.006 28.9503 109.822 28.8614 109.577C26.7037 110.063 26.9018 110.001 26.7134 110.107ZM93.2055 30.0669C92.6601 29.9331 91.2504 30.1274 90.91 30.2965C92.4871 31.6299 92.5432 31.684 92.6609 31.6689C92.7937 31.4355 93.0447 30.6993 93.2055 30.0669ZM104.373 47.6695C104.408 47.9659 104.339 48.2418 104.384 48.5283C106.853 48.2596 107.714 45.5552 104.373 47.6695ZM95.865 49.2769C96.1899 46.7907 94.8459 46.4596 94.6642 49.0861C94.7511 49.1532 94.993 49.1291 95.865 49.2769ZM94.2125 49.141C93.0341 45.0405 92.6699 49.0615 93.1801 49.4969C94.2228 49.1731 94.1187 49.2183 94.2125 49.141ZM74.9673 78.9016C75.2153 78.7211 75.4055 78.4685 75.6365 78.2608C75.8768 78.0446 76.1618 77.8802 76.3926 77.6354C75.0933 75.688 74.2419 78.4031 74.9673 78.9016ZM46.4553 96.3455C46.2816 93.993 44.4612 95.6148 44.5447 96.5831C45.1654 96.4239 45.7867 96.352 46.4553 96.3455ZM69.2381 106.942C67.6894 108.087 67.8124 107.794 67.6533 108.036C67.9214 108.306 68.7872 108.599 69.2707 108.438C69.8715 108.238 69.6296 107.435 69.2381 106.942ZM84.5894 34.2698C84.5483 34.6675 84.6523 36.3453 84.843 36.5217C85.2041 35.9335 86.0561 34.9385 86.0653 34.9181C84.6073 34.2357 84.8599 34.3425 84.5894 34.2698ZM105.937 44.5091C105.839 44.8099 105.947 45.2059 105.469 46.0969C105.173 46.6498 105.13 46.6425 105.203 46.7049C106.369 46.4003 106.077 46.445 106.825 46.5072C106.812 45.8506 106.413 44.9493 105.937 44.5091ZM84.1335 34.4404C83.7504 34.7046 83.1001 36.1542 83.1318 36.5473C84.1291 36.6654 84.1862 36.6995 84.3703 36.6136L84.1335 34.4404ZM47.0843 96.3761C48.6606 96.686 48.4036 96.7335 48.7001 96.7293C49.003 96.2103 48.8184 95.2469 48.0696 95.4696C47.6457 95.5957 47.2571 95.973 47.0843 96.3761ZM78.4821 76.7251C78.4472 76.0351 77.6541 75.325 77.1481 76.1552C77.0081 76.3847 76.7665 77.1974 76.9969 77.2999C77.8931 76.9162 77.5081 77.0655 78.4821 76.7251ZM69.7013 106.488C70.258 106.797 71.6404 106.63 71.3093 105.786C71.1878 105.477 70.9737 105.256 70.6475 105.141C69.6708 106.467 69.7513 106.335 69.7013 106.488ZM103.071 44.9231C103.979 43.7742 104.488 43.5573 104.488 43.5573C104.172 43.3384 102.782 43.1791 102.506 43.4459C102.87 43.9188 102.87 43.9188 103.071 44.9231ZM41.9083 97.9116C40.656 96.3521 40.0871 98.3493 40.7665 99.0728L41.9083 97.9116ZM73.5339 81.5152C72.9579 81.2905 71.9236 81.4448 72.4784 82.3945C72.6339 82.6607 72.9516 83.0092 73.2389 83.1208C73.3169 83.0592 73.5654 81.6747 73.5339 81.5152ZM64.7278 108.714C63.2326 108.656 63.3786 108.583 63.1432 108.616C63.1208 108.908 63.5315 109.629 64.0657 109.837C64.5575 110.028 64.8187 109.226 64.7278 108.714ZM78.9664 76.6148C79.096 76.5999 80.2517 76.4791 80.3294 76.438C80.3542 76.0085 80.1892 75.5519 80.0349 75.3594C79.6084 74.8281 78.9947 75.835 78.9664 76.6148ZM70.8882 104.718C71.8041 104.862 72.9467 104.387 72.1238 103.772C71.6423 103.412 71.3988 103.449 71.3007 103.445C70.8484 104.704 70.9043 104.514 70.8882 104.718ZM49.1734 96.9106C49.3057 97.0486 50.1651 97.5313 50.3688 97.5607C51.586 95.728 49.6975 96.0021 49.1734 96.9106ZM73.7972 80.8029C74.0069 80.5223 74.4739 79.6483 74.5467 79.4252C72.9908 78.4646 72.972 80.0548 73.7972 80.8029ZM43.8942 96.7832C43.1945 94.824 42.0724 96.8475 42.524 97.4588C42.7239 97.4292 42.5663 97.393 43.8942 96.7832ZM65.5022 108.705C66.3516 109.952 67.6235 109.672 67.0172 108.29C65.4872 108.648 65.5955 108.597 65.5022 108.705ZM105.711 29.4545C105.83 29.3717 107.255 27.8541 107.263 27.7345C106.943 27.317 105.508 28.661 105.305 29.071C105.417 29.2247 105.55 29.342 105.711 29.4545ZM82.4182 76.7102C82.7782 75.4424 81.0535 75.2783 80.901 76.4855C82.4056 76.7456 82.2712 76.7366 82.4182 76.7102ZM71.5687 101.332C71.4666 102.849 71.427 102.619 71.4577 102.874C72.8786 102.845 72.7536 101.267 71.5687 101.332ZM51.9408 98.968C52.8918 98.0501 51.6905 97.0499 50.8277 97.9147C50.8382 97.9685 51.7952 98.9204 51.9408 98.968ZM103.6 50.2934C103.944 50.3548 105.866 49.1638 105.223 49.0242C104.895 48.9531 104.503 49.0298 104.218 49.0373C103.673 50.1929 103.665 50.0875 103.6 50.2934ZM85.5381 78.2162C85.9625 77.5799 85.9303 76.1955 84.6502 77.4075C84.6029 77.4523 84.5836 77.5265 84.5545 77.5818C84.7873 77.7965 85.34 78.1502 85.5381 78.2162ZM53.6368 102.038C55.2503 101 54.063 100.437 53.1907 100.908C53.2106 101.042 53.1823 100.955 53.6368 102.038ZM70.8546 97.9118C70.9598 98.2125 71.2007 98.9636 71.2924 99.0611C72.2943 98.7823 72.6528 97.5705 70.8546 97.9118ZM84.0325 77.3055C84.2743 76.9226 84.2035 75.9534 83.7651 76.0943C83.4144 76.207 83.0611 76.6037 82.9444 76.8551C83.1316 76.9922 83.7514 77.2475 84.0325 77.3055ZM71.4001 99.6109C71.3896 99.7381 71.5116 100.67 71.5808 100.803C73.4438 100.226 72.2054 99.358 71.4001 99.6109ZM52.2739 99.3783C52.3054 99.5335 52.236 99.4021 52.9112 100.405C53.2199 100.262 53.4929 99.843 53.5601 99.5556C53.6827 99.031 52.7566 99.1394 52.2739 99.3783ZM53.9986 103.564C56.2054 102.756 54.6996 102.253 53.7995 102.616L53.9986 103.564ZM86.6313 79.2237C87.1752 78.4569 87.3782 78.276 87.2367 78.0765C87.0407 77.8 86.3533 78.1774 86.0236 78.6283C86.1871 78.8593 86.3971 79.0196 86.6313 79.2237ZM62.5183 108.497C62.2044 108.332 61.738 108.187 61.5043 108.174C61.4303 108.489 61.5103 108.951 61.6797 109.178C61.9909 109.595 62.4395 108.951 62.5183 108.497ZM40.3934 99.5938C40.1378 99.3632 39.7549 99.2702 39.5465 99.2875C39.0155 99.3316 39.4078 100.183 39.8494 100.501C40.0517 100.215 40.2142 99.9063 40.3934 99.5938ZM73.2681 83.7744C71.6892 83.6555 72.3048 84.8222 73.3385 84.8294C73.3328 84.4654 73.2992 84.1304 73.2681 83.7744ZM70.621 97.3748C71.3397 97.0385 71.8534 96.1758 71.183 96.323C70.1813 96.5429 70.268 96.5352 70.1994 96.6068C70.2994 96.8695 70.4453 97.1145 70.621 97.3748ZM84.1555 38.131C84.212 38.0407 84.5065 37.192 84.505 37.0855C83.1738 36.9174 83.3718 36.927 83.167 36.9755C83.3815 37.3182 83.9461 37.9775 84.1555 38.131ZM63.9561 99.215C63.8521 98.565 63.0165 97.9245 62.7121 98.8085C63.0166 98.981 63.2475 99.2074 63.4089 99.5072C63.6141 99.4472 63.7785 99.3527 63.9561 99.215ZM59.2105 106.805C59.0535 106.591 58.5511 106.129 58.3505 106.014C57.733 106.762 58.3976 107.732 59.2105 106.805ZM39.5342 101.149C38.4139 100.848 38.3416 101.855 39.1515 102.322C39.2513 102.14 39.514 101.326 39.5342 101.149ZM39.0203 103.026C37.7152 102.838 37.9681 104.087 38.921 104.17C39.0352 103.094 39.0279 103.238 39.0203 103.026ZM74.1021 87.3694C73.0803 87.7618 73.5258 88.8617 74.657 88.3813L74.1021 87.3694ZM74.3434 77.4257C74.0685 77.5493 73.3904 78.4159 73.3318 78.6906C74.3521 78.6745 74.1293 78.8111 74.3711 78.752C74.3028 77.9167 74.3097 78.2629 74.3434 77.4257ZM67.4121 109.659C67.88 109.591 68.6523 109.235 68.9002 108.988C68.8484 108.962 67.6679 108.647 67.608 108.646C67.6057 108.992 67.6084 109.32 67.4121 109.659ZM59.8227 107.221C59.5333 107.742 59.8538 108.668 60.5392 108.177C60.6622 108.089 60.8041 108.014 60.8591 107.835L59.8227 107.221ZM43.3313 95.4546C44.189 96.0323 43.9246 96.007 44.1496 96.0936C44.5483 95.3487 44.855 95.0156 44.8557 94.9686C44.3445 95.0101 43.6063 95.2456 43.3313 95.4546ZM73.82 86.7181C73.4773 85.5224 73.5263 85.6606 73.4444 85.5255C72.4482 85.8255 72.7399 86.802 73.82 86.7181ZM76.8223 75.7457C76.5269 75.7489 75.5818 76.2912 75.5154 76.4638C76.4142 76.9297 76.3347 76.9105 76.4365 76.8803C76.6178 76.178 76.5171 76.4735 76.8223 75.7457ZM47.8831 95.0005C47.5915 94.8543 46.6733 94.7685 46.3711 94.8348L46.8762 95.7516C47.4736 95.2211 47.2055 95.4239 47.8831 95.0005ZM92.3146 70.0083C92.0612 69.6735 90.9535 69.5447 91.1988 70.4619C91.6863 70.4756 91.4737 70.4477 92.0279 70.5531C92.1769 70.3896 92.2363 70.2056 92.3146 70.0083ZM100.936 44.0465C100.49 44.2493 99.7692 44.8374 99.7461 45.0426C100.167 45.274 100.008 45.1305 100.395 45.5781C100.441 45.511 100.52 45.065 100.936 44.0465ZM71.2011 106.969C70.0468 107.2 70.1566 106.996 69.919 107.11C70.1306 107.838 70.1263 108.06 70.1574 108.089C70.4763 107.887 70.9254 107.413 71.2011 106.969ZM73.2049 80.9502C73.2102 80.9328 72.7548 79.7626 72.7391 79.7533C72.5731 80.0277 72.2833 80.7682 72.2931 81.0889L73.2049 80.9502ZM65.2376 109.167C64.9183 110.067 64.8848 109.895 64.8856 110.068C65.3161 110.126 65.9431 110.07 66.2832 109.941C66.0798 109.744 66.2088 109.971 65.2376 109.167ZM41.9725 97.266C42.189 96.0049 42.2868 96.1317 42.2266 96.0121C41.8712 96.1489 41.3177 96.5654 41.1278 96.8353L41.9725 97.266ZM105.863 49.0204C106.375 48.772 106.652 48.3898 106.684 47.8761C106.028 48.3752 106.32 48.1785 105.574 48.6273L105.863 49.0204ZM75.5356 89.5785C75.3842 89.3077 75.1937 89.0977 74.9892 88.8895C74.4478 89.1834 74.5606 89.985 75.5356 89.5785ZM38.9194 104.774C38.0531 104.819 38.1198 105.505 38.9747 105.652C38.9901 105.352 38.9494 105.079 38.9194 104.774ZM57.4442 104.825C56.7931 105.757 57.561 105.962 57.9723 105.534C57.82 105.287 57.6512 105.069 57.4442 104.825ZM82.3503 75.2822C82.7615 75.7512 82.6107 75.5356 82.9164 76.0792C83.1255 75.9031 83.3494 75.7937 83.5338 75.6143C83.3097 75.4968 82.7051 75.258 82.3503 75.2822ZM72.9666 101.802C73.0053 101.585 73.0818 100.62 72.9006 100.522L72.3373 101.004C72.5837 101.22 72.8171 101.429 72.9666 101.802ZM51.2457 96.4456C51.1397 97.0359 51.1113 97.06 51.164 97.1672C52.0968 97.098 51.8677 97.209 52.1204 97.164C51.8624 96.872 51.5867 96.6666 51.2457 96.4456ZM72.7227 103.651C72.8693 103.349 72.9492 102.864 72.9108 102.574L72.2181 103.22C72.3535 103.388 72.5413 103.512 72.7227 103.651ZM80.3964 75.0335C80.5499 75.2632 80.6005 75.4759 80.7376 75.6765C81.4629 75.0772 81.4676 75.2864 81.5411 75.1008C81.1738 75.0367 80.831 74.9904 80.3964 75.0335ZM49.3421 96.0739C49.5767 95.9418 49.8214 95.8878 50.0187 95.7153C49.6005 95.4653 49.3783 95.3756 49.0948 95.3426L49.3421 96.0739ZM79.0217 75.1198C78.5167 75.1321 78.238 75.1986 78.0366 75.347L78.6241 75.7711C78.788 75.5732 78.8863 75.3615 79.0217 75.1198ZM72.0282 83.5625C72.1624 83.6293 72.5581 83.3839 72.6508 83.3097L72.0656 82.6477C71.972 82.9793 72.0062 83.2742 72.0282 83.5625ZM40.141 98.891L40.037 97.9849C39.8908 98.095 39.4603 98.6234 39.5158 98.798L40.141 98.891ZM72.2947 105.039C72.0321 105.056 71.811 105.146 71.5631 105.219C71.5726 105.24 71.8762 105.92 71.8928 105.935C72.0714 105.644 72.2311 105.378 72.2947 105.039ZM63.3291 109.934L62.7957 109.164C62.6323 109.339 62.4887 109.492 62.3605 109.684C62.654 109.833 62.9515 109.869 63.3291 109.934ZM72.215 84.9123C72.2096 85.0744 72.2796 85.7306 72.4639 85.7244C72.8856 85.2794 72.764 85.4178 72.8753 85.2316L72.215 84.9123ZM60.3806 108.796C60.6489 109.02 60.8318 109.115 61.1325 109.182C61.1058 108.939 61.0433 108.712 60.9867 108.458C60.767 108.568 60.5677 108.664 60.3806 108.796ZM56.8525 103.856C56.0949 104.426 56.7303 104.822 57.1389 104.339L56.8525 103.856ZM53.7732 100.277C54.034 100.277 54.2346 100.363 54.4796 100.34C54.3616 100.075 54.2837 99.8248 54.0613 99.6312L53.7732 100.277ZM39.0612 106.213C38.8094 106.257 38.5684 106.304 38.3962 106.545C38.6477 106.746 38.9057 106.737 39.1871 106.676C39.1778 106.503 39.1546 106.354 39.0612 106.213ZM38.5707 100.766C38.8045 100.697 39.0276 100.694 39.2417 100.577C38.8783 99.9691 38.9213 100.006 38.8382 99.9934C38.7045 100.219 38.6023 100.462 38.5707 100.766ZM72.1721 99.1446C72.7595 99.4355 72.5899 99.3598 72.7798 99.4086C72.7789 99.1181 72.7073 98.8717 72.5912 98.5988C72.1474 99.125 72.2417 99.0007 72.1721 99.1446ZM84.662 76.7031C84.8885 76.6447 85.0684 76.5228 85.2759 76.446C85.0623 76.2154 84.7664 76.0662 84.5501 76.0802L84.662 76.7031ZM76.2667 90.2683C76.148 90.1478 76.0765 90.034 75.9106 89.9823C75.7582 90.1462 75.5794 90.3 75.5774 90.602C75.8472 90.564 76.0566 90.4681 76.2667 90.2683ZM86.2355 77.0178L86.2322 77.774C86.4429 77.6605 86.6378 77.613 86.8262 77.4894C86.6724 77.2858 86.4869 77.1655 86.2355 77.0178ZM71.9251 96.8426C71.5726 97.2869 71.5306 97.3061 71.5929 97.3978L72.2051 97.5256C72.1783 97.263 72.0727 97.0665 71.9251 96.8426ZM54.9076 101.395C54.7574 101.619 54.6199 101.777 54.5105 101.991C54.7267 102.053 54.9157 102.104 55.137 102.096C55.1026 101.857 55.0342 101.655 54.9076 101.395ZM38.6675 102.561C38.5013 102.36 38.3993 102.183 38.2314 102.024C38.1233 102.257 38.0844 102.471 38.1181 102.728L38.6675 102.561ZM72.8961 86.9978C72.9009 87.2641 73.0092 87.4862 73.1959 87.6098C73.2874 87.4761 73.4243 87.3734 73.472 87.1939C73.2871 87.0923 73.0977 87.0344 72.8961 86.9978ZM58.7454 107.6C58.95 107.881 59.0594 107.966 59.3027 108.04L59.2575 107.417C59.0639 107.423 58.93 107.532 58.7454 107.6ZM74.1772 89.2396C74.2664 89.1552 74.3064 89.0748 74.2524 88.9469L73.9815 88.9458C73.9852 89.0938 74.0594 89.1641 74.1772 89.2396ZM38.0324 104.64C38.1538 104.598 38.2589 104.569 38.2729 104.439C38.2099 104.355 38.1396 104.3 38.0361 104.283C37.9744 104.403 37.9846 104.506 38.0324 104.64ZM57.6405 106.486C57.7199 106.399 57.7472 106.307 57.7008 106.2C57.5952 106.159 57.5113 106.178 57.4296 106.234C57.4631 106.363 57.5169 106.449 57.6405 106.486ZM74.9472 90.1237C74.9738 90.4222 75.2885 90.3795 75.1812 90.1195L74.9472 90.1237ZM56.1033 103.992C56.3911 103.795 56.1799 103.622 56.0081 103.756L56.1033 103.992ZM38.1809 106.092L38.4182 105.928C38.3068 105.874 38.2645 105.77 38.128 105.838L38.1809 106.092ZM56.531 105.03L56.737 105.286L56.8277 105.008L56.531 105.03ZM56.6365 103.323C56.6135 103.267 56.5258 103.253 56.4159 103.344C56.4893 103.415 56.5809 103.405 56.6365 103.323ZM103.24 50.9512C103.101 50.9265 103.019 50.9616 103.049 51.1271C103.166 51.0418 103.119 51.0889 103.24 50.9512ZM71.4511 95.9073L71.4131 95.8368C71.3888 95.8555 71.3626 95.8725 71.3423 95.8949C71.3791 95.9668 71.3783 95.9432 71.4511 95.9073Z" fill="#E0B15A"/>
<path d="M58.0235 75.2614C58.2571 74.5664 58.94 73.143 59.0386 73.87C59.118 74.4547 56.5238 77.1369 59.7534 81.8327C60.8901 83.4853 56.5758 80.5446 58.0235 75.2614Z" fill="#E0B15A"/>
<path d="M52.4735 77.1869C53.3794 77.3706 59.4699 85.5091 58.1453 84.4947C57.9069 84.3121 52.6545 77.6365 52.4735 77.1869Z" fill="#E0B15A"/>
<path d="M55.3083 84.243C54.3855 84.1022 52.8574 82.1154 49.7176 81.8563C49.0555 81.8018 48.6642 81.9221 48.2903 81.7698C49.2384 80.6846 54.3543 82.3605 55.3083 84.243Z" fill="#E0B15A"/>
<path d="M119.877 55.7661C119.505 57.2578 117.337 56.6224 117.659 55.2699C118.01 53.803 120.256 54.2444 119.877 55.7661ZM119.043 54.8562C118.169 54.481 117.676 55.8553 118.52 56.1934C119.364 56.5313 119.917 55.2312 119.043 54.8562Z" fill="#E0B15A"/>
<path d="M119.793 68.3413C118.498 67.9225 119.111 65.7738 120.544 66.2205C121.961 66.6622 121.324 68.8365 119.793 68.3413ZM120.876 67.5341C121.163 66.6714 119.869 66.2024 119.561 67.0829C119.273 67.9029 120.57 68.4532 120.876 67.5341Z" fill="#E0B15A"/>
<path d="M111.491 77.023C110.175 76.5822 110.891 74.7367 112.12 75.1592C113.353 75.5835 112.741 77.4423 111.491 77.023ZM111.976 75.5608C111.238 75.323 110.956 76.4572 111.612 76.6677C112.341 76.9016 112.705 75.7958 111.976 75.5608Z" fill="#E0B15A"/>
<path d="M106.74 14.9974C105.676 14.6897 106.24 12.9629 107.351 13.3747C108.416 13.769 107.867 15.3924 106.74 14.9974ZM106.642 14.0512C106.443 14.6236 107.302 14.9343 107.486 14.3505C107.66 13.7996 106.835 13.4972 106.642 14.0512Z" fill="#E0B15A"/>
<path d="M95.4546 14.6481C94.4092 14.289 94.9435 12.7131 95.9777 13.0494C97.0446 13.3963 96.4653 14.9951 95.4546 14.6481ZM95.6183 14.2245C96.1754 14.3947 96.3287 13.5899 95.8336 13.4628C95.3398 13.3362 95.1069 14.0684 95.6183 14.2245Z" fill="#E0B15A"/>
<path d="M96.8581 71.5413C96.5351 72.5797 95.0112 71.9995 95.3351 71.0744C95.6838 70.0782 97.1666 70.5497 96.8581 71.5413ZM95.9777 71.701C96.4722 71.8671 96.732 71.1322 96.242 70.9534C95.7409 70.7705 95.5099 71.5438 95.9777 71.701Z" fill="#E0B15A"/>
<path d="M45.7893 80.9817C46.1607 80.0163 47.5987 80.6271 47.2062 81.5358C46.7619 82.5645 45.4421 81.8839 45.7893 80.9817ZM46.6137 80.9241C46.1759 80.7951 45.9588 81.4561 46.3989 81.5869C46.9076 81.7382 47.0431 81.0506 46.6137 80.9241Z" fill="#E0B15A"/>
<path d="M50.5124 75.3822C49.5749 75.0712 49.9948 73.6587 50.9375 73.9532C51.8976 74.2531 51.355 75.6619 50.5124 75.3822ZM50.8379 74.3689C50.4621 74.2411 50.2504 74.8022 50.6313 74.9338C51.0712 75.0858 51.2072 74.4945 50.8379 74.3689Z" fill="#E0B15A"/>
<path d="M83.078 87.6104C84.0322 87.9422 83.4607 89.3281 82.6023 89.0455C81.6446 88.7303 82.1069 87.2728 83.078 87.6104ZM83.1834 88.4542C83.3477 88.0059 82.6938 87.7338 82.5067 88.1692C82.3132 88.6194 83.0303 88.8717 83.1834 88.4542Z" fill="#E0B15A"/>
<path d="M76.3554 120.465C76.6505 119.545 78.0155 119.995 77.7452 120.885C77.4653 121.807 76.0518 121.412 76.3554 120.465ZM76.9918 120.986C77.3979 121.108 77.5348 120.512 77.1583 120.386C76.7651 120.254 76.5493 120.853 76.9918 120.986Z" fill="#E0B15A"/>
<path d="M59.4071 123.94C58.9866 124.912 57.8425 124.298 58.1009 123.514C58.3886 122.641 59.6864 123.096 59.4071 123.94ZM59.0102 123.81C59.1083 123.503 58.6305 123.327 58.5191 123.644C58.4029 123.975 58.9175 124.1 59.0102 123.81Z" fill="#E0B15A"/>
<path d="M46.099 115.117C46.7928 115.341 46.7023 116.316 46.0083 116.433C44.8014 116.637 45.0221 114.77 46.099 115.117ZM45.8798 116.081C46.1796 116.169 46.3587 115.611 45.9576 115.515C45.5887 115.426 45.4863 115.965 45.8798 116.081Z" fill="#E0B15A"/>
<path d="M59.6195 70.7753C60.5228 71.0605 60.0317 72.356 59.2317 72.1056C58.3508 71.8299 58.7347 70.496 59.6195 70.7753ZM59.3345 71.6785C59.756 71.8185 59.8636 71.2481 59.5129 71.1572C59.1692 71.068 59.0106 71.5708 59.3345 71.6785Z" fill="#E0B15A"/>
<path d="M87.5729 100.539C88.4007 100.805 88.0889 102.121 87.1858 101.841C86.3168 101.572 86.7156 100.263 87.5729 100.539ZM87.467 100.935C87.1491 100.836 86.9739 101.315 87.297 101.417C87.5892 101.508 87.8195 101.045 87.467 100.935Z" fill="#E0B15A"/>
<path d="M85.0775 26.2389C85.9808 26.5401 85.4682 27.8503 84.6469 27.5617C83.7862 27.2592 84.2072 25.9486 85.0775 26.2389ZM84.9979 26.5266C84.5409 26.3871 84.3287 27.0633 84.7506 27.2184C85.2551 27.4038 85.478 26.6731 84.9979 26.5266Z" fill="#E0B15A"/>
<path d="M110.025 28.5801C109.959 28.0208 113.676 27.3632 116.437 30.0819C118.166 31.7843 118.487 34.723 118.223 34.8934C117.841 34.1573 117.595 29.1057 112.18 28.4767C110.605 28.2939 110.398 28.6996 110.025 28.5801Z" fill="#E0B15A"/>
<path d="M114.296 26.0978C115.966 25.1412 120.489 27.9129 120.763 31.9232C120.788 32.2885 120.803 33.1844 120.633 32.8472C120.291 32.1685 120.395 29.0361 117.052 26.9665C115.574 26.0517 114.763 26.3813 114.296 26.0978Z" fill="#E0B15A"/>
<path d="M94.6322 40.0724C94.5477 40.5423 93.7656 40.8092 93.4742 40.2608C92.7408 38.8805 95.198 38.6446 94.6322 40.0724ZM94.2643 39.8774C94.3539 39.4651 93.9963 39.434 93.855 39.8015C93.771 40.02 94.1498 40.186 94.2643 39.8774Z" fill="#E0B15A"/>
<path d="M90.9928 40.9714C90.7134 41.9021 89.4109 41.4452 89.6476 40.5689C89.8877 39.6799 91.268 40.0549 90.9928 40.9714ZM90.6268 40.8414C90.7369 40.4638 90.1337 40.3198 90.046 40.7033C89.9582 41.0866 90.5302 41.1727 90.6268 40.8414Z" fill="#E0B15A"/>
<path d="M99.8269 29.2976C100.015 28.6866 100.722 28.7885 100.866 29.2608C101.095 30.0174 99.7027 30.4165 99.8269 29.2976Z" fill="#E0B15A"/>
<path d="M97.0219 29.3484C97.7638 29.5942 97.3042 30.6184 96.66 30.3999C96.0708 30.2001 96.2775 29.1017 97.0219 29.3484Z" fill="#E0B15A"/>
<path d="M103.572 29.9301C104.22 30.1192 103.887 31.074 103.263 30.8683C102.662 30.6696 102.943 29.7464 103.572 29.9301Z" fill="#E0B15A"/>
</svg>
