<svg width="32" height="32" viewBox="0 0 32 32" fill="none" xmlns="http://www.w3.org/2000/svg">
<path d="M9.33326 28C8.59992 28 7.97237 27.7391 7.45059 27.2173C6.92881 26.6956 6.66748 26.0676 6.66659 25.3333V8C6.28881 8 5.97237 7.872 5.71726 7.616C5.46215 7.36 5.33415 7.04356 5.33326 6.66667C5.33237 6.28978 5.46037 5.97333 5.71726 5.71733C5.97415 5.46133 6.29059 5.33333 6.66659 5.33333H11.9999C11.9999 4.95556 12.1279 4.63911 12.3839 4.384C12.6399 4.12889 12.9564 4.00089 13.3333 4H18.6666C19.0444 4 19.3613 4.128 19.6173 4.384C19.8733 4.64 20.0008 4.95644 19.9999 5.33333H25.3333C25.711 5.33333 26.0279 5.46133 26.2839 5.71733C26.5399 5.97333 26.6675 6.28978 26.6666 6.66667C26.6657 7.04356 26.5377 7.36044 26.2826 7.61733C26.0275 7.87422 25.711 8.00178 25.3333 8V25.3333C25.3333 26.0667 25.0724 26.6947 24.5506 27.2173C24.0288 27.74 23.4008 28.0009 22.6666 28H9.33326ZM22.6666 8H9.33326V25.3333H22.6666V8ZM13.3333 22.6667C13.711 22.6667 14.0279 22.5387 14.2839 22.2827C14.5399 22.0267 14.6675 21.7102 14.6666 21.3333V12C14.6666 11.6222 14.5386 11.3058 14.2826 11.0507C14.0266 10.7956 13.7101 10.6676 13.3333 10.6667C12.9564 10.6658 12.6399 10.7938 12.3839 11.0507C12.1279 11.3076 11.9999 11.624 11.9999 12V21.3333C11.9999 21.7111 12.1279 22.028 12.3839 22.284C12.6399 22.54 12.9564 22.6676 13.3333 22.6667ZM18.6666 22.6667C19.0444 22.6667 19.3613 22.5387 19.6173 22.2827C19.8733 22.0267 20.0008 21.7102 19.9999 21.3333V12C19.9999 11.6222 19.8719 11.3058 19.6159 11.0507C19.3599 10.7956 19.0435 10.6676 18.6666 10.6667C18.2897 10.6658 17.9733 10.7938 17.7173 11.0507C17.4613 11.3076 17.3333 11.624 17.3333 12V21.3333C17.3333 21.7111 17.4613 22.028 17.7173 22.284C17.9733 22.54 18.2897 22.6676 18.6666 22.6667Z" fill="#A70600"/>
</svg>
