<svg width="144" height="144" viewBox="0 0 144 144" fill="none" xmlns="http://www.w3.org/2000/svg">
<path d="M10.575 0L0 10.575L20.475 31.05H15C13.0109 31.05 11.1032 31.8402 9.6967 33.2467C8.29018 34.6532 7.5 36.5609 7.5 38.55V113.55C7.5 115.539 8.29018 117.447 9.6967 118.853C11.1032 120.26 13.0109 121.05 15 121.05H105C106.575 121.05 107.925 120.45 109.125 119.7L132.975 143.55L143.55 132.975L77.1 66.525L10.575 0ZM22.5 106.05V46.05H35.475L95.475 106.05H22.5ZM97.5 46.05V65.625L142.5 110.625V34.8L112.5 64.8V38.55C112.5 36.5609 111.71 34.6532 110.303 33.2467C108.897 31.8402 106.989 31.05 105 31.05H62.925L77.925 46.05H97.5Z" fill="#521913"/>
</svg>
