<svg width="119" height="149" viewBox="0 0 119 149" fill="none" xmlns="http://www.w3.org/2000/svg">
<path d="M105.734 74.474C105.734 79.7262 104.859 84.7829 103.257 89.495L95.6769 81.9147C96.1742 79.4657 96.4238 76.9729 96.4219 74.474V65.1615C96.4219 63.9266 96.9124 62.7422 97.7857 61.869C98.6589 60.9958 99.8432 60.5052 101.078 60.5052C102.313 60.5052 103.497 60.9958 104.371 61.869C105.244 62.7422 105.734 63.9266 105.734 65.1615V74.474ZM59.1719 111.724C66.7895 111.724 73.867 109.442 79.7711 105.513L86.4575 112.208C79.8041 117.018 71.9971 119.984 63.8281 120.804V139.661H91.7656C93.0005 139.661 94.1849 140.152 95.0581 141.025C95.9313 141.898 96.4219 143.083 96.4219 144.318C96.4219 145.553 95.9313 146.737 95.0581 147.61C94.1849 148.483 93.0005 148.974 91.7656 148.974H26.5781C25.3432 148.974 24.1589 148.483 23.2857 147.61C22.4124 146.737 21.9219 145.553 21.9219 144.318C21.9219 143.083 22.4124 141.898 23.2857 141.025C24.1589 140.152 25.3432 139.661 26.5781 139.661H54.5156V120.804C43.0304 119.649 32.3833 114.27 24.64 105.709C16.8967 97.1488 12.6092 86.0171 12.6094 74.474V65.1615C12.6094 63.9266 13.0999 62.7422 13.9732 61.869C14.8464 60.9958 16.0307 60.5052 17.2656 60.5052C18.5005 60.5052 19.6849 60.9958 20.5581 61.869C21.4313 62.7422 21.9219 63.9266 21.9219 65.1615V74.474C21.9219 84.3533 25.8464 93.828 32.8321 100.814C39.8179 107.799 49.2926 111.724 59.1719 111.724ZM87.1094 27.9115V73.3472L77.7969 64.0347V27.9115C77.8184 23.0528 75.9404 18.378 72.5635 14.8845C69.1867 11.3911 64.5783 9.3555 59.7217 9.21212C54.865 9.06874 50.1446 10.8289 46.5676 14.1171C42.9905 17.4052 40.84 21.9611 40.5748 26.8126L32.7057 18.9435C34.8378 12.6785 39.1239 7.37328 44.8011 3.97244C50.4784 0.571606 57.1782 -0.704188 63.708 0.372186C70.2378 1.44856 76.1737 4.80725 80.459 9.85032C84.7444 14.8934 87.101 21.2936 87.1094 27.9115Z" fill="#521913"/>
<path d="M73.01 98.7501L66.0443 91.7843C63.219 92.906 60.1622 93.3191 57.1406 92.9876C54.119 92.6562 51.2244 91.5901 48.7095 89.8827C46.1947 88.1752 44.136 85.8781 42.7131 83.1919C41.2902 80.5058 40.5464 77.5122 40.5466 74.4724V66.296L31.2341 56.9835V74.4724C31.2327 79.3644 32.5158 84.1711 34.9552 88.4115C37.3945 92.6519 40.9046 96.1775 45.1343 98.6355C49.3639 101.094 54.1648 102.398 59.0568 102.418C63.9488 102.438 68.7603 101.173 73.01 98.7501ZM0 12.5815L111.75 124.332L118.343 117.738L6.59325 5.98828L0 12.5815Z" fill="#521913"/>
</svg>
