<svg width="24" height="24" viewBox="0 0 24 24" fill="none" xmlns="http://www.w3.org/2000/svg">
<path d="M19 22H16C15.7167 22 15.4793 21.904 15.288 21.712C15.0967 21.52 15.0007 21.2827 15 21C14.9993 20.7173 15.0953 20.48 15.288 20.288C15.4807 20.096 15.718 20 16 20H19V10H5V13C5 13.2833 4.904 13.521 4.712 13.713C4.52 13.905 4.28267 14.0007 4 14C3.71734 13.9993 3.48 13.9033 3.288 13.712C3.096 13.5207 3 13.2833 3 13V6C3 5.45 3.196 4.97934 3.588 4.588C3.98 4.19667 4.45067 4.00067 5 4H6V3C6 2.71667 6.096 2.47934 6.288 2.288C6.48 2.09667 6.71734 2.00067 7 2C7.28267 1.99934 7.52034 2.09534 7.713 2.288C7.90567 2.48067 8.00134 2.718 8 3V4H16V3C16 2.71667 16.096 2.47934 16.288 2.288C16.48 2.09667 16.7173 2.00067 17 2C17.2827 1.99934 17.5203 2.09534 17.713 2.288C17.9057 2.48067 18.0013 2.718 18 3V4H19C19.55 4 20.021 4.196 20.413 4.588C20.805 4.98 21.0007 5.45067 21 6V20C21 20.55 20.8043 21.021 20.413 21.413C20.0217 21.805 19.5507 22.0007 19 22ZM9.175 20H2C1.71667 20 1.47934 19.904 1.288 19.712C1.09667 19.52 1.00067 19.2827 1 19C0.999337 18.7173 1.09534 18.48 1.288 18.288C1.48067 18.096 1.718 18 2 18H9.175L7.3 16.1C7.11667 15.9167 7.021 15.6877 7.013 15.413C7.005 15.1383 7.10067 14.9007 7.3 14.7C7.48334 14.5167 7.71667 14.425 8 14.425C8.28334 14.425 8.51667 14.5167 8.7 14.7L12.3 18.3C12.5 18.5 12.6 18.7333 12.6 19C12.6 19.2667 12.5 19.5 12.3 19.7L8.7 23.3C8.51667 23.4833 8.28767 23.5793 8.013 23.588C7.73834 23.5967 7.50067 23.5007 7.3 23.3C7.11667 23.1167 7.025 22.8833 7.025 22.6C7.025 22.3167 7.11667 22.0833 7.3 21.9L9.175 20Z" fill="#D4A017"/>
</svg>
