<svg width="67" height="57" viewBox="0 0 67 57" fill="none" xmlns="http://www.w3.org/2000/svg">
<path d="M19.4165 48.9987C15.6283 48.7537 12.0288 47.5071 9.13196 45.4368C6.23517 43.3664 4.18923 40.5783 3.28627 37.4704C2.38331 34.3626 2.6695 31.094 4.10399 28.1312C5.53847 25.1685 8.0479 22.6632 11.274 20.9731C11.9604 16.4659 14.5737 12.3237 18.6248 9.32183C22.6759 6.31995 27.8872 4.66406 33.2834 4.66406C38.6796 4.66406 43.8908 6.31995 47.9419 9.32183C51.993 12.3237 54.6063 16.4659 55.2928 20.9731C58.5188 22.6632 61.0283 25.1685 62.4627 28.1312C63.8972 31.094 64.1834 34.3626 63.2805 37.4704C62.3775 40.5783 60.3316 43.3664 57.4348 45.4368C54.538 47.5071 50.9385 48.7537 47.1502 48.9987V49.043H19.4165V48.9987ZM36.0567 30.3593H44.3768L33.2834 18.682L22.1899 30.3593H30.51V39.7012H36.0567V30.3593Z" fill="#999999"/>
</svg>
