<svg width="67" height="57" viewBox="0 0 67 57" fill="none" xmlns="http://www.w3.org/2000/svg">
<path d="M21.6388 45.964C18.5351 45.7653 15.5859 44.754 13.2126 43.0746C10.8392 41.3952 9.16297 39.1334 8.42316 36.6124C7.68336 34.0913 7.91785 31.4398 9.09313 29.0365C10.2684 26.6331 12.3244 24.6008 14.9675 23.2298C15.5299 19.5736 17.671 16.2135 20.9901 13.7784C24.3092 11.3432 28.5789 10 33 10C37.4211 10 41.6908 11.3432 45.0099 13.7784C48.329 16.2135 50.4701 19.5736 51.0325 23.2298C53.6756 24.6008 55.7316 26.6331 56.9069 29.0365C58.0821 31.4398 58.3166 34.0913 57.5768 36.6124C56.837 39.1334 55.1608 41.3952 52.7874 43.0746C50.4141 44.754 47.4649 45.7653 44.3612 45.964V46H21.6388V45.964ZM35.2722 30.8439H42.0889L33 21.3713L23.9111 30.8439H30.7278V38.4219H35.2722V30.8439Z" fill="#D4A017"/>
</svg>
