<svg width="27" height="27" viewBox="0 0 27 27" fill="none" xmlns="http://www.w3.org/2000/svg">
<path d="M19.8947 6.62274e-09C20.9821 -6.05677e-05 22.0285 0.415409 22.8196 1.1614C23.6108 1.9074 24.087 2.92752 24.1508 4.01305L24.1579 4.26316V18.4737H25.2237C26.1431 18.4737 26.9005 19.1728 26.9915 20.0681L27 20.25V22.7368C27.0001 23.8242 26.5846 24.8706 25.8386 25.6617C25.0926 26.4529 24.0725 26.9291 22.9869 26.9929L22.7368 27H8.52632C7.43891 27.0001 6.39258 26.5846 5.60142 25.8386C4.81025 25.0926 4.33406 24.0725 4.27026 22.9869L4.26316 22.7368V8.52632H1.77632C1.33656 8.52652 0.912361 8.36359 0.585807 8.06906C0.259252 7.77453 0.0535574 7.36934 0.00852638 6.93189L6.62274e-09 6.75V4.26316C-6.05677e-05 3.17575 0.415409 2.12943 1.1614 1.33826C1.9074 0.547095 2.92752 0.0708998 4.01305 0.00710543L4.26316 6.62274e-09H19.8947ZM24.1579 21.3158H11.3684V22.7368C11.3684 23.2342 11.2832 23.7131 11.1268 24.1579H22.7368C23.1137 24.1579 23.4752 24.0082 23.7417 23.7417C24.0082 23.4752 24.1579 23.1137 24.1579 22.7368V21.3158ZM14.2105 12.7895H11.3684C11.0062 12.7899 10.6578 12.9286 10.3945 13.1772C10.1311 13.4258 9.97261 13.7657 9.95139 14.1272C9.93016 14.4888 10.0478 14.8449 10.2803 15.1226C10.5127 15.4004 10.8425 15.5789 11.2022 15.6216L11.3684 15.6316H14.2105C14.5727 15.6312 14.9211 15.4925 15.1845 15.2438C15.4478 14.9952 15.6063 14.6554 15.6276 14.2938C15.6488 13.9322 15.5311 13.5762 15.2987 13.2984C15.0662 13.0207 14.7365 12.8422 14.3768 12.7994L14.2105 12.7895ZM17.0526 7.10526H11.3684C10.9915 7.10526 10.6301 7.25498 10.3636 7.52148C10.0971 7.78798 9.94737 8.14943 9.94737 8.52632C9.94737 8.9032 10.0971 9.26465 10.3636 9.53115C10.6301 9.79765 10.9915 9.94737 11.3684 9.94737H17.0526C17.4295 9.94737 17.791 9.79765 18.0575 9.53115C18.324 9.26465 18.4737 8.9032 18.4737 8.52632C18.4737 8.14943 18.324 7.78798 18.0575 7.52148C17.791 7.25498 17.4295 7.10526 17.0526 7.10526ZM4.26316 2.84211C3.88627 2.84211 3.52482 2.99182 3.25832 3.25832C2.99182 3.52482 2.84211 3.88627 2.84211 4.26316V5.68421H4.26316V2.84211Z" fill="#DD8E56"/>
</svg>
