<svg width="30" height="30" viewBox="0 0 30 30" fill="none" xmlns="http://www.w3.org/2000/svg">
<path d="M20.4118 26.7783C20.4118 28.5567 18.6423 29.9995 16.4598 29.9995H13.247C11.0649 29.9995 9.29541 28.5567 9.29541 26.7783V14.1333C9.29541 12.3544 11.0649 10.9102 13.247 10.9102H16.4598C18.6418 10.9102 20.4118 12.3544 20.4118 14.1333V26.7783Z" fill="#F28F20"/>
<path d="M11.9476 26.7783V14.1333C11.9476 12.3544 13.7171 10.9102 15.8992 10.9102H13.2475C11.0654 10.9102 9.2959 12.3544 9.2959 14.1333V26.7783C9.2959 28.5567 11.0654 29.9995 13.2475 29.9995H15.8992C13.7171 29.9995 11.9476 28.5567 11.9476 26.7783Z" fill="#F3A252"/>
<path d="M19.9813 13.8025C19.9813 15.1277 17.6854 16.2006 14.8532 16.2006C12.022 16.2006 9.7251 15.1272 9.7251 13.8025C9.7251 12.4797 12.0215 11.4062 14.8532 11.4062C17.6845 11.4067 19.9813 12.4797 19.9813 13.8025Z" fill="#A85F27"/>
<path d="M18.2735 9.24545C18.0012 8.28076 17.367 7.37045 16.7032 6.54732C16.2124 5.94029 15.6987 5.43357 15.4334 4.72764C15.1104 3.86654 15.5792 2.71201 15.5721 1.82092C15.5721 1.7792 15.5632 1.74264 15.5581 1.70467C15.5993 1.32498 15.5618 0.921385 15.416 0.48076C15.1395 -0.362052 13.5082 -0.00439586 13.7871 0.841229C14.6074 3.33592 10.1065 4.83029 9.76385 7.28279C9.39495 9.9317 11.6726 12.8342 14.6782 13.9062C15.1817 14.0853 15.6504 13.8715 15.859 13.5701C18.0781 12.7311 18.8196 11.1903 18.2735 9.24451" fill="#D7B628"/>
<path d="M13.4426 7.28902C13.587 6.25402 14.472 5.38964 15.3856 4.54824C15.1817 3.71246 15.5782 2.65917 15.5721 1.82855C15.5721 1.78683 15.5632 1.74933 15.5581 1.7123C15.5993 1.33449 15.5618 0.929956 15.416 0.488393C15.1395 -0.354419 13.5082 0.00417453 13.7871 0.847456C14.6074 3.34449 10.1065 4.83699 9.76385 7.28902C9.39495 9.9398 11.6726 12.8418 14.6782 13.9125C15.1817 14.0925 15.6504 13.8778 15.859 13.5773C16.175 13.4573 16.4804 13.3111 16.7721 13.1404C14.5971 11.7721 13.1407 9.44667 13.4426 7.28667" fill="#FFDD15"/>
<path d="M15.432 14.9331C15.477 13.9909 15.1877 13.0646 15.0949 12.1262C15.064 11.8173 14.2399 11.8173 14.2709 12.1262C14.3651 13.0637 14.6524 13.9914 14.6088 14.9331C14.5934 15.2434 15.4165 15.2434 15.432 14.9331Z" fill="#1F2E35"/>
<path d="M8.77462 13.7506C7.95712 15.6777 8.2168 17.2855 8.67384 19.273C8.98837 20.6427 8.96821 21.7058 8.36399 22.9935C8.06165 23.6333 8.09868 24.327 8.27962 24.9856C8.55946 26.0084 10.149 25.5734 9.8668 24.5474C9.66759 23.818 10.1584 23.1238 10.3773 22.4689C10.5906 21.8277 10.5877 20.9445 10.5352 20.2789C10.3791 18.2788 9.34509 16.5852 10.1963 14.5803C10.6056 13.6152 9.18852 12.7752 8.77602 13.7506" fill="#C37029"/>
<path d="M9.05955 14.7497C9.66424 16.178 9.5283 17.408 9.41018 18.9019C9.31924 20.0428 9.72986 21.2883 9.22315 22.3706C8.7769 23.326 10.1967 24.1627 10.6463 23.2017C11.2931 21.8166 11.0471 20.3846 11.0569 18.9014C11.0681 17.0217 11.2388 15.7074 10.4813 13.9172C10.0688 12.9436 8.6508 13.7841 9.06096 14.7497" fill="#C37029"/>
<path d="M9.68216 15.078C10.1734 15.6832 10.6431 16.2625 10.8822 17.0139C11.1484 17.8539 10.952 18.8936 11.0322 19.7655C11.1297 20.8113 12.6311 20.8408 12.6798 19.7655C12.707 19.1632 12.67 18.5552 12.7736 17.9575C12.8598 17.4569 13.2761 17.0271 13.4176 16.5269C13.7083 15.5032 12.1197 15.0696 11.8314 16.0891C11.649 16.7271 11.2445 17.1738 11.1283 17.8567C11.019 18.4844 11.0612 19.1327 11.0322 19.7655H12.6798C12.5809 18.7005 12.6901 17.6289 12.4684 16.5761C12.2542 15.5552 11.4826 14.6964 10.8461 13.9136C10.1772 13.0896 9.01888 14.2624 9.68216 15.078Z" fill="#C37029"/>
<path d="M13.0302 16.8927C13.7605 17.7229 13.2458 19.432 13.2275 20.4276H14.8743C14.8789 19.2149 15.6763 18.1532 15.2835 16.9148C14.9647 15.9079 13.3747 16.3387 13.6963 17.354C13.9916 18.2873 13.2313 19.4474 13.2275 20.4276C13.2238 21.4912 14.855 21.4884 14.8743 20.4276C14.9043 18.8198 15.3678 17.0634 14.1941 15.7312C13.4914 14.9329 12.3308 16.102 13.0302 16.8951M19.0757 13.9499C19.3649 16.0495 20.1678 18.0196 20.5574 20.0999C20.8072 21.4326 20.293 22.1512 19.843 23.3385C19.4933 24.2662 19.5219 25.0485 19.595 26.0277L21.2122 25.8079C20.1392 23.2396 22.116 21.2277 21.6519 18.7298C21.4466 17.639 20.5255 17.1346 20.6043 15.9079C20.6563 15.0585 20.3952 14.5115 19.7361 14.0085C18.8905 13.3654 18.0721 14.797 18.9041 15.4288C19.0714 15.5563 19.0124 17.1763 19.1493 17.4881C19.6808 18.7026 20.3333 19.2581 19.8524 20.7266C19.2364 22.5979 18.8324 24.3491 19.6236 26.2443C19.9499 27.0262 21.3168 27.0356 21.2413 26.0254C21.1475 24.7518 21.4194 23.9966 21.89 22.8206C22.2121 22.0166 22.3283 21.2981 22.2678 20.4341C22.1005 18.0716 20.9858 15.8549 20.6624 13.5112C20.5185 12.464 18.9327 12.9112 19.0757 13.9499Z" fill="#C37029"/>
<path d="M18.5188 14.0261C17.8944 14.6111 17.2218 15.0761 16.798 15.8392C16.364 16.6206 16.6701 17.5225 16.4413 18.3419L17.9455 18.144C17.5668 17.4137 17.8222 16.6492 17.2044 15.9958C16.423 15.1689 14.8607 15.4586 13.8857 15.625C12.8408 15.8054 13.2843 17.3926 14.3226 17.2126C14.6371 17.1606 16.0513 16.869 16.109 17.3462C16.1802 17.9359 16.2444 18.4384 16.5233 18.9756C16.8585 19.6234 17.8424 19.4383 18.0276 18.7787C18.2183 18.1009 18.0913 17.4306 18.2057 16.75C18.313 16.1125 19.2458 15.5992 19.6813 15.1904C20.4576 14.4625 19.2913 13.3014 18.5174 14.0261" fill="#C37029"/>
</svg>
