<svg width="34" height="36" viewBox="0 0 34 36" fill="none" xmlns="http://www.w3.org/2000/svg">
<path fill-rule="evenodd" clip-rule="evenodd" d="M33.961 13.4512H0.958832V33.1157C0.958832 33.8837 1.27269 34.5815 1.77941 35.0883C2.28614 35.595 2.98399 35.9088 3.75196 35.9088H31.168C31.9359 35.9088 32.6338 35.595 33.1405 35.0883C33.6472 34.5815 33.9611 33.8837 33.9611 33.1157L33.961 13.4512ZM22.685 19.6074C23.9825 20.9049 24.7855 22.6987 24.7855 24.6801C24.7855 26.6616 23.9825 28.4552 22.685 29.7528C21.3875 31.0504 19.5938 31.8534 17.6123 31.8534C15.6309 31.8534 13.8372 31.0503 12.5396 29.7528C11.2421 28.4553 10.4391 26.6616 10.4391 24.6801C10.4391 22.6987 11.2421 20.905 12.5396 19.6074C13.8371 18.3099 15.6309 17.5069 17.6123 17.5069C19.5938 17.5069 21.3874 18.3099 22.685 19.6074ZM17.6123 16.6056C19.8426 16.6056 21.8608 17.5104 23.3233 18.971C24.7856 20.4333 25.6886 22.4514 25.6886 24.6819C25.6886 26.9124 24.7838 28.9304 23.3233 30.3929C21.8627 31.8552 19.8428 32.7582 17.6123 32.7582C15.3818 32.7582 13.3639 31.8534 11.9014 30.3929C10.439 28.9305 9.53604 26.9124 9.53604 24.6819C9.53604 22.4514 10.4408 20.4335 11.9014 18.971C13.3619 17.5084 15.3818 16.6056 17.6123 16.6056ZM18.2698 26.0826C18.261 26.0879 18.254 26.0914 18.247 26.0966L15.8431 27.4835V21.8763L18.2698 23.2772V23.279L20.6982 24.6817L18.2698 26.0844L18.2698 26.0826ZM21.8187 25.0726L18.7204 26.8611C18.7117 26.8664 18.7047 26.8699 18.6959 26.8752L15.6169 28.6531C15.4012 28.7758 15.1277 28.7022 15.005 28.4883C14.9646 28.4181 14.9454 28.341 14.9454 28.2656H14.9436V21.1012C14.9436 20.8522 15.1452 20.6506 15.3942 20.6506C15.4924 20.6506 15.5818 20.6821 15.6555 20.733L18.7204 22.5021L18.7222 22.5039V22.5021L21.8257 24.2941C22.0413 24.4186 22.1132 24.6939 21.9887 24.9078C21.9467 24.9797 21.8888 25.0358 21.8204 25.0744L21.8187 25.0726ZM25.3202 0.651498L28.7902 5.19091L31.0485 4.60352L30.2998 1.72268C30.2928 1.70339 30.2875 1.6841 30.284 1.66306C30.1245 1.07392 29.7405 0.602253 29.2495 0.312957C28.7603 0.0254025 28.1624 -0.0798035 27.5733 0.0639736C27.5557 0.0709872 27.5364 0.0744942 27.5172 0.0780007L25.3184 0.64959L25.3202 0.651498ZM19.6671 2.11907L24.3749 0.895189L27.8449 5.4346L23.1371 6.65848L19.6671 2.11907ZM14.0141 3.58665L17.4841 8.12606L22.1918 6.90217L18.7218 2.36276L14.0141 3.58665ZM8.36104 5.05423L13.0688 3.83034L16.5388 8.36975L11.831 9.59364L8.36104 5.05423ZM5.23476 11.307L1.76478 6.76756L1.72445 6.77808C1.70165 6.78685 1.67886 6.79211 1.65431 6.79561C1.06867 6.95693 0.598752 7.33915 0.312958 7.82662C0.0253988 8.3158 -0.0798027 8.91198 0.0639745 9.50112C0.070988 9.52392 0.0780018 9.54671 0.0815084 9.57126L0.828471 12.4503L5.233 11.3054L5.23476 11.307ZM2.70812 6.52203L6.1781 11.0614L10.8858 9.83755L7.41585 5.29814L2.70812 6.52203Z" fill="#D4A017"/>
</svg>
