<svg width="54" height="42" viewBox="0 0 54 42" fill="none" xmlns="http://www.w3.org/2000/svg">
<rect x="1" y="1" width="52" height="40" rx="11" fill="white"/>
<rect x="1" y="1" width="52" height="40" rx="11" stroke="#C4BFBF" stroke-width="2"/>
<path d="M23.25 21C23.25 20.7033 23.162 20.4133 22.9972 20.1666C22.8324 19.92 22.5981 19.7277 22.324 19.6142C22.0499 19.5006 21.7483 19.4709 21.4574 19.5288C21.1664 19.5867 20.8991 19.7296 20.6893 19.9393C20.4796 20.1491 20.3367 20.4164 20.2788 20.7074C20.2209 20.9983 20.2506 21.2999 20.3642 21.574C20.4777 21.8481 20.67 22.0824 20.9166 22.2472C21.1633 22.412 21.4533 22.5 21.75 22.5C22.1478 22.5 22.5294 22.342 22.8107 22.0607C23.092 21.7794 23.25 21.3978 23.25 21ZM30.75 21C30.75 21.2967 30.838 21.5867 31.0028 21.8334C31.1676 22.08 31.4019 22.2723 31.676 22.3858C31.9501 22.4993 32.2517 22.5291 32.5426 22.4712C32.8336 22.4133 33.1009 22.2704 33.3107 22.0607C33.5204 21.8509 33.6633 21.5836 33.7212 21.2926C33.7791 21.0017 33.7494 20.7001 33.6358 20.426C33.5223 20.1519 33.33 19.9176 33.0834 19.7528C32.8367 19.588 32.5467 19.5 32.25 19.5C31.8522 19.5 31.4706 19.658 31.1893 19.9393C30.908 20.2206 30.75 20.6022 30.75 21ZM25.5 21C25.5 21.2967 25.588 21.5867 25.7528 21.8334C25.9176 22.08 26.1519 22.2723 26.426 22.3858C26.7001 22.4993 27.0017 22.5291 27.2926 22.4712C27.5836 22.4133 27.8509 22.2704 28.0607 22.0607C28.2704 21.8509 28.4133 21.5836 28.4712 21.2926C28.5291 21.0017 28.4994 20.7001 28.3858 20.426C28.2723 20.1519 28.08 19.9176 27.8334 19.7528C27.5867 19.588 27.2967 19.5 27 19.5C26.6022 19.5 26.2206 19.658 25.9393 19.9393C25.658 20.2206 25.5 20.6022 25.5 21Z" fill="#4B5A5A"/>
</svg>
