<svg width="23" height="23" viewBox="0 0 23 23" fill="none" xmlns="http://www.w3.org/2000/svg">
<circle cx="11.5" cy="11.5" r="11" fill="#DDB346" stroke="#F9F3E4"/>
<g clip-path="url(#clip0_2294_2831)">
<path d="M12.0742 7.72764C12.21 7.59189 12.3942 7.51562 12.5862 7.51562C12.7782 7.51562 12.9624 7.59189 13.0982 7.72764L16.3568 10.9863C16.4925 11.1221 16.5688 11.3062 16.5688 11.4982C16.5688 11.6902 16.4925 11.8744 16.3568 12.0102L13.0982 15.2688C12.9616 15.4007 12.7787 15.4737 12.5888 15.4721C12.3989 15.4704 12.2173 15.3943 12.0831 15.26C11.9488 15.1257 11.8726 14.9441 11.871 14.7542C11.8693 14.5644 11.9423 14.3815 12.0742 14.2449L14.0345 12.2224H7.15517C6.96311 12.2224 6.77893 12.1461 6.64313 12.0103C6.50732 11.8745 6.43103 11.6903 6.43103 11.4982C6.43103 11.3062 6.50732 11.122 6.64313 10.9862C6.77893 10.8504 6.96311 10.7741 7.15517 10.7741H14.0345L12.0742 8.75157C11.9385 8.61578 11.8622 8.43162 11.8622 8.23961C11.8622 8.04759 11.9385 7.86344 12.0742 7.72764Z" fill="#F9F3E4"/>
</g>
<defs>
<clipPath id="clip0_2294_2831">
<rect width="10.8621" height="10.8621" fill="white" transform="translate(6.06897 6.07031)"/>
</clipPath>
</defs>
</svg>
