<svg width="32" height="32" viewBox="0 0 32 32" fill="none" xmlns="http://www.w3.org/2000/svg">
<path fill-rule="evenodd" clip-rule="evenodd" d="M27.3735 6.03963C27.5502 5.85007 27.6463 5.59934 27.6418 5.34027C27.6372 5.0812 27.5323 4.83402 27.349 4.6508C27.1658 4.46759 26.9186 4.36264 26.6596 4.35807C26.4005 4.35349 26.1498 4.44966 25.9602 4.6263L4.62687 25.9596C4.52862 26.0512 4.44982 26.1616 4.39516 26.2842C4.34051 26.4069 4.31112 26.5393 4.30875 26.6736C4.30638 26.8079 4.33108 26.9412 4.38137 27.0658C4.43167 27.1903 4.50653 27.3034 4.60149 27.3983C4.69645 27.4933 4.80956 27.5682 4.93407 27.6185C5.05859 27.6688 5.19196 27.6935 5.32624 27.6911C5.46051 27.6887 5.59292 27.6593 5.71559 27.6047C5.83825 27.55 5.94866 27.4712 6.04021 27.373L9.8362 23.577C11.6589 24.4356 13.7562 24.9996 16.0002 24.9996C19.5789 24.9996 22.7869 23.5636 25.0935 21.793C26.2495 20.9063 27.2042 19.917 27.8789 18.945C28.5349 17.9996 29.0002 16.9636 29.0002 15.9996C29.0002 15.0356 28.5335 13.9996 27.8789 13.0543C27.2042 12.0823 26.2495 11.0943 25.0949 10.2063C24.7446 9.93697 24.3749 9.67785 23.9855 9.42897L27.3735 6.03963ZM22.5335 10.881L20.1722 13.2423C20.8088 14.2038 21.0935 15.3558 20.9781 16.5032C20.8626 17.6506 20.3542 18.7228 19.5387 19.5382C18.7233 20.3536 17.6511 20.8621 16.5038 20.9775C15.3564 21.093 14.2044 20.8083 13.2429 20.1716L11.3535 22.0596C12.8276 22.6689 14.4053 22.9881 16.0002 22.9996C19.0495 22.9996 21.8402 21.769 23.8762 20.2063C24.8922 19.4263 25.6949 18.5823 26.2362 17.805C26.7949 16.9996 27.0002 16.369 27.0002 15.9996C27.0002 15.6303 26.7949 14.9996 26.2362 14.1943C25.6949 13.417 24.8922 12.573 23.8762 11.793C23.4584 11.4721 23.0118 11.1681 22.5335 10.881ZM14.7055 18.7076C15.2654 18.975 15.8943 19.0622 16.5057 18.9573C17.1172 18.8524 17.6811 18.5605 18.1198 18.1218C18.5584 17.6832 18.8503 17.1193 18.9552 16.5078C19.0601 15.8964 18.9729 15.2674 18.7055 14.7076L14.7055 18.7076Z" fill="black"/>
<path d="M16 7C17.376 7 18.6987 7.21333 19.9347 7.57467C19.9888 7.59081 20.0377 7.62082 20.0767 7.66172C20.1156 7.70262 20.1432 7.75299 20.1567 7.80783C20.1701 7.86268 20.1691 7.92009 20.1535 7.97438C20.1379 8.02867 20.1085 8.07795 20.068 8.11733L18.9693 9.21733C18.9289 9.25823 18.8785 9.28796 18.8231 9.30361C18.7677 9.31927 18.7092 9.32032 18.6533 9.30667C17.7831 9.10603 16.8931 9.00317 16 9C12.9507 9 10.16 10.2307 8.124 11.7933C7.108 12.5733 6.30533 13.4173 5.764 14.1947C5.20533 15 5 15.6307 5 16C5 16.3693 5.20533 17 5.764 17.8053C6.236 18.4853 6.908 19.2147 7.748 19.908C7.90267 20.0347 7.91733 20.268 7.77467 20.4107L6.83067 21.356C6.77285 21.4146 6.69509 21.4494 6.61283 21.4533C6.53057 21.4573 6.44984 21.4302 6.38667 21.3773C5.52802 20.6697 4.76635 19.852 4.12133 18.9453C3.46667 18 3 16.964 3 16C3 15.036 3.46667 14 4.12133 13.0547C4.796 12.0827 5.75067 11.0947 6.90533 10.2067C9.21333 8.436 12.4213 7 16 7Z" fill="black"/>
<path d="M16.0006 11C16.1588 11 16.3148 11.0071 16.4686 11.0213C16.7313 11.0467 16.826 11.36 16.6406 11.5467L15.0233 13.1627C14.5928 13.3119 14.2018 13.5568 13.8796 13.879C13.5574 14.2012 13.3125 14.5922 13.1633 15.0227L11.5473 16.64C11.3606 16.8267 11.0473 16.7307 11.022 16.468C10.9568 15.7749 11.0371 15.0759 11.2577 14.4157C11.4782 13.7554 11.8343 13.1485 12.3029 12.6338C12.7716 12.119 13.3426 11.7079 13.9793 11.4265C14.616 11.1452 15.3045 10.9999 16.0006 11Z" fill="black"/>
</svg>
