<svg width="50" height="51" viewBox="0 0 50 51" fill="none" xmlns="http://www.w3.org/2000/svg">
<g clip-path="url(#clip0_908_456)">
<path d="M1.06738 24.8934C1.06621 29.1271 2.17246 33.2611 4.27598 36.9049L0.866211 49.3545L13.6068 46.0139C17.1307 47.9322 21.079 48.9374 25.0912 48.9377H25.1018C38.3469 48.9377 49.1287 38.1598 49.1344 24.9123C49.1369 18.493 46.6393 12.4566 42.1014 7.91523C37.5643 3.37422 31.5301 0.87207 25.1008 0.869141C11.8541 0.869141 1.07305 11.6465 1.06758 24.8934" fill="url(#paint0_linear_908_456)"/>
<path d="M0.208984 24.8859C0.207617 29.2721 1.35352 33.5539 3.53203 37.3281L0 50.224L13.1975 46.7637C16.8338 48.7463 20.9279 49.7916 25.0939 49.7932H25.1047C38.825 49.7932 49.9941 38.6275 50 24.9059C50.0023 18.2559 47.4148 12.0025 42.7148 7.29844C38.0143 2.59492 31.7643 0.00273438 25.1047 0C11.382 0 0.214453 11.1641 0.208984 24.8859ZM8.06855 36.6781L7.57578 35.8959C5.5043 32.6021 4.41094 28.7959 4.4125 24.8875C4.4168 13.4822 13.6988 4.20312 25.1125 4.20312C30.6398 4.20547 35.8344 6.36016 39.7414 10.2695C43.6482 14.1793 45.798 19.3766 45.7967 24.9043C45.7916 36.3096 36.5094 45.5898 25.1047 45.5898H25.0965C21.383 45.5879 17.741 44.5906 14.5648 42.7061L13.809 42.2578L5.97734 44.3111L8.06855 36.6781Z" fill="url(#paint1_linear_908_456)"/>
<path d="M18.8828 14.4819C18.4168 13.4461 17.9264 13.4252 17.4832 13.4071C17.1203 13.3914 16.7055 13.3926 16.291 13.3926C15.8762 13.3926 15.2021 13.5487 14.6324 14.1707C14.0621 14.7934 12.4551 16.2981 12.4551 19.3584C12.4551 22.4188 14.6842 25.3766 14.9949 25.792C15.3061 26.2067 19.2982 32.6879 25.6209 35.1813C30.8756 37.2533 31.9449 36.8412 33.0854 36.7373C34.226 36.6338 36.7658 35.233 37.284 33.7805C37.8025 32.3281 37.8025 31.0832 37.6471 30.8231C37.4916 30.5639 37.0768 30.4082 36.4547 30.0973C35.8326 29.7863 32.7742 28.2813 32.2041 28.0737C31.6338 27.8662 31.2191 27.7627 30.8043 28.3856C30.3895 29.0074 29.1982 30.4082 28.8352 30.8231C28.4725 31.2389 28.1094 31.2906 27.4875 30.9795C26.865 30.6674 24.8617 30.0113 22.485 27.8924C20.6357 26.2436 19.3873 24.2074 19.0244 23.5846C18.6615 22.9627 18.9855 22.6256 19.2975 22.3156C19.577 22.0369 19.9197 21.5893 20.2311 21.2262C20.5412 20.8629 20.6447 20.6037 20.8521 20.1889C21.0598 19.7737 20.9559 19.4104 20.8006 19.0992C20.6447 18.7881 19.4359 15.7117 18.8828 14.4819Z" fill="white"/>
</g>
<defs>
<linearGradient id="paint0_linear_908_456" x1="2414.27" y1="4849.4" x2="2414.27" y2="0.869141" gradientUnits="userSpaceOnUse">
<stop stop-color="#1FAF38"/>
<stop offset="1" stop-color="#60D669"/>
</linearGradient>
<linearGradient id="paint1_linear_908_456" x1="2500" y1="5022.4" x2="2500" y2="0" gradientUnits="userSpaceOnUse">
<stop stop-color="#F9F9F9"/>
<stop offset="1" stop-color="white"/>
</linearGradient>
<clipPath id="clip0_908_456">
<rect width="50" height="50.3906" fill="white"/>
</clipPath>
</defs>
</svg>
