<svg width="40" height="40" viewBox="0 0 40 40" fill="none" xmlns="http://www.w3.org/2000/svg">
<path d="M23.2669 24L24.6741 27.3848C24.6741 27.3848 31 28.8873 31 32.461C31 35 28.1856 35 28.1856 35H20.6903L17 32.7068" fill="#9E6336"/>
<path d="M23.2669 24L24.6741 27.3848C24.6741 27.3848 31 28.8873 31 32.461C31 35 28.1856 35 28.1856 35H20.6903L17 32.7068" stroke="#9E6336" stroke-width="2.1" stroke-linecap="round"/>
<path d="M18.123 23L16.4648 26.6925C16.4648 26.6925 9 28.3316 9 32.2302C9 35 12.3203 35 12.3203 35H16.3255L20.679 32.4983L26 28.996" fill="#9E6336"/>
<path d="M18.123 23L16.4648 26.6925C16.4648 26.6925 9 28.3316 9 32.2302C9 35 12.3203 35 12.3203 35H16.3255L20.679 32.4983L26 28.996" stroke="#9E6336" stroke-width="2.1" stroke-linecap="round"/>
<path d="M5 26.5433C5 26.5433 8.57167 25.775 10.715 25.0067C12.8567 14.2433 19.2833 15.0117 20 15.0117C20.7167 15.0117 27.1433 14.2433 29.285 25.0067C31.4283 25.7733 35 26.5433 35 26.5433M20 11.6667C20.8841 11.6667 21.7319 11.3155 22.357 10.6904C22.9821 10.0652 23.3333 9.21739 23.3333 8.33333C23.3333 7.44928 22.9821 6.60143 22.357 5.97631C21.7319 5.35119 20.8841 5 20 5C19.1159 5 18.2681 5.35119 17.643 5.97631C17.0179 6.60143 16.6667 7.44928 16.6667 8.33333C16.6667 9.21739 17.0179 10.0652 17.643 10.6904C18.2681 11.3155 19.1159 11.6667 20 11.6667Z" fill="#9E6336"/>
<path d="M5 26.5433C5 26.5433 8.57167 25.775 10.715 25.0067C12.8567 14.2433 19.2833 15.0117 20 15.0117C20.7167 15.0117 27.1433 14.2433 29.285 25.0067C31.4283 25.7733 35 26.5433 35 26.5433M20 11.6667C20.8841 11.6667 21.7319 11.3155 22.357 10.6904C22.9821 10.0652 23.3333 9.21739 23.3333 8.33333C23.3333 7.44928 22.9821 6.60143 22.357 5.97631C21.7319 5.35119 20.8841 5 20 5C19.1159 5 18.2681 5.35119 17.643 5.97631C17.0179 6.60143 16.6667 7.44928 16.6667 8.33333C16.6667 9.21739 17.0179 10.0652 17.643 10.6904C18.2681 11.3155 19.1159 11.6667 20 11.6667Z" stroke="#9E6336" stroke-width="2.3" stroke-linecap="round"/>
</svg>
